<svg width="2657" height="2556" viewBox="0 0 2657 2556" fill="none" xmlns="http://www.w3.org/2000/svg">
<path d="M1425.47 2116.4C1425.47 2124.42 1423.09 2132.26 1418.63 2138.93C1414.18 2145.6 1407.84 2150.8 1400.43 2153.87C1393.02 2156.93 1384.86 2157.73 1376.99 2156.16C1369.13 2154.59 1361.9 2150.73 1356.23 2145.05C1350.56 2139.37 1346.71 2132.14 1345.15 2124.27C1343.59 2116.4 1344.4 2108.25 1347.48 2100.84C1350.56 2093.43 1355.77 2087.11 1362.44 2082.66C1369.12 2078.21 1376.96 2075.84 1384.98 2075.85C1395.73 2075.87 1406.03 2080.15 1413.62 2087.75C1421.21 2095.35 1425.47 2105.66 1425.47 2116.4V2116.4Z" fill="white"/>
<path d="M2197.39 1386.73C2197.4 1394.76 2195.03 1402.6 2190.58 1409.28C2186.13 1415.96 2179.8 1421.16 2172.39 1424.24C2164.98 1427.32 2156.82 1428.13 2148.95 1426.56C2141.08 1425 2133.85 1421.14 2128.17 1415.46C2122.5 1409.79 2118.64 1402.56 2117.08 1394.69C2115.51 1386.82 2116.32 1378.66 2119.4 1371.25C2122.47 1363.84 2127.68 1357.5 2134.36 1353.05C2141.03 1348.6 2148.88 1346.23 2156.9 1346.25C2167.64 1346.25 2177.94 1350.51 2185.53 1358.1C2193.13 1365.7 2197.39 1376 2197.39 1386.73V1386.73Z" fill="white"/>
<path d="M2577.14 929.831C2577.14 937.85 2574.77 945.69 2570.31 952.357C2565.85 959.025 2559.52 964.222 2552.11 967.291C2544.7 970.36 2536.55 971.163 2528.69 969.599C2520.82 968.034 2513.6 964.172 2507.93 958.502C2502.26 952.831 2498.39 945.606 2496.83 937.741C2495.26 929.876 2496.07 921.723 2499.14 914.314C2502.21 906.905 2507.4 900.573 2514.07 896.117C2520.74 891.662 2528.58 889.284 2536.6 889.284C2541.92 889.276 2547.2 890.32 2552.12 892.355C2557.05 894.39 2561.52 897.376 2565.28 901.143C2569.05 904.909 2572.04 909.382 2574.07 914.305C2576.11 919.228 2577.15 924.504 2577.14 929.831V929.831Z" fill="white"/>
<path d="M2136.66 971.849C2136.66 979.868 2134.28 987.708 2129.83 994.375C2125.37 1001.04 2119.04 1006.24 2111.63 1009.31C2104.22 1012.38 2096.07 1013.18 2088.2 1011.62C2080.34 1010.05 2073.11 1006.19 2067.44 1000.52C2061.77 994.849 2057.91 987.624 2056.35 979.759C2054.78 971.894 2055.58 963.741 2058.65 956.332C2061.72 948.923 2066.92 942.591 2073.59 938.135C2080.25 933.68 2088.09 931.302 2096.11 931.302C2106.87 931.302 2117.18 935.574 2124.78 943.178C2132.39 950.782 2136.66 961.095 2136.66 971.849V971.849Z" fill="white"/>
<path d="M1794.51 422.377C1794.53 430.399 1792.16 438.244 1787.71 444.92C1783.26 451.596 1776.93 456.802 1769.52 459.88C1762.12 462.958 1753.96 463.769 1746.09 462.211C1738.22 460.653 1730.99 456.796 1725.32 451.128C1719.64 445.46 1715.77 438.235 1714.2 430.368C1712.63 422.501 1713.43 414.346 1716.5 406.933C1719.57 399.521 1724.76 393.185 1731.43 388.727C1738.1 384.269 1745.94 381.889 1753.97 381.889C1759.29 381.882 1764.56 382.923 1769.48 384.954C1774.4 386.986 1778.87 389.967 1782.63 393.727C1786.4 397.488 1789.39 401.954 1791.43 406.87C1793.46 411.786 1794.51 417.055 1794.51 422.377V422.377Z" fill="white"/>
<path d="M1520.98 207.697C1521 215.719 1518.63 223.564 1514.18 230.24C1509.73 236.915 1503.4 242.121 1495.99 245.199C1488.59 248.277 1480.43 249.089 1472.56 247.531C1464.69 245.973 1457.46 242.116 1451.79 236.447C1446.11 230.779 1442.24 223.555 1440.67 215.688C1439.1 207.821 1439.9 199.665 1442.97 192.253C1446.04 184.84 1451.23 178.504 1457.9 174.046C1464.57 169.588 1472.41 167.209 1480.44 167.209C1485.76 167.201 1491.03 168.243 1495.95 170.274C1500.87 172.305 1505.34 175.286 1509.1 179.047C1512.87 182.807 1515.86 187.273 1517.9 192.189C1519.93 197.105 1520.98 202.375 1520.98 207.697V207.697Z" fill="white"/>
<path d="M764.953 740.22C764.953 748.242 762.574 756.084 758.116 762.753C753.658 769.422 747.322 774.619 739.909 777.686C732.497 780.753 724.341 781.553 716.474 779.983C708.607 778.414 701.383 774.547 695.714 768.87C690.046 763.194 686.189 755.963 684.631 748.094C683.073 740.225 683.885 732.07 686.963 724.663C690.041 717.255 695.247 710.926 701.922 706.478C708.598 702.03 716.443 699.661 724.465 699.673C729.787 699.673 735.057 700.722 739.973 702.761C744.889 704.799 749.355 707.787 753.115 711.553C756.876 715.319 759.857 719.789 761.888 724.708C763.919 729.627 764.961 734.898 764.953 740.22V740.22Z" fill="white"/>
<path d="M696.335 1268.86C696.347 1276.88 693.977 1284.73 689.526 1291.41C685.075 1298.08 678.743 1303.29 671.332 1306.37C663.921 1309.44 655.763 1310.25 647.892 1308.69C640.021 1307.13 632.791 1303.26 627.117 1297.59C621.443 1291.91 617.58 1284.68 616.017 1276.81C614.455 1268.94 615.263 1260.79 618.339 1253.37C621.415 1245.96 626.621 1239.63 633.298 1235.18C639.975 1230.73 647.822 1228.36 655.847 1228.37C666.58 1228.39 676.869 1232.66 684.459 1240.25C692.049 1247.84 696.319 1258.13 696.335 1268.86V1268.86Z" fill="white"/>
<path d="M778.547 1585.23C778.547 1593.25 776.167 1601.09 771.709 1607.76C767.251 1614.43 760.915 1619.63 753.503 1622.7C746.091 1625.76 737.935 1626.56 730.068 1624.99C722.201 1623.42 714.976 1619.56 709.308 1613.88C703.64 1608.2 699.783 1600.97 698.225 1593.1C696.667 1585.23 697.479 1577.08 700.556 1569.67C703.634 1562.26 708.841 1555.94 715.516 1551.49C722.192 1547.04 730.037 1544.67 738.059 1544.68C743.381 1544.68 748.65 1545.73 753.567 1547.77C758.483 1549.81 762.949 1552.8 766.709 1556.56C770.469 1560.33 773.451 1564.8 775.482 1569.72C777.513 1574.64 778.555 1579.91 778.547 1585.23Z" fill="white"/>
<path d="M487.422 2012.88C509.815 2012.88 527.969 1994.73 527.969 1972.34C527.969 1949.94 509.815 1931.79 487.422 1931.79C465.028 1931.79 446.875 1949.94 446.875 1972.34C446.875 1994.73 465.028 2012.88 487.422 2012.88Z" fill="white"/>
<path d="M738.059 1585.23L487.421 1972.34L1384.92 2116.4L2156.9 1386.73L2096.11 971.849L2536.6 929.713L1753.97 422.436L724.464 740.22L655.847 1268.86L738.059 1585.23Z" stroke="white" stroke-linecap="round" stroke-linejoin="round"/>
<path d="M1480.44 207.697L1753.97 422.377" stroke="white" stroke-linecap="round" stroke-linejoin="round"/>
<path d="M1384.93 2116.4L1315.42 1689.39" stroke="white" stroke-linecap="round" stroke-linejoin="round"/>
<path d="M724.465 740.22L960.743 953.959" stroke="white" stroke-linecap="round" stroke-linejoin="round"/>
<path d="M2003.84 2556C2172.16 2556 2308.62 2533.92 2308.62 2506.68C2308.62 2479.45 2172.16 2457.37 2003.84 2457.37C1835.51 2457.37 1699.06 2479.45 1699.06 2506.68C1699.06 2533.92 1835.51 2556 2003.84 2556Z" fill="#1C8FC5"/>
<path d="M1852.62 1607.89C2101.29 1359.23 2101.29 956.066 1852.62 707.402C1603.96 458.738 1200.79 458.737 952.129 707.402C703.465 956.066 703.465 1359.23 952.129 1607.89C1200.79 1856.56 1603.96 1856.56 1852.62 1607.89Z" fill="#515B60"/>
<path d="M1852.62 1607.89C2101.29 1359.23 2101.29 956.066 1852.62 707.402C1603.96 458.738 1200.79 458.737 952.129 707.402C703.465 956.066 703.465 1359.23 952.129 1607.89C1200.79 1856.56 1603.96 1856.56 1852.62 1607.89Z" stroke="#263238" stroke-linecap="round" stroke-linejoin="round"/>
<path d="M1078.26 782.297C1070.91 776.765 1035.66 788.77 1035.54 778.295C1035.54 771.351 1059.08 751.813 1063.73 742.986C1070.32 730.098 1066.91 712.149 1073.03 700.026C1078.13 689.573 1084.86 679.999 1092.98 671.661C1128.76 641.413 1183.37 608.634 1228.92 606.339C1245.28 605.515 1267.7 633.645 1271.41 655.595C1273.58 668.601 1271.41 707.265 1259.64 720.8C1242.33 741.22 1204.32 741.456 1184.13 757.345C1160.59 775.823 1149.18 819.43 1122.11 833.848C1114.57 837.85 1100.27 829.964 1095.39 825.845C1086.33 818.371 1086.44 788.594 1078.26 782.297Z" fill="#1C8FC5" stroke="#263238" stroke-linecap="round" stroke-linejoin="round"/>
<path d="M1816.23 1437.64C1812.01 1436.63 1807.59 1436.9 1803.52 1438.4C1792.98 1444.29 1777.62 1467.41 1772.21 1478.71C1765.97 1491.6 1758.5 1519.55 1759.09 1531.68C1759.44 1538.45 1763.32 1551.86 1768.91 1552.57C1773.15 1553.1 1784.33 1544.74 1788.27 1540.03C1808.64 1515.67 1833 1477.77 1831.18 1447.58C1830.94 1442.99 1820.82 1438.76 1816.23 1437.64Z" fill="#1C8FC5" stroke="#263238" stroke-linecap="round" stroke-linejoin="round"/>
<path d="M1430.18 854.975C1437.83 854.21 1454.72 850.091 1459.6 843.205C1467.14 832.083 1470.02 798.598 1462.19 789.123C1458.84 785.18 1446.48 786.004 1442.24 789.476C1436.77 794.008 1438.24 813.016 1432.77 818.077C1427.3 823.138 1411.82 816.076 1407.11 821.431C1402.4 826.787 1401.23 844.382 1404.7 849.796C1408.17 855.21 1423.47 855.622 1430.18 854.975Z" fill="#1C8FC5" stroke="#263238" stroke-linecap="round" stroke-linejoin="round"/>
<path d="M1809.99 668.542C1803.87 673.271 1799.76 680.149 1798.51 687.786C1798.22 692.964 1808.75 707.912 1807.46 712.502C1804.16 723.742 1778.04 731.687 1764.5 724.625C1760.44 722.448 1756.91 710.089 1753.02 707.382C1736.61 695.966 1705.36 703.675 1689.47 702.733C1681.89 702.964 1674.31 702.511 1666.81 701.38C1639.92 693.141 1611.96 665.305 1584.42 664.187C1570.83 663.658 1540.05 683.195 1530.46 697.555C1517.13 717.919 1509.77 741.606 1509.21 765.937C1509.21 776.059 1518.39 797.539 1526.4 802.953C1534.4 808.367 1556.82 809.485 1564.18 802.953C1569.3 798.539 1566.36 779.884 1570.53 774.529C1574.71 769.174 1591.72 758.934 1596.72 763.583C1611.96 777.883 1615.61 817.488 1606.43 834.79C1596.6 853.327 1555.7 872.453 1534.52 862.567C1526.69 858.918 1533.17 829.67 1526.52 822.667C1519.87 815.664 1499.86 810.897 1493.38 816.782C1485.5 824.256 1498.92 853.21 1492.5 862.331C1485.32 872.453 1456.9 869.275 1447.19 876.926C1440.01 882.811 1427.89 899.171 1427 908.469C1426.24 916.413 1443.66 929.949 1439.36 936.716C1433.48 946.485 1403.11 928.418 1395.64 937.246C1385.69 949.016 1392.87 987.15 1404.05 996.683C1412.41 1003.86 1439.71 1003.33 1448.72 996.683C1455.19 991.74 1451.25 970.083 1457.78 965.317C1466.37 959.079 1489.09 970.554 1498.97 968.024C1506.86 966.023 1518.75 949.486 1526.63 950.899C1537.23 952.782 1552.53 974.144 1554.53 985.149C1556.06 993.329 1537.52 1010.81 1543.58 1016.46C1551.06 1023.34 1576.13 1008.81 1579.83 999.449C1584.54 987.679 1557.94 962.845 1562.18 950.958C1563.98 948.309 1566.41 946.152 1569.26 944.682C1572.11 943.213 1575.28 942.477 1578.48 942.542C1593.84 946.191 1603.2 989.621 1618.67 993.976C1629.62 997.095 1648.69 974.733 1659.87 977.381C1672.93 980.5 1694 1004.33 1698.06 1017.4C1700.88 1026.52 1697.35 1048.35 1690.94 1054.06C1668.93 1073.66 1627.91 1078.25 1597.78 1076.36C1583.42 1075.42 1554.23 1063.71 1543.7 1053.47C1536.4 1046.35 1534.87 1021.16 1526.69 1016.4C1505.39 1004.04 1471.49 1006.04 1448.07 1013.75C1406.88 1027.4 1356.38 1066.71 1333.14 1104.96C1324.78 1118.85 1333.14 1156.05 1324.84 1169.7C1322.19 1173.99 1310.31 1176.41 1308.01 1180.88C1300.95 1194.47 1302.83 1229.61 1310.42 1242.79C1327.08 1269.15 1351.81 1289.42 1380.92 1300.58C1409.82 1310.46 1449.6 1294.69 1480.2 1301.46C1489.91 1303.64 1510.8 1314.94 1516.16 1324.29C1523.16 1336.59 1512.33 1368.9 1518.98 1381.32C1524.4 1391.56 1554.29 1391.21 1558.35 1401.15C1573.42 1437.05 1537.46 1485.36 1542.93 1523.67C1544.82 1536.62 1564.83 1556.75 1566.47 1568.99C1569.95 1591.7 1557.35 1622.48 1566.18 1642.9C1572.06 1656.26 1606.08 1661.62 1618.85 1654.67C1646.45 1640.25 1676.76 1605.42 1689.47 1577.64C1701.24 1552.27 1691.17 1512.9 1704 1490.54C1714.42 1472.89 1747.79 1464.12 1758.85 1446.11C1775.33 1419.45 1762.62 1370.43 1778.09 1342.6C1790.22 1320.88 1825.47 1308.23 1836.94 1285.4C1841.53 1276.39 1839.24 1249.32 1832.71 1244.2C1816.7 1231.14 1778.98 1240.26 1763.68 1225.84C1756.97 1219.54 1766.8 1191.3 1762.62 1181C1758.44 1170.7 1738.14 1160.05 1734.72 1150.22C1731.31 1140.39 1729.31 1112.91 1737.49 1105.2C1741.14 1101.85 1753.32 1102.91 1757.44 1105.2C1779.57 1117.62 1798.16 1144.92 1805.58 1169.46C1808.11 1177.82 1796.63 1198.24 1801.4 1205.71C1804.87 1211.19 1819.94 1214.78 1826.41 1213.78C1854.77 1209.36 1903.44 1188.12 1908.03 1165.99C1913.92 1138.86 1839.89 1108.14 1847.77 1077.72C1850.24 1068.07 1887.79 1068.42 1898.73 1075.48C1906.38 1080.42 1905.74 1101.9 1911.27 1108.44C1926.33 1126.09 1949.87 1138.16 1971.12 1149.16C1981.12 1154.28 2007.72 1155.75 2013.31 1164.93C2020.61 1176.7 1999.25 1208.54 2003.37 1220.96C2009.41 1237.38 2018.16 1252.68 2029.26 1266.21C2048.35 1156.11 2038.14 1042.92 1999.65 938.016C1961.17 833.109 1895.76 740.174 1809.99 668.542V668.542Z" fill="#1C8FC5" stroke="#263238" stroke-linecap="round" stroke-linejoin="round"/>
<path d="M1069.14 1569.22C1045.6 1546.63 1017.77 1510.85 1015.18 1482.36C1012.18 1449.41 1076.5 1434.46 1079.91 1397.62C1081.15 1384.32 1049.13 1349.48 1051.72 1335.53C1054.31 1321.59 1089.98 1307.46 1088.39 1292.4C1085.21 1261.62 1052.55 1226.96 1026.89 1210.42C1013.06 1201.48 973.043 1212.6 961.038 1201.01C955.153 1195.47 964.51 1177.47 958.684 1172.35C951.21 1165.76 928.2 1175.52 918.843 1171.76C908.015 1167.4 896.598 1144.22 886.241 1140.8C851.226 1129.03 800.086 1157.93 765.719 1144.22C765.719 1148.69 765.719 1153.16 765.719 1157.63V1160.75C771.757 1163.74 776.774 1168.45 780.137 1174.29C781.074 1179.33 780.885 1184.53 779.583 1189.49C778.281 1194.46 775.898 1199.07 772.604 1203.01C771.051 1203.98 769.259 1204.51 767.425 1204.54C768.72 1222.72 770.839 1240.67 773.663 1258.38C791.318 1269.51 814.269 1276.92 825.745 1292.22C832.748 1301.58 817.8 1323.12 825.745 1332.24C841.575 1350.19 877.237 1351.72 894.774 1367.55C935.968 1404.68 942.501 1479.77 988.638 1522.2C996.7 1529.62 1016 1536.74 1023.95 1544.39C1035.07 1555.22 1039.66 1575.4 1051.61 1585.58C1072.09 1603.24 1106.75 1632.66 1125.76 1631.01C1129.17 1630.72 1116.1 1601.59 1105.16 1589.82C1096.98 1581.46 1077.79 1577.17 1069.14 1569.22Z" fill="#1C8FC5" stroke="#263238" stroke-linecap="round" stroke-linejoin="round"/>
<path d="M789.258 1043.17C794.799 1045.05 800.841 1044.8 806.207 1042.47C814.269 1036.17 807.148 1015.4 813.857 1008.22C842.281 977.734 899.541 979.852 926.199 946.956C933.673 937.716 922.256 913.824 932.084 906.821C963.921 884.87 1014.47 930.831 1042.37 910.646C1058.84 898.876 1073.5 857.682 1065.91 839.145C1064.49 835.673 1046.6 843.97 1043.01 841.381C1035.78 836.143 1047.84 803.953 1041.25 801.717C1022.24 795.243 990.58 812.015 970.63 822.902C965.157 825.963 955.506 838.085 950.151 839.792C938.793 843.382 916.548 835.614 922.492 827.434C935.792 809.249 970.218 804.483 989.168 789.888C1005.82 777 1035.19 750.224 1034.83 736.512C1034.3 717.798 954.8 738.866 934.791 748.871C923.021 754.755 897.716 779.178 885.711 785.004C833.546 857.037 797.133 939.247 778.842 1026.28C782.02 1033.17 784.374 1041.11 789.258 1043.17Z" fill="#1C8FC5" stroke="#263238" stroke-linecap="round" stroke-linejoin="round"/>
<path d="M1001.47 1854.88L1080.38 1737.88" stroke="#263238" stroke-linecap="round" stroke-linejoin="round"/>
<path d="M621.539 1130.33L745.003 1132.15" stroke="#263238" stroke-linecap="round" stroke-linejoin="round"/>
<path d="M988.167 464.631L1064.32 586.742" stroke="#263238" stroke-linecap="round" stroke-linejoin="round"/>
<path d="M2217.58 1146.63L2063.28 1148.51" stroke="#263238" stroke-linecap="round" stroke-linejoin="round"/>
<path d="M583.582 1582.7L712.99 1759.19L783.138 1854.82" stroke="#263238" stroke-linecap="round" stroke-linejoin="round"/>
<path d="M805.853 473.282L503.9 856.329" stroke="#263238" stroke-linecap="round" stroke-linejoin="round"/>
<path d="M1829.59 1937.15L1091.27 1969.45" stroke="#263238" stroke-linecap="round" stroke-linejoin="round"/>
<path d="M2136.66 1774.37L2371.64 1331.36" stroke="#263238" stroke-linecap="round" stroke-linejoin="round"/>
<path d="M2389.95 973.967L2382.12 830.376" stroke="#263238" stroke-linecap="round" stroke-linejoin="round"/>
<path d="M1869.54 685.785L1944.17 631.467" stroke="#263238" stroke-linecap="round" stroke-linejoin="round"/>
<path d="M1090.03 309.211L1941.11 323.923" stroke="#263238" stroke-linecap="round" stroke-linejoin="round"/>
<path d="M2542.31 1219.44C2580.02 1138.94 2545.33 1043.12 2464.84 1005.41C2384.34 967.703 2288.52 1002.39 2250.81 1082.89C2213.1 1163.38 2247.79 1259.21 2328.29 1296.92C2408.78 1334.62 2504.61 1299.94 2542.31 1219.44Z" fill="#1C8FC5"/>
<path opacity="0.2" d="M2542.31 1219.44C2580.02 1138.94 2545.33 1043.12 2464.84 1005.41C2384.34 967.703 2288.52 1002.39 2250.81 1082.89C2213.1 1163.38 2247.79 1259.21 2328.29 1296.92C2408.78 1334.62 2504.61 1299.94 2542.31 1219.44Z" fill="white"/>
<path d="M2397.24 1313.11C2411.82 1313.12 2426.33 1311.14 2440.38 1307.23L2431.38 1254.68L2355.58 1259.15L2352.64 1306.82C2367.14 1310.99 2382.15 1313.1 2397.24 1313.11V1313.11Z" fill="white"/>
<path d="M2340.69 1255.56C2354.46 1278.57 2374.7 1293.1 2397.36 1293.1C2420.02 1293.1 2440.26 1278.57 2454.09 1255.56H2340.69Z" fill="#263238" stroke="#263238" stroke-linecap="round" stroke-linejoin="round"/>
<path d="M2397.24 1313.11C2411.82 1313.12 2426.33 1311.14 2440.38 1307.23L2431.38 1254.68L2355.58 1259.15L2352.64 1306.82C2367.14 1310.99 2382.15 1313.1 2397.24 1313.11V1313.11Z" stroke="#263238" stroke-linecap="round" stroke-linejoin="round"/>
<path d="M2487.16 1170.23C2484 1168.74 2480.4 1168.47 2477.04 1169.46C2474.98 1111.56 2439.03 1065.42 2394.65 1065.42C2350.28 1065.42 2314.56 1111.56 2312.27 1169.46C2308.89 1168.46 2305.27 1168.73 2302.09 1170.23C2293.43 1174.47 2291.14 1187.35 2296.85 1198.95C2298.54 1203.11 2301.39 1206.71 2305.06 1209.3C2308.73 1211.9 2313.07 1213.39 2317.56 1213.6C2329.33 1254.79 2359.29 1283.87 2394.36 1283.87C2429.43 1283.87 2459.09 1254.44 2471.22 1213.6C2475.7 1213.38 2480.02 1211.88 2483.68 1209.29C2487.34 1206.69 2490.18 1203.1 2491.87 1198.95C2498.17 1187.35 2495.82 1174.47 2487.16 1170.23Z" fill="white" stroke="#263238" stroke-linecap="round" stroke-linejoin="round"/>
<path d="M2383.65 1181.76L2383 1184.88C2380.94 1194.72 2377.09 1204.09 2371.64 1212.54V1212.54L2388.12 1221.54" stroke="#263238" stroke-linecap="round" stroke-linejoin="round"/>
<path d="M2369.47 1243.38C2376.46 1246.39 2384 1247.94 2391.62 1247.94C2399.24 1247.94 2406.78 1246.39 2413.78 1243.38" stroke="#263238" stroke-linecap="round" stroke-linejoin="round"/>
<path d="M2352.46 1173.52C2352.46 1177.88 2350.81 1181.41 2348.75 1181.41C2346.69 1181.41 2344.99 1177.88 2344.99 1173.52C2344.99 1169.17 2346.63 1165.64 2348.75 1165.64C2350.87 1165.64 2352.46 1169.17 2352.46 1173.52Z" fill="#263238"/>
<path d="M2415.19 1173.52C2415.19 1177.88 2413.49 1181.41 2411.43 1181.41C2409.37 1181.41 2407.66 1177.88 2407.66 1173.52C2407.66 1169.17 2409.37 1165.64 2411.43 1165.64C2413.49 1165.64 2415.19 1169.17 2415.19 1173.52Z" fill="#263238"/>
<path d="M2341.4 1158.22C2344.23 1152.82 2348.83 1148.55 2354.43 1146.13C2360.03 1143.71 2366.3 1143.28 2372.17 1144.92" stroke="#263238" stroke-linecap="round" stroke-linejoin="round"/>
<path d="M2438.61 1158.22C2435.78 1152.82 2431.18 1148.55 2425.58 1146.13C2419.98 1143.71 2413.71 1143.28 2407.84 1144.92" stroke="#263238" stroke-linecap="round" stroke-linejoin="round"/>
<path d="M2329.86 1160.52H2313.21" stroke="#263238" stroke-linecap="round" stroke-linejoin="round"/>
<path d="M2379.65 1160.52H2333.33V1190.35H2379.65V1160.52Z" stroke="#263238" stroke-linecap="round" stroke-linejoin="round"/>
<path d="M2446.32 1160.52H2400.01V1190.35H2446.32V1160.52Z" stroke="#263238" stroke-linecap="round" stroke-linejoin="round"/>
<path d="M2379.71 1169.29H2400.01" stroke="#263238" stroke-linecap="round" stroke-linejoin="round"/>
<path d="M2474.16 1160.52H2446.32" stroke="#263238" stroke-linecap="round" stroke-linejoin="round"/>
<path d="M2318.56 1169.29C2324.45 1169.82 2341.69 1131.15 2335.04 1105.44C2328.39 1079.72 2392.71 1099.26 2432.85 1094.61C2472.98 1089.96 2446.74 1151.4 2469.39 1165.99C2492.05 1180.59 2487.05 1076.6 2465.27 1073.48C2465.27 1073.48 2449.03 1042.59 2386.36 1045.17C2323.68 1047.76 2315.38 1087.43 2315.38 1087.43C2315.38 1087.43 2284.67 1165.99 2318.56 1169.29Z" fill="#263238" stroke="#263238" stroke-linecap="round" stroke-linejoin="round"/>
<path d="M891.89 475.4C990.662 475.4 1070.73 395.33 1070.73 296.559C1070.73 197.787 990.662 117.717 891.89 117.717C793.119 117.717 713.049 197.787 713.049 296.559C713.049 395.33 793.119 475.4 891.89 475.4Z" fill="#1C8FC5"/>
<path opacity="0.3" d="M891.89 475.4C990.662 475.4 1070.73 395.33 1070.73 296.559C1070.73 197.787 990.662 117.717 891.89 117.717C793.119 117.717 713.049 197.787 713.049 296.559C713.049 395.33 793.119 475.4 891.89 475.4Z" fill="white"/>
<path d="M889.948 476.695C906.138 476.699 922.254 474.501 937.851 470.163L927.612 411.961L843.34 416.963L840.104 469.927C856.317 474.517 873.098 476.795 889.948 476.695Z" fill="white"/>
<path d="M826.804 419.553C842.163 445.093 864.643 461.276 889.831 461.276C915.018 461.276 937.498 445.093 952.799 419.553H826.804Z" fill="#263238" stroke="#263238" stroke-linecap="round" stroke-linejoin="round"/>
<path d="M889.948 476.695C906.138 476.699 922.254 474.501 937.851 470.163L927.612 411.961L843.34 416.963L840.104 469.927C856.317 474.517 873.098 476.795 889.948 476.695Z" stroke="#263238" stroke-linecap="round" stroke-linejoin="round"/>
<path d="M973.338 221.232C973.338 221.232 1054.61 387.715 1004.23 422.024C950.681 458.511 822.332 460.394 781.726 416.139C741.12 371.885 782.079 268.547 799.381 246.831C812.013 232.088 826.984 219.523 843.694 209.639L899.424 197.869L956.272 218.466L973.338 221.232Z" fill="#263238" stroke="#263238" stroke-linecap="round" stroke-linejoin="round"/>
<path d="M992.64 317.803C989.103 316.156 985.091 315.843 981.341 316.92C979.105 252.599 939.088 201.282 890.126 201.282C841.163 201.282 801.146 252.599 798.851 316.92C795.102 315.843 791.089 316.156 787.552 317.803C778.019 322.511 775.37 336.811 781.667 349.699C783.563 354.313 786.734 358.291 790.809 361.168C794.884 364.045 799.695 365.7 804.677 365.941C817.8 411.608 851.05 444.093 890.067 444.093C929.084 444.093 962.274 411.608 975.398 365.941C980.38 365.7 985.191 364.045 989.266 361.168C993.341 358.291 996.512 354.313 998.407 349.699C1004.82 336.87 1002.23 322.57 992.64 317.803Z" fill="white" stroke="#263238" stroke-linecap="round" stroke-linejoin="round"/>
<path d="M877.59 330.691L864.231 364.882L882.592 374.886" stroke="#263238" stroke-linecap="round" stroke-linejoin="round"/>
<path d="M864.231 399.073C872.005 402.444 880.387 404.183 888.86 404.183C897.332 404.183 905.715 402.444 913.488 399.073" stroke="#263238" stroke-linecap="round" stroke-linejoin="round"/>
<path d="M825.215 299.383C829.904 294.459 836.154 291.311 842.903 290.474C849.651 289.637 856.481 291.163 862.231 294.793" stroke="#263238" stroke-linecap="round" stroke-linejoin="round"/>
<path d="M936.204 300.148C931.689 295.061 925.552 291.694 918.836 290.621C912.119 289.548 905.239 290.835 899.364 294.263" stroke="#263238" stroke-linecap="round" stroke-linejoin="round"/>
<path d="M843.634 340.224C836.808 340.224 830.261 337.517 825.429 332.696C820.597 327.875 817.874 321.333 817.858 314.508V307.034H861.936C863.908 307.049 865.794 307.844 867.183 309.243C868.572 310.643 869.351 312.535 869.351 314.508V314.508C869.351 321.328 866.642 327.869 861.819 332.692C856.996 337.515 850.455 340.224 843.634 340.224V340.224Z" fill="#263238" stroke="#263238" stroke-linecap="round" stroke-linejoin="round"/>
<path d="M917.608 340.224C910.787 340.224 904.246 337.515 899.423 332.692C894.6 327.869 891.891 321.328 891.891 314.508V314.508C891.891 312.535 892.67 310.643 894.059 309.243C895.448 307.844 897.334 307.049 899.306 307.034H943.383V314.508C943.368 321.333 940.645 327.875 935.813 332.696C930.981 337.517 924.434 340.224 917.608 340.224Z" fill="#263238" stroke="#263238" stroke-linecap="round" stroke-linejoin="round"/>
<path d="M869.352 316.803H891.891" stroke="#263238" stroke-linecap="round" stroke-linejoin="round"/>
<path d="M817.859 307.034H799.321" stroke="#263238" stroke-linecap="round" stroke-linejoin="round"/>
<path d="M980.693 307.034H946.325" stroke="#263238" stroke-linecap="round" stroke-linejoin="round"/>
<path d="M862.172 232.708C862.172 232.708 904.249 286.554 943.383 290.203C982.517 293.852 956.859 372.591 943.383 374.886C943.383 374.886 978.692 376.181 981.341 316.979C981.341 316.979 1030.19 236.945 947.444 202.93C883.593 176.684 851.52 201.341 851.52 201.341C851.52 201.341 770.309 221.526 791.435 304.209C791.435 304.209 805.736 347.581 821.154 352.759C821.154 352.759 798.321 303.621 820.624 277.315C842.928 251.01 860.524 252.128 862.172 232.708Z" fill="#263238" stroke="#263238" stroke-linecap="round" stroke-linejoin="round"/>
<path d="M1177.25 173.8H1206.67C1218.5 173.8 1229.85 169.1 1238.21 160.735C1246.58 152.369 1251.28 141.023 1251.28 129.193C1251.28 117.362 1246.58 106.016 1238.21 97.6503C1229.85 89.2848 1218.5 84.5851 1206.67 84.5851H1204.2C1200.73 73.9672 1193.99 64.7179 1184.95 58.1595C1175.91 51.6011 1165.03 48.0694 1153.86 48.0694C1142.69 48.0694 1131.8 51.6011 1122.76 58.1595C1113.72 64.7179 1106.98 73.9672 1103.51 84.5851H1101.04C1095.18 84.5851 1089.38 85.739 1083.97 87.9807C1078.56 90.2224 1073.64 93.5082 1069.5 97.6503C1065.35 101.793 1062.07 106.71 1059.83 112.122C1057.59 117.534 1056.43 123.335 1056.43 129.193C1056.43 135.05 1057.59 140.851 1059.83 146.263C1062.07 151.675 1065.35 156.593 1069.5 160.735C1073.64 164.877 1078.56 168.163 1083.97 170.404C1089.38 172.646 1095.18 173.8 1101.04 173.8H1113.28" stroke="#263238" stroke-linecap="round" stroke-linejoin="round"/>
<path d="M1199.96 160.324L1145.35 105.712L1090.74 160.324H1123.34V204.519H1167.36V160.324H1199.96Z" fill="#DE245C"/>
<path d="M899.423 2196.32C998.194 2196.32 1078.26 2116.25 1078.26 2017.47C1078.26 1918.7 998.194 1838.63 899.423 1838.63C800.651 1838.63 720.581 1918.7 720.581 2017.47C720.581 2116.25 800.651 2196.32 899.423 2196.32Z" fill="#1C8FC5"/>
<path opacity="0.2" d="M899.423 2196.32C998.194 2196.32 1078.26 2116.25 1078.26 2017.47C1078.26 1918.7 998.194 1838.63 899.423 1838.63C800.651 1838.63 720.581 1918.7 720.581 2017.47C720.581 2116.25 800.651 2196.32 899.423 2196.32Z" fill="white"/>
<path d="M899.423 2196.32C915.613 2196.32 931.728 2194.12 947.326 2189.78L937.38 2131.35L853.109 2136.35L849.872 2189.31C865.979 2193.96 882.659 2196.32 899.423 2196.32Z" fill="white"/>
<path d="M836.572 2139.23C851.873 2164.77 874.412 2180.96 899.541 2180.96C924.669 2180.96 947.267 2164.77 962.568 2139.23H836.572Z" fill="#263238" stroke="#263238" stroke-linecap="round" stroke-linejoin="round"/>
<path d="M899.423 2196.32C915.613 2196.32 931.728 2194.12 947.326 2189.78L937.38 2131.35L853.109 2136.35L849.872 2189.31C865.979 2193.96 882.659 2196.32 899.423 2196.32Z" stroke="#263238" stroke-linecap="round" stroke-linejoin="round"/>
<path d="M1001.76 2040.96C998.225 2039.31 994.212 2039 990.462 2040.07C988.226 1975.75 948.209 1924.43 899.247 1924.43C850.285 1924.43 810.209 1975.75 807.972 2040.07C804.223 2039 800.21 2039.31 796.673 2040.96C787.14 2045.66 784.492 2059.96 790.788 2072.85C792.692 2077.51 795.895 2081.53 800.017 2084.42C804.138 2087.31 809.004 2088.95 814.034 2089.15C827.157 2134.82 860.407 2167.3 899.423 2167.3C938.44 2167.3 971.631 2134.82 984.754 2089.15C989.736 2088.91 994.547 2087.26 998.622 2084.38C1002.7 2081.5 1005.87 2077.52 1007.76 2072.91C1014.12 2059.73 1011.53 2045.66 1001.76 2040.96Z" fill="white" stroke="#263238" stroke-linecap="round" stroke-linejoin="round"/>
<path d="M897.481 2053.78L910.839 2087.98L892.479 2097.98" stroke="#263238" stroke-linecap="round" stroke-linejoin="round"/>
<path d="M873.529 2122.17C881.303 2125.54 889.685 2127.28 898.158 2127.28C906.63 2127.28 915.012 2125.54 922.786 2122.17" stroke="#263238" stroke-linecap="round" stroke-linejoin="round"/>
<path d="M868.94 2045.84C868.94 2050.67 867.056 2054.61 864.761 2054.61C862.466 2054.61 860.583 2050.67 860.583 2045.84C860.583 2041.01 862.466 2037.07 864.761 2037.07C867.056 2037.07 868.94 2041.01 868.94 2045.84Z" fill="#263238"/>
<path d="M938.204 2045.84C938.204 2050.67 936.321 2054.61 934.026 2054.61C931.731 2054.61 929.848 2050.67 929.848 2045.84C929.848 2041.01 931.731 2037.07 934.026 2037.07C936.321 2037.07 938.204 2041.01 938.204 2045.84Z" fill="#263238"/>
<path d="M842.869 2027.6C845.99 2021.57 851.099 2016.8 857.33 2014.11C863.562 2011.42 870.532 2010.97 877.06 2012.83" stroke="#263238" stroke-linecap="round" stroke-linejoin="round"/>
<path d="M950.916 2027.6C947.795 2021.57 942.686 2016.8 936.455 2014.11C930.223 2011.42 923.253 2010.97 916.725 2012.83" stroke="#263238" stroke-linecap="round" stroke-linejoin="round"/>
<path d="M799.262 2027.6C799.262 2027.6 813.445 2056.26 820.977 2053.78C828.51 2051.31 817.623 1998.23 835.984 1984.7C854.345 1971.16 917.784 1988.7 944.03 1966.16C944.03 1966.16 943.618 1997.23 961.155 2011.77C978.692 2026.3 971.984 2055.43 980.34 2053.78C988.697 2052.14 991.168 2030.95 992.816 2022.01C997.877 1995.17 1005.35 1919.43 960.332 1919.43C960.332 1919.43 949.444 1903.6 883.828 1905.25C818.212 1906.9 816.682 1888.6 816.682 1888.6C816.682 1888.6 766.719 1958.04 799.262 2027.6Z" fill="#263238" stroke="#263238" stroke-linecap="round" stroke-linejoin="round"/>
<path d="M2086.64 756.639L2404.42 796.126C2479.28 805.424 2546.54 751.342 2551.01 678.429L2578.14 232.119C2582.56 159.205 2522.47 97.885 2447.09 98.4147L2095.41 101.122C2023.02 101.71 1965 159.323 1965.94 229.471L1972.77 633.468C1973.69 664.282 1985.73 693.722 2006.66 716.359C2027.59 738.995 2055.99 753.301 2086.64 756.639V756.639Z" fill="#1C8FC5"/>
<path opacity="0.3" d="M2086.64 756.639L2404.42 796.126C2479.28 805.424 2546.54 751.342 2551.01 678.429L2578.14 232.119C2582.56 159.205 2522.47 97.885 2447.09 98.4147L2095.41 101.122C2023.02 101.71 1965 159.323 1965.94 229.471L1972.77 633.468C1973.69 664.282 1985.73 693.722 2006.66 716.359C2027.59 738.995 2055.99 753.301 2086.64 756.639V756.639Z" fill="white"/>
<path d="M2528.53 590.979V613.872H2199.86V590.979C2199.86 579.721 2204.33 568.922 2212.29 560.956C2220.24 552.989 2231.04 548.506 2242.29 548.49H2486.05C2497.31 548.49 2508.12 552.967 2516.09 560.935C2524.06 568.903 2528.53 579.711 2528.53 590.979Z" stroke="#263238" stroke-miterlimit="10"/>
<path d="M2536.66 728.744V613.871H2191.62V769.703" stroke="#263238" stroke-miterlimit="10"/>
<path d="M2133.72 341.754C2133.72 341.754 2147.25 305.621 2181.27 311.388C2215.28 317.156 2189.27 345.58 2172.91 348.11C2172.85 348.11 2170.44 338.165 2133.72 341.754Z" fill="white" stroke="#263238" stroke-linecap="round" stroke-linejoin="round"/>
<path d="M2111.18 362.234C2106.71 366.706 2095.94 367.059 2103.18 357.349C2109.13 349.56 2117.17 343.621 2126.36 340.224C2142.49 333.045 2148.78 334.34 2163.38 331.279C2177.97 328.219 2180.68 334.045 2185.74 336.811C2197.8 343.402 2200.69 344.52 2203.69 351.17C2206.69 357.82 2210.04 366.412 2200.69 366.412C2191.33 366.412 2191.57 352.288 2183.03 352.818C2174.5 353.348 2170.62 366.412 2164.79 366.412H2162.61C2157.61 366.412 2157.37 362.293 2160.38 355.76C2163.38 349.228 2166.73 343.402 2166.73 343.402C2161.83 346.012 2157.91 350.142 2155.55 355.172C2151.55 363.646 2150.84 366.942 2143.78 366.942C2136.72 366.942 2136.95 361.528 2144.25 349.287C2140.01 351.789 2136.5 355.36 2134.07 359.645C2130.54 366.412 2128.66 365.941 2123.95 365.941C2118.06 365.941 2118.06 355.819 2129.13 349.169C2129.13 349.64 2126.71 346.698 2111.18 362.234Z" fill="white" stroke="#263238" stroke-linecap="round" stroke-linejoin="round"/>
<path d="M2153.79 337.988C2153.79 337.988 2149.49 337.988 2146.84 344.991Z" fill="white"/>
<path d="M2153.79 337.988C2153.79 337.988 2149.49 337.988 2146.84 344.991" stroke="#263238" stroke-linecap="round" stroke-linejoin="round"/>
<path d="M2239.71 808.014L2263.24 849.149H2283.37L2292.2 836.673L2270.42 783.709L2239.71 808.014Z" fill="white" stroke="#263238" stroke-linecap="round" stroke-linejoin="round"/>
<path d="M2295.49 451.861L2271.19 460.982C2271.19 460.982 2098.06 511.121 2090.46 553.61C2082.87 596.099 2243 818.018 2243 818.018C2243 818.018 2262.3 820.843 2277.31 795.244C2277.31 795.244 2220.81 625.112 2194.92 591.744C2194.92 591.744 2384.88 558.318 2394.01 534.014C2403.13 509.709 2377.82 449.507 2377.82 449.507L2295.49 451.861Z" fill="#263238" stroke="#263238" stroke-linecap="round" stroke-linejoin="round"/>
<path d="M2250.42 848.325C2250.83 847.582 2251.42 846.956 2252.14 846.503C2252.86 846.05 2253.69 845.787 2254.54 845.736C2261.8 845.279 2268.86 843.144 2275.16 839.499C2281.46 835.854 2286.83 830.797 2290.84 824.727C2291.56 823.703 2292.63 822.981 2293.85 822.698C2295.06 822.416 2296.34 822.593 2297.44 823.197C2306.4 828.473 2313.94 835.869 2319.39 844.735C2321.35 847.85 2322.03 851.6 2321.3 855.206C2320.56 858.813 2318.47 861.997 2315.44 864.097L2240.35 914.589C2236.35 917.284 2231.64 918.719 2226.82 918.708H2208.16C2207.12 918.712 2206.08 918.463 2205.15 917.984C2204.22 917.505 2203.42 916.81 2202.81 915.956C2202.21 915.102 2201.82 914.115 2201.67 913.079C2201.53 912.042 2201.63 910.986 2201.98 909.999C2202.73 907.724 2204.04 905.674 2205.79 904.038C2207.53 902.403 2209.67 901.235 2211.99 900.642C2224.35 897.64 2247.94 853.327 2250.42 848.325Z" fill="#263238"/>
<path d="M2250.42 848.325C2250.83 847.582 2251.42 846.956 2252.14 846.503C2252.86 846.05 2253.69 845.787 2254.54 845.736C2261.8 845.279 2268.86 843.144 2275.16 839.499C2281.46 835.854 2286.83 830.797 2290.84 824.727C2291.56 823.703 2292.63 822.981 2293.85 822.698C2295.06 822.416 2296.34 822.593 2297.44 823.197C2306.4 828.473 2313.94 835.869 2319.39 844.735C2321.35 847.85 2322.03 851.6 2321.3 855.206C2320.56 858.813 2318.47 861.997 2315.44 864.097L2240.35 914.589C2236.35 917.284 2231.64 918.719 2226.82 918.708H2208.16C2207.12 918.712 2206.08 918.463 2205.15 917.984C2204.22 917.505 2203.42 916.81 2202.81 915.956C2202.21 915.102 2201.82 914.115 2201.67 913.079C2201.53 912.042 2201.63 910.986 2201.98 909.999C2202.73 907.724 2204.04 905.674 2205.79 904.038C2207.53 902.403 2209.67 901.235 2211.99 900.642C2224.35 897.64 2247.94 853.327 2250.42 848.325Z" fill="#BFBFBF" stroke="#263238" stroke-linecap="round" stroke-linejoin="round"/>
<path d="M2250.42 848.325C2250.83 847.582 2251.42 846.956 2252.14 846.503C2252.86 846.05 2253.69 845.787 2254.54 845.736C2261.8 845.279 2268.86 843.144 2275.16 839.499C2281.46 835.854 2286.83 830.797 2290.84 824.727C2291.56 823.703 2292.63 822.981 2293.85 822.698C2295.06 822.416 2296.34 822.593 2297.44 823.197C2306.4 828.473 2313.94 835.869 2319.39 844.735C2321.35 847.85 2322.03 851.6 2321.3 855.206C2320.56 858.813 2318.47 861.997 2315.44 864.097L2240.35 914.589C2236.35 917.284 2231.64 918.719 2226.82 918.708H2208.16C2207.12 918.712 2206.08 918.463 2205.15 917.984C2204.22 917.505 2203.42 916.81 2202.81 915.956C2202.21 915.102 2201.82 914.115 2201.67 913.079C2201.53 912.042 2201.63 910.986 2201.98 909.999C2202.73 907.724 2204.04 905.674 2205.79 904.038C2207.53 902.403 2209.67 901.235 2211.99 900.642C2224.35 897.64 2247.94 853.327 2250.42 848.325Z" stroke="#263238" stroke-linecap="round" stroke-linejoin="round"/>
<path d="M2158.08 570.853C2158.08 570.853 2168.85 571.618 2186.98 585.271" stroke="#7F7F7F" stroke-linecap="round" stroke-linejoin="round"/>
<path d="M2229.47 818.018L2221.46 877.867L2257.07 883.988L2275.37 825.139L2229.47 818.018Z" fill="white" stroke="#263238" stroke-linecap="round" stroke-linejoin="round"/>
<path d="M2352.46 467.868C2354.64 476.106 2350.87 503.177 2343.28 507.002C2313.85 522.597 2265.24 564.026 2254.48 608.34C2240.82 664.481 2225.64 836.143 2225.64 836.143C2225.64 836.143 2237.82 855.858 2269.72 846.736C2269.72 846.736 2328.92 703.969 2333.45 634.115C2364.1 613.788 2396.68 596.54 2430.73 582.623C2459.45 571.795 2475.1 553.787 2480.81 538.368C2495.99 497.174 2465.63 430.557 2465.63 430.557L2353.22 453.155L2352.46 467.868Z" fill="#263238" stroke="#263238" stroke-linecap="round" stroke-linejoin="round"/>
<path d="M2305.85 615.931C2313.68 616.799 2320.99 620.258 2326.62 625.759" stroke="#7F7F7F" stroke-linecap="round" stroke-linejoin="round"/>
<path d="M2219.93 863.096C2219.29 862.537 2218.51 862.156 2217.67 861.991C2216.84 861.825 2215.97 861.882 2215.16 862.155C2204.98 865.627 2167.5 877.691 2145.84 876.69C2130.07 875.925 2125.13 884.87 2123.65 891.697C2123.46 892.638 2123.46 893.61 2123.65 894.551C2123.85 895.493 2124.23 896.385 2124.78 897.173C2125.33 897.961 2126.04 898.628 2126.86 899.133C2127.68 899.639 2128.59 899.972 2129.54 900.112L2251.3 918.532C2254.92 919.105 2258.63 918.256 2261.65 916.162C2264.66 914.068 2266.75 910.89 2267.48 907.292C2269.7 897.091 2269.38 886.5 2266.54 876.455C2266.16 875.259 2265.34 874.251 2264.25 873.63C2263.16 873.009 2261.88 872.82 2260.66 873.1C2253.56 874.693 2246.18 874.619 2239.12 872.883C2232.05 871.147 2225.48 867.797 2219.93 863.096Z" fill="#263238"/>
<path d="M2219.93 863.096C2219.29 862.537 2218.51 862.156 2217.67 861.991C2216.84 861.825 2215.97 861.882 2215.16 862.155C2204.98 865.627 2167.5 877.691 2145.84 876.69C2130.07 875.925 2125.13 884.87 2123.65 891.697C2123.46 892.638 2123.46 893.61 2123.65 894.551C2123.85 895.493 2124.23 896.385 2124.78 897.173C2125.33 897.961 2126.04 898.628 2126.86 899.133C2127.68 899.639 2128.59 899.972 2129.54 900.112L2251.3 918.532C2254.92 919.105 2258.63 918.256 2261.65 916.162C2264.66 914.068 2266.75 910.89 2267.48 907.292C2269.7 897.091 2269.38 886.5 2266.54 876.455C2266.16 875.259 2265.34 874.251 2264.25 873.63C2263.16 873.009 2261.88 872.82 2260.66 873.1C2253.56 874.693 2246.18 874.619 2239.12 872.883C2232.05 871.147 2225.48 867.797 2219.93 863.096Z" fill="#BFBFBF" stroke="#263238" stroke-linecap="round" stroke-linejoin="round"/>
<path d="M2219.93 863.096C2219.29 862.537 2218.51 862.156 2217.67 861.991C2216.84 861.825 2215.97 861.882 2215.16 862.155C2204.98 865.627 2167.5 877.691 2145.84 876.69C2130.07 875.925 2125.13 884.87 2123.65 891.697C2123.46 892.638 2123.46 893.61 2123.65 894.551C2123.85 895.493 2124.23 896.385 2124.78 897.173C2125.33 897.961 2126.04 898.628 2126.86 899.133C2127.68 899.639 2128.59 899.972 2129.54 900.112L2251.3 918.532C2254.92 919.105 2258.63 918.256 2261.65 916.162C2264.66 914.068 2266.75 910.89 2267.48 907.292C2269.7 897.091 2269.38 886.5 2266.54 876.455C2266.16 875.259 2265.34 874.251 2264.25 873.63C2263.16 873.009 2261.88 872.82 2260.66 873.1C2253.56 874.693 2246.18 874.619 2239.12 872.883C2232.05 871.147 2225.48 867.797 2219.93 863.096Z" stroke="#263238" stroke-linecap="round" stroke-linejoin="round"/>
<path d="M2277.37 566.263C2298.08 536.07 2329.34 514.721 2364.99 506.414" stroke="#7F7F7F" stroke-linecap="round" stroke-linejoin="round"/>
<path d="M2482.34 454.921C2389.65 480.756 2271.19 460.806 2271.19 460.806C2273.21 443.606 2272.75 426.207 2269.84 409.136H2378.82C2382.71 409.151 2386.57 408.394 2390.16 406.909C2393.76 405.424 2397.03 403.241 2399.77 400.486C2405.22 394.967 2408.26 387.523 2408.25 379.771H2264.36C2260.48 362.116 2255.18 341.99 2248.41 319.745C2242.46 298.845 2238.52 277.425 2236.64 255.776L2199.57 322.746C2199.57 322.746 2194.86 339.048 2171.15 339.518C2147.43 339.989 2150.14 331.397 2170.68 264.486C2183.58 225.769 2203.87 189.917 2230.41 158.911C2231.51 157.618 2232.99 156.71 2234.64 156.322C2234.64 155.792 2234.64 155.498 2234.64 155.498C2386.59 116.246 2451.97 164.796 2451.97 164.796C2409.42 288.379 2482.34 454.921 2482.34 454.921Z" fill="#1C8FC5" stroke="#263238" stroke-linecap="round" stroke-linejoin="round"/>
<path d="M2270.07 350.288C2270.07 350.288 2249.94 362.469 2255.77 365.294C2265.54 370.061 2286.78 355.054 2286.78 355.054C2286.78 355.054 2309.91 353.524 2298.14 348.228L2286.37 342.932L2270.07 350.288Z" fill="white"/>
<path opacity="0.2" d="M2270.07 350.288C2270.07 350.288 2249.94 362.469 2255.77 365.294C2265.54 370.061 2286.78 355.054 2286.78 355.054C2286.78 355.054 2309.91 353.524 2298.14 348.228L2286.37 342.932L2270.07 350.288Z" fill="black"/>
<path d="M2270.07 350.288C2270.07 350.288 2249.94 362.469 2255.77 365.294C2265.54 370.061 2286.78 355.054 2286.78 355.054C2286.78 355.054 2309.91 353.524 2298.14 348.228L2286.37 342.932L2270.07 350.288Z" stroke="#263238" stroke-linecap="round" stroke-linejoin="round"/>
<path d="M2296.43 167.856C2296.43 167.856 2308.2 221.409 2322.92 221.409C2337.63 221.409 2368.29 140.845 2368.29 140.845L2347.93 126.897L2296.43 167.856Z" fill="white"/>
<path d="M2263.66 122.131C2265.01 128.825 2267.19 135.327 2270.13 141.492C2280.19 160.677 2294.43 191.808 2313.32 186.923C2330.04 182.627 2354.81 157.499 2357.52 142.434C2359.02 133.914 2359.92 125.302 2360.23 116.658L2263.66 122.131Z" fill="#263238" stroke="#263238" stroke-linecap="round" stroke-linejoin="round"/>
<path d="M2296.43 167.856C2296.43 167.856 2308.2 221.409 2322.92 221.409C2337.63 221.409 2368.29 140.845 2368.29 140.845L2347.93 126.897L2296.43 167.856Z" stroke="#263238" stroke-linecap="round" stroke-linejoin="round"/>
<path d="M2268.54 10.6711C2268.54 10.6711 2226.4 22.4409 2233.88 88.1161C2241.65 156.616 2251.53 130.016 2247.18 144.081C2242.82 158.146 2309.44 159.323 2309.44 159.323C2309.44 159.323 2367.64 152.144 2385.3 164.855C2402.95 177.566 2413.19 147.2 2406.36 126.898C2399.54 106.595 2375.06 68.696 2368.05 38.0358C2357.99 -5.86543 2294.73 -4.68844 2268.54 10.6711Z" fill="#263238" stroke="#263238" stroke-linecap="round" stroke-linejoin="round"/>
<path d="M2255.77 66.1067C2255.77 66.1067 2255.77 114.716 2265.54 134.489C2275.31 154.262 2288.2 186.099 2308.2 182.451C2325.86 179.096 2353.81 155.616 2357.58 140.609C2359.83 131.666 2361.35 122.553 2362.11 113.362C2364.29 112.421 2371.11 117.658 2374.23 100.474C2375.41 94.2364 2381.35 75.8167 2367.82 73.1097C2353.17 70.2849 2353.28 91.3528 2353.28 91.3528L2331.74 36.5057L2281.96 28.1492L2265.3 35.7407L2255.77 66.1067Z" fill="white" stroke="#263238" stroke-linecap="round" stroke-linejoin="round"/>
<path d="M2287.2 113.421C2286.43 119.701 2285.05 125.89 2283.08 131.9C2282.8 132.898 2282.92 133.965 2283.41 134.876C2283.91 135.787 2284.74 136.471 2285.72 136.784L2295.91 139.785" stroke="#263238" stroke-linecap="round" stroke-linejoin="round"/>
<path d="M2303.85 150.025C2303.85 150.025 2322.68 149.495 2330.33 138.961" stroke="#263238" stroke-linecap="round" stroke-linejoin="round"/>
<path d="M2264.72 98.297C2265.15 97.3362 2265.78 96.4715 2266.55 95.7527C2267.32 95.0339 2268.23 94.4751 2269.22 94.1086C2270.21 93.7421 2271.26 93.5751 2272.32 93.6173C2273.37 93.6594 2274.41 93.9098 2275.37 94.3541" stroke="#263238" stroke-linecap="round" stroke-linejoin="round"/>
<path d="M2297.61 90.9409C2297.61 90.9409 2306.97 84.2321 2319.5 93.5891" stroke="#263238" stroke-linecap="round" stroke-linejoin="round"/>
<path d="M2274.95 113.127C2275.31 115.716 2274.6 118.07 2273.25 118.247C2271.89 118.423 2270.54 116.422 2270.13 113.774C2269.72 111.126 2270.54 108.831 2271.84 108.654C2273.13 108.478 2274.54 110.479 2274.95 113.127Z" fill="#263238"/>
<path d="M2308.73 111.126C2309.15 113.774 2308.38 116.069 2307.09 116.246C2305.79 116.422 2304.32 114.422 2303.97 111.832C2303.62 109.243 2304.32 106.83 2305.67 106.653C2307.03 106.477 2308.21 108.478 2308.73 111.126Z" fill="#263238"/>
<path d="M2252.59 36.5057C2252.59 36.5057 2236.29 79.4065 2260.18 78.2883C2284.08 77.1702 2304.38 61.8107 2328.15 74.4632C2351.93 87.1157 2324.39 50.9237 2324.39 50.9237C2324.39 50.9237 2348.69 76.7583 2347.93 94.5895C2347.16 112.421 2356.64 83.5847 2355.11 74.1101C2353.58 64.6354 2337.63 17.6741 2337.63 17.6741L2311.85 11.7892L2267.72 16.3205L2252.59 36.5057Z" fill="#263238" stroke="#263238" stroke-linecap="round" stroke-linejoin="round"/>
<path d="M2359.4 133.547C2357.81 140.433 2332.92 165.032 2349.4 170.151C2365.88 175.271 2401.77 170.151 2407.19 151.849C2412.6 133.547 2395.42 123.896 2395.42 123.896C2395.42 123.896 2361.46 124.367 2359.4 133.547Z" fill="#263238" stroke="#263238" stroke-linecap="round" stroke-linejoin="round"/>
<path d="M2363.11 333.751L2308.44 336.458C2308.44 336.458 2262.48 325.218 2246.88 326.16C2234.75 327.595 2222.95 331.077 2211.99 336.458C2207.04 340.136 2203.22 345.132 2200.98 350.876C2200.53 353.702 2200.53 356.583 2200.98 359.409C2200.98 360.901 2201.54 362.339 2202.56 363.431C2203.57 364.524 2204.97 365.19 2206.46 365.294C2216.93 366.059 2234.29 367.001 2238.41 361.822C2238.41 361.822 2235 365.882 2241.18 365.882C2247.35 365.882 2255.77 356.114 2255.77 356.114L2274.25 355.349C2274.25 355.349 2282.19 365.235 2306.14 365.882C2310.03 365.318 2313.84 364.311 2317.5 362.881L2361.93 368.766L2367.82 361.175V335.458L2363.11 333.751Z" fill="white" stroke="#263238" stroke-linecap="round" stroke-linejoin="round"/>
<path d="M2209.34 361.116C2209.34 361.116 2214.46 342.755 2220.34 339.106C2225.53 336.531 2230.85 334.252 2236.29 332.28" stroke="#263238" stroke-linecap="round" stroke-linejoin="round"/>
<path d="M2222.05 361.116C2222.66 356.789 2223.93 352.581 2225.82 348.64C2230.65 343.235 2236.7 339.059 2243.47 336.458C2247.6 336.063 2251.76 336.063 2255.89 336.458" stroke="#263238" stroke-linecap="round" stroke-linejoin="round"/>
<path d="M2239.65 357.703C2239.65 357.703 2241.29 349.876 2243.35 348.228C2247.18 345.961 2251.39 344.424 2255.77 343.697C2259.02 343.453 2262.29 343.453 2265.54 343.697" stroke="#263238" stroke-linecap="round" stroke-linejoin="round"/>
<path d="M2353.52 369.472C2353.52 369.472 2458.8 383.184 2481.57 384.302C2504.35 385.42 2498.64 273.784 2496.34 225.94C2494.05 178.096 2447.32 161.913 2447.32 161.913C2414.25 230.648 2451.91 320.51 2451.91 320.51L2358.52 331.927C2358.52 331.927 2365.64 355.819 2353.52 369.472Z" fill="#1C8FC5" stroke="#263238" stroke-linecap="round" stroke-linejoin="round"/>
<path d="M2407.42 206.579C2408.7 230.061 2417.42 252.527 2432.32 270.724" stroke="#263238" stroke-linecap="round" stroke-linejoin="round"/>
<path d="M2245.88 195.28C2241.46 217.079 2239.07 239.243 2238.76 261.485" stroke="#263238" stroke-linecap="round" stroke-linejoin="round"/>
<path d="M2176.68 227.117H2153.14L2185.56 379.771H2209.1C2210.66 379.831 2212.22 379.52 2213.63 378.864C2215.05 378.208 2216.29 377.225 2217.26 375.996C2218.22 374.768 2218.88 373.328 2219.18 371.795C2219.49 370.262 2219.42 368.679 2218.99 367.177L2191.86 239.652C2191.03 236.197 2189.1 233.106 2186.37 230.845C2183.63 228.583 2180.23 227.275 2176.68 227.117Z" fill="#263238"/>
<path opacity="0.2" d="M2176.68 227.117H2153.14L2185.56 379.771H2209.1C2210.66 379.831 2212.22 379.52 2213.63 378.864C2215.05 378.208 2216.29 377.225 2217.26 375.996C2218.22 374.768 2218.88 373.328 2219.18 371.795C2219.49 370.262 2219.42 368.679 2218.99 367.177L2191.86 239.652C2191.03 236.197 2189.1 233.106 2186.37 230.845C2183.63 228.583 2180.23 227.275 2176.68 227.117Z" fill="white"/>
<path d="M2176.68 227.117H2153.14L2185.56 379.771H2209.1C2210.66 379.831 2212.22 379.52 2213.63 378.864C2215.05 378.208 2216.29 377.225 2217.26 375.996C2218.22 374.768 2218.88 373.328 2219.18 371.795C2219.49 370.262 2219.42 368.679 2218.99 367.177L2191.86 239.652C2191.03 236.197 2189.1 233.106 2186.37 230.845C2183.63 228.583 2180.23 227.275 2176.68 227.117Z" stroke="#263238" stroke-linecap="round" stroke-linejoin="round"/>
<path d="M2219.05 367.177H2342.63V373.062C2342.63 373.974 2342.45 374.877 2342.1 375.72C2341.75 376.562 2341.24 377.328 2340.6 377.972C2339.95 378.617 2339.19 379.129 2338.34 379.478C2337.5 379.827 2336.6 380.006 2335.69 380.006H2225.82C2224.9 380.006 2224 379.827 2223.16 379.478C2222.32 379.129 2221.55 378.617 2220.91 377.972C2220.26 377.328 2219.75 376.562 2219.4 375.72C2219.05 374.877 2218.87 373.974 2218.87 373.062V367.177H2219.05Z" fill="#263238"/>
<path opacity="0.2" d="M2219.05 367.177H2342.63V373.062C2342.63 373.974 2342.45 374.877 2342.1 375.72C2341.75 376.562 2341.24 377.328 2340.6 377.972C2339.95 378.617 2339.19 379.129 2338.34 379.478C2337.5 379.827 2336.6 380.006 2335.69 380.006H2225.82C2224.9 380.006 2224 379.827 2223.16 379.478C2222.32 379.129 2221.55 378.617 2220.91 377.972C2220.26 377.328 2219.75 376.562 2219.4 375.72C2219.05 374.877 2218.87 373.974 2218.87 373.062V367.177H2219.05Z" fill="white"/>
<path d="M2219.05 367.177H2342.63V373.062C2342.63 373.974 2342.45 374.877 2342.1 375.72C2341.75 376.562 2341.24 377.328 2340.6 377.972C2339.95 378.617 2339.19 379.129 2338.34 379.478C2337.5 379.827 2336.6 380.006 2335.69 380.006H2225.82C2224.9 380.006 2224 379.827 2223.16 379.478C2222.32 379.129 2221.55 378.617 2220.91 377.972C2220.26 377.328 2219.75 376.562 2219.4 375.72C2219.05 374.877 2218.87 373.974 2218.87 373.062V367.177H2219.05Z" stroke="#263238" stroke-linecap="round" stroke-linejoin="round"/>
<path d="M2200.04 379.771H2008.66C2005.1 379.613 2001.69 378.298 1998.94 376.026C1996.19 373.753 1994.25 370.647 1993.42 367.177L1966.35 239.652C1965.92 238.153 1965.85 236.572 1966.15 235.042C1966.45 233.511 1967.11 232.074 1968.08 230.849C1969.05 229.624 1970.29 228.647 1971.71 227.998C1973.13 227.349 1974.68 227.047 1976.24 227.117H2167.61C2171.17 227.265 2174.57 228.57 2177.31 230.833C2180.05 233.096 2181.98 236.193 2182.8 239.652L2209.93 367.177C2210.36 368.68 2210.42 370.262 2210.12 371.795C2209.82 373.328 2209.16 374.768 2208.2 375.997C2207.23 377.225 2205.99 378.208 2204.57 378.864C2203.15 379.52 2201.6 379.831 2200.04 379.771Z" fill="#263238"/>
<path d="M2200.04 379.771H2008.66C2005.1 379.613 2001.69 378.298 1998.94 376.026C1996.19 373.753 1994.25 370.647 1993.42 367.177L1966.35 239.652C1965.92 238.153 1965.85 236.572 1966.15 235.042C1966.45 233.511 1967.11 232.074 1968.08 230.849C1969.05 229.624 1970.29 228.647 1971.71 227.998C1973.13 227.349 1974.68 227.047 1976.24 227.117H2167.61C2171.17 227.265 2174.57 228.57 2177.31 230.833C2180.05 233.096 2181.98 236.193 2182.8 239.652L2209.93 367.177C2210.36 368.68 2210.42 370.262 2210.12 371.795C2209.82 373.328 2209.16 374.768 2208.2 375.997C2207.23 377.225 2205.99 378.208 2204.57 378.864C2203.15 379.52 2201.6 379.831 2200.04 379.771Z" fill="#BFBFBF" stroke="#263238" stroke-linecap="round" stroke-linejoin="round"/>
<path d="M2200.04 379.771H2008.66C2005.1 379.613 2001.69 378.298 1998.94 376.026C1996.19 373.753 1994.25 370.647 1993.42 367.177L1966.35 239.652C1965.92 238.153 1965.85 236.572 1966.15 235.042C1966.45 233.511 1967.11 232.074 1968.08 230.849C1969.05 229.624 1970.29 228.647 1971.71 227.998C1973.13 227.349 1974.68 227.047 1976.24 227.117H2167.61C2171.17 227.265 2174.57 228.57 2177.31 230.833C2180.05 233.096 2181.98 236.193 2182.8 239.652L2209.93 367.177C2210.36 368.68 2210.42 370.262 2210.12 371.795C2209.82 373.328 2209.16 374.768 2208.2 375.997C2207.23 377.225 2205.99 378.208 2204.57 378.864C2203.15 379.52 2201.6 379.831 2200.04 379.771Z" stroke="#263238" stroke-linecap="round" stroke-linejoin="round"/>
<path d="M1836.88 177.449C1827.9 177.079 1819.41 173.25 1813.18 166.763C1806.95 160.275 1803.48 151.631 1803.48 142.64C1803.48 133.648 1806.95 125.004 1813.18 118.516C1819.41 112.029 1827.9 108.2 1836.88 107.83H2096.82C2105.8 108.2 2114.3 112.029 2120.52 118.516C2126.75 125.004 2130.23 133.648 2130.23 142.64C2130.23 151.631 2126.75 160.275 2120.52 166.763C2114.3 173.25 2105.8 177.079 2096.82 177.449H1836.88Z" fill="white"/>
<path d="M1836.88 177.449C1827.9 177.079 1819.41 173.25 1813.18 166.763C1806.95 160.275 1803.48 151.631 1803.48 142.64C1803.48 133.648 1806.95 125.004 1813.18 118.516C1819.41 112.029 1827.9 108.2 1836.88 107.83H2096.82C2105.8 108.2 2114.3 112.029 2120.52 118.516C2126.75 125.004 2130.23 133.648 2130.23 142.64C2130.23 151.631 2126.75 160.275 2120.52 166.763C2114.3 173.25 2105.8 177.079 2096.82 177.449H1836.88Z" stroke="#263238" stroke-miterlimit="10"/>
<path d="M1992.36 119.718H1836.88C1831.01 120.016 1825.47 122.561 1821.41 126.827C1817.36 131.093 1815.1 136.754 1815.1 142.64C1815.1 148.525 1817.36 154.186 1821.41 158.452C1825.47 162.718 1831.01 165.263 1836.88 165.561H1981.77L1992.36 119.718Z" fill="#1C8FC5"/>
<path d="M1988.13 690.493V379.712H2408.25C2408.25 383.607 2407.49 387.464 2405.99 391.06C2404.5 394.657 2402.3 397.92 2399.54 400.662C2396.79 403.418 2393.53 405.601 2389.93 407.086C2386.33 408.571 2382.48 409.328 2378.59 409.313H2031.62V736.689" stroke="#263238" stroke-linecap="round" stroke-linejoin="round"/>
<path d="M2079.22 1771.02H1888.08C1883.8 1771 1879.69 1769.34 1876.61 1766.37C1873.53 1763.39 1871.71 1759.35 1871.55 1755.07L1858.42 1402.45C1858.33 1400.13 1858.73 1397.82 1859.6 1395.67C1860.46 1393.52 1861.77 1391.58 1863.44 1389.97C1865.1 1388.36 1867.09 1387.12 1869.27 1386.32C1871.45 1385.53 1873.77 1385.21 1876.08 1385.38L2099.7 1401.15C2104.01 1401.42 2108.03 1403.37 2110.92 1406.57C2113.81 1409.77 2115.34 1413.97 2115.18 1418.28L2095.76 1755.19C2095.56 1759.44 2093.74 1763.46 2090.66 1766.41C2087.58 1769.36 2083.48 1771.01 2079.22 1771.02V1771.02Z" fill="#1C8FC5" stroke="#263238" stroke-linecap="round" stroke-linejoin="round"/>
<path d="M1943.64 1560.57C1945.01 1555.8 1945.95 1550.92 1946.46 1545.98C1946.46 1542.8 1944.69 1535.74 1941.99 1534.21C1939.28 1532.68 1925.33 1535.21 1925.33 1535.21C1925.33 1535.21 1928.63 1524.32 1926.39 1521.85C1924.16 1519.38 1917.04 1520.38 1914.27 1521.85C1909.74 1523.91 1904.27 1532.97 1901.21 1536.92C1897.5 1541.74 1891.02 1552.04 1887.55 1556.98C1885.91 1559.45 1880.73 1566.75 1880.73 1566.75L1838.18 1581.93L1840.47 1625.01L1888.44 1596.06C1888.44 1596.06 1931.45 1596.06 1940.52 1586.35C1944.93 1581.29 1942.64 1566.87 1943.64 1560.57Z" fill="white" stroke="#263238" stroke-linecap="round" stroke-linejoin="round"/>
<path d="M1874.43 1473.36C1872.02 1507.49 1866.9 1543.33 1856.48 1563.93H1874.14C1874.14 1563.93 1858.13 1592.59 1868.25 1619.66C1868.25 1619.66 1819.64 1652.32 1808.81 1631.43C1797.98 1610.53 1810.52 1526.09 1821.64 1485.48C1832.76 1444.88 1836.18 1382.5 1875.84 1385.44" fill="#1C8FC5"/>
<path d="M1874.43 1473.36C1872.02 1507.49 1866.9 1543.33 1856.48 1563.93H1874.14C1874.14 1563.93 1858.13 1592.59 1868.25 1619.66C1868.25 1619.66 1819.64 1652.32 1808.81 1631.43C1797.98 1610.53 1810.52 1526.09 1821.64 1485.48C1832.76 1444.88 1836.18 1382.5 1875.84 1385.44" stroke="#263238" stroke-linecap="round" stroke-linejoin="round"/>
<path d="M1849.18 1566.75C1841.11 1569.9 1834.2 1575.47 1829.41 1582.7" stroke="#263238" stroke-linecap="round" stroke-linejoin="round"/>
<path d="M1944.11 1455.88L1952.11 1454.82C1953.42 1454.64 1954.75 1454.72 1956.02 1455.05C1957.3 1455.38 1958.5 1455.97 1959.55 1456.77C1960.6 1457.56 1961.48 1458.56 1962.14 1459.7C1962.8 1460.84 1963.24 1462.11 1963.41 1463.41L1972.41 1529.5C1972.6 1530.81 1972.52 1532.14 1972.18 1533.42C1971.85 1534.7 1971.27 1535.91 1970.47 1536.96C1969.67 1538.02 1968.68 1538.9 1967.53 1539.57C1966.39 1540.24 1965.13 1540.68 1963.82 1540.86L1955.82 1541.92L1944.11 1455.88Z" fill="white" stroke="#263238" stroke-linecap="round" stroke-linejoin="round"/>
<path d="M1930.49 1545.42L1956.9 1541.82C1963.18 1540.96 1967.58 1535.18 1966.72 1528.9L1958.1 1465.57C1957.24 1459.29 1951.46 1454.9 1945.18 1455.75L1918.76 1459.35C1912.48 1460.21 1908.08 1465.99 1908.94 1472.27L1917.57 1535.6C1918.43 1541.88 1924.21 1546.27 1930.49 1545.42Z" fill="#BFBFBF"/>
<path d="M1930.49 1545.42L1956.9 1541.82C1963.18 1540.96 1967.58 1535.18 1966.72 1528.9L1958.1 1465.57C1957.24 1459.29 1951.46 1454.9 1945.18 1455.75L1918.76 1459.35C1912.48 1460.21 1908.08 1465.99 1908.94 1472.27L1917.57 1535.6C1918.43 1541.88 1924.21 1546.27 1930.49 1545.42Z" stroke="#263238" stroke-linecap="round" stroke-linejoin="round"/>
<path d="M1915.04 1470.18C1915.1 1470.66 1915.26 1471.11 1915.5 1471.53C1915.74 1471.94 1916.07 1472.3 1916.45 1472.59C1916.83 1472.88 1917.27 1473.09 1917.73 1473.22C1918.2 1473.34 1918.68 1473.37 1919.15 1473.3C1919.63 1473.23 1920.09 1473.08 1920.5 1472.83C1920.92 1472.59 1921.28 1472.27 1921.57 1471.89C1921.86 1471.5 1922.07 1471.07 1922.19 1470.6C1922.31 1470.14 1922.34 1469.66 1922.27 1469.18C1922.13 1468.23 1921.62 1467.37 1920.85 1466.78C1920.08 1466.2 1919.11 1465.94 1918.15 1466.06C1917.68 1466.13 1917.22 1466.28 1916.81 1466.53C1916.39 1466.77 1916.03 1467.09 1915.74 1467.47C1915.45 1467.86 1915.24 1468.29 1915.12 1468.76C1915 1469.22 1914.97 1469.71 1915.04 1470.18V1470.18Z" fill="white" stroke="#263238" stroke-linecap="round" stroke-linejoin="round"/>
<path d="M1921.74 1535.33C1920.92 1530.43 1920.52 1525.46 1920.57 1520.5C1921.16 1517.32 1923.45 1510.49 1926.45 1509.08C1929.45 1507.67 1942.93 1511.96 1942.93 1511.96C1942.93 1511.96 1940.81 1500.72 1943.34 1498.55C1945.87 1496.37 1952.82 1498.13 1955.11 1499.66C1959.41 1502.19 1963.82 1511.85 1966.41 1516.08C1969.53 1521.32 1974.83 1532.21 1977.71 1537.56C1979.12 1540.21 1983.59 1547.98 1983.59 1547.98L2021.61 1565.4L2003.96 1597.35L1972.77 1576.29C1972.77 1576.29 1929.98 1571.4 1922.04 1560.81C1918.15 1555.69 1922.04 1541.86 1921.74 1535.33Z" fill="white" stroke="#263238" stroke-linecap="round" stroke-linejoin="round"/>
<path d="M2096.35 1419.28C2097.29 1415.04 2098.29 1410.86 2099.41 1406.74C2099.64 1405.67 2100.16 1404.69 2100.91 1403.9C2101.67 1403.11 2102.63 1402.55 2103.68 1402.28C2104.74 1402 2105.85 1402.03 2106.89 1402.35C2107.94 1402.67 2108.87 1403.27 2109.59 1404.09L2111.06 1405.68C2118.85 1413.98 2124.46 1424.1 2127.36 1435.11C2137.72 1474.36 2160.14 1572.99 2144.25 1645.37C2143.34 1649.44 2141.02 1653.05 2137.7 1655.57C2134.39 1658.09 2130.29 1659.36 2126.13 1659.14C2097 1657.38 2046.03 1650.08 1990.3 1594.88C1990.3 1594.88 2002.07 1567.28 2015.9 1557.81L2092.99 1588.94C2089.34 1561.35 2087.61 1533.55 2087.82 1505.73" fill="#1C8FC5"/>
<path d="M2096.35 1419.28C2097.29 1415.04 2098.29 1410.86 2099.41 1406.74C2099.64 1405.67 2100.16 1404.69 2100.91 1403.9C2101.67 1403.11 2102.63 1402.55 2103.68 1402.28C2104.74 1402 2105.85 1402.03 2106.89 1402.35C2107.94 1402.67 2108.87 1403.27 2109.59 1404.09L2111.06 1405.68C2118.85 1413.98 2124.46 1424.1 2127.36 1435.11C2137.72 1474.36 2160.14 1572.99 2144.25 1645.37C2143.34 1649.44 2141.02 1653.05 2137.7 1655.57C2134.39 1658.09 2130.29 1659.36 2126.13 1659.14C2097 1657.38 2046.03 1650.08 1990.3 1594.88C1990.3 1594.88 2002.07 1567.28 2015.9 1557.81L2092.99 1588.94C2089.34 1561.35 2087.61 1533.55 2087.82 1505.73" stroke="#263238" stroke-linecap="round" stroke-linejoin="round"/>
<path d="M2099.64 1593.94C2102.83 1595.66 2105.64 1598 2107.92 1600.82C2110.19 1603.63 2111.88 1606.88 2112.88 1610.36" stroke="#263238" stroke-linecap="round" stroke-linejoin="round"/>
<path d="M1995.89 1340.65L2045.97 1260.33C2045.97 1260.33 2071.93 1249.56 2058.04 1235.73C2058.04 1235.73 2080.34 1197.12 2051.39 1197.12C2051.39 1197.12 2047.68 1165.76 2019.67 1178.41C2019.67 1178.41 1995.31 1149.45 1979 1170.58C1979 1170.58 1945.58 1154.28 1936.99 1174.76C1936.99 1174.76 1912.56 1174.76 1913.45 1192.88C1913.45 1192.88 1898.09 1213.36 1918.33 1215.78C1918.33 1215.78 1912.98 1232.08 1936.93 1232.08C1960.88 1232.08 1990.42 1261.5 1990.42 1261.5L1996.31 1291.63L1995.89 1340.65Z" fill="#263238" stroke="#263238" stroke-linecap="round" stroke-linejoin="round"/>
<path d="M2028.5 1397.15C2028.5 1397.15 1974.06 1427.04 1934.34 1388.73C1934.34 1388.73 1944.34 1369.9 1947.81 1323.12L2005.54 1312.82C2003.88 1328.73 2004.47 1344.8 2007.31 1360.55C2011.14 1378.38 2021.55 1394.74 2028.5 1397.15Z" fill="white"/>
<path d="M2009.66 1314.23L2008.02 1320.12C2007.05 1323.63 2005.41 1326.93 2003.19 1329.83C1994.36 1341.6 1969.59 1371.02 1945.4 1368.37C1922.98 1366.14 1916.74 1331.53 1915.09 1314.17L2009.66 1314.23Z" fill="#263238" stroke="#263238" stroke-linecap="round" stroke-linejoin="round"/>
<path d="M2028.5 1397.15C2028.5 1397.15 1974.06 1427.04 1934.34 1388.73C1934.34 1388.73 1944.34 1369.9 1947.81 1323.12L2005.54 1312.82C2003.88 1328.73 2004.47 1344.8 2007.31 1360.55C2011.14 1378.38 2021.55 1394.74 2028.5 1397.15Z" stroke="#263238" stroke-linecap="round" stroke-linejoin="round"/>
<path d="M1923.04 1223.6L1913.92 1252.68C1912.91 1255.75 1912.63 1259.01 1913.09 1262.21L1914.39 1270.8L1909.62 1289.93C1909.39 1290.92 1909.21 1291.92 1909.09 1292.93C1908.09 1302.99 1904.21 1356.66 1932.63 1363.55C1957.76 1369.43 1988.36 1342.36 1999.42 1331.36C2002.18 1328.63 2004.37 1325.39 2005.9 1321.82L2012.25 1307.35C2015.88 1307.88 2019.59 1307.28 2022.86 1305.61C2026.13 1303.95 2028.8 1301.3 2030.5 1298.05C2036.38 1286.28 2044.03 1279.63 2032.67 1271.51C2021.32 1263.39 2014.14 1279.86 2014.14 1279.86C2014.14 1279.86 2014.49 1259.15 2011.78 1252.91C2009.08 1246.67 1999.72 1239.43 1997.31 1234.02C1996.12 1229.83 1995.33 1225.53 1994.95 1221.19C1994.95 1221.19 1956.11 1222.25 1928.51 1211.72L1923.04 1223.6Z" fill="white" stroke="#263238" stroke-linecap="round" stroke-linejoin="round"/>
<path d="M1923.04 1223.6L1913.92 1252.68C1912.91 1255.75 1912.63 1259.01 1913.09 1262.21L1914.39 1270.8L1909.62 1289.93C1909.39 1290.92 1909.21 1291.92 1909.09 1292.93C1908.09 1302.99 1904.21 1356.66 1932.63 1363.55C1957.76 1369.43 1988.36 1342.36 1999.42 1331.36C2002.18 1328.63 2004.37 1325.39 2005.9 1321.82L2012.25 1307.35C2015.88 1307.88 2019.59 1307.28 2022.86 1305.61C2026.13 1303.95 2028.8 1301.3 2030.5 1298.05C2036.38 1286.28 2044.03 1279.63 2032.67 1271.51C2021.32 1263.39 2014.14 1279.86 2014.14 1279.86C2014.14 1279.86 2014.49 1259.15 2011.78 1252.91C2009.08 1246.67 1999.72 1239.43 1997.31 1234.02C1996.12 1229.83 1995.33 1225.53 1994.95 1221.19C1994.95 1221.19 1956.11 1222.25 1928.51 1211.72L1923.04 1223.6Z" fill="white" stroke="#263238" stroke-linecap="round" stroke-linejoin="round"/>
<path d="M1941.1 1281.04L1926.86 1303.93C1926.46 1304.7 1926.23 1305.54 1926.2 1306.4C1926.16 1307.27 1926.31 1308.13 1926.64 1308.93C1926.97 1309.72 1927.47 1310.44 1928.11 1311.02C1928.75 1311.6 1929.51 1312.03 1930.34 1312.29L1942.87 1315.23" stroke="#263238" stroke-linecap="round" stroke-linejoin="round"/>
<path d="M1961.82 1328.35C1953.11 1335.3 1942.05 1336.3 1936.69 1331.42" stroke="#263238" stroke-linecap="round" stroke-linejoin="round"/>
<path d="M1960.29 1288.81C1959.76 1292.22 1957.99 1294.69 1956.35 1294.69C1954.7 1294.69 1953.87 1291.46 1954.46 1288.1C1955.05 1284.75 1956.76 1282.22 1958.41 1282.22C1960.05 1282.22 1961 1285.57 1960.29 1288.81Z" fill="#263238"/>
<path d="M1928.57 1283.69C1927.98 1287.1 1926.22 1289.57 1924.63 1289.57C1923.04 1289.57 1922.16 1286.34 1922.69 1282.98C1923.21 1279.63 1925.04 1277.1 1926.63 1277.1C1928.22 1277.1 1929.1 1280.33 1928.57 1283.69Z" fill="#263238"/>
<path d="M1915.27 1263.15C1915.7 1261.71 1916.46 1260.39 1917.47 1259.27C1918.48 1258.16 1919.73 1257.29 1921.13 1256.73C1922.52 1256.16 1924.03 1255.92 1925.53 1256.01C1927.03 1256.1 1928.49 1256.53 1929.81 1257.27" stroke="#263238" stroke-linecap="round" stroke-linejoin="round"/>
<path d="M1953.46 1259.38C1957.12 1259.43 1960.67 1260.58 1963.67 1262.68C1966.66 1264.78 1968.95 1267.73 1970.24 1271.15" stroke="#263238" stroke-linecap="round" stroke-linejoin="round"/>
<path d="M2006.55 1220.72C2006.55 1220.72 1974.71 1243.91 1970.94 1227.13C1970.94 1227.13 1944.46 1233.49 1942.69 1224.6C1942.69 1224.6 1916.21 1235.2 1913.27 1226.96C1910.33 1218.72 1934.4 1196.83 1934.4 1196.83L1990.36 1203.95L2006.55 1220.72Z" fill="#263238" stroke="#263238" stroke-linecap="round" stroke-linejoin="round"/>
<path d="M1941.52 1192.18C1937.95 1199.26 1933.48 1205.84 1928.22 1211.78" stroke="#7F7F7F" stroke-linecap="round" stroke-linejoin="round"/>
<path d="M1958.29 1184.59C1953.63 1183.93 1948.91 1185.12 1945.11 1187.88" stroke="#7F7F7F" stroke-linecap="round" stroke-linejoin="round"/>
<path d="M2023.08 1204.07C2007.6 1202.59 2005.43 1215.84 1981.48 1215.07C1958.88 1214.13 1969.35 1196.65 1965.76 1188.59" stroke="#7F7F7F" stroke-linecap="round" stroke-linejoin="round"/>
<path d="M2034.2 1255.91C2034.2 1255.91 2060.86 1217.25 2034.2 1206.95" stroke="#7F7F7F" stroke-linecap="round" stroke-linejoin="round"/>
<path d="M1841.65 2474.2C1836.15 2475.97 1831.1 2478.93 1826.86 2482.87C1822.62 2486.8 1819.29 2491.62 1817.11 2496.97C1816.68 2497.91 1816.51 2498.94 1816.61 2499.97C1816.71 2500.99 1817.07 2501.98 1817.67 2502.82C1818.26 2503.66 1819.07 2504.32 1820 2504.76C1820.94 2505.19 1821.97 2505.36 1823 2505.27H1909.56C1911.23 2505.29 1912.84 2504.7 1914.11 2503.62C1915.38 2502.54 1916.21 2501.04 1916.45 2499.39C1917.86 2488.53 1916.4 2477.49 1912.21 2467.37L1916.98 2414.06H1866.43L1862.54 2465.08L1841.65 2474.2Z" fill="white" stroke="#263238" stroke-linecap="round" stroke-linejoin="round"/>
<path d="M1896.79 2473.67C1905.85 2486.32 1903.62 2467.37 1911.97 2467.37C1916.17 2477.49 1917.63 2488.53 1916.21 2499.39C1915.97 2501.04 1915.14 2502.54 1913.87 2503.62C1912.61 2504.7 1910.99 2505.29 1909.33 2505.27H1822.76C1821.73 2505.36 1820.7 2505.19 1819.77 2504.76C1818.83 2504.32 1818.03 2503.66 1817.43 2502.82C1816.84 2501.98 1816.47 2500.99 1816.37 2499.97C1816.28 2498.94 1816.45 2497.91 1816.87 2496.97C1819.05 2491.62 1822.38 2486.8 1826.62 2482.87C1830.86 2478.93 1835.91 2475.97 1841.41 2474.2L1862.07 2465.08C1862.07 2465.08 1887.79 2461.02 1896.79 2473.67Z" fill="#BFBFBF" stroke="#263238" stroke-linecap="round" stroke-linejoin="round"/>
<path d="M1916.45 2497.56C1916.45 2498.21 1916.45 2498.86 1916.45 2499.39C1916.21 2501.04 1915.38 2502.54 1914.11 2503.62C1912.84 2504.7 1911.23 2505.29 1909.56 2505.27H1822.76C1821.82 2505.31 1820.88 2505.13 1820.03 2504.73C1819.18 2504.34 1818.43 2503.74 1817.85 2503C1817.28 2502.25 1816.89 2501.38 1816.72 2500.46C1816.55 2499.53 1816.6 2498.58 1816.88 2497.68C1822.76 2497.68 1826.88 2497.68 1826.88 2497.68L1916.45 2497.56Z" fill="white" stroke="#263238" stroke-linecap="round" stroke-linejoin="round"/>
<path d="M1877.25 1763.54L1859.6 2446.19H1921.98C1921.98 2446.19 1941.28 2275.53 1943.52 2218.09C1944.52 2192.43 1949.76 2147.47 1951.52 2121.58C1954.64 2075.15 1961.88 2023.42 1979.71 1933.26C1982.59 1918.73 2000.07 1893.6 2003.78 1879.18C2011.02 1851.11 2014.08 1763.37 2014.08 1763.37L1877.25 1763.54Z" fill="#263238" stroke="#263238" stroke-linecap="round" stroke-linejoin="round"/>
<path d="M1920.51 2168.6C1920.51 2168.6 1906.27 2187.43 1886.49 2184.9" stroke="#7F7F7F" stroke-linecap="round" stroke-linejoin="round"/>
<path d="M1869.84 2150.65C1869.84 2150.65 1892.38 2164.07 1925.92 2150.65" stroke="#7F7F7F" stroke-linecap="round" stroke-linejoin="round"/>
<path d="M2145.78 2474.2C2153.84 2477.73 2166.26 2482.97 2170.97 2498.8C2171.17 2499.56 2171.19 2500.36 2171.03 2501.14C2170.87 2501.91 2170.53 2502.64 2170.05 2503.26C2169.57 2503.88 2168.95 2504.39 2168.24 2504.74C2167.53 2505.09 2166.76 2505.27 2165.97 2505.27H2079.4C2077.34 2505.27 2075.35 2504.52 2073.81 2503.15C2072.27 2501.79 2071.29 2499.9 2071.04 2497.86C2070 2487.48 2071.54 2477.01 2075.52 2467.37L2070.69 2414.06H2121.3L2125.13 2465.08L2145.78 2474.2Z" fill="white" stroke="#263238" stroke-linecap="round" stroke-linejoin="round"/>
<path d="M2170.97 2498.8C2171.17 2499.56 2171.19 2500.36 2171.03 2501.14C2170.87 2501.91 2170.53 2502.64 2170.05 2503.26C2169.57 2503.88 2168.95 2504.39 2168.24 2504.74C2167.53 2505.09 2166.76 2505.27 2165.97 2505.27H2079.4C2077.34 2505.27 2075.35 2504.52 2073.81 2503.15C2072.27 2501.79 2071.29 2499.9 2071.04 2497.86C2070 2487.48 2071.54 2477.01 2075.52 2467.37C2083.64 2466.02 2078.4 2483.62 2091.76 2472.79C2105.12 2461.96 2125.13 2465.08 2125.13 2465.08L2145.78 2474.2C2153.84 2477.55 2166.26 2482.97 2170.97 2498.8Z" fill="#BFBFBF" stroke="#263238" stroke-linecap="round" stroke-linejoin="round"/>
<path d="M2170.5 2497.56C2170.5 2498.03 2170.85 2498.39 2170.97 2498.8C2171.17 2499.56 2171.19 2500.36 2171.03 2501.14C2170.87 2501.91 2170.54 2502.64 2170.05 2503.26C2169.57 2503.88 2168.95 2504.39 2168.24 2504.74C2167.53 2505.09 2166.76 2505.27 2165.97 2505.27H2079.4C2077.34 2505.27 2075.35 2504.52 2073.81 2503.15C2072.27 2501.79 2071.29 2499.9 2071.04 2497.86V2497.56H2170.5Z" fill="white" stroke="#263238" stroke-linecap="round" stroke-linejoin="round"/>
<path d="M2089.76 1763.66C2089.76 1763.66 2098.58 1831.51 2099.88 1854.29C2100.59 1867.76 2099.41 1894.83 2099.88 1908.31C2101.53 1960.21 2108 2063.97 2113.12 2115.58C2115.77 2142.76 2125.83 2196.61 2127.66 2223.86C2131.42 2279.35 2127.66 2446.42 2127.66 2446.42H2064.98C2064.98 2446.42 2039.56 2258.11 2032.97 2194.9C2030.61 2172.48 2004.6 1949.68 1986.89 1901.13C1983.54 1891.83 1975.88 1876.24 1972.71 1866.88C1966.37 1847.25 1961.76 1827.11 1958.94 1806.68C1957.99 1795.97 1957.35 1763.78 1957.35 1763.78L2089.76 1763.66Z" fill="#263238" stroke="#263238" stroke-linecap="round" stroke-linejoin="round"/>
<path d="M2101.29 2143.06C2101.29 2143.06 2089.52 2164.42 2048.33 2164.42" stroke="#7F7F7F" stroke-linecap="round" stroke-linejoin="round"/>
<path d="M1985.71 1905.6C1982.36 1896.72 1974.71 1882.06 1971.53 1872.94C1966.65 1859.23 1958.94 1806.5 1957.35 1763.6" stroke="#7F7F7F" stroke-linecap="round" stroke-linejoin="round"/>
<path d="M2041.97 2210.85C2053.93 2270.12 2077.21 2326.53 2110.53 2376.98" stroke="#7F7F7F" stroke-linecap="round" stroke-linejoin="round"/>
<path d="M1865.43 2202.44C1869.42 2257.48 1883.73 2311.28 1907.62 2361.03" stroke="#7F7F7F" stroke-linecap="round" stroke-linejoin="round"/>
<path d="M2034.09 1321.35H2194.04C2206.57 1321.35 2216.75 1335.89 2216.75 1353.84V1407.92C2216.75 1425.57 2206.57 1440.34 2194.04 1440.34H2066.45L2014.96 1474.59L2034.09 1440.34C2021.55 1440.34 2011.43 1425.81 2011.43 1407.92V1353.84C2011.43 1335.89 2021.55 1321.35 2034.09 1321.35Z" fill="white" stroke="#263238" stroke-linecap="round" stroke-linejoin="round"/>
<path d="M2180.68 1354.54H2045.38" stroke="#263238" stroke-linecap="round" stroke-linejoin="round"/>
<path d="M2180.68 1378.55H2055.8" stroke="#263238" stroke-linecap="round" stroke-linejoin="round"/>
<path d="M2180.68 1402.62H2045.38" stroke="#263238" stroke-linecap="round" stroke-linejoin="round"/>
<path d="M482.714 1543.57L165.637 1584.23C149.385 1586.32 132.879 1585.04 117.143 1580.47C101.407 1575.91 86.7781 1568.15 74.1662 1557.69C61.5543 1547.23 51.2287 1534.29 43.8315 1519.67C36.4343 1505.05 32.1235 1489.07 31.1672 1472.71L0.21274 948.015C-0.843145 930.35 2.0408 912.671 8.65594 896.257C15.2711 879.843 25.452 865.105 38.4621 853.108C51.4722 841.112 66.9862 832.158 83.8817 826.893C100.777 821.628 118.632 820.185 136.154 822.667L504.194 874.572C533.607 878.726 560.42 893.685 579.405 916.532C598.39 939.379 608.186 968.477 606.885 998.154L586.877 1430.34C585.635 1458.46 574.505 1485.24 555.448 1505.95C536.392 1526.67 510.633 1539.99 482.714 1543.57V1543.57Z" fill="#1C8FC5"/>
<path opacity="0.3" d="M586.877 1430.58C585.581 1458.65 574.427 1485.38 555.375 1506.04C536.323 1526.71 510.595 1540 482.714 1543.57L165.637 1584.23C149.385 1586.32 132.879 1585.04 117.143 1580.47C101.407 1575.91 86.7781 1568.15 74.1662 1557.69C61.5543 1547.23 51.2287 1534.29 43.8315 1519.67C36.4343 1505.05 32.1235 1489.07 31.1672 1472.71L0.21274 948.015C-0.843145 930.35 2.0408 912.671 8.65594 896.257C15.2711 879.843 25.452 865.105 38.4621 853.108C51.4722 841.112 66.9862 832.158 83.8817 826.893C100.777 821.628 118.632 820.185 136.154 822.667L504.194 874.572C533.607 878.726 560.42 893.685 579.405 916.532C598.39 939.379 608.186 968.477 606.885 998.154L586.877 1430.58Z" fill="white"/>
<path d="M115.321 1016.87H262.855C269.543 1017.4 275.831 1020.27 280.618 1024.97C285.405 1029.67 288.387 1035.91 289.042 1042.59L323.822 1356.19C325.143 1368.31 330.897 1379.52 339.978 1387.65C349.059 1395.79 360.827 1400.28 373.02 1400.27" stroke="#263238" stroke-linecap="round" stroke-linejoin="round"/>
<path d="M516.258 1439.76V1468.65H166.108C153.667 1468.65 141.685 1463.96 132.547 1455.52C123.408 1447.07 117.783 1435.5 116.792 1423.1L86.3675 1046.76C86.0626 1042.84 86.5968 1038.89 87.9347 1035.18C89.2727 1031.48 91.3837 1028.1 94.1277 1025.27C96.8717 1022.44 100.186 1020.23 103.85 1018.78C107.514 1017.33 111.444 1016.68 115.38 1016.87C122.062 1017.4 128.342 1020.27 133.119 1024.98C137.897 1029.68 140.867 1035.91 141.509 1042.59L176.288 1356.19C177.637 1368.32 183.415 1379.53 192.515 1387.66C201.616 1395.8 213.398 1400.28 225.604 1400.27H476.829C487.292 1400.28 497.321 1404.45 504.713 1411.85C512.106 1419.26 516.258 1429.29 516.258 1439.76V1439.76Z" stroke="#263238" stroke-linecap="round" stroke-linejoin="round"/>
<path d="M440.049 1746.83H350.598V1458.47H304.461V1746.83H215.011C207.597 1746.83 200.487 1749.77 195.245 1755.02C190.003 1760.26 187.058 1767.37 187.058 1774.78H468.002C468.01 1771.11 467.292 1767.47 465.89 1764.08C464.488 1760.68 462.429 1757.6 459.832 1755C457.235 1752.4 454.15 1750.34 450.755 1748.94C447.36 1747.54 443.722 1746.82 440.049 1746.83V1746.83Z" stroke="#263238" stroke-linecap="round" stroke-linejoin="round"/>
<path d="M350.599 1560.57V1468.65H304.461V1566.4" stroke="#263238" stroke-linecap="round" stroke-linejoin="round"/>
<path d="M512.963 1666.44L517.435 1730.06L565.515 1728.64L562.867 1659.97L512.963 1666.44Z" fill="white" stroke="#263238" stroke-linecap="round" stroke-linejoin="round"/>
<path d="M513.904 1753.71C513.904 1753.71 591.172 1756.83 616.654 1753.71C624.599 1752.77 643.136 1752.6 647.667 1746C649.904 1742.83 645.902 1730.65 645.902 1730.65L605.59 1718.4L577.755 1703.1C575.6 1701.91 573.122 1701.41 570.672 1701.7C568.223 1701.98 565.924 1703.03 564.102 1704.69L560.924 1707.58C559.616 1708.77 558.592 1710.24 557.93 1711.88C557.268 1713.52 556.984 1715.29 557.099 1717.05V1718.4L552.509 1715.23C550.524 1713.84 548.161 1713.1 545.741 1713.11H512.492C506.684 1722.67 503.933 1733.78 504.606 1744.95C504.713 1747.33 505.743 1749.58 507.479 1751.21C509.214 1752.85 511.519 1753.75 513.904 1753.71V1753.71Z" fill="#263238" stroke="#263238" stroke-linecap="round" stroke-linejoin="round"/>
<path d="M357.719 1593.12L325.823 1645.73L364.546 1674.21L401.091 1618.77L357.719 1593.12Z" fill="white" stroke="#263238" stroke-linecap="round" stroke-linejoin="round"/>
<path d="M491.6 1359.43C491.6 1359.43 438.99 1383.91 342.183 1610.12C347.492 1618.83 354.651 1626.27 363.153 1631.9C371.655 1637.53 381.292 1641.23 391.381 1642.73C391.381 1642.73 622.775 1357.54 593.232 1307.29C565.515 1260.21 307.992 1277.86 307.992 1277.86L311.347 1390.85C311.347 1390.85 466.237 1382.97 491.6 1359.43Z" fill="#1C8FC5" stroke="#263238" stroke-linecap="round" stroke-linejoin="round"/>
<path d="M373.667 750.401C373.667 750.401 327.412 715.621 282.157 745.752C236.903 775.882 208.243 847.089 232.43 875.219C239.739 883.515 248.828 890.052 259.019 894.343C269.209 898.633 280.237 900.565 291.279 899.994C291.279 899.994 337.122 935.304 356.013 929.419C374.903 923.534 406.917 874.454 408.329 830.494C409.742 786.534 423.983 754.108 373.667 750.401Z" fill="#263238" stroke="#263238" stroke-linecap="round" stroke-linejoin="round"/>
<path d="M327.647 906.291C327.647 906.291 314.818 923.946 315.466 939.011L255.087 918.061C255.087 918.061 280.333 881.398 286.336 845.5C292.338 809.603 327.647 906.291 327.647 906.291Z" fill="white"/>
<path d="M284.982 861.801C285.924 879.986 290.867 887.695 305.991 902.996C323.646 920.65 335.003 934.892 360.603 902.996C377.551 881.81 382.789 868.334 384.142 861.801H284.982Z" fill="#263238" stroke="#263238" stroke-linecap="round" stroke-linejoin="round"/>
<path d="M327.647 906.291C327.647 906.291 314.818 923.946 315.466 939.011L255.087 918.061C255.087 918.061 280.333 881.398 286.336 845.5C292.338 809.603 327.647 906.291 327.647 906.291Z" stroke="#263238" stroke-linecap="round" stroke-linejoin="round"/>
<path d="M195.061 1284.81C195.061 1284.81 150.336 1382.44 225.722 1398.68C301.107 1414.92 460.352 1379.49 460.352 1379.49C460.352 1379.49 473.299 1505.55 510.02 1688.57C530.037 1690.47 550.232 1688.86 569.693 1683.8C569.693 1683.8 567.398 1343.07 536.679 1301.28C505.96 1259.5 275.979 1262.74 195.061 1284.81Z" fill="#1C8FC5" stroke="#263238" stroke-linecap="round" stroke-linejoin="round"/>
<path d="M183.762 1284.92C183.762 1284.92 194.885 1297.4 268.681 1272.45L361.662 1268.86C361.662 1268.86 396.383 1111.61 385.202 1053.06C378.953 1019.06 370.62 985.469 360.25 952.488C311.018 933.849 258.2 926.626 205.772 931.361C202.932 931.643 200.32 933.042 198.511 935.249C196.701 937.455 195.841 940.29 196.12 943.131C200.711 986.914 214.305 1129.92 183.762 1284.92Z" fill="#263238" stroke="#263238" stroke-linecap="round" stroke-linejoin="round"/>
<path d="M360.721 952.488C360.721 952.488 399.325 961.079 399.325 1007.1C399.325 1053.12 394.853 1127.86 394.853 1127.86L444.757 1195.47C444.757 1195.47 423.395 1207.24 420.158 1227.19C420.158 1227.19 345.538 1165.81 341.301 1144.81C337.063 1123.8 360.721 952.488 360.721 952.488Z" fill="#263238" stroke="#263238" stroke-linecap="round" stroke-linejoin="round"/>
<path d="M368.724 1116.15L372.432 1129.86L362.133 1120.09L331.296 1068.18C330.779 1067.3 330.63 1066.25 330.884 1065.26C331.137 1064.27 331.772 1063.41 332.65 1062.89V1062.89C333.533 1062.37 334.585 1062.22 335.577 1062.48C336.568 1062.73 337.42 1063.36 337.946 1064.24L368.724 1116.15Z" fill="white" stroke="#263238" stroke-linecap="round" stroke-linejoin="round"/>
<path d="M288.278 1124.68C297.301 1118.42 305.386 1110.91 312.288 1102.38C321.998 1089.66 325.235 1082.19 332.885 1084.72C340.535 1087.25 368.194 1094.61 364.075 1103.43C364.208 1107.21 362.975 1110.91 360.603 1113.85C358.67 1117.83 355.852 1121.31 352.364 1124.03C346.891 1128.03 345.126 1126.33 345.126 1126.33C345.126 1126.33 341.3 1129.5 338.829 1128.68C338.829 1128.68 332.944 1138.98 313.23 1142.92L260.266 1165.52L254.852 1131.51L288.278 1124.68Z" fill="white" stroke="#263238" stroke-linecap="round" stroke-linejoin="round"/>
<path d="M325.588 1096.2C327.926 1098.37 330.446 1100.34 333.12 1102.08C336.71 1104.32 349.304 1110.91 348.892 1115.09C348.48 1119.26 339.888 1127.39 337.122 1126.86C334.356 1126.33 324.47 1122.62 324.705 1120.38C323.804 1122.12 323.169 1123.99 322.822 1125.91C322.812 1128.51 322.286 1131.08 321.276 1133.48C320.266 1135.87 318.791 1138.04 316.937 1139.86" stroke="#263238" stroke-linecap="round" stroke-linejoin="round"/>
<path d="M360.603 1113.91C359.967 1111.66 358.52 1109.73 356.542 1108.5C350.292 1104.92 344.382 1100.79 338.888 1096.14" stroke="#263238" stroke-linecap="round" stroke-linejoin="round"/>
<path d="M364.075 1103.49C362.687 1102.12 361.124 1100.93 359.426 1099.96C352.984 1095.62 346.17 1091.86 339.064 1088.72" stroke="#263238" stroke-linecap="round" stroke-linejoin="round"/>
<path d="M327.53 1117.79C327.53 1117.79 331.708 1116.32 333.415 1117.79C335.121 1119.26 334.886 1121.32 336.769 1123.33" stroke="#263238" stroke-linecap="round" stroke-linejoin="round"/>
<path d="M333.238 1117.68C330.653 1115.92 328.45 1113.66 326.765 1111.03" stroke="#263238" stroke-linecap="round" stroke-linejoin="round"/>
<path d="M211.009 1065.83C210.244 1080.54 202.417 1140.45 202.417 1140.45C228.371 1132.03 255.073 1126.11 282.157 1122.8C282.157 1122.8 278.038 1138.57 290.102 1161.11C290.102 1161.11 179.113 1204.65 156.28 1200.01C133.446 1195.36 137.154 1146.1 145.922 1036.7C154.691 927.3 206.242 931.42 206.242 931.42" fill="#263238"/>
<path d="M211.009 1065.83C210.244 1080.54 202.417 1140.45 202.417 1140.45C228.371 1132.03 255.073 1126.11 282.157 1122.8C282.157 1122.8 278.038 1138.57 290.102 1161.11C290.102 1161.11 179.113 1204.65 156.28 1200.01C133.446 1195.36 137.154 1146.1 145.922 1036.7C154.691 927.3 206.242 931.42 206.242 931.42" stroke="#263238" stroke-linecap="round" stroke-linejoin="round"/>
<path d="M285.217 1161.05C285.217 1161.05 239.786 1178.7 201.063 1190.47" stroke="#7F7F7F" stroke-linecap="round" stroke-linejoin="round"/>
<path d="M206.125 1065.83C205.36 1080.54 197.533 1140.45 197.533 1140.45C223.465 1132.02 250.149 1126.11 277.214 1122.8" stroke="#7F7F7F" stroke-linecap="round" stroke-linejoin="round"/>
<path d="M241.375 929.831C241.375 929.831 254.381 921.886 254.381 911.352C254.381 900.818 312.464 931.478 325.764 929.713C339.064 927.947 331.649 939.423 330.237 942.66C326.882 953.37 317.231 966.611 241.375 929.831Z" fill="#263238" stroke="#263238" stroke-linecap="round" stroke-linejoin="round"/>
<path d="M330.178 942.66C326.765 952.546 317.938 965.199 252.557 935.363" stroke="#7F7F7F" stroke-linecap="round" stroke-linejoin="round"/>
<path d="M392.793 812.957L386.908 849.502C386.908 849.502 387.909 864.097 362.368 895.993C336.828 927.889 325.294 913.647 307.757 895.993C290.22 878.338 286.453 870.688 286.571 845.441C286.571 845.441 277.567 844.147 272.036 827.787C266.504 811.427 286.689 805.071 291.809 815.487L321.998 800.363L340.83 777.706L351.599 763.347L373.667 771.586L397.207 785.71L392.793 812.957Z" fill="white" stroke="#263238" stroke-linecap="round" stroke-linejoin="round"/>
<path d="M365.781 850.679C365.781 850.679 356.365 860.33 364.251 869.628C374.903 882.281 352.481 878.397 352.481 882.163" stroke="#263238" stroke-linecap="round" stroke-linejoin="round"/>
<path d="M340.653 886.341C340.653 886.341 333.415 888.166 320.88 875.69" stroke="#263238" stroke-linecap="round" stroke-linejoin="round"/>
<path d="M344.772 848.678C343.419 851.797 341.3 853.916 340.064 853.386C338.829 852.856 338.946 849.855 340.064 846.736C341.183 843.617 343.537 841.499 344.772 842.028C346.008 842.558 346.126 845.5 344.772 848.678Z" fill="#263238"/>
<path d="M372.372 861.213C371.195 864.038 369.312 865.921 368.194 865.45C367.076 864.979 367.135 862.272 368.194 859.565C369.253 856.858 371.254 854.798 372.372 855.328C373.491 855.858 373.608 858.388 372.372 861.213Z" fill="#263238"/>
<path d="M359.779 825.256C356.825 823.095 353.259 821.93 349.598 821.93C345.938 821.93 342.372 823.095 339.417 825.256" stroke="#263238" stroke-linecap="round" stroke-linejoin="round"/>
<path d="M378.787 836.026C380.252 836.526 381.563 837.395 382.594 838.55C383.624 839.704 384.34 841.105 384.672 842.617" stroke="#263238" stroke-linecap="round" stroke-linejoin="round"/>
<path d="M293.28 800.363C293.28 800.363 280.039 834.025 298.341 848.619C298.341 848.619 313.524 805.248 344.949 800.363C376.374 795.479 389.262 785.71 389.262 785.71C389.262 785.71 385.496 828.552 394.088 839.086C402.68 849.62 402.503 789.771 402.503 789.771L394.088 769.232L348.539 751.283L309.522 769.585L293.28 800.363Z" fill="#263238" stroke="#263238" stroke-linecap="round" stroke-linejoin="round"/>
<path d="M285.217 851.091C285.217 851.091 278.979 888.519 293.28 892.285C307.58 896.051 272.8 896.758 254.792 888.46C236.785 880.162 278.626 846.442 278.626 846.442L285.217 851.091Z" fill="#263238" stroke="#263238" stroke-linecap="round" stroke-linejoin="round"/>
<path d="M367.135 1114.03H373.903L351.423 1256.09H344.655C343.772 1256.11 342.897 1255.93 342.094 1255.56C341.291 1255.19 340.58 1254.65 340.015 1253.97C339.45 1253.29 339.044 1252.5 338.829 1251.64C338.613 1250.79 338.593 1249.89 338.77 1249.03L359.014 1121.09C359.371 1119.17 360.368 1117.42 361.843 1116.14C363.317 1114.86 365.183 1114.11 367.135 1114.03Z" fill="white" stroke="#263238" stroke-linecap="round" stroke-linejoin="round"/>
<path d="M349.304 1256.09H431.693C433.662 1256.04 435.552 1255.3 437.043 1254.02C438.534 1252.73 439.534 1250.97 439.873 1249.03L460.117 1121.09C460.293 1120.22 460.273 1119.33 460.058 1118.47C459.842 1117.62 459.437 1116.82 458.872 1116.14C458.307 1115.47 457.596 1114.92 456.793 1114.56C455.99 1114.19 455.114 1114.01 454.232 1114.03H372.079C370.113 1114.09 368.228 1114.83 366.74 1116.11C365.251 1117.4 364.248 1119.15 363.899 1121.09L343.655 1249.03C343.482 1249.87 343.497 1250.75 343.7 1251.58C343.902 1252.42 344.286 1253.21 344.825 1253.88C345.364 1254.55 346.045 1255.1 346.819 1255.48C347.593 1255.86 348.441 1256.07 349.304 1256.09V1256.09Z" fill="white" stroke="#263238" stroke-linecap="round" stroke-linejoin="round"/>
<path d="M435.93 1139.1H443.403C444.658 1139.06 445.861 1138.59 446.805 1137.76C447.75 1136.93 448.378 1135.8 448.582 1134.57L449.818 1127.09C449.924 1126.54 449.904 1125.96 449.759 1125.42C449.614 1124.87 449.348 1124.37 448.981 1123.94C448.614 1123.51 448.154 1123.16 447.637 1122.94C447.12 1122.71 446.558 1122.6 445.993 1122.62H438.519C437.269 1122.66 436.07 1123.13 435.119 1123.94C434.168 1124.75 433.52 1125.86 433.281 1127.09L432.104 1134.57C431.988 1135.12 432 1135.7 432.141 1136.26C432.281 1136.81 432.545 1137.33 432.914 1137.76C433.282 1138.2 433.745 1138.55 434.268 1138.78C434.79 1139.01 435.359 1139.12 435.93 1139.1V1139.1Z" stroke="#263238" stroke-linecap="round" stroke-linejoin="round"/>
<path d="M437.989 1130.86C437.918 1131.22 437.93 1131.6 438.026 1131.96C438.121 1132.33 438.298 1132.66 438.541 1132.94C438.785 1133.23 439.089 1133.45 439.432 1133.6C439.775 1133.75 440.146 1133.82 440.52 1133.8C441.333 1133.75 442.108 1133.44 442.725 1132.91C443.341 1132.38 443.766 1131.66 443.933 1130.86C444.003 1130.49 443.99 1130.11 443.894 1129.74C443.799 1129.38 443.624 1129.04 443.381 1128.76C443.139 1128.47 442.835 1128.24 442.493 1128.08C442.151 1127.93 441.778 1127.85 441.402 1127.86C440.581 1127.91 439.8 1128.23 439.182 1128.77C438.564 1129.32 438.144 1130.05 437.989 1130.86V1130.86Z" stroke="#263238" stroke-linecap="round" stroke-linejoin="round"/>
<path d="M443.58 1208.77C443.58 1208.77 451.407 1185.94 457.233 1191.12C461.823 1195.3 453.996 1208.77 453.996 1208.77H443.58Z" fill="white" stroke="#263238" stroke-linecap="round" stroke-linejoin="round"/>
<path d="M462.647 1217.6C464 1215.01 468.532 1209.07 466.766 1206.6C463.882 1202.01 450.406 1203.12 445.227 1204.65C441.873 1205.34 438.716 1206.77 435.988 1208.83C435.223 1209.89 434.164 1213.01 435.047 1213.95C435.929 1214.89 441.755 1213.19 443.992 1213.13C447.954 1213.45 451.887 1214.06 455.761 1214.95C451.374 1216.33 446.889 1217.37 442.344 1218.07C437.636 1218.07 420.393 1215.19 424.689 1225.19C424.689 1225.19 418.334 1227.13 421.982 1231.9C425.631 1236.67 437.989 1236.26 437.989 1236.26C435.17 1237.04 432.264 1237.48 429.338 1237.55C424.395 1237.55 420.57 1233.78 420.099 1236.43C419.393 1240.49 423.1 1243.91 428.338 1245.85C430.905 1246.95 433.667 1247.51 436.459 1247.51C439.251 1247.51 442.013 1246.95 444.58 1245.85C453.349 1242.67 458.88 1225.08 462.647 1217.6Z" fill="white" stroke="#263238" stroke-linecap="round" stroke-linejoin="round"/>
<path d="M428.632 1226.72C433.191 1227.72 437.811 1228.41 442.462 1228.78C445.675 1228.85 448.866 1228.23 451.819 1226.96" stroke="#263238" stroke-linecap="round" stroke-linejoin="round"/>
<path d="M388.615 1105.08C390.13 1087.75 389.676 1070.29 387.261 1053.06C380.788 1018.46 373.255 989.562 368.135 971.79" stroke="#7F7F7F" stroke-linecap="round" stroke-linejoin="round"/>
<path d="M303.931 1657.73C303.931 1657.73 356.248 1714.4 376.374 1730.17C382.671 1735.12 395.853 1747.83 403.621 1746.71C407.446 1746.06 413.155 1734.65 413.155 1734.65L393.44 1697.57L384.495 1667.21C383.813 1664.86 382.415 1662.78 380.495 1661.26C378.575 1659.74 376.23 1658.86 373.785 1658.73H369.489C367.748 1658.65 366.011 1658.96 364.403 1659.63C362.795 1660.3 361.357 1661.32 360.191 1662.62L359.249 1663.68L358.249 1658.14C357.814 1655.78 356.664 1653.6 354.953 1651.91L331.414 1628.37C320.641 1630.99 310.928 1636.84 303.578 1645.14C301.992 1646.87 301.143 1649.16 301.209 1651.51C301.275 1653.86 302.251 1656.09 303.931 1657.73Z" fill="#263238" stroke="#263238" stroke-linecap="round" stroke-linejoin="round"/>
<path d="M467.061 1366.02C467.061 1366.02 483.656 1343.18 492.777 1338.65" stroke="#263238" stroke-linecap="round" stroke-linejoin="round"/>
<path d="M433.163 659.832C430.174 659.79 427.312 658.612 425.16 656.537C401.858 633.279 370.28 620.216 337.357 620.216C304.435 620.216 272.857 633.279 249.555 656.537C247.422 658.601 244.562 659.743 241.594 659.716C238.626 659.689 235.788 658.495 233.693 656.393C231.598 654.29 230.414 651.447 230.398 648.479C230.382 645.511 231.535 642.655 233.607 640.53C261.174 613.11 298.475 597.719 337.357 597.719C376.239 597.719 413.54 613.11 441.108 640.53C442.69 642.107 443.769 644.117 444.21 646.307C444.65 648.497 444.431 650.768 443.581 652.834C442.73 654.9 441.287 656.667 439.433 657.913C437.579 659.158 435.397 659.826 433.163 659.832V659.832Z" fill="#DE245C"/>
<path d="M403.092 689.904C401.603 689.9 400.129 689.602 398.755 689.026C397.382 688.45 396.136 687.609 395.088 686.55C379.772 671.248 359.008 662.653 337.358 662.653C315.708 662.653 294.943 671.248 279.627 686.55C278.666 687.846 277.439 688.921 276.027 689.702C274.616 690.484 273.054 690.955 271.446 691.083C269.837 691.21 268.22 690.992 266.703 690.443C265.187 689.893 263.805 689.025 262.651 687.897C261.498 686.769 260.599 685.407 260.016 683.903C259.433 682.399 259.179 680.787 259.271 679.176C259.363 677.566 259.798 675.993 260.548 674.565C261.299 673.137 262.346 671.886 263.62 670.896C273.303 661.212 284.799 653.531 297.451 648.291C310.103 643.05 323.663 640.353 337.358 640.353C351.052 640.353 364.612 643.05 377.264 648.291C389.916 653.531 401.412 661.212 411.095 670.896C412.653 672.487 413.708 674.501 414.131 676.687C414.553 678.873 414.323 681.135 413.471 683.191C412.618 685.248 411.179 687.009 409.334 688.254C407.489 689.5 405.318 690.176 403.092 690.198V689.904Z" fill="#DE245C"/>
<path d="M376.786 716.209C375.299 716.23 373.822 715.948 372.447 715.382C371.071 714.815 369.825 713.976 368.783 712.914C360.435 704.605 349.136 699.941 337.357 699.941C325.579 699.941 314.281 704.605 305.932 712.914C303.777 714.816 300.977 715.825 298.104 715.735C295.231 715.645 292.5 714.464 290.467 712.431C288.434 710.398 287.253 707.667 287.163 704.794C287.074 701.921 288.082 699.121 289.984 696.966C302.56 684.424 319.596 677.381 337.357 677.381C355.118 677.381 372.155 684.424 384.731 696.966C385.782 698.011 386.617 699.253 387.186 700.621C387.756 701.99 388.049 703.458 388.049 704.94C388.049 706.422 387.756 707.89 387.186 709.258C386.617 710.627 385.782 711.869 384.731 712.914C383.696 713.968 382.459 714.804 381.094 715.37C379.729 715.936 378.264 716.222 376.786 716.209V716.209Z" fill="#DE245C"/>
</svg>
