<svg width="429" height="266" viewBox="0 0 429 266" fill="none" xmlns="http://www.w3.org/2000/svg">
<path d="M24.84 78.48C24.264 74.88 23.976 71.64 23.976 68.76C23.976 62.232 25.488 57.456 28.512 54.432C31.632 51.408 36.384 49.896 42.768 49.896V57.816L42.84 57.888C41.736 57.888 40.824 57.96 40.104 58.104C39.288 58.248 38.64 58.488 38.16 58.824C37.728 59.16 37.344 59.52 37.008 59.904C36.72 60.24 36.504 60.768 36.36 61.488C36.216 62.208 36.144 62.832 36.144 63.36C36.096 63.696 36.072 64.44 36.072 65.592H42.768V78.48H24.84ZM2.664 78.552C2.088 74.952 1.8 71.712 1.8 68.832C1.8 62.304 3.336 57.528 6.408 54.504C9.432 51.48 14.184 49.968 20.664 49.968V57.96C19.608 57.96 18.696 58.032 17.928 58.176C17.064 58.32 16.44 58.56 16.056 58.896C15.48 59.328 15.096 59.688 14.904 59.976C14.616 60.312 14.4 60.84 14.256 61.56L13.968 63.432V65.664H20.592V78.552H2.664Z" fill="#1C8FC5"/>
<path d="M408.128 195.712C409.184 195.712 410.096 195.64 410.864 195.496C411.68 195.352 412.304 195.112 412.736 194.776C413.216 194.44 413.6 194.056 413.888 193.624C414.176 193.24 414.392 192.712 414.536 192.04C414.68 191.32 414.752 190.696 414.752 190.168C414.8 189.832 414.824 189.064 414.824 187.864H408.2V174.976H426.128C426.656 178.816 426.92 182.056 426.92 184.696C426.92 191.224 425.408 196 422.384 199.024C419.312 202.048 414.56 203.56 408.128 203.56V195.712ZM385.232 195.784C386.288 195.784 387.176 195.712 387.896 195.568C388.712 195.424 389.36 195.184 389.84 194.848C390.32 194.512 390.704 194.128 390.992 193.696C391.28 193.312 391.496 192.784 391.64 192.112C391.784 191.392 391.856 190.768 391.856 190.24C391.904 189.904 391.928 189.136 391.928 187.936H385.232V175.048H403.16C403.736 178.696 404.024 181.936 404.024 184.768C404.024 191.296 402.512 196.072 399.488 199.096C396.416 202.12 391.664 203.632 385.232 203.632V195.784Z" fill="#1C8FC5"/>
<path d="M56.4187 100.224H62.2747V102H54.2347V85.272H56.4187V100.224ZM76.5941 94.92C76.5941 95.336 76.5701 95.776 76.5221 96.24H66.0101C66.0901 97.536 66.5301 98.552 67.3301 99.288C68.1461 100.008 69.1301 100.368 70.2821 100.368C71.2261 100.368 72.0101 100.152 72.6341 99.72C73.2741 99.272 73.7221 98.68 73.9781 97.944H76.3301C75.9781 99.208 75.2741 100.24 74.2181 101.04C73.1621 101.824 71.8501 102.216 70.2821 102.216C69.0341 102.216 67.9141 101.936 66.9221 101.376C65.9461 100.816 65.1781 100.024 64.6181 99C64.0581 97.96 63.7781 96.76 63.7781 95.4C63.7781 94.04 64.0501 92.848 64.5941 91.824C65.1381 90.8 65.8981 90.016 66.8741 89.472C67.8661 88.912 69.0021 88.632 70.2821 88.632C71.5301 88.632 72.6341 88.904 73.5941 89.448C74.5541 89.992 75.2901 90.744 75.8021 91.704C76.3301 92.648 76.5941 93.72 76.5941 94.92ZM74.3381 94.464C74.3381 93.632 74.1541 92.92 73.7861 92.328C73.4181 91.72 72.9141 91.264 72.2741 90.96C71.6501 90.64 70.9541 90.48 70.1861 90.48C69.0821 90.48 68.1381 90.832 67.3541 91.536C66.5861 92.24 66.1461 93.216 66.0341 94.464H74.3381ZM82.1409 90.648V98.4C82.1409 99.04 82.2769 99.496 82.5489 99.768C82.8209 100.024 83.2929 100.152 83.9649 100.152H85.5729V102H83.6049C82.3889 102 81.4769 101.72 80.8689 101.16C80.2609 100.6 79.9569 99.68 79.9569 98.4V90.648H78.2529V88.848H79.9569V85.536H82.1409V88.848H85.5729V90.648H82.1409ZM89.3231 82.896L89.0351 87.672H87.5231L87.2111 82.896H89.3231ZM96.6954 102.216C95.6874 102.216 94.7834 102.048 93.9834 101.712C93.1834 101.36 92.5514 100.88 92.0874 100.272C91.6234 99.648 91.3674 98.936 91.3194 98.136H93.5754C93.6394 98.792 93.9434 99.328 94.4874 99.744C95.0474 100.16 95.7754 100.368 96.6714 100.368C97.5034 100.368 98.1594 100.184 98.6394 99.816C99.1194 99.448 99.3594 98.984 99.3594 98.424C99.3594 97.848 99.1034 97.424 98.5914 97.152C98.0794 96.864 97.2874 96.584 96.2154 96.312C95.2394 96.056 94.4394 95.8 93.8154 95.544C93.2074 95.272 92.6794 94.88 92.2314 94.368C91.7994 93.84 91.5834 93.152 91.5834 92.304C91.5834 91.632 91.7834 91.016 92.1834 90.456C92.5834 89.896 93.1514 89.456 93.8874 89.136C94.6234 88.8 95.4634 88.632 96.4074 88.632C97.8634 88.632 99.0394 89 99.9354 89.736C100.831 90.472 101.311 91.48 101.375 92.76H99.1914C99.1434 92.072 98.8634 91.52 98.3514 91.104C97.8554 90.688 97.1834 90.48 96.3354 90.48C95.5514 90.48 94.9274 90.648 94.4634 90.984C93.9994 91.32 93.7674 91.76 93.7674 92.304C93.7674 92.736 93.9034 93.096 94.1754 93.384C94.4634 93.656 94.8154 93.88 95.2314 94.056C95.6634 94.216 96.2554 94.4 97.0074 94.608C97.9514 94.864 98.7194 95.12 99.3114 95.376C99.9034 95.616 100.407 95.984 100.823 96.48C101.255 96.976 101.479 97.624 101.495 98.424C101.495 99.144 101.295 99.792 100.895 100.368C100.495 100.944 99.9274 101.4 99.1914 101.736C98.4714 102.056 97.6394 102.216 96.6954 102.216ZM116.401 88.632C117.537 88.632 118.529 88.88 119.377 89.376C120.241 89.872 120.881 90.496 121.297 91.248V88.848H123.505V102.288C123.505 103.488 123.249 104.552 122.737 105.48C122.225 106.424 121.489 107.16 120.529 107.688C119.585 108.216 118.481 108.48 117.217 108.48C115.489 108.48 114.049 108.072 112.897 107.256C111.745 106.44 111.065 105.328 110.857 103.92H113.017C113.257 104.72 113.753 105.36 114.505 105.84C115.257 106.336 116.161 106.584 117.217 106.584C118.417 106.584 119.393 106.208 120.145 105.456C120.913 104.704 121.297 103.648 121.297 102.288V99.528C120.865 100.296 120.225 100.936 119.377 101.448C118.529 101.96 117.537 102.216 116.401 102.216C115.233 102.216 114.169 101.928 113.209 101.352C112.265 100.776 111.521 99.968 110.977 98.928C110.433 97.888 110.161 96.704 110.161 95.376C110.161 94.032 110.433 92.856 110.977 91.848C111.521 90.824 112.265 90.032 113.209 89.472C114.169 88.912 115.233 88.632 116.401 88.632ZM121.297 95.4C121.297 94.408 121.097 93.544 120.697 92.808C120.297 92.072 119.753 91.512 119.065 91.128C118.393 90.728 117.649 90.528 116.833 90.528C116.017 90.528 115.273 90.72 114.601 91.104C113.929 91.488 113.393 92.048 112.993 92.784C112.593 93.52 112.393 94.384 112.393 95.376C112.393 96.384 112.593 97.264 112.993 98.016C113.393 98.752 113.929 99.32 114.601 99.72C115.273 100.104 116.017 100.296 116.833 100.296C117.649 100.296 118.393 100.104 119.065 99.72C119.753 99.32 120.297 98.752 120.697 98.016C121.097 97.264 121.297 96.392 121.297 95.4ZM128.324 86.712C127.908 86.712 127.556 86.568 127.268 86.28C126.98 85.992 126.836 85.64 126.836 85.224C126.836 84.808 126.98 84.456 127.268 84.168C127.556 83.88 127.908 83.736 128.324 83.736C128.724 83.736 129.06 83.88 129.332 84.168C129.62 84.456 129.764 84.808 129.764 85.224C129.764 85.64 129.62 85.992 129.332 86.28C129.06 86.568 128.724 86.712 128.324 86.712ZM129.38 88.848V102H127.196V88.848H129.38ZM137.998 99.984L142.078 88.848H144.406L139.246 102H136.702L131.542 88.848H133.894L137.998 99.984ZM158.555 94.92C158.555 95.336 158.531 95.776 158.483 96.24H147.971C148.051 97.536 148.491 98.552 149.291 99.288C150.107 100.008 151.091 100.368 152.243 100.368C153.187 100.368 153.971 100.152 154.595 99.72C155.235 99.272 155.683 98.68 155.939 97.944H158.291C157.939 99.208 157.235 100.24 156.179 101.04C155.123 101.824 153.811 102.216 152.243 102.216C150.995 102.216 149.875 101.936 148.883 101.376C147.907 100.816 147.139 100.024 146.579 99C146.019 97.96 145.739 96.76 145.739 95.4C145.739 94.04 146.011 92.848 146.555 91.824C147.099 90.8 147.859 90.016 148.835 89.472C149.827 88.912 150.963 88.632 152.243 88.632C153.491 88.632 154.595 88.904 155.555 89.448C156.515 89.992 157.251 90.744 157.763 91.704C158.291 92.648 158.555 93.72 158.555 94.92ZM156.299 94.464C156.299 93.632 156.115 92.92 155.747 92.328C155.379 91.72 154.875 91.264 154.235 90.96C153.611 90.64 152.915 90.48 152.147 90.48C151.043 90.48 150.099 90.832 149.315 91.536C148.547 92.24 148.107 93.216 147.995 94.464H156.299ZM179.164 88.848L171.244 108.192H168.988L171.58 101.856L166.276 88.848H168.7L172.828 99.504L176.908 88.848H179.164ZM187.096 102.216C185.864 102.216 184.744 101.936 183.736 101.376C182.744 100.816 181.96 100.024 181.384 99C180.824 97.96 180.544 96.76 180.544 95.4C180.544 94.056 180.832 92.872 181.408 91.848C182 90.808 182.8 90.016 183.808 89.472C184.816 88.912 185.944 88.632 187.192 88.632C188.44 88.632 189.568 88.912 190.576 89.472C191.584 90.016 192.376 90.8 192.952 91.824C193.544 92.848 193.84 94.04 193.84 95.4C193.84 96.76 193.536 97.96 192.928 99C192.336 100.024 191.528 100.816 190.504 101.376C189.48 101.936 188.344 102.216 187.096 102.216ZM187.096 100.296C187.88 100.296 188.616 100.112 189.304 99.744C189.992 99.376 190.544 98.824 190.96 98.088C191.392 97.352 191.608 96.456 191.608 95.4C191.608 94.344 191.4 93.448 190.984 92.712C190.568 91.976 190.024 91.432 189.352 91.08C188.68 90.712 187.952 90.528 187.168 90.528C186.368 90.528 185.632 90.712 184.96 91.08C184.304 91.432 183.776 91.976 183.376 92.712C182.976 93.448 182.776 94.344 182.776 95.4C182.776 96.472 182.968 97.376 183.352 98.112C183.752 98.848 184.28 99.4 184.936 99.768C185.592 100.12 186.312 100.296 187.096 100.296ZM208.375 88.848V102H206.191V100.056C205.775 100.728 205.191 101.256 204.439 101.64C203.703 102.008 202.887 102.192 201.991 102.192C200.967 102.192 200.047 101.984 199.231 101.568C198.415 101.136 197.767 100.496 197.287 99.648C196.823 98.8 196.591 97.768 196.591 96.552V88.848H198.751V96.264C198.751 97.56 199.079 98.56 199.735 99.264C200.391 99.952 201.287 100.296 202.423 100.296C203.591 100.296 204.511 99.936 205.183 99.216C205.855 98.496 206.191 97.448 206.191 96.072V88.848H208.375ZM214.247 90.984C214.631 90.232 215.175 89.648 215.879 89.232C216.599 88.816 217.471 88.608 218.495 88.608V90.864H217.919C215.471 90.864 214.247 92.192 214.247 94.848V102H212.063V88.848H214.247V90.984ZM86.7703 131.376C86.7703 130.032 87.0423 128.856 87.5863 127.848C88.1303 126.824 88.8743 126.032 89.8183 125.472C90.7783 124.912 91.8423 124.632 93.0103 124.632C94.1623 124.632 95.1623 124.88 96.0103 125.376C96.8583 125.872 97.4903 126.496 97.9063 127.248V124.848H100.114V138H97.9063V135.552C97.4743 136.32 96.8263 136.96 95.9623 137.472C95.1143 137.968 94.1223 138.216 92.9863 138.216C91.8183 138.216 90.7623 137.928 89.8183 137.352C88.8743 136.776 88.1303 135.968 87.5863 134.928C87.0423 133.888 86.7703 132.704 86.7703 131.376ZM97.9063 131.4C97.9063 130.408 97.7063 129.544 97.3063 128.808C96.9063 128.072 96.3623 127.512 95.6743 127.128C95.0023 126.728 94.2583 126.528 93.4423 126.528C92.6263 126.528 91.8823 126.72 91.2103 127.104C90.5383 127.488 90.0023 128.048 89.6023 128.784C89.2023 129.52 89.0023 130.384 89.0023 131.376C89.0023 132.384 89.2023 133.264 89.6023 134.016C90.0023 134.752 90.5383 135.32 91.2103 135.72C91.8823 136.104 92.6263 136.296 93.4423 136.296C94.2583 136.296 95.0023 136.104 95.6743 135.72C96.3623 135.32 96.9063 134.752 97.3063 134.016C97.7063 133.264 97.9063 132.392 97.9063 131.4ZM115.627 124.632C116.763 124.632 117.755 124.88 118.603 125.376C119.467 125.872 120.107 126.496 120.523 127.248V124.848H122.731V138.288C122.731 139.488 122.475 140.552 121.963 141.48C121.451 142.424 120.715 143.16 119.755 143.688C118.811 144.216 117.707 144.48 116.443 144.48C114.715 144.48 113.275 144.072 112.123 143.256C110.971 142.44 110.291 141.328 110.083 139.92H112.243C112.483 140.72 112.979 141.36 113.731 141.84C114.483 142.336 115.387 142.584 116.443 142.584C117.643 142.584 118.619 142.208 119.371 141.456C120.139 140.704 120.523 139.648 120.523 138.288V135.528C120.091 136.296 119.451 136.936 118.603 137.448C117.755 137.96 116.763 138.216 115.627 138.216C114.459 138.216 113.395 137.928 112.435 137.352C111.491 136.776 110.747 135.968 110.203 134.928C109.659 133.888 109.387 132.704 109.387 131.376C109.387 130.032 109.659 128.856 110.203 127.848C110.747 126.824 111.491 126.032 112.435 125.472C113.395 124.912 114.459 124.632 115.627 124.632ZM120.523 131.4C120.523 130.408 120.323 129.544 119.923 128.808C119.523 128.072 118.979 127.512 118.291 127.128C117.619 126.728 116.875 126.528 116.059 126.528C115.243 126.528 114.499 126.72 113.827 127.104C113.155 127.488 112.619 128.048 112.219 128.784C111.819 129.52 111.619 130.384 111.619 131.376C111.619 132.384 111.819 133.264 112.219 134.016C112.619 134.752 113.155 135.32 113.827 135.72C114.499 136.104 115.243 136.296 116.059 136.296C116.875 136.296 117.619 136.104 118.291 135.72C118.979 135.32 119.523 134.752 119.923 134.016C120.323 133.264 120.523 132.392 120.523 131.4ZM128.606 120.24V138H126.422V120.24H128.606ZM138.064 138.216C136.832 138.216 135.712 137.936 134.704 137.376C133.712 136.816 132.928 136.024 132.352 135C131.792 133.96 131.512 132.76 131.512 131.4C131.512 130.056 131.8 128.872 132.376 127.848C132.968 126.808 133.768 126.016 134.776 125.472C135.784 124.912 136.912 124.632 138.16 124.632C139.408 124.632 140.536 124.912 141.544 125.472C142.552 126.016 143.344 126.8 143.92 127.824C144.512 128.848 144.808 130.04 144.808 131.4C144.808 132.76 144.504 133.96 143.896 135C143.304 136.024 142.496 136.816 141.472 137.376C140.448 137.936 139.312 138.216 138.064 138.216ZM138.064 136.296C138.848 136.296 139.584 136.112 140.272 135.744C140.96 135.376 141.512 134.824 141.928 134.088C142.36 133.352 142.576 132.456 142.576 131.4C142.576 130.344 142.368 129.448 141.952 128.712C141.536 127.976 140.992 127.432 140.32 127.08C139.648 126.712 138.92 126.528 138.136 126.528C137.336 126.528 136.6 126.712 135.928 127.08C135.272 127.432 134.744 127.976 134.344 128.712C133.944 129.448 133.744 130.344 133.744 131.4C133.744 132.472 133.936 133.376 134.32 134.112C134.72 134.848 135.248 135.4 135.904 135.768C136.56 136.12 137.28 136.296 138.064 136.296ZM149.864 127.296C150.312 126.512 150.968 125.872 151.832 125.376C152.696 124.88 153.68 124.632 154.784 124.632C155.968 124.632 157.032 124.912 157.976 125.472C158.92 126.032 159.664 126.824 160.208 127.848C160.752 128.856 161.024 130.032 161.024 131.376C161.024 132.704 160.752 133.888 160.208 134.928C159.664 135.968 158.912 136.776 157.952 137.352C157.008 137.928 155.952 138.216 154.784 138.216C153.648 138.216 152.648 137.968 151.784 137.472C150.936 136.976 150.296 136.344 149.864 135.576V138H147.68V120.24H149.864V127.296ZM158.792 131.376C158.792 130.384 158.592 129.52 158.192 128.784C157.792 128.048 157.248 127.488 156.56 127.104C155.888 126.72 155.144 126.528 154.328 126.528C153.528 126.528 152.784 126.728 152.096 127.128C151.424 127.512 150.88 128.08 150.464 128.832C150.064 129.568 149.864 130.424 149.864 131.4C149.864 132.392 150.064 133.264 150.464 134.016C150.88 134.752 151.424 135.32 152.096 135.72C152.784 136.104 153.528 136.296 154.328 136.296C155.144 136.296 155.888 136.104 156.56 135.72C157.248 135.32 157.792 134.752 158.192 134.016C158.592 133.264 158.792 132.384 158.792 131.376ZM163.083 131.376C163.083 130.032 163.355 128.856 163.899 127.848C164.443 126.824 165.187 126.032 166.131 125.472C167.091 124.912 168.155 124.632 169.323 124.632C170.475 124.632 171.475 124.88 172.323 125.376C173.171 125.872 173.803 126.496 174.219 127.248V124.848H176.427V138H174.219V135.552C173.787 136.32 173.139 136.96 172.275 137.472C171.427 137.968 170.435 138.216 169.299 138.216C168.131 138.216 167.075 137.928 166.131 137.352C165.187 136.776 164.443 135.968 163.899 134.928C163.355 133.888 163.083 132.704 163.083 131.376ZM174.219 131.4C174.219 130.408 174.019 129.544 173.619 128.808C173.219 128.072 172.675 127.512 171.987 127.128C171.315 126.728 170.571 126.528 169.755 126.528C168.939 126.528 168.195 126.72 167.523 127.104C166.851 127.488 166.315 128.048 165.915 128.784C165.515 129.52 165.315 130.384 165.315 131.376C165.315 132.384 165.515 133.264 165.915 134.016C166.315 134.752 166.851 135.32 167.523 135.72C168.195 136.104 168.939 136.296 169.755 136.296C170.571 136.296 171.315 136.104 171.987 135.72C172.675 135.32 173.219 134.752 173.619 134.016C174.019 133.264 174.219 132.392 174.219 131.4ZM182.302 120.24V138H180.118V120.24H182.302ZM194.606 127.272C195.038 126.52 195.678 125.896 196.526 125.4C197.39 124.888 198.39 124.632 199.526 124.632C200.694 124.632 201.75 124.912 202.694 125.472C203.654 126.032 204.406 126.824 204.95 127.848C205.494 128.856 205.766 130.032 205.766 131.376C205.766 132.704 205.494 133.888 204.95 134.928C204.406 135.968 203.654 136.776 202.694 137.352C201.75 137.928 200.694 138.216 199.526 138.216C198.406 138.216 197.414 137.968 196.55 137.472C195.702 136.96 195.054 136.328 194.606 135.576V144.24H192.422V124.848H194.606V127.272ZM203.534 131.376C203.534 130.384 203.334 129.52 202.934 128.784C202.534 128.048 201.99 127.488 201.302 127.104C200.63 126.72 199.886 126.528 199.07 126.528C198.27 126.528 197.526 126.728 196.838 127.128C196.166 127.512 195.622 128.08 195.206 128.832C194.806 129.568 194.606 130.424 194.606 131.4C194.606 132.392 194.806 133.264 195.206 134.016C195.622 134.752 196.166 135.32 196.838 135.72C197.526 136.104 198.27 136.296 199.07 136.296C199.886 136.296 200.63 136.104 201.302 135.72C201.99 135.32 202.534 134.752 202.934 134.016C203.334 133.264 203.534 132.384 203.534 131.376ZM210.825 126.984C211.209 126.232 211.753 125.648 212.457 125.232C213.177 124.816 214.049 124.608 215.073 124.608V126.864H214.497C212.049 126.864 210.825 128.192 210.825 130.848V138H208.641V124.848H210.825V126.984ZM229.594 130.92C229.594 131.336 229.57 131.776 229.522 132.24H219.01C219.09 133.536 219.53 134.552 220.33 135.288C221.146 136.008 222.13 136.368 223.282 136.368C224.226 136.368 225.01 136.152 225.634 135.72C226.274 135.272 226.722 134.68 226.978 133.944H229.33C228.978 135.208 228.274 136.24 227.218 137.04C226.162 137.824 224.85 138.216 223.282 138.216C222.034 138.216 220.914 137.936 219.922 137.376C218.946 136.816 218.178 136.024 217.618 135C217.058 133.96 216.778 132.76 216.778 131.4C216.778 130.04 217.05 128.848 217.594 127.824C218.138 126.8 218.898 126.016 219.874 125.472C220.866 124.912 222.002 124.632 223.282 124.632C224.53 124.632 225.634 124.904 226.594 125.448C227.554 125.992 228.29 126.744 228.802 127.704C229.33 128.648 229.594 129.72 229.594 130.92ZM227.338 130.464C227.338 129.632 227.154 128.92 226.786 128.328C226.418 127.72 225.914 127.264 225.274 126.96C224.65 126.64 223.954 126.48 223.186 126.48C222.082 126.48 221.138 126.832 220.354 127.536C219.586 128.24 219.146 129.216 219.034 130.464H227.338ZM237.133 138.216C236.125 138.216 235.221 138.048 234.421 137.712C233.621 137.36 232.989 136.88 232.525 136.272C232.061 135.648 231.805 134.936 231.757 134.136H234.013C234.077 134.792 234.381 135.328 234.925 135.744C235.485 136.16 236.213 136.368 237.109 136.368C237.941 136.368 238.597 136.184 239.077 135.816C239.557 135.448 239.797 134.984 239.797 134.424C239.797 133.848 239.541 133.424 239.029 133.152C238.517 132.864 237.725 132.584 236.653 132.312C235.677 132.056 234.877 131.8 234.253 131.544C233.645 131.272 233.117 130.88 232.669 130.368C232.237 129.84 232.021 129.152 232.021 128.304C232.021 127.632 232.221 127.016 232.621 126.456C233.021 125.896 233.589 125.456 234.325 125.136C235.061 124.8 235.901 124.632 236.845 124.632C238.301 124.632 239.477 125 240.373 125.736C241.269 126.472 241.749 127.48 241.813 128.76H239.629C239.581 128.072 239.301 127.52 238.789 127.104C238.293 126.688 237.621 126.48 236.773 126.48C235.989 126.48 235.365 126.648 234.901 126.984C234.437 127.32 234.205 127.76 234.205 128.304C234.205 128.736 234.341 129.096 234.613 129.384C234.901 129.656 235.253 129.88 235.669 130.056C236.101 130.216 236.693 130.4 237.445 130.608C238.389 130.864 239.157 131.12 239.749 131.376C240.341 131.616 240.845 131.984 241.261 132.48C241.693 132.976 241.917 133.624 241.933 134.424C241.933 135.144 241.733 135.792 241.333 136.368C240.933 136.944 240.365 137.4 239.629 137.736C238.909 138.056 238.077 138.216 237.133 138.216ZM257.016 130.92C257.016 131.336 256.992 131.776 256.944 132.24H246.432C246.512 133.536 246.952 134.552 247.752 135.288C248.568 136.008 249.552 136.368 250.704 136.368C251.648 136.368 252.432 136.152 253.056 135.72C253.696 135.272 254.144 134.68 254.4 133.944H256.752C256.4 135.208 255.696 136.24 254.64 137.04C253.584 137.824 252.272 138.216 250.704 138.216C249.456 138.216 248.336 137.936 247.344 137.376C246.368 136.816 245.6 136.024 245.04 135C244.48 133.96 244.2 132.76 244.2 131.4C244.2 130.04 244.472 128.848 245.016 127.824C245.56 126.8 246.32 126.016 247.296 125.472C248.288 124.912 249.424 124.632 250.704 124.632C251.952 124.632 253.056 124.904 254.016 125.448C254.976 125.992 255.712 126.744 256.224 127.704C256.752 128.648 257.016 129.72 257.016 130.92ZM254.76 130.464C254.76 129.632 254.576 128.92 254.208 128.328C253.84 127.72 253.336 127.264 252.696 126.96C252.072 126.64 251.376 126.48 250.608 126.48C249.504 126.48 248.56 126.832 247.776 127.536C247.008 128.24 246.568 129.216 246.456 130.464H254.76ZM266.307 124.608C267.907 124.608 269.203 125.096 270.195 126.072C271.187 127.032 271.683 128.424 271.683 130.248V138H269.523V130.56C269.523 129.248 269.195 128.248 268.539 127.56C267.883 126.856 266.987 126.504 265.851 126.504C264.699 126.504 263.779 126.864 263.091 127.584C262.419 128.304 262.083 129.352 262.083 130.728V138H259.899V124.848H262.083V126.72C262.515 126.048 263.099 125.528 263.835 125.16C264.587 124.792 265.411 124.608 266.307 124.608ZM274.434 131.4C274.434 130.04 274.706 128.856 275.25 127.848C275.794 126.824 276.546 126.032 277.506 125.472C278.482 124.912 279.594 124.632 280.842 124.632C282.458 124.632 283.786 125.024 284.826 125.808C285.882 126.592 286.578 127.68 286.914 129.072H284.562C284.338 128.272 283.898 127.64 283.242 127.176C282.602 126.712 281.802 126.48 280.842 126.48C279.594 126.48 278.586 126.912 277.818 127.776C277.05 128.624 276.666 129.832 276.666 131.4C276.666 132.984 277.05 134.208 277.818 135.072C278.586 135.936 279.594 136.368 280.842 136.368C281.802 136.368 282.602 136.144 283.242 135.696C283.882 135.248 284.322 134.608 284.562 133.776H286.914C286.562 135.12 285.858 136.2 284.802 137.016C283.746 137.816 282.426 138.216 280.842 138.216C279.594 138.216 278.482 137.936 277.506 137.376C276.546 136.816 275.794 136.024 275.25 135C274.706 133.976 274.434 132.776 274.434 131.4ZM301.828 130.92C301.828 131.336 301.804 131.776 301.756 132.24H291.244C291.324 133.536 291.764 134.552 292.564 135.288C293.38 136.008 294.364 136.368 295.516 136.368C296.46 136.368 297.244 136.152 297.868 135.72C298.508 135.272 298.956 134.68 299.212 133.944H301.564C301.212 135.208 300.508 136.24 299.452 137.04C298.396 137.824 297.084 138.216 295.516 138.216C294.268 138.216 293.148 137.936 292.156 137.376C291.18 136.816 290.412 136.024 289.852 135C289.292 133.96 289.012 132.76 289.012 131.4C289.012 130.04 289.284 128.848 289.828 127.824C290.372 126.8 291.132 126.016 292.108 125.472C293.1 124.912 294.236 124.632 295.516 124.632C296.764 124.632 297.868 124.904 298.828 125.448C299.788 125.992 300.524 126.744 301.036 127.704C301.564 128.648 301.828 129.72 301.828 130.92ZM299.572 130.464C299.572 129.632 299.388 128.92 299.02 128.328C298.652 127.72 298.148 127.264 297.508 126.96C296.884 126.64 296.188 126.48 295.42 126.48C294.316 126.48 293.372 126.832 292.588 127.536C291.82 128.24 291.38 129.216 291.268 130.464H299.572ZM24.4265 167.376C24.4265 166.032 24.6985 164.856 25.2425 163.848C25.7865 162.824 26.5305 162.032 27.4745 161.472C28.4345 160.912 29.4985 160.632 30.6665 160.632C31.8185 160.632 32.8185 160.88 33.6665 161.376C34.5145 161.872 35.1465 162.496 35.5625 163.248V160.848H37.7705V174H35.5625V171.552C35.1305 172.32 34.4825 172.96 33.6185 173.472C32.7705 173.968 31.7785 174.216 30.6425 174.216C29.4745 174.216 28.4185 173.928 27.4745 173.352C26.5305 172.776 25.7865 171.968 25.2425 170.928C24.6985 169.888 24.4265 168.704 24.4265 167.376ZM35.5625 167.4C35.5625 166.408 35.3625 165.544 34.9625 164.808C34.5625 164.072 34.0185 163.512 33.3305 163.128C32.6585 162.728 31.9145 162.528 31.0985 162.528C30.2825 162.528 29.5385 162.72 28.8665 163.104C28.1945 163.488 27.6585 164.048 27.2585 164.784C26.8585 165.52 26.6585 166.384 26.6585 167.376C26.6585 168.384 26.8585 169.264 27.2585 170.016C27.6585 170.752 28.1945 171.32 28.8665 171.72C29.5385 172.104 30.2825 172.296 31.0985 172.296C31.9145 172.296 32.6585 172.104 33.3305 171.72C34.0185 171.32 34.5625 170.752 34.9625 170.016C35.3625 169.264 35.5625 168.392 35.5625 167.4ZM47.8693 160.608C49.4693 160.608 50.7653 161.096 51.7573 162.072C52.7493 163.032 53.2453 164.424 53.2453 166.248V174H51.0853V166.56C51.0853 165.248 50.7573 164.248 50.1013 163.56C49.4453 162.856 48.5493 162.504 47.4133 162.504C46.2613 162.504 45.3413 162.864 44.6533 163.584C43.9813 164.304 43.6453 165.352 43.6453 166.728V174H41.4613V160.848H43.6453V162.72C44.0773 162.048 44.6613 161.528 45.3973 161.16C46.1493 160.792 46.9733 160.608 47.8693 160.608ZM55.9968 167.376C55.9968 166.032 56.2688 164.856 56.8128 163.848C57.3568 162.824 58.1008 162.032 59.0448 161.472C60.0048 160.912 61.0768 160.632 62.2608 160.632C63.2848 160.632 64.2368 160.872 65.1168 161.352C65.9968 161.816 66.6688 162.432 67.1328 163.2V156.24H69.3408V174H67.1328V171.528C66.7008 172.312 66.0608 172.96 65.2128 173.472C64.3648 173.968 63.3728 174.216 62.2368 174.216C61.0688 174.216 60.0048 173.928 59.0448 173.352C58.1008 172.776 57.3568 171.968 56.8128 170.928C56.2688 169.888 55.9968 168.704 55.9968 167.376ZM67.1328 167.4C67.1328 166.408 66.9328 165.544 66.5328 164.808C66.1328 164.072 65.5888 163.512 64.9008 163.128C64.2288 162.728 63.4848 162.528 62.6688 162.528C61.8528 162.528 61.1088 162.72 60.4368 163.104C59.7648 163.488 59.2288 164.048 58.8288 164.784C58.4288 165.52 58.2288 166.384 58.2288 167.376C58.2288 168.384 58.4288 169.264 58.8288 170.016C59.2288 170.752 59.7648 171.32 60.4368 171.72C61.1088 172.104 61.8528 172.296 62.6688 172.296C63.4848 172.296 64.2288 172.104 64.9008 171.72C65.5888 171.32 66.1328 170.752 66.5328 170.016C66.9328 169.264 67.1328 168.392 67.1328 167.4ZM85.166 174.216C83.934 174.216 82.814 173.936 81.806 173.376C80.814 172.816 80.03 172.024 79.454 171C78.894 169.96 78.614 168.76 78.614 167.4C78.614 166.056 78.902 164.872 79.478 163.848C80.07 162.808 80.87 162.016 81.878 161.472C82.886 160.912 84.014 160.632 85.262 160.632C86.51 160.632 87.638 160.912 88.646 161.472C89.654 162.016 90.446 162.8 91.022 163.824C91.614 164.848 91.91 166.04 91.91 167.4C91.91 168.76 91.606 169.96 90.998 171C90.406 172.024 89.598 172.816 88.574 173.376C87.55 173.936 86.414 174.216 85.166 174.216ZM85.166 172.296C85.95 172.296 86.686 172.112 87.374 171.744C88.062 171.376 88.614 170.824 89.03 170.088C89.462 169.352 89.678 168.456 89.678 167.4C89.678 166.344 89.47 165.448 89.054 164.712C88.638 163.976 88.094 163.432 87.422 163.08C86.75 162.712 86.022 162.528 85.238 162.528C84.438 162.528 83.702 162.712 83.03 163.08C82.374 163.432 81.846 163.976 81.446 164.712C81.046 165.448 80.846 166.344 80.846 167.4C80.846 168.472 81.038 169.376 81.422 170.112C81.822 170.848 82.35 171.4 83.006 171.768C83.662 172.12 84.382 172.296 85.166 172.296ZM106.446 160.848V174H104.262V172.056C103.846 172.728 103.262 173.256 102.51 173.64C101.774 174.008 100.958 174.192 100.062 174.192C99.0376 174.192 98.1176 173.984 97.3016 173.568C96.4856 173.136 95.8376 172.496 95.3576 171.648C94.8936 170.8 94.6616 169.768 94.6616 168.552V160.848H96.8216V168.264C96.8216 169.56 97.1496 170.56 97.8056 171.264C98.4616 171.952 99.3576 172.296 100.494 172.296C101.662 172.296 102.582 171.936 103.254 171.216C103.926 170.496 104.262 169.448 104.262 168.072V160.848H106.446ZM112.797 162.648V170.4C112.797 171.04 112.933 171.496 113.205 171.768C113.477 172.024 113.949 172.152 114.621 172.152H116.229V174H114.261C113.045 174 112.133 173.72 111.525 173.16C110.917 172.6 110.613 171.68 110.613 170.4V162.648H108.909V160.848H110.613V157.536H112.797V160.848H116.229V162.648H112.797ZM123.531 174.216C122.523 174.216 121.619 174.048 120.819 173.712C120.019 173.36 119.387 172.88 118.923 172.272C118.459 171.648 118.203 170.936 118.155 170.136H120.411C120.475 170.792 120.779 171.328 121.323 171.744C121.883 172.16 122.611 172.368 123.507 172.368C124.339 172.368 124.995 172.184 125.475 171.816C125.955 171.448 126.195 170.984 126.195 170.424C126.195 169.848 125.939 169.424 125.427 169.152C124.915 168.864 124.123 168.584 123.051 168.312C122.075 168.056 121.275 167.8 120.651 167.544C120.043 167.272 119.515 166.88 119.067 166.368C118.635 165.84 118.419 165.152 118.419 164.304C118.419 163.632 118.619 163.016 119.019 162.456C119.419 161.896 119.987 161.456 120.723 161.136C121.459 160.8 122.299 160.632 123.243 160.632C124.699 160.632 125.875 161 126.771 161.736C127.667 162.472 128.147 163.48 128.211 164.76H126.027C125.979 164.072 125.699 163.52 125.187 163.104C124.691 162.688 124.019 162.48 123.171 162.48C122.387 162.48 121.763 162.648 121.299 162.984C120.835 163.32 120.603 163.76 120.603 164.304C120.603 164.736 120.739 165.096 121.011 165.384C121.299 165.656 121.651 165.88 122.067 166.056C122.499 166.216 123.091 166.4 123.843 166.608C124.787 166.864 125.555 167.12 126.147 167.376C126.739 167.616 127.243 167.984 127.659 168.48C128.091 168.976 128.315 169.624 128.331 170.424C128.331 171.144 128.131 171.792 127.731 172.368C127.331 172.944 126.763 173.4 126.027 173.736C125.307 174.056 124.475 174.216 123.531 174.216ZM134.078 162.648V170.4C134.078 171.04 134.214 171.496 134.486 171.768C134.758 172.024 135.23 172.152 135.902 172.152H137.51V174H135.542C134.326 174 133.414 173.72 132.806 173.16C132.198 172.6 131.894 171.68 131.894 170.4V162.648H130.19V160.848H131.894V157.536H134.078V160.848H137.51V162.648H134.078ZM139.341 167.376C139.341 166.032 139.613 164.856 140.157 163.848C140.701 162.824 141.445 162.032 142.389 161.472C143.349 160.912 144.413 160.632 145.581 160.632C146.733 160.632 147.733 160.88 148.581 161.376C149.429 161.872 150.061 162.496 150.477 163.248V160.848H152.685V174H150.477V171.552C150.045 172.32 149.397 172.96 148.533 173.472C147.685 173.968 146.693 174.216 145.557 174.216C144.389 174.216 143.333 173.928 142.389 173.352C141.445 172.776 140.701 171.968 140.157 170.928C139.613 169.888 139.341 168.704 139.341 167.376ZM150.477 167.4C150.477 166.408 150.277 165.544 149.877 164.808C149.477 164.072 148.933 163.512 148.245 163.128C147.573 162.728 146.829 162.528 146.013 162.528C145.197 162.528 144.453 162.72 143.781 163.104C143.109 163.488 142.573 164.048 142.173 164.784C141.773 165.52 141.573 166.384 141.573 167.376C141.573 168.384 141.773 169.264 142.173 170.016C142.573 170.752 143.109 171.32 143.781 171.72C144.453 172.104 145.197 172.296 146.013 172.296C146.829 172.296 147.573 172.104 148.245 171.72C148.933 171.32 149.477 170.752 149.877 170.016C150.277 169.264 150.477 168.392 150.477 167.4ZM162.783 160.608C164.383 160.608 165.679 161.096 166.671 162.072C167.663 163.032 168.159 164.424 168.159 166.248V174H165.999V166.56C165.999 165.248 165.671 164.248 165.015 163.56C164.359 162.856 163.463 162.504 162.327 162.504C161.175 162.504 160.255 162.864 159.567 163.584C158.895 164.304 158.559 165.352 158.559 166.728V174H156.375V160.848H158.559V162.72C158.991 162.048 159.575 161.528 160.311 161.16C161.063 160.792 161.887 160.608 162.783 160.608ZM170.911 167.376C170.911 166.032 171.183 164.856 171.727 163.848C172.271 162.824 173.015 162.032 173.959 161.472C174.919 160.912 175.991 160.632 177.175 160.632C178.199 160.632 179.151 160.872 180.031 161.352C180.911 161.816 181.583 162.432 182.047 163.2V156.24H184.255V174H182.047V171.528C181.615 172.312 180.975 172.96 180.127 173.472C179.279 173.968 178.287 174.216 177.151 174.216C175.983 174.216 174.919 173.928 173.959 173.352C173.015 172.776 172.271 171.968 171.727 170.928C171.183 169.888 170.911 168.704 170.911 167.376ZM182.047 167.4C182.047 166.408 181.847 165.544 181.447 164.808C181.047 164.072 180.503 163.512 179.815 163.128C179.143 162.728 178.399 162.528 177.583 162.528C176.767 162.528 176.023 162.72 175.351 163.104C174.679 163.488 174.143 164.048 173.743 164.784C173.343 165.52 173.143 166.384 173.143 167.376C173.143 168.384 173.343 169.264 173.743 170.016C174.143 170.752 174.679 171.32 175.351 171.72C176.023 172.104 176.767 172.296 177.583 172.296C178.399 172.296 179.143 172.104 179.815 171.72C180.503 171.32 181.047 170.752 181.447 170.016C181.847 169.264 182.047 168.392 182.047 167.4ZM189.074 158.712C188.658 158.712 188.306 158.568 188.018 158.28C187.73 157.992 187.586 157.64 187.586 157.224C187.586 156.808 187.73 156.456 188.018 156.168C188.306 155.88 188.658 155.736 189.074 155.736C189.474 155.736 189.81 155.88 190.082 156.168C190.37 156.456 190.514 156.808 190.514 157.224C190.514 157.64 190.37 157.992 190.082 158.28C189.81 158.568 189.474 158.712 189.074 158.712ZM190.13 160.848V174H187.946V160.848H190.13ZM200.26 160.608C201.86 160.608 203.156 161.096 204.148 162.072C205.14 163.032 205.636 164.424 205.636 166.248V174H203.476V166.56C203.476 165.248 203.148 164.248 202.492 163.56C201.836 162.856 200.94 162.504 199.804 162.504C198.652 162.504 197.732 162.864 197.044 163.584C196.372 164.304 196.036 165.352 196.036 166.728V174H193.852V160.848H196.036V162.72C196.468 162.048 197.052 161.528 197.788 161.16C198.54 160.792 199.364 160.608 200.26 160.608ZM214.627 160.632C215.763 160.632 216.755 160.88 217.603 161.376C218.467 161.872 219.107 162.496 219.523 163.248V160.848H221.731V174.288C221.731 175.488 221.475 176.552 220.963 177.48C220.451 178.424 219.715 179.16 218.755 179.688C217.811 180.216 216.707 180.48 215.443 180.48C213.715 180.48 212.275 180.072 211.123 179.256C209.971 178.44 209.291 177.328 209.083 175.92H211.243C211.483 176.72 211.979 177.36 212.731 177.84C213.483 178.336 214.387 178.584 215.443 178.584C216.643 178.584 217.619 178.208 218.371 177.456C219.139 176.704 219.523 175.648 219.523 174.288V171.528C219.091 172.296 218.451 172.936 217.603 173.448C216.755 173.96 215.763 174.216 214.627 174.216C213.459 174.216 212.395 173.928 211.435 173.352C210.491 172.776 209.747 171.968 209.203 170.928C208.659 169.888 208.387 168.704 208.387 167.376C208.387 166.032 208.659 164.856 209.203 163.848C209.747 162.824 210.491 162.032 211.435 161.472C212.395 160.912 213.459 160.632 214.627 160.632ZM219.523 167.4C219.523 166.408 219.323 165.544 218.923 164.808C218.523 164.072 217.979 163.512 217.291 163.128C216.619 162.728 215.875 162.528 215.059 162.528C214.243 162.528 213.499 162.72 212.827 163.104C212.155 163.488 211.619 164.048 211.219 164.784C210.819 165.52 210.619 166.384 210.619 167.376C210.619 168.384 210.819 169.264 211.219 170.016C211.619 170.752 212.155 171.32 212.827 171.72C213.499 172.104 214.243 172.296 215.059 172.296C215.875 172.296 216.619 172.104 217.291 171.72C217.979 171.32 218.523 170.752 218.923 170.016C219.323 169.264 219.523 168.392 219.523 167.4ZM234.005 162.984C234.389 162.232 234.933 161.648 235.637 161.232C236.357 160.816 237.229 160.608 238.253 160.608V162.864H237.677C235.229 162.864 234.005 164.192 234.005 166.848V174H231.821V160.848H234.005V162.984ZM252.774 166.92C252.774 167.336 252.75 167.776 252.702 168.24H242.19C242.27 169.536 242.71 170.552 243.51 171.288C244.326 172.008 245.31 172.368 246.462 172.368C247.406 172.368 248.19 172.152 248.814 171.72C249.454 171.272 249.902 170.68 250.158 169.944H252.51C252.158 171.208 251.454 172.24 250.398 173.04C249.342 173.824 248.03 174.216 246.462 174.216C245.214 174.216 244.094 173.936 243.102 173.376C242.126 172.816 241.358 172.024 240.798 171C240.238 169.96 239.958 168.76 239.958 167.4C239.958 166.04 240.23 164.848 240.774 163.824C241.318 162.8 242.078 162.016 243.054 161.472C244.046 160.912 245.182 160.632 246.462 160.632C247.71 160.632 248.814 160.904 249.774 161.448C250.734 161.992 251.47 162.744 251.982 163.704C252.51 164.648 252.774 165.72 252.774 166.92ZM250.518 166.464C250.518 165.632 250.334 164.92 249.966 164.328C249.598 163.72 249.094 163.264 248.454 162.96C247.83 162.64 247.134 162.48 246.366 162.48C245.262 162.48 244.318 162.832 243.534 163.536C242.766 164.24 242.326 165.216 242.214 166.464H250.518ZM254.841 167.4C254.841 166.04 255.113 164.856 255.657 163.848C256.201 162.824 256.953 162.032 257.913 161.472C258.889 160.912 260.001 160.632 261.249 160.632C262.865 160.632 264.193 161.024 265.233 161.808C266.289 162.592 266.985 163.68 267.321 165.072H264.969C264.745 164.272 264.305 163.64 263.649 163.176C263.009 162.712 262.209 162.48 261.249 162.48C260.001 162.48 258.993 162.912 258.225 163.776C257.457 164.624 257.073 165.832 257.073 167.4C257.073 168.984 257.457 170.208 258.225 171.072C258.993 171.936 260.001 172.368 261.249 172.368C262.209 172.368 263.009 172.144 263.649 171.696C264.289 171.248 264.729 170.608 264.969 169.776H267.321C266.969 171.12 266.265 172.2 265.209 173.016C264.153 173.816 262.833 174.216 261.249 174.216C260.001 174.216 258.889 173.936 257.913 173.376C256.953 172.816 256.201 172.024 255.657 171C255.113 169.976 254.841 168.776 254.841 167.4ZM275.971 174.216C274.739 174.216 273.619 173.936 272.611 173.376C271.619 172.816 270.835 172.024 270.259 171C269.699 169.96 269.419 168.76 269.419 167.4C269.419 166.056 269.707 164.872 270.283 163.848C270.875 162.808 271.675 162.016 272.683 161.472C273.691 160.912 274.819 160.632 276.067 160.632C277.315 160.632 278.443 160.912 279.451 161.472C280.459 162.016 281.251 162.8 281.827 163.824C282.419 164.848 282.715 166.04 282.715 167.4C282.715 168.76 282.411 169.96 281.803 171C281.211 172.024 280.403 172.816 279.379 173.376C278.355 173.936 277.219 174.216 275.971 174.216ZM275.971 172.296C276.755 172.296 277.491 172.112 278.179 171.744C278.867 171.376 279.419 170.824 279.835 170.088C280.267 169.352 280.483 168.456 280.483 167.4C280.483 166.344 280.275 165.448 279.859 164.712C279.443 163.976 278.899 163.432 278.227 163.08C277.555 162.712 276.827 162.528 276.043 162.528C275.243 162.528 274.507 162.712 273.835 163.08C273.179 163.432 272.651 163.976 272.251 164.712C271.851 165.448 271.651 166.344 271.651 167.4C271.651 168.472 271.843 169.376 272.227 170.112C272.627 170.848 273.155 171.4 273.811 171.768C274.467 172.12 275.187 172.296 275.971 172.296ZM291.01 160.632C292.146 160.632 293.138 160.88 293.986 161.376C294.85 161.872 295.49 162.496 295.906 163.248V160.848H298.114V174.288C298.114 175.488 297.858 176.552 297.346 177.48C296.834 178.424 296.098 179.16 295.138 179.688C294.194 180.216 293.09 180.48 291.826 180.48C290.098 180.48 288.658 180.072 287.506 179.256C286.354 178.44 285.674 177.328 285.466 175.92H287.626C287.866 176.72 288.362 177.36 289.114 177.84C289.866 178.336 290.77 178.584 291.826 178.584C293.026 178.584 294.002 178.208 294.754 177.456C295.522 176.704 295.906 175.648 295.906 174.288V171.528C295.474 172.296 294.834 172.936 293.986 173.448C293.138 173.96 292.146 174.216 291.01 174.216C289.842 174.216 288.778 173.928 287.818 173.352C286.874 172.776 286.13 171.968 285.586 170.928C285.042 169.888 284.77 168.704 284.77 167.376C284.77 166.032 285.042 164.856 285.586 163.848C286.13 162.824 286.874 162.032 287.818 161.472C288.778 160.912 289.842 160.632 291.01 160.632ZM295.906 167.4C295.906 166.408 295.706 165.544 295.306 164.808C294.906 164.072 294.362 163.512 293.674 163.128C293.002 162.728 292.258 162.528 291.442 162.528C290.626 162.528 289.882 162.72 289.21 163.104C288.538 163.488 288.002 164.048 287.602 164.784C287.202 165.52 287.002 166.384 287.002 167.376C287.002 168.384 287.202 169.264 287.602 170.016C288.002 170.752 288.538 171.32 289.21 171.72C289.882 172.104 290.626 172.296 291.442 172.296C292.258 172.296 293.002 172.104 293.674 171.72C294.362 171.32 294.906 170.752 295.306 170.016C295.706 169.264 295.906 168.392 295.906 167.4ZM308.213 160.608C309.813 160.608 311.109 161.096 312.101 162.072C313.093 163.032 313.589 164.424 313.589 166.248V174H311.429V166.56C311.429 165.248 311.101 164.248 310.445 163.56C309.789 162.856 308.893 162.504 307.757 162.504C306.605 162.504 305.685 162.864 304.997 163.584C304.325 164.304 303.989 165.352 303.989 166.728V174H301.805V160.848H303.989V162.72C304.421 162.048 305.005 161.528 305.741 161.16C306.493 160.792 307.317 160.608 308.213 160.608ZM318.285 158.712C317.869 158.712 317.517 158.568 317.229 158.28C316.941 157.992 316.797 157.64 316.797 157.224C316.797 156.808 316.941 156.456 317.229 156.168C317.517 155.88 317.869 155.736 318.285 155.736C318.685 155.736 319.021 155.88 319.293 156.168C319.581 156.456 319.725 156.808 319.725 157.224C319.725 157.64 319.581 157.992 319.293 158.28C319.021 158.568 318.685 158.712 318.285 158.712ZM319.341 160.848V174H317.157V160.848H319.341ZM325.727 162.648V170.4C325.727 171.04 325.863 171.496 326.135 171.768C326.407 172.024 326.879 172.152 327.551 172.152H329.159V174H327.191C325.975 174 325.063 173.72 324.455 173.16C323.847 172.6 323.543 171.68 323.543 170.4V162.648H321.839V160.848H323.543V157.536H325.727V160.848H329.159V162.648H325.727ZM332.933 158.712C332.517 158.712 332.165 158.568 331.877 158.28C331.589 157.992 331.445 157.64 331.445 157.224C331.445 156.808 331.589 156.456 331.877 156.168C332.165 155.88 332.517 155.736 332.933 155.736C333.333 155.736 333.669 155.88 333.941 156.168C334.229 156.456 334.373 156.808 334.373 157.224C334.373 157.64 334.229 157.992 333.941 158.28C333.669 158.568 333.333 158.712 332.933 158.712ZM333.989 160.848V174H331.805V160.848H333.989ZM343.447 174.216C342.215 174.216 341.095 173.936 340.087 173.376C339.095 172.816 338.311 172.024 337.735 171C337.175 169.96 336.895 168.76 336.895 167.4C336.895 166.056 337.183 164.872 337.759 163.848C338.351 162.808 339.151 162.016 340.159 161.472C341.167 160.912 342.295 160.632 343.543 160.632C344.791 160.632 345.919 160.912 346.927 161.472C347.935 162.016 348.727 162.8 349.303 163.824C349.895 164.848 350.191 166.04 350.191 167.4C350.191 168.76 349.887 169.96 349.279 171C348.687 172.024 347.879 172.816 346.855 173.376C345.831 173.936 344.695 174.216 343.447 174.216ZM343.447 172.296C344.231 172.296 344.967 172.112 345.655 171.744C346.343 171.376 346.895 170.824 347.311 170.088C347.743 169.352 347.959 168.456 347.959 167.4C347.959 166.344 347.751 165.448 347.335 164.712C346.919 163.976 346.375 163.432 345.703 163.08C345.031 162.712 344.303 162.528 343.519 162.528C342.719 162.528 341.983 162.712 341.311 163.08C340.655 163.432 340.127 163.976 339.727 164.712C339.327 165.448 339.127 166.344 339.127 167.4C339.127 168.472 339.319 169.376 339.703 170.112C340.103 170.848 340.631 171.4 341.287 171.768C341.943 172.12 342.663 172.296 343.447 172.296ZM359.471 160.608C361.071 160.608 362.367 161.096 363.359 162.072C364.351 163.032 364.847 164.424 364.847 166.248V174H362.687V166.56C362.687 165.248 362.359 164.248 361.703 163.56C361.047 162.856 360.151 162.504 359.015 162.504C357.863 162.504 356.943 162.864 356.255 163.584C355.583 164.304 355.247 165.352 355.247 166.728V174H353.063V160.848H355.247V162.72C355.679 162.048 356.263 161.528 356.999 161.16C357.751 160.792 358.575 160.608 359.471 160.608ZM369.11 174.144C368.694 174.144 368.342 174 368.054 173.712C367.766 173.424 367.622 173.072 367.622 172.656C367.622 172.24 367.766 171.888 368.054 171.6C368.342 171.312 368.694 171.168 369.11 171.168C369.51 171.168 369.846 171.312 370.118 171.6C370.406 171.888 370.55 172.24 370.55 172.656C370.55 173.072 370.406 173.424 370.118 173.712C369.846 174 369.51 174.144 369.11 174.144Z" fill="black"/>
<path d="M231.158 90.504C231.542 89.88 232.094 89.376 232.814 88.992C233.534 88.608 234.358 88.416 235.286 88.416C236.39 88.416 237.39 88.696 238.286 89.256C239.182 89.816 239.886 90.616 240.398 91.656C240.926 92.696 241.19 93.904 241.19 95.28C241.19 96.656 240.926 97.872 240.398 98.928C239.886 99.968 239.182 100.776 238.286 101.352C237.39 101.912 236.39 102.192 235.286 102.192C234.342 102.192 233.518 102.008 232.814 101.64C232.11 101.256 231.558 100.752 231.158 100.128V102H227.054V84.24H231.158V90.504ZM237.014 95.28C237.014 94.256 236.726 93.456 236.15 92.88C235.59 92.288 234.894 91.992 234.062 91.992C233.246 91.992 232.55 92.288 231.974 92.88C231.414 93.472 231.134 94.28 231.134 95.304C231.134 96.328 231.414 97.136 231.974 97.728C232.55 98.32 233.246 98.616 234.062 98.616C234.878 98.616 235.574 98.32 236.15 97.728C236.726 97.12 237.014 96.304 237.014 95.28ZM256.567 88.608V102H252.463V100.176C252.047 100.768 251.479 101.248 250.759 101.616C250.055 101.968 249.271 102.144 248.407 102.144C247.383 102.144 246.479 101.92 245.695 101.472C244.911 101.008 244.303 100.344 243.871 99.48C243.439 98.616 243.223 97.6 243.223 96.432V88.608H247.303V95.88C247.303 96.776 247.535 97.472 247.999 97.968C248.463 98.464 249.087 98.712 249.871 98.712C250.671 98.712 251.303 98.464 251.767 97.968C252.231 97.472 252.463 96.776 252.463 95.88V88.608H256.567ZM264.963 102.192C263.795 102.192 262.755 101.992 261.843 101.592C260.931 101.192 260.211 100.648 259.683 99.96C259.155 99.256 258.859 98.472 258.795 97.608H262.851C262.899 98.072 263.115 98.448 263.499 98.736C263.883 99.024 264.355 99.168 264.915 99.168C265.427 99.168 265.819 99.072 266.091 98.88C266.379 98.672 266.523 98.408 266.523 98.088C266.523 97.704 266.323 97.424 265.923 97.248C265.523 97.056 264.875 96.848 263.979 96.624C263.019 96.4 262.219 96.168 261.579 95.928C260.939 95.672 260.387 95.28 259.923 94.752C259.459 94.208 259.227 93.48 259.227 92.568C259.227 91.8 259.435 91.104 259.851 90.48C260.283 89.84 260.907 89.336 261.723 88.968C262.555 88.6 263.539 88.416 264.675 88.416C266.355 88.416 267.675 88.832 268.635 89.664C269.611 90.496 270.171 91.6 270.315 92.976H266.523C266.459 92.512 266.251 92.144 265.899 91.872C265.563 91.6 265.115 91.464 264.555 91.464C264.075 91.464 263.707 91.56 263.451 91.752C263.195 91.928 263.067 92.176 263.067 92.496C263.067 92.88 263.267 93.168 263.667 93.36C264.083 93.552 264.723 93.744 265.587 93.936C266.579 94.192 267.387 94.448 268.011 94.704C268.635 94.944 269.179 95.344 269.643 95.904C270.123 96.448 270.371 97.184 270.387 98.112C270.387 98.896 270.163 99.6 269.715 100.224C269.283 100.832 268.651 101.312 267.819 101.664C267.003 102.016 266.051 102.192 264.963 102.192ZM274.962 87.216C274.242 87.216 273.65 87.008 273.186 86.592C272.738 86.16 272.514 85.632 272.514 85.008C272.514 84.368 272.738 83.84 273.186 83.424C273.65 82.992 274.242 82.776 274.962 82.776C275.666 82.776 276.242 82.992 276.69 83.424C277.154 83.84 277.386 84.368 277.386 85.008C277.386 85.632 277.154 86.16 276.69 86.592C276.242 87.008 275.666 87.216 274.962 87.216ZM277.002 88.608V102H272.898V88.608H277.002ZM288.136 88.464C289.704 88.464 290.952 88.976 291.88 90C292.824 91.008 293.296 92.4 293.296 94.176V102H289.216V94.728C289.216 93.832 288.984 93.136 288.52 92.64C288.056 92.144 287.432 91.896 286.648 91.896C285.864 91.896 285.24 92.144 284.776 92.64C284.312 93.136 284.08 93.832 284.08 94.728V102H279.976V88.608H284.08V90.384C284.496 89.792 285.056 89.328 285.76 88.992C286.464 88.64 287.256 88.464 288.136 88.464ZM308.772 95.088C308.772 95.472 308.748 95.872 308.7 96.288H299.412C299.476 97.12 299.74 97.76 300.204 98.208C300.684 98.64 301.268 98.856 301.956 98.856C302.98 98.856 303.692 98.424 304.092 97.56H308.46C308.236 98.44 307.828 99.232 307.236 99.936C306.66 100.64 305.932 101.192 305.052 101.592C304.172 101.992 303.188 102.192 302.1 102.192C300.788 102.192 299.62 101.912 298.596 101.352C297.572 100.792 296.772 99.992 296.196 98.952C295.62 97.912 295.332 96.696 295.332 95.304C295.332 93.912 295.612 92.696 296.172 91.656C296.748 90.616 297.548 89.816 298.572 89.256C299.596 88.696 300.772 88.416 302.1 88.416C303.396 88.416 304.548 88.688 305.556 89.232C306.564 89.776 307.348 90.552 307.908 91.56C308.484 92.568 308.772 93.744 308.772 95.088ZM304.572 94.008C304.572 93.304 304.332 92.744 303.852 92.328C303.372 91.912 302.772 91.704 302.052 91.704C301.364 91.704 300.78 91.904 300.3 92.304C299.836 92.704 299.548 93.272 299.436 94.008H304.572ZM316.385 102.192C315.217 102.192 314.177 101.992 313.265 101.592C312.353 101.192 311.633 100.648 311.105 99.96C310.577 99.256 310.281 98.472 310.217 97.608H314.273C314.321 98.072 314.537 98.448 314.921 98.736C315.305 99.024 315.777 99.168 316.337 99.168C316.849 99.168 317.241 99.072 317.513 98.88C317.801 98.672 317.945 98.408 317.945 98.088C317.945 97.704 317.745 97.424 317.345 97.248C316.945 97.056 316.297 96.848 315.401 96.624C314.441 96.4 313.641 96.168 313.001 95.928C312.361 95.672 311.809 95.28 311.345 94.752C310.881 94.208 310.649 93.48 310.649 92.568C310.649 91.8 310.857 91.104 311.273 90.48C311.705 89.84 312.329 89.336 313.145 88.968C313.977 88.6 314.961 88.416 316.097 88.416C317.777 88.416 319.097 88.832 320.057 89.664C321.033 90.496 321.593 91.6 321.737 92.976H317.945C317.881 92.512 317.673 92.144 317.321 91.872C316.985 91.6 316.537 91.464 315.977 91.464C315.497 91.464 315.129 91.56 314.873 91.752C314.617 91.928 314.489 92.176 314.489 92.496C314.489 92.88 314.689 93.168 315.089 93.36C315.505 93.552 316.145 93.744 317.009 93.936C318.001 94.192 318.809 94.448 319.433 94.704C320.057 94.944 320.601 95.344 321.065 95.904C321.545 96.448 321.793 97.184 321.809 98.112C321.809 98.896 321.585 99.6 321.137 100.224C320.705 100.832 320.073 101.312 319.241 101.664C318.425 102.016 317.473 102.192 316.385 102.192ZM329.768 102.192C328.6 102.192 327.56 101.992 326.648 101.592C325.736 101.192 325.016 100.648 324.488 99.96C323.96 99.256 323.664 98.472 323.6 97.608H327.656C327.704 98.072 327.92 98.448 328.304 98.736C328.688 99.024 329.16 99.168 329.72 99.168C330.232 99.168 330.624 99.072 330.896 98.88C331.184 98.672 331.328 98.408 331.328 98.088C331.328 97.704 331.128 97.424 330.728 97.248C330.328 97.056 329.68 96.848 328.784 96.624C327.824 96.4 327.024 96.168 326.384 95.928C325.744 95.672 325.192 95.28 324.728 94.752C324.264 94.208 324.032 93.48 324.032 92.568C324.032 91.8 324.24 91.104 324.656 90.48C325.088 89.84 325.712 89.336 326.528 88.968C327.36 88.6 328.344 88.416 329.48 88.416C331.16 88.416 332.48 88.832 333.44 89.664C334.416 90.496 334.976 91.6 335.12 92.976H331.328C331.264 92.512 331.056 92.144 330.704 91.872C330.368 91.6 329.92 91.464 329.36 91.464C328.88 91.464 328.512 91.56 328.256 91.752C328 91.928 327.872 92.176 327.872 92.496C327.872 92.88 328.072 93.168 328.472 93.36C328.888 93.552 329.528 93.744 330.392 93.936C331.384 94.192 332.192 94.448 332.816 94.704C333.44 94.944 333.984 95.344 334.448 95.904C334.928 96.448 335.176 97.184 335.192 98.112C335.192 98.896 334.968 99.6 334.52 100.224C334.088 100.832 333.456 101.312 332.624 101.664C331.808 102.016 330.856 102.192 329.768 102.192Z" fill="#1C8FC5"/>
</svg>
