<?xml version="1.0" encoding="UTF-8"?>
<!DOCTYPE svg PUBLIC "-//W3C//DTD SVG 1.1//EN" "http://www.w3.org/Graphics/SVG/1.1/DTD/svg11.dtd">
<!-- Creator: CorelDRAW 2019 (64-Bit Evaluation Version) -->
<svg xmlns="http://www.w3.org/2000/svg" xml:space="preserve" width="210mm" height="297mm" version="1.1" style="shape-rendering:geometricPrecision; text-rendering:geometricPrecision; image-rendering:optimizeQuality; fill-rule:evenodd; clip-rule:evenodd"
viewBox="0 0 21000 29700"
 xmlns:xlink="http://www.w3.org/1999/xlink">
 <defs>
  <style type="text/css">
   <![CDATA[
    .fil12 {fill:#263238}
    .fil7 {fill:#407BFF}
    .fil13 {fill:#630F0F}
    .fil11 {fill:#7F3E3B}
    .fil1 {fill:#E6E6E6}
    .fil0 {fill:#EBEBEB}
    .fil2 {fill:#F0F0F0}
    .fil4 {fill:whitesmoke}
    .fil5 {fill:#FAFAFA}
    .fil3 {fill:white}
    .fil15 {fill:black;fill-opacity:0.039216}
    .fil14 {fill:black;fill-opacity:0.200000}
    .fil9 {fill:#263238;fill-opacity:0.200000}
    .fil16 {fill:black;fill-opacity:0.301961}
    .fil10 {fill:#407BFF;fill-opacity:0.400000}
    .fil6 {fill:#EBEBEB;fill-opacity:0.494118}
    .fil8 {fill:#407BFF;fill-opacity:0.600000}
   ]]>
  </style>
 </defs>
 <g id="Layer_x0020_1">
  <metadata id="CorelCorpID_0Corel-Layer"/>
  <g id="_3176067136512">
   <polygon class="fil0" points="48930.48,15803.52 30425.43,15803.52 30425.43,15812.78 48930.48,15812.78 "/>
   <polygon class="fil0" points="47076.21,16399.03 45850.5,16399.03 45850.5,16408.28 47076.21,16408.28 "/>
   <polygon class="fil0" points="42683.93,16499.73 42362.26,16499.73 42362.26,16508.98 42683.93,16508.98 "/>
   <polygon class="fil0" points="45813.48,16055.52 45103.21,16055.52 45103.21,16064.77 45813.48,16064.77 "/>
   <polygon class="fil0" points="33965.44,16117.74 32366.97,16117.74 32366.97,16127 33965.44,16127 "/>
   <polygon class="fil0" points="34529.47,16117.74 34295.2,16117.74 34295.2,16127 34529.47,16127 "/>
   <polygon class="fil0" points="38758.22,16273.97 35291.13,16273.97 35291.13,16283.23 38758.22,16283.23 "/>
   <path class="fil0" d="M39196.79 14152.88l-7146.25 0c-55.98,-0.1 -109.64,-22.41 -149.19,-62.03 -39.55,-39.62 -61.76,-93.31 -61.76,-149.3l0 -10045.61c0.48,-55.67 22.91,-108.89 62.41,-148.11 39.49,-39.22 92.88,-61.27 148.54,-61.37l7146.25 0c56.05,0 109.8,22.27 149.43,61.9 39.64,39.63 61.9,93.38 61.9,149.43l0 10043.76c0,56.05 -22.26,109.8 -61.9,149.43 -39.63,39.64 -93.38,61.9 -149.43,61.9l0 0zm-7146.25 -10459.02c-53.53,0.1 -104.83,21.43 -142.64,59.32 -37.82,37.89 -59.06,89.23 -59.06,142.76l0 10045.61c0,53.53 21.24,104.88 59.06,142.76 37.81,37.88 89.11,59.22 142.64,59.31l7146.25 0c53.57,-0.09 104.9,-21.41 142.79,-59.28 37.87,-37.89 59.19,-89.22 59.28,-142.79l0 -10045.61c-0.09,-53.57 -21.41,-104.91 -59.28,-142.78 -37.89,-37.88 -89.22,-59.2 -142.79,-59.3l-7146.25 0z"/>
   <path class="fil0" d="M47202.48 14152.88l-7146.68 0c-56.03,-0.1 -109.71,-22.39 -149.32,-62 -39.61,-39.62 -61.91,-93.32 -62.01,-149.33l0 -10045.61c0.59,-55.7 23.09,-108.92 62.65,-148.13 39.56,-39.21 92.97,-61.25 148.68,-61.35l7146.68 0c55.53,0.19 108.86,22.29 148.19,61.5 39.45,39.21 61.86,92.38 62.35,147.98l0 10045.61c0,55.92 -22.17,109.57 -61.62,149.17 -39.45,39.61 -93.03,61.96 -148.92,62.16l0 0zm-7146.68 -10459.02c-53.57,0.1 -104.91,21.42 -142.78,59.3 -37.89,37.87 -59.21,89.21 -59.31,142.78l0 10045.61c0.1,53.57 21.42,104.9 59.31,142.79 37.87,37.87 89.21,59.19 142.78,59.28l7146.68 0c53.46,-0.09 104.84,-21.41 142.71,-59.28 37.87,-37.89 59.18,-89.22 59.3,-142.79l0 -10045.61c-0.12,-53.57 -21.43,-104.91 -59.3,-142.78 -37.87,-37.88 -89.25,-59.2 -142.71,-59.3l-7146.68 0z"/>
   <polygon class="fil1" points="33699.34,15803.52 34788.17,15803.52 34788.17,11863.07 33699.34,11863.07 "/>
   <polygon class="fil2" points="33888.09,15803.52 33699.71,15803.52 33699.71,15266.88 34086.09,15266.88 "/>
   <polygon class="fil1" points="40878.9,15803.52 41967.73,15803.52 41967.73,11863.07 40878.9,11863.07 "/>
   <polygon class="fil2" points="33699.34,15474.14 41043.22,15474.14 41043.22,11863.07 33699.34,11863.07 "/>
   <polygon class="fil1" points="33845.52,13013.71 40897.03,13013.71 40897.03,12023.32 33845.52,12023.32 "/>
   <path class="fil2" d="M35919.56 12330.87l2904.17 0c147,0 292.45,-29.98 427.48,-88.07 135.03,-58.1 256.79,-143.1 357.87,-249.82l-4475.23 0c101.15,106.73 222.98,191.74 358.07,249.83 135.09,58.1 280.6,88.06 427.64,88.06l0 0z"/>
   <polygon class="fil2" points="40854.84,15803.52 41043.59,15803.52 41043.59,15266.88 40657.21,15266.88 "/>
   <polygon class="fil1" points="33845.52,14163.61 40897.03,14163.61 40897.03,13173.22 33845.52,13173.22 "/>
   <path class="fil2" d="M35919.56 13481.15l2904.17 0c147,-0.01 292.45,-29.98 427.48,-88.08 135.03,-58.09 256.79,-143.1 357.87,-249.83l-4475.23 0c101.15,106.75 222.98,191.75 358.07,249.85 135.09,58.09 280.6,88.06 427.64,88.06l0 0z"/>
   <polygon class="fil1" points="33845.52,15314.25 40897.03,15314.25 40897.03,14323.87 33845.52,14323.87 "/>
   <path class="fil2" d="M35919.56 14631.43l2904.17 0c146.96,-0.04 292.38,-29.98 427.39,-88.01 135.02,-58.02 256.81,-142.93 357.96,-249.53l-4475.23 0c101.22,106.62 223.07,191.52 358.15,249.55 135.08,58.02 280.55,87.96 427.56,87.99l0 0z"/>
   <polygon class="fil1" points="33539.08,10707.61 37833.71,10707.61 37833.71,5388.92 33539.08,5388.92 "/>
   <polygon class="fil2" points="33050.55,10707.61 37708.99,10707.61 37708.99,5388.92 33050.55,5388.92 "/>
   <polygon class="fil3" points="37318.55,10317.54 37318.55,5779.38 33440.63,5779.38 33440.63,10317.54 "/>
   <polygon class="fil0" points="40754.92,10574.76 46574.4,10574.76 46574.4,5330.08 40754.92,5330.08 "/>
   <polygon class="fil4" points="40601.7,10574.76 46502.56,10574.76 46502.56,5330.08 40601.7,5330.08 "/>
   <polygon class="fil0" points="41204.59,10858.98 46574.4,10858.98 46574.4,10574.76 41204.59,10574.76 "/>
   <polygon class="fil2" points="40377.41,10858.98 45435.15,10858.98 45435.15,10574.76 40377.41,10574.76 "/>
   <polygon class="fil5" points="46288.61,10360.84 46288.61,5544.37 40815.98,5544.37 40815.98,10360.84 "/>
   <polygon class="fil3" points="45435.15,10360.84 43607.29,5544.37 42744.21,5544.37 44572.18,10360.84 "/>
   <path class="fil2" d="M46185.72 10024.06c5.12,0 9.99,-2.03 13.64,-5.64 3.65,-3.62 5.6,-8.51 5.6,-13.61l0 -4317.22c0.85,-2.86 0.97,-5.88 0.49,-8.8 -0.61,-2.94 -1.83,-5.69 -3.53,-8.08 -1.83,-2.37 -4.14,-4.3 -6.82,-5.63 -2.68,-1.33 -5.6,-2.01 -8.65,-2.01 -2.92,0 -5.84,0.68 -8.52,2.01 -2.68,1.33 -4.99,3.26 -6.82,5.63 -1.83,2.39 -2.92,5.14 -3.53,8.08 -0.49,2.92 -0.37,5.94 0.36,8.8l0 4317.22c0,4.88 1.71,9.62 5.12,13.21 3.28,3.58 7.79,5.75 12.66,6.04z"/>
   <polygon class="fil3" points="44386.73,10360.84 42558.78,5544.37 42222.36,5544.37 44050.28,10360.84 "/>
   <polygon class="fil3" points="43589.15,10360.84 41761.21,5544.37 41424.43,5544.37 43252.71,10360.84 "/>
   <polygon class="fil0" points="40843.37,10360.84 40843.37,5544.37 40816.35,5544.37 40816.35,10360.84 "/>
   <g>
    <polygon class="fil6" points="40551.36,5738.67 46370.81,5738.67 46390.41,5627.63 40570.97,5627.63 "/>
    <polygon class="fil6" points="40551.36,5857.83 46370.81,5857.83 46390.41,5746.81 40570.97,5746.81 "/>
    <polygon class="fil6" points="40551.36,5977.01 46370.81,5977.01 46390.41,5865.98 40570.97,5865.98 "/>
    <polygon class="fil6" points="40551.36,6096.18 46370.81,6096.18 46390.41,5985.52 40570.97,5985.52 "/>
    <polygon class="fil6" points="40551.36,6215.72 46370.81,6215.72 46390.41,6104.69 40570.97,6104.69 "/>
    <polygon class="fil6" points="40551.36,6334.89 46370.81,6334.89 46390.41,6223.87 40570.97,6223.87 "/>
    <polygon class="fil6" points="40551.36,6454.07 46370.81,6454.07 46390.41,6343.04 40570.97,6343.04 "/>
    <polygon class="fil6" points="40551.36,6573.24 46370.81,6573.24 46390.41,6462.21 40570.97,6462.21 "/>
    <polygon class="fil6" points="40551.36,6692.42 46370.81,6692.42 46390.41,6581.39 40570.97,6581.39 "/>
    <polygon class="fil6" points="40551.36,6811.59 46370.81,6811.59 46390.41,6700.93 40570.97,6700.93 "/>
    <polygon class="fil6" points="40551.36,6931.13 46370.81,6931.13 46390.41,6820.1 40570.97,6820.1 "/>
    <polygon class="fil6" points="40551.36,7050.3 46370.81,7050.3 46390.41,6939.27 40570.97,6939.27 "/>
    <polygon class="fil6" points="40551.36,7169.48 46370.81,7169.48 46390.41,7058.45 40570.97,7058.45 "/>
    <polygon class="fil6" points="40551.36,7288.65 46370.81,7288.65 46390.41,7177.61 40570.97,7177.61 "/>
    <polygon class="fil6" points="40551.36,7407.81 46370.81,7407.81 46390.41,7297.16 40570.97,7297.16 "/>
    <polygon class="fil6" points="40551.36,7527.36 46370.81,7527.36 46390.41,7416.32 40570.97,7416.32 "/>
    <polygon class="fil6" points="40551.36,7646.54 46370.81,7646.54 46390.41,7535.5 40570.97,7535.5 "/>
    <polygon class="fil6" points="40551.36,7765.7 46370.81,7765.7 46390.41,7654.67 40570.97,7654.67 "/>
    <polygon class="fil6" points="40551.36,7884.87 46370.81,7884.87 46390.41,7773.84 40570.97,7773.84 "/>
    <polygon class="fil6" points="40551.36,8004.05 46370.81,8004.05 46390.41,7893.02 40570.97,7893.02 "/>
    <polygon class="fil6" points="40551.36,8123.22 46370.81,8123.22 46390.41,8012.19 40570.97,8012.19 "/>
    <polygon class="fil6" points="40551.36,8242.76 46370.81,8242.76 46390.41,8131.73 40570.97,8131.73 "/>
    <polygon class="fil6" points="40551.36,8361.93 46370.81,8361.93 46390.41,8250.9 40570.97,8250.9 "/>
    <polygon class="fil6" points="40551.36,8481.11 46370.81,8481.11 46390.41,8370.08 40570.97,8370.08 "/>
   </g>
   <path class="fil0" d="M39519.15 11285.72c0,319.02 -418.96,577.35 -935.62,577.35 -516.66,0 -935.61,-259.06 -935.61,-577.35l1871.23 0z"/>
   <path class="fil0" d="M37060.22 11285.72c0,319.02 -418.95,577.35 -935.61,577.35 -516.66,0 -935.99,-259.06 -935.99,-577.35l1871.6 0z"/>
   <polygon class="fil2" points="44141,15587.39 44810.84,15587.39 44810.84,12175.44 44141,12175.44 "/>
   <polygon class="fil2" points="41378.54,15803.52 44682.75,15803.52 44682.75,15587.39 41378.54,15587.39 "/>
   <polygon class="fil4" points="44141.37,12175.44 41249.74,12175.44 41249.74,15587.39 44141.37,15587.39 "/>
   <polygon class="fil2" points="43877.5,12595.5 41512.88,12595.5 41512.88,13714.31 43877.5,13714.31 "/>
   <polygon class="fil2" points="43877.5,14048.15 41512.88,14048.15 41512.88,15166.96 43877.5,15166.96 "/>
   <path class="fil4" d="M42425.92 13231.33l538.81 0c33.97,0 61.49,-27.51 61.49,-61.43l0 -30.72c0,-33.94 -27.52,-61.43 -61.49,-61.43l-538.81 0c-33.94,0 -61.45,27.49 -61.45,61.43l0 30.72c0,33.92 27.51,61.43 61.45,61.43z"/>
   <path class="fil4" d="M42425.92 14684.35l538.81 0c33.97,0 61.49,-27.51 61.49,-61.45l0 -30.71c0,-33.93 -27.52,-61.44 -61.49,-61.44l-538.81 0c-33.94,0 -61.45,27.51 -61.45,61.44l0 30.71c0,33.94 27.51,61.45 61.45,61.45z"/>
   <path class="fil4" d="M39677.92 17474.84c3963.1,0 7175.82,-187.52 7175.82,-418.88 0,-231.36 -3212.72,-419 -7175.82,-419 -3963.11,0 -7175.86,187.64 -7175.86,419 0,231.36 3212.75,418.88 7175.86,418.88z"/>
   <polygon class="fil7" points="33703.41,8198.72 33666.4,8198.72 33666.4,8909.31 33703.41,8909.31 "/>
   <polygon class="fil7" points="33703.41,9177.64 33666.4,9177.64 33666.4,9504.06 33703.41,9504.06 "/>
   <path class="fil7" d="M43796.76 6436.68l-9622.21 0c-216.26,0 -391.57,175.31 -391.57,391.55l0 6030.41c0,216.26 175.31,391.56 391.57,391.56l9622.21 0c216.26,0 391.61,-175.3 391.61,-391.56l0 -6030.41c0,-216.24 -175.35,-391.55 -391.61,-391.55z"/>
   <path class="fil3" d="M33913.25 6827.87l0 6030.77c0,144.11 116.82,260.92 260.92,260.92l9622.59 0c144.06,0 260.95,-116.81 260.95,-260.92l0 -6030.77c0,-144.1 -116.89,-260.92 -260.95,-260.92l-9622.59 0c-144.1,0 -260.92,116.82 -260.92,260.92z"/>
   <path class="fil8" d="M37811.14 12066.26l0 1053.67 2347.92 0 0 -1053.67c0,-98.16 -39,-192.3 -108.41,-261.7 -69.41,-69.41 -163.53,-108.4 -261.69,-108.4l-1608.83 0c-97.96,0.29 -191.82,39.42 -260.98,108.79 -69.17,69.37 -108.01,163.35 -108.01,261.31z"/>
   <path class="fil8" d="M40780.09 12066.26l0 1053.67 2349.02 0 0 -1053.67c0,-98.16 -38.96,-192.3 -108.37,-261.7 -69.41,-69.41 -163.53,-108.4 -261.68,-108.4l-1609.99 0c-97.97,0.29 -191.81,39.42 -260.98,108.79 -69.17,69.37 -108,163.35 -108,261.31l0 0z"/>
   <path class="fil8" d="M34841.84 12066.26l0 1053.67 2349.39 0 0 -1053.67c0,-98.16 -38.99,-192.3 -108.4,-261.7 -69.4,-69.41 -163.54,-108.4 -261.7,-108.4l-1609.94 0c-98.02,0.19 -191.97,39.27 -261.21,108.65 -69.25,69.4 -108.14,163.41 -108.14,261.45l0 0z"/>
   <path class="fil7" d="M42353.38 7227.21l681.36 0c24.97,0 49.08,-9.94 66.73,-27.65 17.66,-17.69 27.64,-41.7 27.64,-66.72l0 0c0,-12.4 -2.43,-24.67 -7.18,-36.12 -4.75,-11.46 -11.69,-21.86 -20.46,-30.62 -8.76,-8.76 -19.11,-15.71 -30.68,-20.46 -11.45,-4.74 -23.63,-7.19 -36.05,-7.19l-681.36 0c-25.01,0.1 -48.95,10.07 -66.63,27.75 -17.68,17.69 -27.65,41.64 -27.75,66.64 0.1,24.99 10.07,48.95 27.75,66.61 17.68,17.69 41.62,27.66 66.63,27.76l0 0z"/>
   <path class="fil7" d="M40033.59 7281.61c82.17,0 148.78,-66.61 148.78,-148.77 0,-82.17 -66.61,-148.79 -148.78,-148.79 -82.17,0 -148.78,66.62 -148.78,148.79 0,82.16 66.61,148.77 148.78,148.77z"/>
   <path class="fil7" d="M39719.75 7132.84c0,29.27 -8.69,57.9 -24.95,82.24 -16.27,24.34 -39.4,43.32 -66.44,54.53 -27.06,11.2 -56.82,14.13 -85.54,8.42 -28.71,-5.71 -55.09,-19.81 -75.79,-40.52 -20.71,-20.7 -34.81,-47.08 -40.52,-75.79 -5.72,-28.73 -2.78,-58.49 8.42,-85.54 11.2,-27.05 30.19,-50.17 54.53,-66.44 24.34,-16.27 52.97,-24.95 82.24,-24.95 39.27,0 76.92,15.6 104.68,43.36 27.77,27.77 43.37,65.42 43.37,104.69z"/>
   <path class="fil7" d="M35087.21 6980.72l-186.16 0c-32.7,0 -59.21,26.51 -59.21,59.22l0 186.16c0,32.7 26.51,59.21 59.21,59.21l186.16 0c32.71,0 59.22,-26.51 59.22,-59.21l0 -186.16c0,-32.71 -26.51,-59.22 -59.22,-59.22z"/>
   <path class="fil9" d="M36067.23 7179.84l-355.29 0c-12.47,0 -24.42,-4.96 -33.23,-13.77 -8.82,-8.82 -13.77,-20.78 -13.77,-33.23 0,-12.47 4.95,-24.43 13.77,-33.25 8.81,-8.81 20.76,-13.76 33.23,-13.76l355.29 0c12.47,0 24.43,4.95 33.24,13.76 8.82,8.82 13.78,20.78 13.78,33.25 0,12.45 -4.96,24.41 -13.78,33.23 -8.81,8.81 -20.77,13.77 -33.24,13.77z"/>
   <path class="fil9" d="M36760.81 7179.84l-355.3 0c-12.47,0 -24.42,-4.96 -33.24,-13.77 -8.82,-8.82 -13.76,-20.78 -13.76,-33.23 0,-12.47 4.94,-24.43 13.76,-33.25 8.82,-8.81 20.77,-13.76 33.24,-13.76l355.3 0c12.49,0 24.48,4.94 33.36,13.74 8.88,8.8 13.91,20.76 14,33.27l0 0c-0.09,12.49 -5.12,24.45 -14,33.25 -8.88,8.8 -20.87,13.75 -33.36,13.75l0 0z"/>
   <path class="fil9" d="M37454.74 7179.84l-355.3 0c-12.49,0 -24.49,-4.95 -33.36,-13.75 -8.88,-8.8 -13.91,-20.76 -14.01,-33.25l0 0c0.1,-12.51 5.13,-24.47 14.01,-33.27 8.87,-8.8 20.87,-13.74 33.36,-13.74l355.3 0c12.45,0 24.41,4.95 33.23,13.76 8.81,8.82 13.77,20.78 13.77,33.25l0 0c0,12.45 -4.96,24.41 -13.77,33.23 -8.82,8.81 -20.78,13.77 -33.23,13.77l0 0z"/>
   <path class="fil9" d="M38148.3 7179.84l-355.29 0c-12.51,0 -24.5,-4.95 -33.38,-13.75 -8.86,-8.8 -13.91,-20.76 -14,-33.25l0 0c0.09,-12.51 5.14,-24.47 14,-33.27 8.88,-8.8 20.87,-13.74 33.38,-13.74l355.29 0c12.47,0 24.41,4.95 33.23,13.76 8.82,8.82 13.77,20.78 13.77,33.25 0,12.45 -4.95,24.41 -13.77,33.23 -8.82,8.81 -20.76,13.77 -33.23,13.77z"/>
   <path class="fil10" d="M45589.55 7895.3l-7504.14 225.12c-216.25,6.48 -386.31,187.05 -379.82,403.3l65.57 2185.81c6.49,216.26 187.06,386.3 403.32,379.81l7504.2 -225.12c216.26,-6.49 386.25,-187.06 379.79,-403.3l-65.63 -2185.81c-6.45,-216.26 -187.03,-386.31 -403.29,-379.81z"/>
   <path class="fil10" d="M40995.85 9663.2l-2338.66 79.95c-30.09,0.94 -60.07,-4.06 -88.22,-14.72 -28.16,-10.65 -53.94,-26.75 -75.86,-47.38 -21.93,-20.61 -39.59,-45.36 -51.95,-72.82 -12.36,-27.44 -19.19,-57.06 -20.1,-87.14 -0.94,-30.09 4.07,-60.07 14.72,-88.22 10.66,-28.16 26.75,-53.94 47.38,-75.87 20.62,-21.93 45.36,-39.57 72.81,-51.93 27.45,-12.37 57.07,-19.2 87.16,-20.1l2338.65 -79.94c30.09,-0.94 60.07,4.05 88.22,14.71 28.17,10.65 53.94,26.76 75.86,47.38 21.93,20.62 39.59,45.37 51.95,72.81 12.36,27.45 19.19,57.06 20.1,87.15l0 0c1.04,30.11 -3.89,60.13 -14.51,88.33 -10.62,28.2 -26.72,54.02 -47.36,75.97 -20.64,21.94 -45.43,39.59 -72.91,51.92 -27.5,12.33 -57.16,19.1 -87.28,19.9z"/>
   <path class="fil10" d="M40226.41 10385.27l-1545.54 52.55c-60.45,1.9 -119.21,-20.18 -163.44,-61.44 -44.24,-41.24 -70.36,-98.33 -72.69,-158.76l0 0c-0.93,-30.09 4.07,-60.07 14.73,-88.22 10.65,-28.15 26.75,-53.94 47.37,-75.86 20.63,-21.93 45.38,-39.59 72.82,-51.95 27.45,-12.36 57.06,-19.19 87.15,-20.1l1545.17 -52.92c30.09,-0.94 60.07,4.07 88.22,14.72 28.15,10.65 53.93,26.75 75.86,47.37 21.93,20.63 39.58,45.37 51.93,72.81 12.38,27.45 19.2,57.06 20.11,87.15l0 0c1.5,60.46 -20.97,119.06 -62.49,163.01 -41.54,43.95 -98.76,69.7 -159.2,71.64l0 0z"/>
   <path class="fil11" d="M45851.23 9517.76l66.97 207.63 245.72 -225.03c-51.02,-33.98 -103.86,-65 -158.41,-92.9 -19.73,-10.47 -42.75,-12.68 -64.18,-6.17 -21.31,6.53 -39.33,21.26 -49.8,40.96l-40.3 75.51z"/>
   <polygon class="fil11" points="46162.1,9896.37 46267.91,9649.15 46163.92,9500.36 45918.2,9725.39 "/>
   <path class="fil11" d="M43504.4 7992.21c-126.27,169.87 -256.81,329.38 -396.35,486.68 -140.03,159.53 -289.56,310.43 -447.86,451.89l-8.89 7.77 -17.78 14.43c-11.81,9.24 -24.11,17.77 -37.02,25.55 -26.1,14.17 -53.96,24.86 -82.87,31.81 -47.33,11.11 -96.42,12.62 -144.35,4.45 -69.07,-12.38 -135.68,-35.89 -197.26,-69.58 -99.79,-55.32 -193.34,-121.19 -279.05,-196.52 -160.96,-140.18 -307.84,-295.75 -438.57,-464.48l148.04 -140.27c153.96,125.47 315.33,250.57 476.7,356.78 75.61,51.36 155.91,95.48 239.82,131.76 29.84,13.43 61.76,21.69 94.37,24.42 9.25,0 13.7,-1.85 8.14,-1.85 -4.01,0.32 -7.91,1.45 -11.47,3.34 -2.37,0.92 -4.61,2.17 -6.66,3.7l-2.96 1.85 4.81 -5.19c67.73,-68.83 133.24,-142.85 199.11,-216.88 65.87,-74.01 129.56,-151.73 193.61,-228.71 127.24,-154.71 254.98,-313.85 377.48,-469.29l329.01 248.34z"/>
   <polygon class="fil11" points="41462.18,7821.22 41173.87,7880.06 41315.62,8132.47 41572.1,7933.72 "/>
   <path class="fil11" d="M41608.36 8196.5l-37.01 -262.78 -256.47 198.75c0,0 39.59,228.72 222.05,228.72l71.43 -164.69z"/>
   <path class="fil12" d="M41627.61 8143.94c-7.33,0.1 -14.34,3.06 -19.52,8.24 -5.19,5.18 -8.14,12.2 -8.24,19.53 -0.17,2.09 -0.17,4.19 0,6.28 -3.78,-1.92 -7.97,-2.95 -12.22,-2.96 -7.35,0 -14.41,2.92 -19.62,8.14 -5.2,5.2 -8.13,12.26 -8.13,19.62 0.26,2.66 0.88,5.28 1.86,7.77l-1.86 0c-7.33,0.1 -14.34,3.06 -19.52,8.23 -5.18,5.19 -8.14,12.19 -8.24,19.54 0.16,5.91 2.24,11.64 5.93,16.28l0 0c-7.37,0 -14.43,2.92 -19.63,8.13 -5.21,5.2 -8.13,12.26 -8.13,19.62 0.21,6.04 2.28,11.85 5.92,16.66 -6.21,1.19 -11.82,4.5 -15.86,9.36 -4.05,4.86 -6.29,10.96 -6.34,17.29 0.12,4.26 1.22,8.45 3.21,12.24 1.99,3.78 4.81,7.06 8.26,9.59 -5.41,1.85 -10.08,5.35 -13.41,9.99 -3.31,4.65 -5.1,10.21 -5.1,15.91 0,7.37 2.92,14.43 8.13,19.63 5.2,5.21 12.27,8.14 19.63,8.14 7.36,0 14.42,-2.93 19.63,-8.14 5.2,-5.2 8.12,-12.26 8.12,-19.63 0.04,-4.26 -0.96,-8.46 -2.88,-12.26 -1.94,-3.8 -4.75,-7.09 -8.22,-9.57 5.31,-1.96 9.89,-5.49 13.12,-10.12 3.24,-4.63 5,-10.13 5.02,-15.78 -0.21,-6.04 -2.28,-11.85 -5.93,-16.66 6.21,-1.19 11.81,-4.5 15.87,-9.36 4.04,-4.86 6.28,-10.96 6.34,-17.29 -0.2,-5.91 -2.27,-11.61 -5.92,-16.28 3.66,0.05 7.3,-0.64 10.68,-2.01 3.39,-1.38 6.47,-3.42 9.06,-6.01 2.58,-2.59 4.63,-5.67 6.01,-9.05 1.37,-3.4 2.05,-7.03 2,-10.68 0.36,-2.59 0.36,-5.2 0,-7.78l0 0c7.37,0 14.43,-2.93 19.63,-8.13 5.22,-5.21 8.14,-12.27 8.14,-19.63 0.18,-2.09 0.18,-4.2 0,-6.29 3.66,1.89 7.72,2.91 11.85,2.96 7.35,0 14.41,-2.92 19.61,-8.12 5.21,-5.22 8.14,-12.28 8.14,-19.63 0,-7.37 -2.93,-14.43 -8.14,-19.63 -5.2,-5.21 -12.26,-8.14 -19.61,-8.14l0.36 0z"/>
   <path class="fil11" d="M45011.03 7710.56c86.21,152.48 169.14,306.44 250.23,461.88 81.1,155.45 160.25,311.26 237.57,468.55l28.86 58.85 24.47 48.11 28.5 49.96 32.15 51.45c44.81,68.47 92.54,138.79 142.1,208.36l301.74 422.66 -148.07 140.64c-138.94,-112.43 -271.18,-232.92 -395.99,-360.86 -62.59,-64.39 -124.45,-130.64 -185.09,-202.81l-44.08 -55.14 -42.13 -60.32c-13.76,-21.47 -29.59,-45.9 -41.52,-65.51l-33.61 -56.26c-90.35,-148.05 -178.02,-300.89 -264.6,-452.63 -86.7,-151.74 -170.72,-304.97 -251.69,-459.66l361.16 -197.27z"/>
   <path class="fil12" d="M43610.95 6659.1c4.87,21.47 -2.92,41.45 -16.68,45.15 -13.64,3.7 -28.86,-11.09 -33.61,-32.56 -4.87,-21.47 3.29,-41.83 17.05,-45.15 13.63,-3.34 28.85,11.1 33.24,32.56z"/>
   <path class="fil13" d="M43609.85 6700.18c-11.32,72.2 -32.39,142.54 -62.59,209.12 17.05,6.84 35.44,9.82 53.7,8.74 18.27,-1.1 36.17,-6.22 52.24,-15.04l-43.35 -202.82z"/>
   <path class="fil12" d="M43554.33 6528.46c-2.07,0 -4.02,-0.47 -5.97,-1.37 -1.83,-0.89 -3.41,-2.19 -4.75,-3.81 -0.97,-1.41 -1.7,-3 -2.07,-4.68 -0.37,-1.66 -0.37,-3.41 0,-5.09 0.24,-1.69 0.85,-3.3 1.83,-4.73 0.97,-1.44 2.19,-2.67 3.53,-3.64 17.29,-10.77 36.89,-17.21 57.23,-18.76 20.33,-1.54 40.67,1.84 59.42,9.88 3.17,1.39 5.6,3.93 6.94,7.1 1.34,3.18 1.34,6.73 0.12,9.92 -0.73,1.59 -1.7,3.04 -2.92,4.24 -1.09,1.22 -2.56,2.18 -4.14,2.84 -1.58,0.64 -3.29,0.98 -4.99,0.97 -1.71,0 -3.41,-0.35 -4.99,-1.01 -14.74,-6.4 -30.69,-9.22 -46.64,-8.18 -15.95,1.02 -31.42,5.87 -45.18,14.1 -2.19,1.45 -4.75,2.23 -7.42,2.22l0 0z"/>
   <path class="fil11" d="M44349.35 6727.2c23.98,250.19 -11.45,492.24 44.81,709.48 0,0 -62.23,201.71 -431.91,201.71 -407.19,0 -185.09,-201.71 -185.09,-201.71 222.1,-52.92 224.66,-217.24 192.03,-371.95l380.16 -337.53z"/>
   <path class="fil12" d="M44444.45 7505.89c31.78,-63.66 66.6,-136.93 0,-159.88 -71.85,-25.17 -470.39,-50.7 -609.94,-3.33 -37.14,9.95 -69.04,33.97 -88.77,66.99 -19.72,33.04 -25.93,72.46 -17.04,109.91l715.75 -13.69z"/>
   <path class="fil7" d="M45236.79 16605.54c25.69,-5.96 50.53,-14.97 74.03,-26.66 1.34,-0.61 2.32,-1.46 3.05,-2.68 0.73,-1.22 1.09,-2.56 1.09,-4.02 -0.24,-1.34 -0.85,-2.56 -1.7,-3.65 -0.86,-1.1 -1.95,-2.07 -3.17,-2.56 -11.81,-4.14 -117.99,-41.89 -148.07,-18.51 -3.04,2.56 -5.48,5.97 -6.82,9.86 -1.34,3.78 -1.7,7.92 -0.85,11.94 0.61,6.94 3.04,13.64 6.94,19.48 3.78,5.72 9.01,10.47 15.22,13.88 19.12,8.16 40.55,9.13 60.28,2.92l0 0zm51.87 -31.78c-47,20.34 -85.48,26.55 -103.99,16.56 -4.26,-2.19 -7.79,-5.48 -10.35,-9.49 -2.56,-4.02 -4.14,-8.65 -4.5,-13.4 0,-5.6 0,-7.79 2.55,-8.89 14.86,-12.17 73.67,1.1 116.29,15.22l0 0z"/>
   <path class="fil7" d="M45309.36 16579.61l3.29 -1.83c0.97,-0.85 1.58,-2.07 1.95,-3.29 0.36,-1.21 0.36,-2.55 0,-3.77 0,-3.65 -25.94,-85.85 -65.51,-106.18 -4.75,-2.68 -9.99,-4.26 -15.35,-4.75 -5.35,-0.49 -10.71,0.24 -15.83,2.19 -5.11,1.1 -9.74,3.9 -13.03,8.04 -3.28,4.14 -5.11,9.25 -5.11,14.49 0,33.73 74.03,85.11 105.94,94.73l3.65 0.37zm-84.02 -105.45c5.97,-1.22 12.18,-0.12 17.41,2.92 25.82,21.92 44.57,51.02 53.7,83.65 -34.82,-16.31 -82.19,-56.62 -82.56,-76.59 0,-1.82 0,-5.96 8.53,-8.89l2.92 -1.09z"/>
   <path class="fil7" d="M43329.66 16799.52c26.31,-0.61 52.36,-4.26 77.81,-10.84 1.22,-0.24 2.44,-0.97 3.41,-1.95 0.98,-0.97 1.59,-2.19 1.71,-3.53 0.24,-1.34 0.12,-2.8 -0.37,-4.02 -0.48,-1.21 -1.46,-2.31 -2.55,-3.04 -10.72,-7.06 -106.67,-65.88 -139.55,-48.83 -3.65,1.83 -6.82,4.75 -9.01,8.28 -2.07,3.53 -3.29,7.55 -3.17,11.69 -0.73,6.94 0.25,13.88 2.8,20.34 2.56,6.45 6.7,12.17 11.94,16.68 16.68,11.44 36.89,16.8 56.98,15.22l0 0zm57.36 -20.82c-50.29,10.35 -89.14,8.52 -105.45,-5.12 -3.53,-3.16 -6.34,-7.18 -8.04,-11.56 -1.58,-4.51 -2.19,-9.26 -1.58,-14.01 0,-5.6 2.55,-7.43 4.5,-8.16 16.93,-8.89 71.72,16.69 110.57,38.85z"/>
   <path class="fil7" d="M43405.89 16787.95c1.22,0.37 2.56,0.37 3.78,0 1.09,-0.73 1.94,-1.7 2.43,-2.92 0.61,-1.1 0.98,-2.44 0.85,-3.65 0,-3.78 -7.42,-89.26 -42.13,-117.39 -4.14,-3.53 -8.89,-6.21 -14,-7.79 -5.24,-1.58 -10.59,-2.07 -16.07,-1.46 -5.24,0.12 -10.23,1.95 -14.37,5.36 -4.02,3.28 -6.82,8.03 -7.8,13.15 -6.33,33.36 53.34,98.14 84.02,114.7 1.1,0.37 2.32,0.37 3.29,0l0 0zm-59.91 -120.67c5.85,0.24 11.57,2.44 15.95,6.33 20.83,26.79 33.12,59.3 35.07,93.28 -30.32,-23.26 -68.43,-74.04 -64.66,-92.18 0,-1.83 0,-5.85 10.35,-6.94l3.29 0 0 -0.49z"/>
   <polygon class="fil11" points="43725.65,16778.33 43453.62,16778.33 43451.07,16148.79 43722.73,16148.79 "/>
   <polygon class="fil11" points="45625.83,16512.64 45359.65,16569.26 45118.79,15976.74 45384.86,15920.12 "/>
   <path class="fil12" d="M45335.66 16542.23l298.7 -63.69c5.11,-0.97 10.59,-0.24 15.22,2.19 4.75,2.44 8.52,6.33 10.59,11.21l93.64 227.21c2.19,5.73 3.17,11.69 2.68,17.78 -0.36,6.09 -2.19,11.93 -5.11,17.29 -2.93,5.36 -6.94,9.87 -11.81,13.52 -4.88,3.65 -10.48,6.09 -16.44,7.3 -104.72,20.34 -156.23,25.21 -287.62,53.34 -80.97,16.92 -246.09,61 -357.51,84.75 -111.29,23.62 -145.39,-84.39 -101.67,-104.36 197.26,-88.89 263.5,-167.3 319.03,-240.97 9.86,-13.15 24.23,-22.17 40.3,-25.57l0 0z"/>
   <path class="fil12" d="M43456.67 16746.92l296.02 0c5.35,-0.13 10.59,1.58 14.73,4.99 4.26,3.41 6.94,8.16 7.91,13.51l44.33 241.71c1.09,5.97 0.85,12.06 -0.86,17.9 -1.58,5.73 -4.38,11.21 -8.28,15.83 -4.01,4.51 -8.88,8.16 -14.36,10.72 -5.48,2.43 -11.45,3.77 -17.54,3.65 -106.91,0 -261.31,-7.79 -395.99,-7.79 -157.69,0 -293.82,8.52 -478.54,8.52 -111.05,0 -138.09,-112.88 -91.08,-123.23 214.67,-46.27 388.68,-51.5 576.69,-164.75 19.97,-13.03 43.1,-20.21 66.97,-21.06z"/>
   <path class="fil7" d="M44912.64 7498.49c252.79,58.47 518.12,753.16 518.12,753.16l-525.18 350.85c-120.55,-182.81 -226.24,-375.02 -316.11,-574.77 -137.23,-318.28 65.15,-589.2 323.17,-529.24z"/>
   <path class="fil14" d="M44713.19 7942.61l217.23 644.35 -24.84 16.64c0,0 -99.24,-148.03 -204.69,-345.29l12.3 -315.7z"/>
   <path class="fil7" d="M43216.42 8712.79c2.19,303.48 20.34,680.99 65.51,1149.52l1454.51 0c18.88,-222.05 -79.51,-1312.37 176.2,-2364.18 -160,-31.02 -321.83,-51.54 -484.51,-61.45 -205.79,-11.85 -412.18,-11.85 -618.09,0 -141.86,13.81 -282.62,38.55 -420.71,74.02 0,0 -124.81,134.72 -162.19,766.48 -7.31,126.2 -11.45,269.8 -10.72,435.61z"/>
   <path class="fil14" d="M43216.42 8712.79c88.16,-160.62 248.04,-482.98 225.39,-666.19l-214.67 232.43c-7.31,124.35 -11.45,267.95 -10.72,433.76z"/>
   <path class="fil7" d="M43675 7757.56c22.89,259.08 -564.39,882.32 -564.39,882.32l-471.85 -383.06c123.35,-207.95 271.29,-400.42 440.43,-573.28 275.32,-266.47 569.14,-215.77 595.81,74.02z"/>
   <g>
    <polygon class="fil15" points="43451.07,16148.79 43452.16,16473.43 43724.19,16473.43 43723.1,16148.79 "/>
    <polygon class="fil15" points="45384.86,15920.48 45118.79,15977.1 45243.12,16282.5 45509.18,16225.75 "/>
   </g>
   <path class="fil11" d="M44310.87 6434.45c39.57,267.58 76.22,421.91 -26.67,590.32 -32.76,55.12 -79.88,100.26 -136.38,130.5 -56.5,30.23 -120.31,44.43 -184.36,41.03 -63.92,-3.4 -125.78,-24.24 -178.87,-60.29 -52.97,-36.04 -95.1,-85.9 -121.77,-144.18 -106.3,-222.07 -153.67,-623.26 79.88,-792.76 49.44,-38.08 108.01,-62.46 169.87,-70.67 61.85,-8.21 124.69,0.05 182.4,23.92 57.6,23.87 107.89,62.54 145.76,112.07 37.99,49.54 62.1,108.2 70.14,170.06z"/>
   <path class="fil12" d="M43823.07 6660.22c-134.31,22.58 -209.93,-131.76 -106.67,-263.88 -195.68,8.87 -278.97,-91.43 -191.66,-270.55 74.03,-154.34 310.5,-78.83 310.5,-78.83 0,0 196.9,-264.62 429.72,-117.32 249.75,158.03 117.26,304.22 117.26,304.22 0,0 358.73,49.59 266.19,307.19 -14.13,39.41 -38.85,74.15 -71.6,100.3 -32.64,26.14 -71.97,42.68 -113.49,47.73 0,0 91.81,276.09 -180.22,333.09 -272.02,57 -546.61,-170.24 -460.03,-361.95z"/>
   <path class="fil11" d="M43905.63 6591.37c4.74,67.92 -12.18,135.61 -48.59,193.2 -48.46,74.02 -115.07,46.26 -136.5,-31.09 -19.61,-69.58 -18.14,-192.82 47.37,-241.67 65.51,-48.85 129.19,-1.85 137.72,79.56z"/>
   <path class="fil12" d="M43797.86 9862.31c0,0 228.31,2077.37 367.86,2854.58 152.58,851.24 942.72,3528.22 942.72,3528.22l486.95 -103.74c0,0 -543.57,-2502.93 -616.87,-3347.12 -79.64,-916 -242.08,-2933.41 -242.08,-2933.41l-938.58 1.47z"/>
   <path class="fil7" d="M44999.58 16082.19c-2.19,0 82.93,178.02 82.93,178.02l547.71 -116.53 -39.21 -166.21 -591.43 104.72z"/>
   <path class="fil14" d="M43964.44 10602.51c354.22,69.96 264.96,1400.45 195.8,2084.78 -84.38,-483.73 -199.09,-1414.53 -276.53,-2075.14 25.08,-12.22 53.45,-15.6 80.73,-9.64l0 0z"/>
   <path class="fil12" d="M43282.3 9862.31c0,0 -116.17,2032.96 -118.36,2861.98 -2.68,862.33 189.47,3686.18 189.47,3686.18l460.77 0c0,0 123.96,-2773.51 176.93,-3620.3 58.08,-925.25 247.18,-2927.86 247.18,-2927.86l-955.99 0z"/>
   <path class="fil7" d="M43216.42 9669.87c-1.34,65.66 9.86,130.96 33,192.44 -10.84,55.51 -16.44,111.87 -16.68,168.41 148.07,52.18 1546.32,116.94 1543.28,0 -2.92,-116.96 0,-168.41 0,-168.41 0,0 37.02,-164.69 0,-192.44 -37.02,-27.76 -1549.25,-98.82 -1559.6,0z"/>
   <path class="fil16" d="M43216.42 9669.87c-1.34,65.66 9.86,130.96 33,192.44 -10.84,55.51 -16.44,111.87 -16.68,168.41 148.07,52.18 1546.32,116.94 1543.28,0 -2.92,-116.96 0,-168.41 0,-168.41 0,0 37.02,-164.69 0,-192.44 -37.02,-27.76 -1549.25,-98.82 -1559.6,0z"/>
   <path class="fil7" d="M43271.95 16226.97c-2.19,0 18.51,191.3 18.51,191.3l560.37 0 21.8 -170.6 -600.68 -20.7z"/>
  </g>
 </g>
</svg>
