<svg width="1305" height="1305" viewBox="0 0 1305 1305" fill="none" xmlns="http://www.w3.org/2000/svg">
<circle cx="652.5" cy="652.5" r="652.5" fill="#33B6EC" fill-opacity="0.5"/>
<circle cx="652.5" cy="652.5" r="539.5" fill="#2B93C9" fill-opacity="0.8"/>
<circle cx="652.5" cy="652.5" r="447.5" fill="#2579B0"/>
<circle cx="652.5" cy="652.5" r="367.5" fill="#1F6294"/>
<path d="M583.704 595.888C584.856 578.032 591.672 564.112 604.152 554.128C616.824 544.144 632.952 539.152 652.536 539.152C665.976 539.152 677.592 541.552 687.384 546.352C697.176 551.152 704.568 557.68 709.56 565.936C714.552 574.192 717.048 583.504 717.048 593.872C717.048 605.776 713.88 615.952 707.544 624.4C701.208 632.848 693.624 638.512 684.792 641.392V642.544C696.12 646 704.952 652.336 711.288 661.552C717.624 670.576 720.792 682.192 720.792 696.4C720.792 707.728 718.2 717.808 713.016 726.64C707.832 735.472 700.152 742.48 689.976 747.664C679.8 752.656 667.608 755.152 653.4 755.152C632.664 755.152 615.576 749.872 602.136 739.312C588.888 728.56 581.784 713.2 580.824 693.232H612.504C613.272 703.408 617.208 711.76 624.312 718.288C631.416 724.624 641.016 727.792 653.112 727.792C664.824 727.792 673.848 724.624 680.184 718.288C686.52 711.76 689.688 703.408 689.688 693.232C689.688 679.792 685.368 670.288 676.728 664.72C668.28 658.96 655.224 656.08 637.56 656.08H630.072V629.008H637.848C653.4 628.816 665.208 626.224 673.272 621.232C681.528 616.24 685.656 608.368 685.656 597.616C685.656 588.4 682.68 581.104 676.728 575.728C670.776 570.16 662.328 567.376 651.384 567.376C640.632 567.376 632.28 570.16 626.328 575.728C620.376 581.104 616.824 587.824 615.672 595.888H583.704Z" fill="white"/>
</svg>
