<svg width="1305" height="1305" viewBox="0 0 1305 1305" fill="none" xmlns="http://www.w3.org/2000/svg">
<circle cx="652.5" cy="652.5" r="652.5" fill="#33B6EC" fill-opacity="0.5"/>
<circle cx="652.5" cy="652.5" r="539.5" fill="#2B93C9" fill-opacity="0.8"/>
<circle cx="652.5" cy="652.5" r="447.5" fill="#2579B0"/>
<circle cx="652.5" cy="652.5" r="367.5" fill="#1F6294"/>
<path d="M604.424 709.36C622.856 693.424 637.352 680.368 647.912 670.192C658.664 659.824 667.592 649.072 674.696 637.936C681.8 626.8 685.352 615.664 685.352 604.528C685.352 593.008 682.568 583.984 677 577.456C671.624 570.928 663.08 567.664 651.368 567.664C640.04 567.664 631.208 571.312 624.872 578.608C618.728 585.712 615.464 595.312 615.08 607.408H583.4C583.976 585.52 590.504 568.816 602.984 557.296C615.656 545.584 631.688 539.728 651.08 539.728C672.008 539.728 688.328 545.488 700.04 557.008C711.944 568.528 717.896 583.888 717.896 603.088C717.896 616.912 714.344 630.256 707.24 643.12C700.328 655.792 691.976 667.216 682.184 677.392C672.584 687.376 660.296 698.992 645.32 712.24L632.36 723.76H723.656V751.12H583.688V727.216L604.424 709.36Z" fill="white"/>
</svg>
