<svg width="226" height="228" viewBox="0 0 226 228" fill="none" xmlns="http://www.w3.org/2000/svg">
<rect width="226" height="228" fill="#E5E5E5"/>
<g clip-path="url(#clip0)">
<path d="M-518.505 -650.123C-555 -682 -591 -700 -607 -796H225V228C63.3171 194.392 89.7311 104.649 -11.0579 -14.378C-111.848 -133.405 -261.632 -234.228 -393.218 -368.659C-487.708 -491.187 -452.954 -592.866 -518.505 -650.123Z" fill="#EFEFEF"/>
<path d="M-295.02 -383.788C-415.298 -510.711 -431.901 -647.674 -413.022 -715.212L226 -772V184C168 148 160 138 138 102C116 66 -9.63693 13.086 -150.319 -111.795C-253.162 -227.4 -235.152 -320.612 -295.02 -383.788Z" fill="#E0E0E0"/>
<path d="M-413.638 -557C-492.996 -653.434 -497.972 -751.833 -481.138 -799H230.362V141.5C114.862 117.5 20.8619 -18 -51.1381 -103C-123.138 -188 -230.138 -260 -324.138 -356C-391.638 -443.5 -374.138 -509 -413.638 -557Z" fill="url(#paint0_linear)"/>
</g>
<defs>
<linearGradient id="paint0_linear" x1="-230.138" y1="-799" x2="230.362" y2="43" gradientUnits="userSpaceOnUse">
<stop stop-color="#4D7EB1"/>
<stop offset="0.765625" stop-color="#143B63"/>
</linearGradient>
<clipPath id="clip0">
<rect width="834" height="1024" fill="white" transform="translate(-607 -797)"/>
</clipPath>
</defs>
</svg>
