<svg width="1521" height="1133" viewBox="0 0 1521 1133" fill="none" xmlns="http://www.w3.org/2000/svg">
<path d="M1520.35 995.375H0.645403V996.135H1520.35V995.375Z" fill="#EBEBEB"/>
<path d="M1368.07 1044.28H1267.41V1045.04H1368.07V1044.28Z" fill="#EBEBEB"/>
<path d="M1007.36 1052.55H980.943V1053.31H1007.36V1052.55Z" fill="#EBEBEB"/>
<path d="M1264.37 1016.07H1206.04V1016.83H1264.37V1016.07Z" fill="#EBEBEB"/>
<path d="M291.364 1021.18H160.092V1021.94H291.364V1021.18Z" fill="#EBEBEB"/>
<path d="M337.684 1021.18H318.445V1021.94H337.684V1021.18Z" fill="#EBEBEB"/>
<path d="M684.966 1034.01H400.235V1034.77H684.966V1034.01Z" fill="#EBEBEB"/>
<path d="M720.983 859.818H134.105C129.508 859.81 125.101 857.978 121.853 854.724C118.605 851.47 116.781 847.061 116.781 842.463V17.4788C116.821 12.9076 118.663 8.53682 121.907 5.31579C125.15 2.09475 129.534 0.283628 134.105 0.275797H720.983C725.586 0.275797 730 2.10426 733.255 5.35895C736.51 8.61364 738.338 13.0279 738.338 17.6308V842.463C738.338 847.066 736.51 851.48 733.255 854.735C730 857.99 725.586 859.818 720.983 859.818V859.818ZM134.105 0.883679C129.709 0.891731 125.496 2.64369 122.391 5.755C119.285 8.86632 117.541 13.0828 117.541 17.4788V842.463C117.541 846.859 119.285 851.076 122.391 854.187C125.496 857.298 129.709 859.05 134.105 859.058H720.983C725.382 859.05 729.598 857.299 732.709 854.189C735.819 851.078 737.57 846.862 737.578 842.463V17.4788C737.57 13.08 735.819 8.8636 732.709 5.75315C729.598 2.6427 725.382 0.891714 720.983 0.883679H134.105Z" fill="#EBEBEB"/>
<path d="M1378.44 859.818H791.528C786.927 859.81 782.518 857.979 779.265 854.726C776.012 851.473 774.181 847.063 774.173 842.463V17.4788C774.221 12.9048 776.069 8.53408 779.318 5.31388C782.567 2.09369 786.953 0.283542 791.528 0.275797H1378.44C1383 0.291615 1387.38 2.10627 1390.61 5.32645C1393.85 8.54663 1395.69 12.9129 1395.73 17.4788V842.463C1395.73 847.055 1393.91 851.461 1390.67 854.713C1387.43 857.966 1383.03 859.802 1378.44 859.818V859.818ZM791.528 0.883679C787.129 0.891714 782.912 2.6427 779.802 5.75315C776.691 8.8636 774.94 13.08 774.932 17.4788V842.463C774.94 846.862 776.691 851.078 779.802 854.189C782.912 857.299 787.129 859.05 791.528 859.058H1378.44C1382.83 859.05 1387.05 857.299 1390.16 854.189C1393.27 851.078 1395.02 846.862 1395.03 842.463V17.4788C1395.02 13.08 1393.27 8.8636 1390.16 5.75315C1387.05 2.6427 1382.83 0.891714 1378.44 0.883679H791.528Z" fill="#EBEBEB"/>
<path d="M269.511 995.375H358.93L358.93 671.77H269.511L269.511 995.375Z" fill="#E6E6E6"/>
<path d="M285.012 995.375H269.541V951.304H301.272L285.012 995.375Z" fill="#F0F0F0"/>
<path d="M859.124 995.375H948.543V671.77H859.124V995.375Z" fill="#E6E6E6"/>
<path d="M269.511 968.325L872.619 968.325V671.77H269.511V968.325Z" fill="#F0F0F0"/>
<path d="M281.516 766.265L860.613 766.265V684.931L281.516 684.931V766.265Z" fill="#E6E6E6"/>
<path d="M451.844 710.188H690.346C702.418 710.188 714.363 707.726 725.452 702.955C736.541 698.184 746.541 691.203 754.842 682.439H387.318C395.625 691.204 405.63 698.185 416.724 702.956C427.818 707.727 439.768 710.188 451.844 710.188V710.188Z" fill="#F0F0F0"/>
<path d="M857.148 995.375H872.649V951.304H840.918L857.148 995.375Z" fill="#F0F0F0"/>
<path d="M281.516 860.699L860.613 860.699V779.365L281.516 779.365V860.699Z" fill="#E6E6E6"/>
<path d="M451.844 804.653H690.346C702.418 804.652 714.363 802.191 725.452 797.42C736.541 792.649 746.541 785.668 754.842 776.903H387.318C395.625 785.669 405.63 792.65 416.724 797.421C427.818 802.192 439.768 804.653 451.844 804.653V804.653Z" fill="#F0F0F0"/>
<path d="M281.516 955.194L860.613 955.194V873.86L281.516 873.86V955.194Z" fill="#E6E6E6"/>
<path d="M451.844 899.118H690.346C702.415 899.115 714.357 896.656 725.445 891.891C736.533 887.126 746.535 880.153 754.842 871.398H387.318C395.631 880.154 405.638 887.127 416.731 891.892C427.824 896.657 439.771 899.116 451.844 899.118V899.118Z" fill="#F0F0F0"/>
<path d="M256.35 576.88H609.042V140.088L256.35 140.088L256.35 576.88Z" fill="#E6E6E6"/>
<path d="M216.23 576.88H598.799V140.088L216.23 140.088L216.23 576.88Z" fill="#F0F0F0"/>
<path d="M566.734 544.845V172.154L248.265 172.154V544.845H566.734Z" fill="white"/>
<path d="M848.942 565.969L1326.86 565.969V135.256L848.942 135.256V565.969Z" fill="#EBEBEB"/>
<path d="M836.359 565.969L1320.96 565.969V135.256L836.359 135.256V565.969Z" fill="#F5F5F5"/>
<path d="M885.871 589.311H1326.86V565.969H885.871V589.311Z" fill="#EBEBEB"/>
<path d="M817.94 589.311H1233.3V565.969H817.94V589.311Z" fill="#F0F0F0"/>
<path d="M1303.39 548.401V152.854L853.957 152.854V548.401H1303.39Z" fill="#FAFAFA"/>
<path d="M1233.3 548.401L1083.19 152.854H1012.31L1162.43 548.401H1233.3Z" fill="white"/>
<path d="M1294.94 520.743C1295.36 520.743 1295.76 520.576 1296.06 520.28C1296.36 519.983 1296.52 519.581 1296.52 519.162V164.616C1296.59 164.381 1296.6 164.133 1296.56 163.893C1296.51 163.652 1296.41 163.426 1296.27 163.23C1296.12 163.035 1295.93 162.877 1295.71 162.767C1295.49 162.658 1295.25 162.602 1295 162.602C1294.76 162.602 1294.52 162.658 1294.3 162.767C1294.08 162.877 1293.89 163.035 1293.74 163.23C1293.59 163.426 1293.5 163.652 1293.45 163.893C1293.41 164.133 1293.42 164.381 1293.48 164.616V519.162C1293.48 519.563 1293.62 519.952 1293.9 520.247C1294.17 520.541 1294.54 520.719 1294.94 520.743Z" fill="#F0F0F0"/>
<path d="M1147.2 548.401L997.082 152.854H969.454L1119.57 548.401H1147.2Z" fill="white"/>
<path d="M1081.7 548.401L931.583 152.854H903.925L1054.07 548.401H1081.7Z" fill="white"/>
<path d="M856.206 548.401V152.854H853.987V548.401H856.206Z" fill="#EBEBEB"/>
<g opacity="0.7">
<path opacity="0.7" d="M832.225 168.811H1310.14L1311.75 159.692H833.836L832.225 168.811Z" fill="#EBEBEB"/>
<path opacity="0.7" d="M832.225 178.597H1310.14L1311.75 169.479H833.836L832.225 178.597Z" fill="#EBEBEB"/>
<path opacity="0.7" d="M832.225 188.384H1310.14L1311.75 179.266H833.836L832.225 188.384Z" fill="#EBEBEB"/>
<path opacity="0.7" d="M832.225 198.171H1310.14L1311.75 189.083H833.836L832.225 198.171Z" fill="#EBEBEB"/>
<path opacity="0.7" d="M832.225 207.988H1310.14L1311.75 198.87H833.836L832.225 207.988Z" fill="#EBEBEB"/>
<path opacity="0.7" d="M832.225 217.775H1310.14L1311.75 208.657H833.836L832.225 217.775Z" fill="#EBEBEB"/>
<path opacity="0.7" d="M832.225 227.562H1310.14L1311.75 218.444H833.836L832.225 227.562Z" fill="#EBEBEB"/>
<path opacity="0.7" d="M832.225 237.349H1310.14L1311.75 228.231H833.836L832.225 237.349Z" fill="#EBEBEB"/>
<path opacity="0.7" d="M832.225 247.136H1310.14L1311.75 238.018H833.836L832.225 247.136Z" fill="#EBEBEB"/>
<path opacity="0.7" d="M832.225 256.923H1310.14L1311.75 247.835H833.836L832.225 256.923Z" fill="#EBEBEB"/>
<path opacity="0.7" d="M832.225 266.74H1310.14L1311.75 257.622H833.836L832.225 266.74Z" fill="#EBEBEB"/>
<path opacity="0.7" d="M832.225 276.527H1310.14L1311.75 267.409H833.836L832.225 276.527Z" fill="#EBEBEB"/>
<path opacity="0.7" d="M832.225 286.314H1310.14L1311.75 277.196H833.836L832.225 286.314Z" fill="#EBEBEB"/>
<path opacity="0.7" d="M832.225 296.101H1310.14L1311.75 286.982H833.836L832.225 296.101Z" fill="#EBEBEB"/>
<path opacity="0.7" d="M832.225 305.887H1310.14L1311.75 296.8H833.836L832.225 305.887Z" fill="#EBEBEB"/>
<path opacity="0.7" d="M832.225 315.705H1310.14L1311.75 306.586H833.836L832.225 315.705Z" fill="#EBEBEB"/>
<path opacity="0.7" d="M832.225 325.492H1310.14L1311.75 316.373H833.836L832.225 325.492Z" fill="#EBEBEB"/>
<path opacity="0.7" d="M832.225 335.278H1310.14L1311.75 326.16H833.836L832.225 335.278Z" fill="#EBEBEB"/>
<path opacity="0.7" d="M832.225 345.065H1310.14L1311.75 335.947H833.836L832.225 345.065Z" fill="#EBEBEB"/>
<path opacity="0.7" d="M832.225 354.852H1310.14L1311.75 345.734H833.836L832.225 354.852Z" fill="#EBEBEB"/>
<path opacity="0.7" d="M832.225 364.639H1310.14L1311.75 355.521H833.836L832.225 364.639Z" fill="#EBEBEB"/>
<path opacity="0.7" d="M832.225 374.456H1310.14L1311.75 365.338H833.836L832.225 374.456Z" fill="#EBEBEB"/>
<path opacity="0.7" d="M832.225 384.243H1310.14L1311.75 375.125H833.836L832.225 384.243Z" fill="#EBEBEB"/>
<path opacity="0.7" d="M832.225 394.03H1310.14L1311.75 384.912H833.836L832.225 394.03Z" fill="#EBEBEB"/>
</g>
<path d="M747.456 624.356C747.456 650.555 713.05 671.77 670.62 671.77C628.19 671.77 593.784 650.495 593.784 624.356H747.456Z" fill="#EBEBEB"/>
<path d="M545.519 624.356C545.519 650.555 511.113 671.77 468.683 671.77C426.253 671.77 391.816 650.495 391.816 624.356H545.519Z" fill="#EBEBEB"/>
<path d="M1127.02 977.625H1182.03V697.423H1127.02V977.625Z" fill="#F0F0F0"/>
<path d="M900.156 995.375H1171.51V977.625H900.156V995.375Z" fill="#F0F0F0"/>
<path d="M1127.05 697.423H889.579V977.625H1127.05V697.423Z" fill="#F5F5F5"/>
<path d="M1105.38 731.92H911.189V823.801H1105.38V731.92Z" fill="#F0F0F0"/>
<path d="M1105.38 851.217H911.189V943.098H1105.38V851.217Z" fill="#F0F0F0"/>
<path d="M986.171 784.137H1030.42C1033.21 784.137 1035.47 781.878 1035.47 779.092V776.569C1035.47 773.782 1033.21 771.524 1030.42 771.524H986.171C983.384 771.524 981.125 773.782 981.125 776.569V779.092C981.125 781.878 983.384 784.137 986.171 784.137Z" fill="#F5F5F5"/>
<path d="M986.171 903.464H1030.42C1033.21 903.464 1035.47 901.205 1035.47 898.418V895.896C1035.47 893.109 1033.21 890.85 1030.42 890.85H986.171C983.384 890.85 981.125 893.109 981.125 895.896V898.418C981.125 901.205 983.384 903.464 986.171 903.464Z" fill="#F5F5F5"/>
<path d="M760.495 1132.63C1085.96 1132.63 1349.8 1117.23 1349.8 1098.23C1349.8 1079.23 1085.96 1063.82 760.495 1063.82C435.029 1063.82 171.186 1079.23 171.186 1098.23C171.186 1117.23 435.029 1132.63 760.495 1132.63Z" fill="#F5F5F5"/>
<path d="M269.845 370.839H266.806V429.196H269.845V370.839Z" fill="#407BFF"/>
<path d="M269.845 451.232H266.806V478.039H269.845V451.232Z" fill="#407BFF"/>
<path d="M1098.75 226.134H308.537C290.777 226.134 276.38 240.531 276.38 258.29V753.53C276.38 771.29 290.777 785.687 308.537 785.687H1098.75C1116.51 785.687 1130.91 771.29 1130.91 753.53V258.29C1130.91 240.531 1116.51 226.134 1098.75 226.134Z" fill="#407BFF"/>
<path d="M287.078 258.26L287.078 753.53C287.078 765.365 296.672 774.958 308.506 774.958H1098.75C1110.58 774.958 1120.18 765.365 1120.18 753.53V258.26C1120.18 246.426 1110.58 236.832 1098.75 236.832H308.506C296.672 236.832 287.078 246.426 287.078 258.26Z" fill="white"/>
<path opacity="0.6" d="M607.188 688.457V774.988H800.008V688.457C800.008 680.396 796.805 672.665 791.105 666.965C785.405 661.265 777.675 658.063 769.614 658.063H637.491C629.446 658.087 621.738 661.3 616.058 666.997C610.378 672.694 607.188 680.412 607.188 688.457Z" fill="#407BFF"/>
<path opacity="0.6" d="M851.009 688.457V774.988H1043.92V688.457C1043.92 680.396 1040.72 672.665 1035.02 666.965C1029.32 661.265 1021.59 658.063 1013.53 658.063H881.311C873.266 658.087 865.559 661.3 859.879 666.997C854.198 672.694 851.009 680.412 851.009 688.457V688.457Z" fill="#407BFF"/>
<path opacity="0.6" d="M363.337 688.457V774.988H556.278V688.457C556.278 680.396 553.076 672.665 547.376 666.965C541.676 661.265 533.945 658.063 525.884 658.063H393.67C385.62 658.079 377.904 661.288 372.218 666.986C366.531 672.685 363.337 680.406 363.337 688.457V688.457Z" fill="#407BFF"/>
<path d="M980.214 291.055H1036.17C1038.22 291.055 1040.2 290.239 1041.65 288.785C1043.1 287.332 1043.92 285.36 1043.92 283.305V283.305C1043.92 282.287 1043.72 281.279 1043.33 280.339C1042.94 279.398 1042.37 278.544 1041.65 277.824C1040.93 277.105 1040.08 276.534 1039.13 276.144C1038.19 275.755 1037.19 275.554 1036.17 275.554H980.214C978.16 275.562 976.194 276.381 974.742 277.833C973.29 279.285 972.471 281.252 972.463 283.305C972.471 285.358 973.29 287.325 974.742 288.776C976.194 290.228 978.16 291.047 980.214 291.055V291.055Z" fill="#407BFF"/>
<path d="M789.704 295.523C796.452 295.523 801.922 290.053 801.922 283.305C801.922 276.557 796.452 271.086 789.704 271.086C782.956 271.086 777.486 276.557 777.486 283.305C777.486 290.053 782.956 295.523 789.704 295.523Z" fill="#407BFF"/>
<path d="M763.93 283.305C763.93 285.709 763.217 288.06 761.881 290.059C760.545 292.058 758.646 293.617 756.425 294.537C754.203 295.457 751.759 295.698 749.4 295.229C747.042 294.76 744.876 293.602 743.176 291.901C741.475 290.201 740.317 288.035 739.848 285.677C739.379 283.318 739.62 280.874 740.54 278.652C741.46 276.431 743.019 274.532 745.018 273.196C747.017 271.86 749.368 271.147 751.772 271.147C754.997 271.147 758.089 272.428 760.369 274.708C762.649 276.988 763.93 280.08 763.93 283.305Z" fill="#407BFF"/>
<path d="M383.488 270.813H368.2C365.514 270.813 363.337 272.99 363.337 275.676V290.964C363.337 293.65 365.514 295.827 368.2 295.827H383.488C386.174 295.827 388.351 293.65 388.351 290.964V275.676C388.351 272.99 386.174 270.813 383.488 270.813Z" fill="#407BFF"/>
<path opacity="0.2" d="M463.971 287.165H434.793C433.769 287.165 432.788 286.758 432.064 286.034C431.34 285.31 430.933 284.328 430.933 283.305C430.933 282.281 431.34 281.299 432.064 280.575C432.788 279.851 433.769 279.445 434.793 279.445H463.971C464.995 279.445 465.977 279.851 466.701 280.575C467.425 281.299 467.832 282.281 467.832 283.305C467.832 284.328 467.425 285.31 466.701 286.034C465.977 286.758 464.995 287.165 463.971 287.165Z" fill="#263238"/>
<path opacity="0.2" d="M520.93 287.165H491.752C490.728 287.165 489.746 286.758 489.022 286.034C488.298 285.31 487.892 284.328 487.892 283.305C487.892 282.281 488.298 281.299 489.022 280.575C489.746 279.851 490.728 279.445 491.752 279.445H520.93C521.956 279.445 522.941 279.85 523.67 280.573C524.399 281.296 524.812 282.278 524.82 283.305V283.305C524.812 284.331 524.399 285.313 523.67 286.036C522.941 286.759 521.956 287.165 520.93 287.165V287.165Z" fill="#263238"/>
<path opacity="0.2" d="M577.919 287.165H548.74C547.714 287.165 546.729 286.759 546 286.036C545.271 285.313 544.858 284.331 544.85 283.305V283.305C544.858 282.278 545.271 281.296 546 280.573C546.729 279.85 547.714 279.445 548.74 279.445H577.919C578.942 279.445 579.924 279.851 580.648 280.575C581.372 281.299 581.779 282.281 581.779 283.305V283.305C581.779 284.328 581.372 285.31 580.648 286.034C579.924 286.758 578.942 287.165 577.919 287.165V287.165Z" fill="#263238"/>
<path opacity="0.2" d="M634.877 287.165H605.699C604.672 287.165 603.687 286.759 602.958 286.036C602.23 285.313 601.816 284.331 601.808 283.305V283.305C601.816 282.278 602.23 281.296 602.958 280.573C603.687 279.85 604.672 279.445 605.699 279.445H634.877C635.901 279.445 636.882 279.851 637.606 280.575C638.33 281.299 638.737 282.281 638.737 283.305C638.737 284.328 638.33 285.31 637.606 286.034C636.882 286.758 635.901 287.165 634.877 287.165Z" fill="#263238"/>
<path opacity="0.4" d="M1245.98 345.921L629.712 364.409C611.953 364.941 597.987 379.77 598.52 397.53L603.905 577.037C604.438 594.797 619.267 608.762 637.027 608.229L1253.3 589.741C1271.06 589.208 1285.02 574.379 1284.49 556.62L1279.1 377.113C1278.57 359.353 1263.74 345.388 1245.98 345.921Z" fill="#407BFF"/>
<path opacity="0.4" d="M868.728 491.108L676.669 497.674C674.198 497.751 671.736 497.34 669.424 496.465C667.111 495.59 664.994 494.268 663.194 492.574C661.393 490.881 659.943 488.849 658.928 486.594C657.913 484.34 657.352 481.908 657.277 479.437C657.2 476.966 657.611 474.504 658.486 472.192C659.361 469.88 660.683 467.763 662.377 465.962C664.07 464.161 666.102 462.712 668.356 461.697C670.611 460.681 673.043 460.12 675.514 460.046L867.573 453.481C870.044 453.404 872.506 453.814 874.818 454.689C877.131 455.564 879.248 456.887 881.048 458.58C882.849 460.274 884.299 462.306 885.314 464.56C886.329 466.814 886.89 469.246 886.965 471.717V471.717C887.05 474.19 886.645 476.655 885.773 478.971C884.901 481.287 883.579 483.407 881.884 485.21C880.189 487.012 878.153 488.461 875.896 489.474C873.638 490.486 871.202 491.042 868.728 491.108Z" fill="#407BFF"/>
<path opacity="0.4" d="M805.539 550.407L678.614 554.723C673.649 554.879 668.824 553.065 665.191 549.677C661.558 546.29 659.413 541.602 659.222 536.639V536.639C659.145 534.168 659.556 531.706 660.431 529.394C661.306 527.082 662.628 524.964 664.322 523.164C666.016 521.363 668.048 519.913 670.302 518.898C672.556 517.883 674.988 517.322 677.459 517.247L804.354 512.901C806.825 512.824 809.287 513.235 811.599 514.11C813.911 514.985 816.028 516.307 817.829 518C819.63 519.694 821.079 521.726 822.094 523.98C823.11 526.234 823.67 528.666 823.745 531.137V531.137C823.868 536.102 822.023 540.914 818.613 544.524C815.202 548.133 810.503 550.248 805.539 550.407V550.407Z" fill="#407BFF"/>
<path d="M1267.47 479.164L1272.97 496.215L1293.15 477.735C1288.96 474.944 1284.62 472.397 1280.14 470.106C1278.52 469.246 1276.63 469.064 1274.87 469.599C1273.12 470.135 1271.64 471.345 1270.78 472.963L1267.47 479.164Z" fill="#7F3E3B"/>
<path d="M1293 510.257L1301.69 489.954L1293.15 477.735L1272.97 496.215L1293 510.257Z" fill="#7F3E3B"/>
<path d="M1074.74 353.88C1064.37 367.83 1053.65 380.93 1042.19 393.848C1030.69 406.949 1018.41 419.342 1005.41 430.959L1004.68 431.597L1003.22 432.782C1002.25 433.541 1001.24 434.241 1000.18 434.88C998.036 436.044 995.748 436.922 993.374 437.493C989.487 438.405 985.456 438.529 981.52 437.858C975.847 436.841 970.377 434.911 965.32 432.144C957.125 427.601 949.442 422.191 942.403 416.005C929.185 404.493 917.122 391.717 906.386 377.86L918.544 366.341C931.188 376.645 944.44 386.918 957.692 395.641C963.902 399.859 970.496 403.482 977.387 406.461C979.838 407.564 982.459 408.243 985.137 408.467C985.897 408.467 986.262 408.315 985.806 408.315C985.476 408.341 985.156 408.434 984.864 408.589C984.669 408.665 984.485 408.767 984.317 408.893L984.074 409.045L984.469 408.619C990.031 402.966 995.411 396.887 1000.82 390.808C1006.23 384.73 1011.46 378.347 1016.72 372.025C1027.17 359.32 1037.66 346.251 1047.72 333.485L1074.74 353.88Z" fill="#7F3E3B"/>
<path d="M907.025 339.838L883.348 344.67L894.989 365.399L916.052 349.077L907.025 339.838Z" fill="#7F3E3B"/>
<path d="M919.03 370.657L915.991 349.077L894.928 365.399C894.928 365.399 898.18 384.182 913.164 384.182L919.03 370.657Z" fill="#7F3E3B"/>
<path d="M920.611 366.341C920.009 366.349 919.433 366.592 919.008 367.017C918.582 367.443 918.339 368.019 918.331 368.621C918.317 368.793 918.317 368.965 918.331 369.137C918.021 368.979 917.677 368.895 917.328 368.894C916.724 368.894 916.144 369.134 915.716 369.562C915.289 369.989 915.049 370.569 915.049 371.174C915.07 371.392 915.121 371.607 915.201 371.812H915.049C914.447 371.82 913.871 372.063 913.446 372.488C913.02 372.914 912.777 373.489 912.769 374.092C912.782 374.578 912.953 375.048 913.256 375.429V375.429C912.651 375.429 912.071 375.669 911.644 376.097C911.216 376.524 910.976 377.104 910.976 377.708C910.993 378.204 911.163 378.681 911.462 379.076C910.952 379.174 910.492 379.446 910.16 379.845C909.827 380.244 909.643 380.745 909.639 381.265C909.649 381.615 909.739 381.959 909.903 382.27C910.066 382.581 910.298 382.85 910.581 383.058C910.137 383.21 909.753 383.497 909.48 383.878C909.208 384.26 909.061 384.717 909.061 385.185C909.061 385.79 909.301 386.37 909.729 386.797C910.156 387.225 910.736 387.465 911.341 387.465C911.945 387.465 912.525 387.225 912.953 386.797C913.38 386.37 913.62 385.79 913.62 385.185C913.623 384.835 913.541 384.49 913.383 384.178C913.224 383.866 912.993 383.596 912.708 383.392C913.144 383.231 913.52 382.941 913.786 382.561C914.052 382.181 914.196 381.729 914.198 381.265C914.181 380.769 914.011 380.292 913.711 379.897C914.221 379.799 914.681 379.527 915.014 379.128C915.346 378.729 915.53 378.228 915.535 377.708C915.518 377.223 915.348 376.755 915.049 376.371C915.349 376.375 915.648 376.319 915.926 376.206C916.204 376.093 916.457 375.925 916.67 375.713C916.882 375.5 917.05 375.247 917.163 374.969C917.276 374.69 917.332 374.392 917.328 374.092C917.357 373.88 917.357 373.665 917.328 373.453V373.453C917.933 373.453 918.513 373.213 918.94 372.786C919.368 372.358 919.608 371.778 919.608 371.174C919.623 371.002 919.623 370.829 919.608 370.657C919.909 370.812 920.242 370.896 920.581 370.9C921.185 370.9 921.765 370.66 922.192 370.233C922.62 369.805 922.86 369.225 922.86 368.621C922.86 368.016 922.62 367.436 922.192 367.009C921.765 366.581 921.185 366.341 920.581 366.341H920.611Z" fill="#263238"/>
<path d="M1198.47 330.75C1205.55 343.272 1212.36 355.916 1219.02 368.681C1225.68 381.447 1232.18 394.243 1238.53 407.16L1240.9 411.993L1242.91 415.944L1245.25 420.047L1247.89 424.272C1251.57 429.895 1255.49 435.67 1259.56 441.384L1284.34 476.094L1272.18 487.644C1260.77 478.411 1249.91 468.516 1239.66 458.009C1234.52 452.721 1229.44 447.28 1224.46 441.353L1220.84 436.825L1217.38 431.871C1216.25 430.108 1214.95 428.102 1213.97 426.491L1211.21 421.871C1203.79 409.713 1196.59 397.161 1189.48 384.699C1182.36 372.238 1175.46 359.654 1168.81 346.95L1198.47 330.75Z" fill="#7F3E3B"/>
<path d="M1083.49 244.4C1083.89 246.163 1083.25 247.804 1082.12 248.108C1081 248.412 1079.75 247.197 1079.36 245.434C1078.96 243.671 1079.63 241.999 1080.76 241.726C1081.88 241.452 1083.13 242.638 1083.49 244.4Z" fill="#263238"/>
<path d="M1083.4 247.774C1082.47 253.703 1080.74 259.48 1078.26 264.947C1079.66 265.509 1081.17 265.754 1082.67 265.665C1084.17 265.575 1085.64 265.154 1086.96 264.43L1083.4 247.774Z" fill="#630F0F"/>
<path d="M1078.84 233.671C1078.67 233.671 1078.51 233.633 1078.35 233.559C1078.2 233.486 1078.07 233.379 1077.96 233.246C1077.88 233.13 1077.82 233 1077.79 232.862C1077.76 232.725 1077.76 232.582 1077.79 232.444C1077.81 232.305 1077.86 232.173 1077.94 232.055C1078.02 231.937 1078.12 231.836 1078.23 231.756C1079.65 230.872 1081.26 230.343 1082.93 230.216C1084.6 230.089 1086.27 230.367 1087.81 231.027C1088.07 231.141 1088.27 231.35 1088.38 231.61C1088.49 231.871 1088.49 232.163 1088.39 232.425C1088.33 232.555 1088.25 232.674 1088.15 232.773C1088.06 232.873 1087.94 232.952 1087.81 233.006C1087.68 233.059 1087.54 233.087 1087.4 233.086C1087.26 233.086 1087.12 233.057 1086.99 233.003C1085.78 232.477 1084.47 232.246 1083.16 232.331C1081.85 232.415 1080.58 232.813 1079.45 233.489C1079.27 233.608 1079.06 233.672 1078.84 233.671V233.671Z" fill="#263238"/>
<path d="M1144.13 249.993C1146.1 270.539 1143.19 290.417 1147.81 308.258C1147.81 308.258 1142.7 324.823 1112.34 324.823C1078.9 324.823 1097.14 308.258 1097.14 308.258C1115.38 303.912 1115.59 290.417 1112.91 277.712L1144.13 249.993Z" fill="#7F3E3B"/>
<path d="M1151.94 313.942C1154.55 308.714 1157.41 302.696 1151.94 300.812C1146.04 298.745 1113.31 296.648 1101.85 300.538C1098.8 301.355 1096.18 303.328 1094.56 306.04C1092.94 308.753 1092.43 311.99 1093.16 315.066L1151.94 313.942Z" fill="#263238"/>
<path d="M1217.01 1061.24C1219.12 1060.75 1221.16 1060.01 1223.09 1059.05C1223.2 1059 1223.28 1058.93 1223.34 1058.83C1223.4 1058.73 1223.43 1058.62 1223.43 1058.5C1223.41 1058.39 1223.36 1058.29 1223.29 1058.2C1223.22 1058.11 1223.13 1058.03 1223.03 1057.99C1222.06 1057.65 1213.34 1054.55 1210.87 1056.47C1210.62 1056.68 1210.42 1056.96 1210.31 1057.28C1210.2 1057.59 1210.17 1057.93 1210.24 1058.26C1210.29 1058.83 1210.49 1059.38 1210.81 1059.86C1211.12 1060.33 1211.55 1060.72 1212.06 1061C1213.63 1061.67 1215.39 1061.75 1217.01 1061.24V1061.24ZM1221.27 1058.63C1217.41 1060.3 1214.25 1060.81 1212.73 1059.99C1212.38 1059.81 1212.09 1059.54 1211.88 1059.21C1211.67 1058.88 1211.54 1058.5 1211.51 1058.11C1211.51 1057.65 1211.51 1057.47 1211.72 1057.38C1212.94 1056.38 1217.77 1057.47 1221.27 1058.63V1058.63Z" fill="#407BFF"/>
<path d="M1222.97 1059.11L1223.24 1058.96C1223.32 1058.89 1223.37 1058.79 1223.4 1058.69C1223.43 1058.59 1223.43 1058.48 1223.4 1058.38C1223.4 1058.08 1221.27 1051.33 1218.02 1049.66C1217.63 1049.44 1217.2 1049.31 1216.76 1049.27C1216.32 1049.23 1215.88 1049.29 1215.46 1049.45C1215.04 1049.54 1214.66 1049.77 1214.39 1050.11C1214.12 1050.45 1213.97 1050.87 1213.97 1051.3C1213.97 1054.07 1220.05 1058.29 1222.67 1059.08L1222.97 1059.11ZM1216.07 1050.45C1216.56 1050.35 1217.07 1050.44 1217.5 1050.69C1219.62 1052.49 1221.16 1054.88 1221.91 1057.56C1219.05 1056.22 1215.16 1052.91 1215.13 1051.27C1215.13 1051.12 1215.13 1050.78 1215.83 1050.54L1216.07 1050.45Z" fill="#407BFF"/>
<path d="M1060.39 1077.17C1062.55 1077.12 1064.69 1076.82 1066.78 1076.28C1066.88 1076.26 1066.98 1076.2 1067.06 1076.12C1067.14 1076.04 1067.19 1075.94 1067.2 1075.83C1067.22 1075.72 1067.21 1075.6 1067.17 1075.5C1067.13 1075.4 1067.05 1075.31 1066.96 1075.25C1066.08 1074.67 1058.2 1069.84 1055.5 1071.24C1055.2 1071.39 1054.94 1071.63 1054.76 1071.92C1054.59 1072.21 1054.49 1072.54 1054.5 1072.88C1054.44 1073.45 1054.52 1074.02 1054.73 1074.55C1054.94 1075.08 1055.28 1075.55 1055.71 1075.92C1057.08 1076.86 1058.74 1077.3 1060.39 1077.17V1077.17ZM1065.1 1075.46C1060.97 1076.31 1057.78 1076.16 1056.44 1075.04C1056.15 1074.78 1055.92 1074.45 1055.78 1074.09C1055.65 1073.72 1055.6 1073.33 1055.65 1072.94C1055.65 1072.48 1055.86 1072.33 1056.02 1072.27C1057.41 1071.54 1061.91 1073.64 1065.1 1075.46Z" fill="#407BFF"/>
<path d="M1066.65 1076.22C1066.75 1076.25 1066.86 1076.25 1066.96 1076.22C1067.05 1076.16 1067.12 1076.08 1067.16 1075.98C1067.21 1075.89 1067.24 1075.78 1067.23 1075.68C1067.23 1075.37 1066.62 1068.35 1063.77 1066.04C1063.43 1065.75 1063.04 1065.53 1062.62 1065.4C1062.19 1065.27 1061.75 1065.23 1061.3 1065.28C1060.87 1065.29 1060.46 1065.44 1060.12 1065.72C1059.79 1065.99 1059.56 1066.38 1059.48 1066.8C1058.96 1069.54 1063.86 1074.86 1066.38 1076.22C1066.47 1076.25 1066.57 1076.25 1066.65 1076.22V1076.22ZM1061.73 1066.31C1062.21 1066.33 1062.68 1066.51 1063.04 1066.83C1064.75 1069.03 1065.76 1071.7 1065.92 1074.49C1063.43 1072.58 1060.3 1068.41 1060.61 1066.92C1060.61 1066.77 1060.61 1066.44 1061.46 1066.35H1061.73V1066.31Z" fill="#407BFF"/>
<path d="M1092.91 1075.43H1070.57L1070.36 1023.73H1092.67L1092.91 1075.43Z" fill="#7F3E3B"/>
<path d="M1248.96 1053.61L1227.1 1058.26L1207.32 1009.6L1229.17 1004.95L1248.96 1053.61Z" fill="#7F3E3B"/>
<path d="M1225.13 1056.04L1249.66 1050.81C1250.08 1050.73 1250.53 1050.79 1250.91 1050.99C1251.3 1051.19 1251.61 1051.51 1251.78 1051.91L1259.47 1070.57C1259.65 1071.04 1259.73 1071.53 1259.69 1072.03C1259.66 1072.53 1259.51 1073.01 1259.27 1073.45C1259.03 1073.89 1258.7 1074.26 1258.3 1074.56C1257.9 1074.86 1257.44 1075.06 1256.95 1075.16C1248.35 1076.83 1244.12 1077.23 1233.33 1079.54C1226.68 1080.93 1213.12 1084.55 1203.97 1086.5C1194.83 1088.44 1192.03 1079.57 1195.62 1077.93C1211.82 1070.63 1217.26 1064.19 1221.82 1058.14C1222.63 1057.06 1223.81 1056.32 1225.13 1056.04V1056.04Z" fill="#263238"/>
<path d="M1070.82 1072.85H1095.13C1095.57 1072.84 1096 1072.98 1096.34 1073.26C1096.69 1073.54 1096.91 1073.93 1096.99 1074.37L1100.63 1094.22C1100.72 1094.71 1100.7 1095.21 1100.56 1095.69C1100.43 1096.16 1100.2 1096.61 1099.88 1096.99C1099.55 1097.36 1099.15 1097.66 1098.7 1097.87C1098.25 1098.07 1097.76 1098.18 1097.26 1098.17C1088.48 1098.17 1075.8 1097.53 1064.74 1097.53C1051.79 1097.53 1040.61 1098.23 1025.44 1098.23C1016.32 1098.23 1014.1 1088.96 1017.96 1088.11C1035.59 1084.31 1049.88 1083.88 1065.32 1074.58C1066.96 1073.51 1068.86 1072.92 1070.82 1072.85Z" fill="#263238"/>
<path d="M1190.39 313.334C1211.15 318.136 1232.94 375.186 1232.94 375.186L1189.81 403.999C1179.91 388.986 1171.23 373.201 1163.85 356.797C1152.58 330.659 1169.2 308.41 1190.39 313.334Z" fill="#407BFF"/>
<path opacity="0.2" d="M1174.01 349.807L1191.85 402.723L1189.81 404.09C1189.81 404.09 1181.66 391.933 1173 375.733L1174.01 349.807Z" fill="black"/>
<path d="M1051.09 413.057C1051.27 437.98 1052.76 468.982 1056.47 507.46H1175.92C1177.47 489.224 1169.39 399.683 1190.39 313.304C1177.25 310.757 1163.96 309.072 1150.6 308.258C1133.7 307.285 1116.75 307.285 1099.84 308.258C1088.19 309.392 1076.63 311.424 1065.29 314.337C1065.29 314.337 1055.04 325.4 1051.97 377.283C1051.37 387.647 1051.03 399.44 1051.09 413.057Z" fill="#407BFF"/>
<path opacity="0.2" d="M1051.09 413.057C1058.33 399.866 1071.46 373.393 1069.6 358.347L1051.97 377.435C1051.37 387.647 1051.03 399.44 1051.09 413.057Z" fill="black"/>
<path d="M1088.75 334.61C1090.63 355.886 1042.4 407.069 1042.4 407.069L1003.65 375.611C1013.78 358.533 1025.93 342.727 1039.82 328.531C1062.43 306.647 1086.56 310.811 1088.75 334.61Z" fill="#407BFF"/>
<g opacity="0.2">
<path opacity="0.2" d="M1070.36 1023.73L1070.45 1050.39H1092.79L1092.7 1023.73H1070.36Z" fill="black"/>
<path opacity="0.2" d="M1229.17 1004.98L1207.32 1009.63L1217.53 1034.71L1239.38 1030.05L1229.17 1004.98Z" fill="black"/>
</g>
<path d="M1140.97 225.951C1144.22 247.926 1147.23 260.6 1138.78 274.43C1136.09 278.957 1132.22 282.664 1127.58 285.147C1122.94 287.63 1117.7 288.796 1112.44 288.517C1107.19 288.238 1102.11 286.526 1097.75 283.566C1093.4 280.606 1089.94 276.511 1087.75 271.725C1079.02 253.488 1075.13 220.541 1094.31 206.621C1098.37 203.493 1103.18 201.491 1108.26 200.817C1113.34 200.143 1118.5 200.821 1123.24 202.781C1127.97 204.742 1132.1 207.917 1135.21 211.985C1138.33 216.053 1140.31 220.871 1140.97 225.951Z" fill="#7F3E3B"/>
<path d="M1100.91 244.492C1089.88 246.346 1083.67 233.671 1092.15 222.821C1076.08 223.55 1069.24 215.313 1076.41 200.603C1082.49 187.928 1101.91 194.129 1101.91 194.129C1101.91 194.129 1118.08 172.397 1137.2 184.494C1157.71 197.472 1146.83 209.478 1146.83 209.478C1146.83 209.478 1176.29 213.55 1168.69 234.705C1167.53 237.942 1165.5 240.795 1162.81 242.942C1160.13 245.089 1156.9 246.447 1153.49 246.862C1153.49 246.862 1161.03 269.536 1138.69 274.217C1116.35 278.898 1093.8 260.236 1100.91 244.492Z" fill="#263238"/>
<path d="M1107.69 238.838C1108.08 244.416 1106.69 249.975 1103.7 254.704C1099.72 260.783 1094.25 258.503 1092.49 252.151C1090.88 246.437 1091 236.316 1096.38 232.304C1101.76 228.292 1106.99 232.152 1107.69 238.838Z" fill="#7F3E3B"/>
<path d="M1098.84 507.46C1098.84 507.46 1117.59 678.062 1129.05 741.889C1141.58 811.796 1206.47 1031.64 1206.47 1031.64L1246.46 1023.12C1246.46 1023.12 1201.82 817.57 1195.8 748.242C1189.26 673.017 1175.92 507.339 1175.92 507.339L1098.84 507.46Z" fill="#263238"/>
<path d="M1197.53 1018.26C1197.35 1018.26 1204.34 1032.88 1204.34 1032.88L1249.32 1023.31L1246.1 1009.66L1197.53 1018.26Z" fill="#407BFF"/>
<path opacity="0.2" d="M1112.52 568.248C1141.61 573.993 1134.28 683.259 1128.6 739.458C1121.67 699.733 1112.25 623.292 1105.89 569.039C1107.95 568.036 1110.28 567.758 1112.52 568.248V568.248Z" fill="black"/>
<path d="M1056.5 507.46C1056.5 507.46 1046.96 674.415 1046.78 742.497C1046.56 813.315 1062.34 1045.22 1062.34 1045.22H1100.18C1100.18 1045.22 1110.36 817.449 1114.71 747.907C1119.48 671.922 1135.01 507.46 1135.01 507.46H1056.5Z" fill="#263238"/>
<path d="M1051.09 491.656C1050.98 497.048 1051.9 502.411 1053.8 507.46C1052.91 512.018 1052.45 516.647 1052.43 521.29C1064.59 525.575 1179.42 530.894 1179.17 521.29C1178.93 511.685 1179.17 507.46 1179.17 507.46C1179.17 507.46 1182.21 493.935 1179.17 491.656C1176.13 489.376 1051.94 483.54 1051.09 491.656Z" fill="#407BFF"/>
<path opacity="0.3" d="M1051.09 491.656C1050.98 497.048 1051.9 502.411 1053.8 507.46C1052.91 512.018 1052.45 516.647 1052.43 521.29C1064.59 525.575 1179.42 530.894 1179.17 521.29C1178.93 511.685 1179.17 507.46 1179.17 507.46C1179.17 507.46 1182.21 493.935 1179.17 491.656C1176.13 489.376 1051.94 483.54 1051.09 491.656Z" fill="black"/>
<path d="M1055.65 1030.15C1055.47 1030.15 1057.17 1045.86 1057.17 1045.86H1103.19L1104.98 1031.85L1055.65 1030.15Z" fill="#407BFF"/>
</svg>
