<svg width="923" height="885" viewBox="0 0 923 885" fill="none" xmlns="http://www.w3.org/2000/svg">
<g clip-path="url(#clip0)">
<path d="M97.9386 126.94C57.5493 99.3896 17.7076 83.833 0 0.864258H920.787V885.864C741.85 856.818 771.083 779.257 659.538 676.387C547.992 573.517 382.224 486.38 236.596 370.197C132.022 264.301 170.485 176.424 97.9386 126.94Z" fill="#EFEFEF"/>
<path d="M345.273 357.122C212.159 247.428 193.785 129.056 214.678 70.6863L921.893 21.6064V847.837C857.704 816.724 848.85 808.081 824.502 776.968C800.155 745.854 661.11 700.123 505.416 592.194C391.598 492.281 411.53 411.722 345.273 357.122Z" fill="#E0E0E0"/>
<path d="M213.997 207.422C126.17 124.078 120.663 39.0357 139.293 -1.72852H926.721V811.106C798.895 790.364 694.864 673.257 615.181 599.795C535.497 526.333 417.079 464.106 313.048 381.138C238.344 305.515 257.712 248.906 213.997 207.422Z" fill="url(#paint0_linear)"/>
</g>
<defs>
<linearGradient id="paint0_linear" x1="417.079" y1="-1.72851" x2="758.554" y2="797.8" gradientUnits="userSpaceOnUse">
<stop stop-color="#4D7EB1"/>
<stop offset="0.765625" stop-color="#143B63"/>
</linearGradient>
<clipPath id="clip0">
<rect width="923" height="885" fill="white"/>
</clipPath>
</defs>
</svg>
