<svg width="834" height="1024" viewBox="0 0 834 1024" fill="none" xmlns="http://www.w3.org/2000/svg">
<path d="M88.4948 146.877C52 115 16 97 -0.00012207 1H832V1025C670.317 991.392 696.731 901.649 595.942 782.622C495.152 663.595 345.368 562.772 213.782 428.341C119.292 305.813 154.046 204.134 88.4948 146.877Z" fill="#EFEFEF"/>
<path d="M311.98 413.212C191.702 286.289 175.099 149.326 193.978 81.7884L833 25L833 981C775 945 767 935 745 899C723 863 597.363 810.086 456.681 685.205C353.838 569.6 371.848 476.388 311.98 413.212Z" fill="#E0E0E0"/>
<path d="M193.362 240C114.004 143.566 109.028 45.1667 125.862 -2H837.362V938.5C721.862 914.5 627.862 779 555.862 694C483.862 609 376.862 537 282.862 441C215.362 353.5 232.862 288 193.362 240Z" fill="url(#paint0_linear)"/>
<defs>
<linearGradient id="paint0_linear" x1="376.862" y1="-2" x2="837.362" y2="840" gradientUnits="userSpaceOnUse">
<stop stop-color="#4D7EB1"/>
<stop offset="0.765625" stop-color="#143B63"/>
</linearGradient>
</defs>
</svg>
