<svg width="1751" height="1292" viewBox="0 0 1751 1292" fill="none" xmlns="http://www.w3.org/2000/svg">
<path d="M1575.3 1202.71H1459.33V1203.59H1575.3V1202.71Z" fill="#EBEBEB"/>
<path d="M1159.75 1212.24H1129.32V1213.11H1159.75V1212.24Z" fill="#EBEBEB"/>
<path d="M1455.83 1170.22H1388.64V1171.1H1455.83V1170.22Z" fill="#EBEBEB"/>
<path d="M334.914 1176.1H183.686V1176.98H334.914V1176.1Z" fill="#EBEBEB"/>
<path d="M388.276 1176.1H366.112V1176.98H388.276V1176.1Z" fill="#EBEBEB"/>
<path d="M788.352 1190.88H460.336V1191.75H788.352V1190.88Z" fill="#EBEBEB"/>
<path d="M829.844 990.21H153.784C148.481 990.21 143.396 988.104 139.646 984.354C135.897 980.605 133.79 975.519 133.79 970.217V19.8182C133.837 14.5461 135.963 9.50555 139.708 5.79387C143.452 2.08218 148.511 -0.000202125 153.784 1.4715e-08H829.844C835.146 1.47151e-08 840.232 2.10643 843.981 5.8559C847.731 9.60537 849.837 14.6907 849.837 19.9933V970.217C849.837 975.519 847.731 980.605 843.981 984.354C840.232 988.104 835.146 990.21 829.844 990.21V990.21ZM153.784 0.700293C148.716 0.709549 143.859 2.72672 140.276 6.31002C136.692 9.89332 134.675 14.7507 134.666 19.8182V970.217C134.675 975.284 136.692 980.142 140.276 983.725C143.859 987.308 148.716 989.326 153.784 989.335H829.844C834.911 989.326 839.769 987.308 843.352 983.725C846.935 980.142 848.952 975.284 848.962 970.217V19.8182C848.952 14.7507 846.935 9.89332 843.352 6.31002C839.769 2.72672 834.911 0.709549 829.844 0.700293H153.784Z" fill="#EBEBEB"/>
<path d="M1587.24 990.21H911.112C905.813 990.201 900.733 988.092 896.985 984.344C893.238 980.597 891.128 975.517 891.119 970.217V19.8182C891.174 14.5489 893.304 9.51371 897.047 5.80398C900.789 2.09425 905.843 0.00892271 911.112 0H1587.24C1592.5 0.0182233 1597.54 2.10875 1601.27 5.81846C1605 9.52817 1607.12 14.5582 1607.17 19.8182V970.217C1607.17 975.507 1605.07 980.582 1601.33 984.33C1597.6 988.077 1592.53 990.192 1587.24 990.21V990.21ZM911.112 0.700293C906.045 0.709549 901.188 2.72672 897.604 6.31002C894.021 9.89332 892.004 14.7507 891.995 19.8182V970.217C892.004 975.284 894.021 980.142 897.604 983.725C901.188 987.308 906.045 989.326 911.112 989.335H1587.24C1592.31 989.326 1597.17 987.308 1600.75 983.725C1604.33 980.142 1606.35 975.284 1606.36 970.217V19.8182C1606.35 14.7507 1604.33 9.89332 1600.75 6.31002C1597.17 2.72672 1592.31 0.709549 1587.24 0.700293H911.112Z" fill="#EBEBEB"/>
<path d="M1750.73 1146.38H0V1147.25H1750.73V1146.38Z" fill="#EBEBEB"/>
<path d="M1459.23 138.902H1022.28V604.21H1459.23V138.902Z" fill="#EBEBEB"/>
<path d="M1432.97 165.164H1048.54V577.95H1432.97V165.164Z" fill="#F5F5F5"/>
<path d="M1199.42 577.95H1314.97L1423.44 165.164H1307.9L1199.42 577.95Z" fill="#FAFAFA"/>
<path d="M1254.22 165.164L1145.74 577.95H1173.76L1282.23 165.164H1254.22Z" fill="#FAFAFA"/>
<path d="M1464.73 160.787H1016.75L1007.3 138.728H1474.18L1464.73 160.787Z" fill="#F5F5F5"/>
<path d="M1464.73 173.567H1016.75L1007.3 151.508H1474.18L1464.73 173.567Z" fill="#F0F0F0"/>
<path d="M1464.73 186.347H1016.75L1007.3 164.288H1474.18L1464.73 186.347Z" fill="#E6E6E6"/>
<path d="M1464.73 199.128H1016.75L1007.3 177.068H1474.18L1464.73 199.128Z" fill="#E0E0E0"/>
<path d="M1490.5 111.101H991.016V140.513H1490.5V111.101Z" fill="#E0E0E0"/>
<path d="M996.128 407.184C994.781 407.184 993.49 406.649 992.538 405.697C991.585 404.745 991.051 403.453 991.051 402.107V230.536C991.051 229.189 991.585 227.898 992.538 226.946C993.49 225.993 994.781 225.458 996.128 225.458V225.458C997.474 225.458 998.766 225.993 999.718 226.946C1000.67 227.898 1001.2 229.189 1001.2 230.536V402.107C1001.2 403.453 1000.67 404.745 999.718 405.697C998.766 406.649 997.474 407.184 996.128 407.184V407.184Z" fill="#E0E0E0"/>
<path d="M997.948 134.631H994.272V236.523H997.948V134.631Z" fill="#E0E0E0"/>
<path d="M316.951 129.904H310.649V621.402H316.951V129.904Z" fill="#E0E0E0"/>
<path d="M709.289 129.904H702.986V621.402H709.289V129.904Z" fill="#E0E0E0"/>
<path d="M734.009 160.787H285.963L276.51 138.728H743.428L734.009 160.787Z" fill="#F5F5F5"/>
<path d="M734.009 191.074H285.963L276.51 169.015H743.428L734.009 191.074Z" fill="#F5F5F5"/>
<path d="M734.009 221.362H285.963L276.51 199.303H743.428L734.009 221.362Z" fill="#F5F5F5"/>
<path d="M734.009 251.649H285.963L276.51 229.59H743.428L734.009 251.649Z" fill="#F5F5F5"/>
<path d="M734.009 281.937H285.963L276.51 259.877H743.428L734.009 281.937Z" fill="#F5F5F5"/>
<path d="M734.009 312.224H285.963L276.51 290.165H743.428L734.009 312.224Z" fill="#F5F5F5"/>
<path d="M734.009 342.512H285.963L276.51 320.453H743.428L734.009 342.512Z" fill="#F5F5F5"/>
<path d="M734.009 372.799H285.963L276.51 350.74H743.428L734.009 372.799Z" fill="#F5F5F5"/>
<path d="M734.009 403.087H285.963L276.51 381.028H743.428L734.009 403.087Z" fill="#F5F5F5"/>
<path d="M734.009 433.375H285.963L276.51 411.315H743.428L734.009 433.375Z" fill="#F5F5F5"/>
<path d="M734.009 463.662H285.963L276.51 441.603H743.428L734.009 463.662Z" fill="#F5F5F5"/>
<path d="M734.009 493.915H285.963L276.51 471.855H743.428L734.009 493.915Z" fill="#F5F5F5"/>
<path d="M734.009 524.237H285.963L276.51 502.143H743.428L734.009 524.237Z" fill="#F5F5F5"/>
<path d="M734.009 554.49H285.963L276.51 532.431H743.428L734.009 554.49Z" fill="#F5F5F5"/>
<path d="M734.009 584.777H285.963L276.51 562.718H743.428L734.009 584.777Z" fill="#F5F5F5"/>
<path d="M734.009 615.065H285.963L276.51 593.006H743.428L734.009 615.065Z" fill="#F5F5F5"/>
<path d="M743.428 615.065H276.51V627.67H743.428V615.065Z" fill="#E0E0E0"/>
<path d="M759.71 111.101H260.228V140.513H759.71V111.101Z" fill="#E0E0E0"/>
<path d="M265.375 407.184C264.028 407.184 262.737 406.649 261.785 405.697C260.833 404.745 260.298 403.453 260.298 402.107V230.536C260.298 229.189 260.833 227.898 261.785 226.946C262.737 225.993 264.028 225.458 265.375 225.458V225.458C266.721 225.458 268.013 225.993 268.965 226.946C269.917 227.898 270.452 229.189 270.452 230.536V402.107C270.452 403.453 269.917 404.745 268.965 405.697C268.013 406.649 266.721 407.184 265.375 407.184V407.184Z" fill="#E0E0E0"/>
<path d="M267.196 134.631H263.519V236.523H267.196V134.631Z" fill="#E0E0E0"/>
<path d="M312.75 936.218C312.329 936.673 314.675 939.965 305.081 938.529C281.447 935.028 240.305 925.399 228.855 901.099C212.503 866.399 263.204 879.074 261.453 861.322C259.703 843.57 201.929 846.651 195.871 820.635C189.814 794.619 228.89 807.015 229.415 794.339C229.94 781.664 184.842 789.507 175.878 761.426C166.914 733.344 201.018 754.038 197.097 742.343C193.175 730.648 155.079 677.881 175.773 671.754C196.466 665.626 231.516 719.793 245.102 727.462C258.687 735.13 270.592 690.906 286.699 709.604C302.805 728.302 277.245 793.639 297.763 806.279C313.065 815.733 308.758 789.717 328.926 794.584C356.203 801.167 346.994 897.912 312.75 936.218Z" fill="#EBEBEB"/>
<path d="M239.814 794.479C246.768 794.993 253.628 796.393 260.228 798.646C255.852 792.074 250.995 785.836 245.697 779.983C245.412 779.646 245.265 779.214 245.285 778.773C245.305 778.333 245.491 777.916 245.805 777.606C246.119 777.297 246.539 777.117 246.979 777.103C247.42 777.089 247.85 777.242 248.183 777.532C259.604 790.34 269.379 804.526 277.28 819.759C284.738 774.976 265.97 735.725 265.76 735.444C265.648 735.135 265.655 734.796 265.779 734.491C265.902 734.186 266.135 733.938 266.43 733.795C266.726 733.651 267.065 733.622 267.381 733.713C267.696 733.805 267.967 734.01 268.141 734.289C268.351 734.709 288.344 776.481 279.276 823.471C281.692 828.058 284.143 832.995 286.524 838.282C294.996 857.132 301.69 876.732 306.517 896.826C315.262 880.329 320.057 862.025 320.523 843.359C320.527 843.189 320.565 843.021 320.635 842.866C320.704 842.71 320.803 842.57 320.927 842.453C321.05 842.336 321.196 842.244 321.355 842.184C321.514 842.123 321.683 842.094 321.853 842.099C322.028 842.103 322.2 842.142 322.36 842.213C322.52 842.284 322.664 842.386 322.784 842.513C322.904 842.64 322.999 842.789 323.061 842.952C323.124 843.115 323.154 843.289 323.149 843.464C322.729 863.479 317.351 883.077 307.497 900.503C316.432 940.047 319.418 980.703 316.356 1021.13C316.343 1021.36 316.284 1021.58 316.183 1021.79C316.083 1022 315.942 1022.18 315.77 1022.34C315.597 1022.49 315.397 1022.61 315.179 1022.68C314.961 1022.76 314.73 1022.79 314.5 1022.77H314.29C313.866 1022.7 313.487 1022.46 313.228 1022.12C312.968 1021.78 312.848 1021.35 312.89 1020.92C317.196 957.892 307.813 907.436 294.787 869.13C287.559 860.757 277.667 855.131 266.776 853.198C266.438 853.13 266.139 852.937 265.938 852.658C265.736 852.379 265.648 852.034 265.69 851.693C265.712 851.522 265.767 851.357 265.853 851.208C265.939 851.059 266.053 850.928 266.19 850.824C266.327 850.719 266.484 850.643 266.65 850.6C266.817 850.557 266.99 850.548 267.161 850.572C276.712 852.22 285.573 856.626 292.651 863.247C285.084 841.936 275.074 821.574 262.819 802.567C255.434 799.481 247.59 797.636 239.604 797.105C239.257 797.078 238.935 796.916 238.706 796.655C238.477 796.393 238.359 796.052 238.379 795.704C238.387 795.528 238.432 795.355 238.51 795.196C238.588 795.037 238.697 794.896 238.832 794.781C238.966 794.667 239.123 794.58 239.292 794.528C239.461 794.476 239.639 794.46 239.814 794.479V794.479Z" fill="#F5F5F5"/>
<path d="M343.142 949.628C362.785 949.979 396.329 931.736 409.67 914.019C423.01 896.301 385.44 907.016 389.291 893.01C393.143 879.004 439.502 889.333 448.046 869.06C456.589 848.787 423.185 853.479 424.516 843.114C425.846 832.75 460.476 834.886 471.575 813.352C482.675 791.818 452.247 803.898 457.009 794.969C461.771 786.041 499.972 748.505 484.005 740.697C468.039 732.889 432.219 771.965 420.244 776.342C408.269 780.718 405.433 753.687 389.817 766.608C374.2 779.528 385.895 835.971 367.547 843.429C353.857 848.997 359.669 823.121 343.912 829.669C316.041 841.118 335.054 949.453 343.142 949.628Z" fill="#E0E0E0"/>
<g opacity="0.3">
<path opacity="0.3" d="M343.142 949.628C362.785 949.979 396.329 931.736 409.67 914.019C423.01 896.301 385.44 907.016 389.291 893.01C393.143 879.004 439.502 889.333 448.046 869.06C456.589 848.787 423.185 853.479 424.516 843.114C425.846 832.75 460.476 834.886 471.575 813.352C482.675 791.818 452.247 803.898 457.009 794.969C461.771 786.041 499.972 748.505 484.005 740.697C468.039 732.889 432.219 771.965 420.244 776.342C408.269 780.718 405.433 753.687 389.817 766.608C374.2 779.528 385.895 835.971 367.547 843.429C353.857 848.997 359.669 823.121 343.912 829.669C316.041 841.118 335.054 949.453 343.142 949.628Z" fill="#E0E0E0"/>
</g>
<path d="M349.515 926.064C349.218 925.955 348.97 925.744 348.815 925.468C341.328 909.035 338.286 890.924 339.991 872.947C339.979 872.756 340.008 872.566 340.077 872.388C340.145 872.21 340.251 872.049 340.387 871.915C340.523 871.782 340.686 871.679 340.865 871.614C341.044 871.549 341.235 871.523 341.425 871.538C341.615 871.554 341.799 871.609 341.966 871.702C342.133 871.795 342.277 871.922 342.39 872.076C342.503 872.229 342.582 872.405 342.621 872.592C342.66 872.778 342.659 872.971 342.617 873.157C341.15 890.222 343.879 907.388 350.565 923.157C358.684 901.253 368.689 880.095 380.468 859.921C376.966 817.904 398.605 783.24 398.815 782.889C399.001 782.597 399.295 782.39 399.633 782.315C399.972 782.239 400.326 782.301 400.618 782.487C400.911 782.672 401.118 782.967 401.193 783.305C401.269 783.643 401.207 783.997 401.021 784.29C388.506 806.025 382.219 830.787 382.849 855.86C396.966 831.641 413.813 809.12 433.059 788.737C433.218 788.555 433.412 788.407 433.63 788.304C433.848 788.2 434.085 788.143 434.326 788.136C434.567 788.128 434.807 788.17 435.031 788.26C435.255 788.35 435.458 788.484 435.627 788.656C435.797 788.828 435.929 789.033 436.015 789.258C436.102 789.483 436.141 789.724 436.13 789.965C436.119 790.206 436.058 790.442 435.951 790.659C435.845 790.875 435.695 791.067 435.51 791.223C421.291 806.184 408.458 822.404 397.17 839.683C408.998 835.229 421.541 832.974 434.18 833.03C434.527 833.048 434.853 833.201 435.088 833.456C435.324 833.712 435.45 834.049 435.44 834.396C435.431 834.733 435.291 835.054 435.049 835.289C434.807 835.525 434.482 835.656 434.145 835.656C420.558 835.542 407.088 838.174 394.543 843.394C386.809 855.27 379.68 867.529 373.185 880.125C378.46 876.464 384.466 873.993 390.79 872.881C397.113 871.768 403.602 872.042 409.81 873.682C410.147 873.773 410.436 873.992 410.613 874.294C410.789 874.595 410.841 874.954 410.755 875.293C410.711 875.459 410.633 875.615 410.528 875.751C410.423 875.887 410.291 876.001 410.141 876.086C409.991 876.171 409.826 876.225 409.655 876.245C409.483 876.265 409.31 876.251 409.144 876.203C402.415 874.471 395.363 874.422 388.609 876.058C381.856 877.695 375.609 880.967 370.418 885.587C347.843 930.34 334.968 979.356 332.638 1029.43C332.62 1029.88 332.427 1030.31 332.101 1030.62C331.775 1030.93 331.34 1031.11 330.887 1031.11C330.435 1031.11 330 1030.93 329.673 1030.62C329.347 1030.31 329.154 1029.88 329.136 1029.43C330.606 994.133 337.478 959.274 349.515 926.064V926.064Z" fill="#F5F5F5"/>
<path d="M287.784 1141.47C269.051 1106.25 256.726 1055.34 256.726 1032.93C256.817 1023.79 258.915 1014.79 262.873 1006.55C266.83 998.317 272.549 991.053 279.626 985.273H375.601C382.677 991.053 388.397 998.317 392.354 1006.55C396.311 1014.79 398.409 1023.79 398.5 1032.93C398.5 1055.27 386.175 1106.18 367.442 1141.47H287.784Z" fill="#F0F0F0"/>
<path d="M858.486 1291.02C1233.43 1291.02 1537.38 1273.27 1537.38 1251.38C1537.38 1229.49 1233.43 1211.75 858.486 1211.75C483.542 1211.75 179.589 1229.49 179.589 1251.38C179.589 1273.27 483.542 1291.02 858.486 1291.02Z" fill="#F5F5F5"/>
<path d="M1024.7 226.334H940.665C937.928 226.392 935.289 227.365 933.17 229.097C931.05 230.83 929.571 233.222 928.97 235.893L928.41 238.519C926.958 245.034 923.358 250.872 918.189 255.095C913.02 259.318 906.581 261.681 899.908 261.803H820.075C813.743 261.945 807.612 259.576 803.02 255.214C798.428 250.851 795.748 244.85 795.565 238.519V235.893C795.5 233.298 794.41 230.835 792.533 229.044C790.656 227.252 788.145 226.277 785.55 226.334H701.516C687.714 226.579 674.48 231.874 664.318 241.217C654.156 250.559 647.77 263.302 646.368 277.035L578.93 1049.24C578.218 1055.7 578.889 1062.24 580.9 1068.41C582.91 1074.59 586.213 1080.27 590.59 1085.07C594.966 1089.87 600.315 1093.68 606.28 1096.25C612.245 1098.82 618.689 1100.09 625.184 1099.98H948.263C962.068 1099.73 975.302 1094.42 985.463 1085.08C995.624 1075.73 1002.01 1062.98 1003.41 1049.24L1070.99 277.035C1071.7 270.578 1071.02 264.044 1069 257.869C1066.99 251.694 1063.68 246.02 1059.3 241.223C1054.92 236.426 1049.57 232.617 1043.61 230.049C1037.64 227.482 1031.19 226.216 1024.7 226.334V226.334Z" fill="#407BFF"/>
<path opacity="0.7" d="M1024.7 226.334H940.665C937.928 226.392 935.289 227.365 933.17 229.097C931.05 230.83 929.571 233.222 928.97 235.893L928.41 238.519C926.958 245.034 923.358 250.872 918.189 255.095C913.02 259.318 906.581 261.681 899.908 261.803H820.075C813.743 261.945 807.612 259.576 803.02 255.214C798.428 250.851 795.748 244.85 795.565 238.519V235.893C795.5 233.298 794.41 230.835 792.533 229.044C790.656 227.252 788.145 226.277 785.55 226.334H701.516C687.714 226.579 674.48 231.874 664.318 241.217C654.156 250.559 647.77 263.302 646.368 277.035L578.93 1049.24C578.218 1055.7 578.889 1062.24 580.9 1068.41C582.91 1074.59 586.213 1080.27 590.59 1085.07C594.966 1089.87 600.315 1093.68 606.28 1096.25C612.245 1098.82 618.689 1100.09 625.184 1099.98H948.263C962.068 1099.73 975.302 1094.42 985.463 1085.08C995.624 1075.73 1002.01 1062.98 1003.41 1049.24L1070.99 277.035C1071.7 270.578 1071.02 264.044 1069 257.869C1066.99 251.694 1063.68 246.02 1059.3 241.223C1054.92 236.426 1049.57 232.617 1043.61 230.049C1037.64 227.482 1031.19 226.216 1024.7 226.334V226.334Z" fill="white"/>
<path d="M991.961 581.521H820.39C818.947 581.544 817.515 581.26 816.189 580.688C814.864 580.116 813.675 579.269 812.702 578.203C811.729 577.137 810.993 575.876 810.544 574.505C810.094 573.133 809.942 571.681 810.096 570.246L823.016 422.52C823.324 419.466 824.742 416.632 827.001 414.553C829.26 412.475 832.202 411.298 835.271 411.245H1006.84C1008.29 411.216 1009.72 411.496 1011.05 412.066C1012.38 412.636 1013.57 413.483 1014.54 414.551C1015.52 415.618 1016.25 416.881 1016.7 418.255C1017.15 419.63 1017.3 421.083 1017.14 422.52L1004.22 570.246C1003.9 573.297 1002.48 576.127 1000.22 578.204C997.966 580.28 995.027 581.46 991.961 581.521Z" fill="white"/>
<path d="M934.887 1043.43H647.768C644.18 1043.5 640.62 1042.8 637.323 1041.38C634.027 1039.96 631.071 1037.86 628.652 1035.21C626.233 1032.56 624.408 1029.42 623.296 1026.01C622.185 1022.6 621.814 1018.99 622.208 1015.42V1015.42C622.985 1007.84 626.513 1000.8 632.126 995.637C637.739 990.476 645.047 987.549 652.67 987.409H939.789C943.377 987.343 946.938 988.042 950.234 989.46C953.531 990.878 956.487 992.983 958.905 995.633C961.324 998.284 963.15 1001.42 964.261 1004.83C965.373 1008.24 965.744 1011.85 965.35 1015.42V1015.42C964.58 1023.01 961.054 1030.05 955.44 1035.21C949.825 1040.38 942.513 1043.3 934.887 1043.43V1043.43Z" fill="white"/>
<path d="M957.752 370.628H694.338C692.318 370.689 690.31 370.312 688.45 369.524C686.59 368.736 684.923 367.554 683.562 366.061C682.202 364.567 681.181 362.797 680.569 360.872C679.957 358.947 679.768 356.912 680.017 354.907L682.153 330.397C682.596 326.147 684.578 322.207 687.726 319.318C690.873 316.428 694.968 314.79 699.24 314.71H962.654C964.664 314.674 966.66 315.066 968.508 315.86C970.355 316.654 972.013 317.831 973.371 319.315C974.728 320.798 975.755 322.554 976.382 324.464C977.01 326.375 977.224 328.397 977.01 330.397L974.839 354.907C974.403 359.163 972.425 363.111 969.277 366.008C966.129 368.904 962.029 370.548 957.752 370.628V370.628Z" fill="white"/>
<path d="M1011.32 329.556C1011.2 330.742 1010.65 331.843 1009.78 332.65C1008.9 333.457 1007.75 333.913 1006.56 333.933C1006 333.941 1005.45 333.83 1004.93 333.608C1004.42 333.386 1003.96 333.057 1003.58 332.643C1003.2 332.229 1002.92 331.74 1002.74 331.208C1002.57 330.676 1002.51 330.113 1002.57 329.556C1002.69 328.373 1003.24 327.277 1004.12 326.476C1005 325.675 1006.14 325.226 1007.33 325.214C1007.89 325.201 1008.45 325.307 1008.96 325.526C1009.47 325.744 1009.93 326.07 1010.31 326.481C1010.69 326.892 1010.98 327.379 1011.15 327.909C1011.32 328.44 1011.38 329.001 1011.32 329.556V329.556Z" fill="white"/>
<path d="M1010.17 342.652C1010.06 343.835 1009.51 344.936 1008.64 345.743C1007.77 346.551 1006.63 347.008 1005.44 347.029C1004.88 347.037 1004.33 346.926 1003.81 346.704C1003.3 346.482 1002.84 346.153 1002.46 345.739C1002.08 345.325 1001.8 344.836 1001.62 344.304C1001.45 343.772 1001.39 343.209 1001.45 342.652C1001.56 341.469 1002.11 340.368 1002.98 339.561C1003.85 338.754 1004.99 338.296 1006.18 338.275C1006.74 338.267 1007.29 338.378 1007.81 338.6C1008.32 338.823 1008.78 339.152 1009.16 339.565C1009.53 339.979 1009.82 340.468 1009.99 341C1010.17 341.532 1010.23 342.095 1010.17 342.652V342.652Z" fill="white"/>
<path d="M1009.05 355.712C1008.93 356.898 1008.38 357.999 1007.5 358.806C1006.62 359.613 1005.48 360.069 1004.29 360.089C1003.73 360.097 1003.17 359.986 1002.66 359.764C1002.14 359.542 1001.68 359.213 1001.31 358.799C1000.93 358.385 1000.64 357.896 1000.47 357.364C1000.29 356.832 1000.23 356.269 1000.29 355.712C1000.41 354.526 1000.97 353.425 1001.84 352.618C1002.72 351.812 1003.86 351.355 1005.06 351.335C1005.62 351.327 1006.17 351.438 1006.69 351.66C1007.2 351.883 1007.66 352.212 1008.04 352.625C1008.41 353.039 1008.7 353.528 1008.87 354.06C1009.05 354.592 1009.11 355.155 1009.05 355.712V355.712Z" fill="white"/>
<path d="M970.637 825.222H650.149C648.704 825.251 647.27 824.971 645.942 824.401C644.614 823.83 643.423 822.984 642.448 821.916C641.474 820.849 640.738 819.586 640.291 818.212C639.844 816.837 639.695 815.383 639.855 813.947L654.771 645.352C655.079 642.298 656.497 639.464 658.756 637.386C661.015 635.308 663.958 634.131 667.026 634.078H987.409C988.851 634.054 990.282 634.338 991.605 634.91C992.929 635.482 994.116 636.33 995.087 637.396C996.057 638.463 996.789 639.724 997.235 641.096C997.68 642.468 997.828 643.919 997.668 645.352L982.927 813.947C982.618 817.007 981.195 819.846 978.929 821.925C976.663 824.004 973.712 825.177 970.637 825.222Z" fill="white"/>
<path d="M738.316 860.447H638.525C638.175 860.454 637.827 860.386 637.506 860.248C637.185 860.11 636.896 859.905 636.661 859.646C636.425 859.387 636.248 859.081 636.141 858.748C636.033 858.415 635.998 858.063 636.038 857.715V857.715C636.107 856.969 636.449 856.274 636.998 855.764C637.547 855.253 638.265 854.963 639.015 854.949H738.806C739.159 854.941 739.51 855.01 739.834 855.15C740.158 855.29 740.448 855.499 740.684 855.761C740.921 856.024 741.097 856.335 741.202 856.672C741.307 857.009 741.338 857.365 741.292 857.715C741.215 858.456 740.87 859.142 740.322 859.645C739.773 860.148 739.06 860.433 738.316 860.447V860.447Z" fill="white"/>
<path d="M863.038 860.447H755.928C755.575 860.459 755.224 860.395 754.899 860.259C754.573 860.123 754.28 859.919 754.041 859.66C753.801 859.4 753.621 859.092 753.512 858.757C753.402 858.421 753.367 858.066 753.407 857.715C753.476 856.969 753.818 856.274 754.367 855.764C754.916 855.253 755.634 854.963 756.383 854.949H863.528C863.881 854.941 864.232 855.01 864.556 855.15C864.88 855.29 865.17 855.499 865.406 855.761C865.642 856.024 865.819 856.335 865.924 856.672C866.029 857.009 866.059 857.365 866.014 857.715C865.937 858.456 865.592 859.142 865.043 859.645C864.495 860.148 863.782 860.433 863.038 860.447V860.447Z" fill="white"/>
<path d="M703.792 884.781H636.424C636.069 884.789 635.717 884.72 635.392 884.58C635.066 884.44 634.774 884.232 634.535 883.97C634.297 883.709 634.117 883.399 634.007 883.061C633.898 882.724 633.863 882.367 633.903 882.015V882.015C633.979 881.272 634.323 880.581 634.87 880.072C635.418 879.563 636.132 879.271 636.879 879.249H704.387C704.74 879.247 705.089 879.32 705.412 879.462C705.735 879.603 706.024 879.811 706.262 880.072C706.5 880.333 706.68 880.64 706.791 880.975C706.902 881.31 706.942 881.664 706.908 882.015V882.015C706.829 882.783 706.465 883.493 705.888 884.005C705.311 884.517 704.563 884.794 703.792 884.781V884.781Z" fill="white"/>
<path d="M832.085 884.781H721.509C721.154 884.789 720.803 884.72 720.477 884.58C720.151 884.44 719.859 884.232 719.621 883.97C719.382 883.709 719.202 883.399 719.093 883.061C718.984 882.724 718.948 882.367 718.988 882.015V882.015C719.065 881.266 719.414 880.57 719.969 880.061C720.523 879.551 721.246 879.262 721.999 879.249H832.54C832.894 879.242 833.246 879.31 833.572 879.45C833.897 879.59 834.189 879.798 834.428 880.06C834.667 880.322 834.847 880.632 834.956 880.969C835.065 881.306 835.101 881.663 835.061 882.015V882.015C834.992 882.762 834.65 883.457 834.101 883.967C833.552 884.477 832.834 884.767 832.085 884.781Z" fill="white"/>
<path d="M814.227 909.082H634.288C633.935 909.094 633.584 909.03 633.258 908.894C632.932 908.759 632.64 908.554 632.4 908.295C632.161 908.035 631.981 907.728 631.871 907.392C631.762 907.056 631.726 906.701 631.767 906.351V906.351C631.844 905.601 632.193 904.906 632.747 904.396C633.302 903.886 634.025 903.598 634.778 903.585H814.717C815.07 903.583 815.419 903.655 815.742 903.797C816.065 903.939 816.355 904.147 816.593 904.407C816.83 904.668 817.011 904.976 817.122 905.31C817.233 905.645 817.273 906 817.238 906.351V906.351C817.154 907.094 816.801 907.781 816.247 908.283C815.693 908.786 814.975 909.07 814.227 909.082V909.082Z" fill="white"/>
<path d="M843.85 909.081H831.98C831.627 909.094 831.276 909.03 830.95 908.894C830.624 908.758 830.332 908.554 830.092 908.294C829.853 908.035 829.672 907.727 829.563 907.392C829.454 907.056 829.418 906.701 829.459 906.35V906.35C829.527 905.604 829.869 904.909 830.418 904.398C830.967 903.888 831.685 903.598 832.435 903.584H844.34C844.693 903.576 845.044 903.645 845.368 903.785C845.692 903.925 845.982 904.133 846.218 904.396C846.454 904.659 846.631 904.969 846.736 905.307C846.841 905.644 846.871 906 846.826 906.35C846.749 907.09 846.404 907.777 845.855 908.28C845.307 908.783 844.594 909.068 843.85 909.081V909.081Z" fill="white"/>
<path d="M716.152 933.417H632.117C631.764 933.418 631.415 933.346 631.092 933.204C630.769 933.062 630.479 932.854 630.242 932.594C630.004 932.333 629.824 932.025 629.712 931.691C629.601 931.356 629.561 931.002 629.596 930.65V930.65C629.673 929.901 630.022 929.206 630.576 928.696C631.131 928.186 631.854 927.897 632.607 927.884H716.642C716.996 927.877 717.348 927.946 717.674 928.086C717.999 928.225 718.291 928.433 718.53 928.695C718.769 928.957 718.949 929.267 719.058 929.604C719.167 929.942 719.203 930.298 719.163 930.65V930.65C719.086 931.4 718.737 932.095 718.182 932.605C717.627 933.115 716.905 933.403 716.152 933.417V933.417Z" fill="white"/>
<path d="M838.387 933.417H733.764C733.411 933.418 733.062 933.346 732.739 933.204C732.416 933.062 732.126 932.854 731.889 932.594C731.651 932.333 731.471 932.025 731.36 931.691C731.248 931.356 731.209 931.002 731.243 930.65V930.65C731.32 929.901 731.669 929.206 732.224 928.696C732.778 928.186 733.501 927.897 734.254 927.884H838.843C839.197 927.877 839.549 927.946 839.874 928.086C840.2 928.225 840.492 928.433 840.731 928.695C840.97 928.957 841.15 929.267 841.259 929.604C841.368 929.942 841.404 930.298 841.363 930.65V930.65C841.287 931.394 840.944 932.085 840.396 932.594C839.848 933.102 839.135 933.395 838.387 933.417Z" fill="white"/>
<path d="M733.484 957.716H630.016C629.663 957.724 629.312 957.656 628.988 957.516C628.664 957.376 628.374 957.167 628.138 956.904C627.901 956.642 627.725 956.331 627.62 955.994C627.515 955.657 627.484 955.301 627.53 954.95V954.95C627.607 954.21 627.952 953.524 628.5 953.021C629.049 952.517 629.762 952.232 630.506 952.219H733.939C734.292 952.207 734.643 952.271 734.969 952.407C735.294 952.542 735.587 952.747 735.826 953.006C736.066 953.266 736.246 953.574 736.356 953.909C736.465 954.245 736.501 954.6 736.46 954.95V954.95C736.391 955.697 736.05 956.392 735.501 956.902C734.951 957.412 734.233 957.702 733.484 957.716Z" fill="white"/>
<path d="M834.396 957.716H751.061C750.708 957.724 750.357 957.656 750.033 957.516C749.709 957.376 749.419 957.167 749.183 956.904C748.947 956.642 748.77 956.331 748.665 955.994C748.56 955.657 748.53 955.301 748.575 954.95V954.95C748.652 954.21 748.997 953.524 749.545 953.021C750.094 952.517 750.807 952.232 751.551 952.219H834.886C835.239 952.207 835.59 952.271 835.916 952.407C836.241 952.542 836.534 952.747 836.773 953.006C837.013 953.266 837.193 953.574 837.302 953.909C837.412 954.245 837.447 954.6 837.407 954.95V954.95C837.33 955.7 836.981 956.395 836.426 956.905C835.871 957.415 835.149 957.703 834.396 957.716V957.716Z" fill="white"/>
<path d="M987.899 567.515C987.595 567.865 987.224 568.151 986.809 568.356C986.394 568.561 985.941 568.682 985.479 568.711C985.017 568.741 984.553 568.678 984.115 568.527C983.677 568.375 983.273 568.139 982.927 567.83L839.613 431.064C838.961 430.408 838.595 429.52 838.595 428.595C838.595 427.67 838.961 426.783 839.613 426.127V426.127C839.917 425.777 840.288 425.491 840.703 425.286C841.118 425.081 841.571 424.96 842.033 424.93C842.496 424.901 842.959 424.964 843.397 425.115C843.835 425.266 844.239 425.503 844.585 425.811L987.899 562.578C988.551 563.234 988.917 564.122 988.917 565.047C988.917 565.972 988.551 566.859 987.899 567.515V567.515Z" fill="#407BFF"/>
<path d="M826.938 567.48C826.653 567.108 826.445 566.682 826.328 566.229C826.21 565.775 826.185 565.302 826.253 564.838C826.322 564.375 826.483 563.93 826.727 563.529C826.971 563.129 827.292 562.782 827.673 562.508L900.783 502.738C901.478 502.137 902.382 501.833 903.299 501.892C904.216 501.951 905.073 502.368 905.685 503.053V503.053C905.965 503.424 906.168 503.847 906.282 504.298C906.396 504.748 906.42 505.216 906.352 505.676C906.283 506.135 906.124 506.577 905.883 506.974C905.643 507.371 905.325 507.717 904.95 507.99L831.84 567.795C831.145 568.396 830.241 568.7 829.324 568.641C828.407 568.582 827.55 568.165 826.938 567.48Z" fill="#407BFF"/>
<path d="M921.407 490.203C921.127 489.832 920.924 489.409 920.81 488.959C920.695 488.508 920.672 488.04 920.74 487.58C920.809 487.121 920.968 486.68 921.208 486.282C921.449 485.885 921.766 485.539 922.142 485.266L995.392 425.391C996.087 424.79 996.991 424.486 997.908 424.545C998.825 424.604 999.682 425.021 1000.29 425.706C1000.57 426.077 1000.78 426.5 1000.89 426.95C1001.01 427.401 1001.03 427.869 1000.96 428.329C1000.89 428.788 1000.73 429.23 1000.49 429.627C1000.25 430.024 999.934 430.37 999.559 430.643L926.309 490.518C925.614 491.119 924.71 491.423 923.793 491.364C922.876 491.305 922.019 490.888 921.407 490.203V490.203Z" fill="#407BFF"/>
<g opacity="0.7">
<path opacity="0.7" d="M987.899 567.515C987.595 567.865 987.224 568.151 986.809 568.356C986.394 568.561 985.941 568.682 985.479 568.711C985.017 568.741 984.553 568.678 984.115 568.527C983.677 568.375 983.273 568.139 982.927 567.83L839.613 431.064C838.961 430.408 838.595 429.52 838.595 428.595C838.595 427.67 838.961 426.783 839.613 426.127V426.127C839.917 425.777 840.288 425.491 840.703 425.286C841.118 425.081 841.571 424.96 842.033 424.93C842.496 424.901 842.959 424.964 843.397 425.115C843.835 425.266 844.239 425.503 844.585 425.811L987.899 562.578C988.551 563.234 988.917 564.122 988.917 565.047C988.917 565.972 988.551 566.859 987.899 567.515V567.515Z" fill="white"/>
</g>
<g opacity="0.7">
<path opacity="0.7" d="M826.938 567.48C826.653 567.108 826.445 566.682 826.328 566.229C826.21 565.775 826.185 565.302 826.253 564.838C826.322 564.375 826.483 563.93 826.727 563.529C826.971 563.129 827.292 562.782 827.673 562.508L900.783 502.738C901.478 502.137 902.382 501.833 903.299 501.892C904.216 501.951 905.073 502.368 905.685 503.053V503.053C905.965 503.424 906.168 503.847 906.282 504.298C906.396 504.748 906.42 505.216 906.352 505.676C906.283 506.135 906.124 506.577 905.883 506.974C905.643 507.371 905.325 507.717 904.95 507.99L831.84 567.795C831.145 568.396 830.241 568.7 829.324 568.641C828.407 568.582 827.55 568.165 826.938 567.48Z" fill="white"/>
</g>
<g opacity="0.7">
<path opacity="0.7" d="M921.407 490.203C921.127 489.832 920.924 489.409 920.81 488.959C920.695 488.508 920.672 488.04 920.74 487.58C920.809 487.121 920.968 486.68 921.208 486.282C921.449 485.885 921.766 485.539 922.142 485.266L995.392 425.391C996.087 424.79 996.991 424.486 997.908 424.545C998.825 424.604 999.682 425.021 1000.29 425.706C1000.57 426.077 1000.78 426.5 1000.89 426.95C1001.01 427.401 1001.03 427.869 1000.96 428.329C1000.89 428.788 1000.73 429.23 1000.49 429.627C1000.25 430.024 999.934 430.37 999.559 430.643L926.309 490.518C925.614 491.119 924.71 491.423 923.793 491.364C922.876 491.305 922.019 490.888 921.407 490.203V490.203Z" fill="white"/>
</g>
<path d="M580.33 209.527H534.812C530.403 209.546 526.182 211.31 523.072 214.433C519.961 217.557 518.215 221.786 518.215 226.194V271.713C518.215 276.133 519.971 280.372 523.096 283.498C526.222 286.624 530.461 288.38 534.882 288.38H580.4C584.821 288.38 589.06 286.624 592.186 283.498C595.311 280.372 597.067 276.133 597.067 271.713V226.194C597.067 223.999 596.634 221.826 595.792 219.8C594.95 217.773 593.716 215.932 592.161 214.384C590.606 212.835 588.76 211.609 586.73 210.776C584.7 209.942 582.525 209.518 580.33 209.527V209.527ZM557.676 225.634C564.504 225.634 568.18 231.201 568.18 238.029C568.18 244.857 564.504 250.424 557.676 250.424C550.848 250.424 547.172 244.892 547.172 238.029C547.172 231.166 550.813 225.634 557.676 225.634ZM585.022 272.098H530.295C530.074 272.099 529.855 272.055 529.651 271.971C529.446 271.887 529.261 271.764 529.104 271.608L532.606 262.049C533.698 259.034 535.693 256.429 538.317 254.588C540.942 252.746 544.07 251.757 547.277 251.755H567.97C571.182 251.755 574.315 252.742 576.946 254.584C579.577 256.425 581.577 259.031 582.676 262.049L586.178 271.608C586.028 271.763 585.848 271.886 585.65 271.97C585.451 272.054 585.238 272.098 585.022 272.098Z" fill="#407BFF"/>
<path opacity="0.7" d="M580.33 209.527H534.812C530.403 209.546 526.182 211.31 523.072 214.433C519.961 217.557 518.215 221.786 518.215 226.194V271.713C518.215 276.133 519.971 280.372 523.096 283.498C526.222 286.624 530.461 288.38 534.882 288.38H580.4C584.821 288.38 589.06 286.624 592.186 283.498C595.311 280.372 597.067 276.133 597.067 271.713V226.194C597.067 223.999 596.634 221.826 595.792 219.8C594.95 217.773 593.716 215.932 592.161 214.384C590.606 212.835 588.76 211.609 586.73 210.776C584.7 209.942 582.525 209.518 580.33 209.527V209.527ZM557.676 225.634C564.504 225.634 568.18 231.201 568.18 238.029C568.18 244.857 564.504 250.424 557.676 250.424C550.848 250.424 547.172 244.892 547.172 238.029C547.172 231.166 550.813 225.634 557.676 225.634ZM585.022 272.098H530.295C530.074 272.099 529.855 272.055 529.651 271.971C529.446 271.887 529.261 271.764 529.104 271.608L532.606 262.049C533.698 259.034 535.693 256.429 538.317 254.588C540.942 252.746 544.07 251.757 547.277 251.755H567.97C571.182 251.755 574.315 252.742 576.946 254.584C579.577 256.425 581.577 259.031 582.676 262.049L586.178 271.608C586.028 271.763 585.848 271.886 585.65 271.97C585.451 272.054 585.238 272.098 585.022 272.098Z" fill="white"/>
<path d="M418.984 396.085H384.529C381.584 396.08 378.666 396.656 375.943 397.78C373.22 398.904 370.745 400.554 368.661 402.636C366.576 404.717 364.922 407.189 363.794 409.91C362.666 412.631 362.085 415.548 362.085 418.494V452.948C362.085 458.901 364.45 464.609 368.659 468.819C372.868 473.028 378.577 475.392 384.529 475.392H418.984C421.929 475.392 424.846 474.812 427.567 473.683C430.288 472.555 432.76 470.901 434.842 468.816C436.923 466.732 438.573 464.257 439.697 461.534C440.821 458.812 441.397 455.894 441.393 452.948V418.494C441.397 415.55 440.821 412.634 439.696 409.913C438.572 407.192 436.921 404.72 434.84 402.638C432.758 400.556 430.286 398.905 427.565 397.781C424.844 396.656 421.928 396.08 418.984 396.085ZM401.756 454.524C401.756 454.524 387.751 439.152 387.751 431.309C387.751 427.553 389.243 423.95 391.899 421.294C394.555 418.638 398.158 417.146 401.914 417.146C405.67 417.146 409.273 418.638 411.929 421.294C414.585 423.95 416.077 427.553 416.077 431.309C415.902 439.152 401.756 454.524 401.756 454.524Z" fill="#407BFF"/>
<path d="M401.756 424.866C400.472 424.859 399.215 425.234 398.145 425.943C397.074 426.653 396.238 427.664 395.744 428.849C395.249 430.034 395.118 431.339 395.367 432.599C395.615 433.859 396.233 435.016 397.141 435.924C398.049 436.832 399.207 437.45 400.466 437.699C401.726 437.948 403.031 437.816 404.217 437.322C405.402 436.827 406.413 435.991 407.122 434.921C407.831 433.85 408.206 432.593 408.199 431.309C408.199 429.6 407.52 427.962 406.312 426.753C405.104 425.545 403.465 424.866 401.756 424.866Z" fill="#407BFF"/>
<g opacity="0.7">
<path opacity="0.7" d="M418.984 396.085H384.529C381.584 396.08 378.666 396.656 375.943 397.78C373.22 398.904 370.745 400.554 368.661 402.636C366.576 404.717 364.922 407.189 363.794 409.91C362.666 412.631 362.085 415.548 362.085 418.494V452.948C362.085 458.901 364.45 464.609 368.659 468.819C372.868 473.028 378.577 475.392 384.529 475.392H418.984C421.929 475.392 424.846 474.812 427.567 473.683C430.288 472.555 432.76 470.901 434.842 468.816C436.923 466.732 438.573 464.257 439.697 461.534C440.821 458.812 441.397 455.894 441.393 452.948V418.494C441.397 415.55 440.821 412.634 439.696 409.913C438.572 407.192 436.921 404.72 434.84 402.638C432.758 400.556 430.286 398.905 427.565 397.781C424.844 396.656 421.928 396.08 418.984 396.085ZM401.756 454.524C401.756 454.524 387.751 439.152 387.751 431.309C387.751 427.553 389.243 423.95 391.899 421.294C394.555 418.638 398.158 417.146 401.914 417.146C405.67 417.146 409.273 418.638 411.929 421.294C414.585 423.95 416.077 427.553 416.077 431.309C415.902 439.152 401.756 454.524 401.756 454.524Z" fill="white"/>
<path opacity="0.7" d="M401.756 424.866C400.472 424.859 399.215 425.234 398.145 425.943C397.074 426.653 396.238 427.664 395.744 428.849C395.249 430.034 395.118 431.339 395.367 432.599C395.615 433.859 396.233 435.016 397.141 435.924C398.049 436.832 399.207 437.45 400.466 437.699C401.726 437.948 403.031 437.816 404.217 437.322C405.402 436.827 406.413 435.991 407.122 434.921C407.831 433.85 408.206 432.593 408.199 431.309C408.199 429.6 407.52 427.962 406.312 426.753C405.104 425.545 403.465 424.866 401.756 424.866Z" fill="white"/>
</g>
<path d="M1175.44 298.429L1198.51 283.513L1175.44 268.562V298.429Z" fill="#407BFF"/>
<path d="M1205.16 242.791H1161.19C1156.22 242.791 1151.45 244.765 1147.94 248.278C1144.43 251.791 1142.45 256.556 1142.45 261.524V305.502C1142.46 310.467 1144.44 315.227 1147.95 318.738C1151.46 322.249 1156.22 324.226 1161.19 324.235H1205.16C1210.13 324.235 1214.9 322.261 1218.41 318.748C1221.92 315.235 1223.9 310.47 1223.9 305.502V261.524C1223.9 259.063 1223.42 256.624 1222.48 254.35C1221.54 252.075 1220.16 250.008 1218.42 248.267C1216.68 246.527 1214.61 245.147 1212.34 244.208C1210.06 243.268 1207.63 242.786 1205.16 242.791V242.791ZM1183.18 312.82C1177.38 312.82 1171.71 311.1 1166.89 307.878C1162.07 304.657 1158.31 300.077 1156.1 294.72C1153.88 289.363 1153.3 283.469 1154.43 277.783C1155.57 272.097 1158.36 266.875 1162.46 262.777C1166.57 258.68 1171.79 255.892 1177.48 254.765C1183.17 253.638 1189.06 254.223 1194.41 256.447C1199.77 258.67 1204.34 262.432 1207.56 267.256C1210.78 272.08 1212.49 277.75 1212.48 283.548C1212.48 287.392 1211.72 291.198 1210.24 294.747C1208.77 298.297 1206.61 301.521 1203.88 304.236C1201.16 306.951 1197.93 309.103 1194.38 310.57C1190.83 312.037 1187.02 312.79 1183.18 312.785V312.82Z" fill="#407BFF"/>
<g opacity="0.7">
<path opacity="0.7" d="M1175.44 298.429L1198.51 283.513L1175.44 268.562V298.429Z" fill="white"/>
<path opacity="0.7" d="M1205.16 242.791H1161.19C1156.22 242.791 1151.45 244.765 1147.94 248.278C1144.43 251.791 1142.45 256.556 1142.45 261.524V305.502C1142.46 310.467 1144.44 315.227 1147.95 318.738C1151.46 322.249 1156.22 324.226 1161.19 324.235H1205.16C1210.13 324.235 1214.9 322.261 1218.41 318.748C1221.92 315.235 1223.9 310.47 1223.9 305.502V261.524C1223.9 259.063 1223.42 256.624 1222.48 254.35C1221.54 252.075 1220.16 250.008 1218.42 248.267C1216.68 246.527 1214.61 245.147 1212.34 244.208C1210.06 243.268 1207.63 242.786 1205.16 242.791V242.791ZM1183.18 312.82C1177.38 312.82 1171.71 311.1 1166.89 307.878C1162.07 304.657 1158.31 300.077 1156.1 294.72C1153.88 289.363 1153.3 283.469 1154.43 277.783C1155.57 272.097 1158.36 266.875 1162.46 262.777C1166.57 258.68 1171.79 255.892 1177.48 254.765C1183.17 253.638 1189.06 254.223 1194.41 256.447C1199.77 258.67 1204.34 262.432 1207.56 267.256C1210.78 272.08 1212.49 277.75 1212.48 283.548C1212.48 287.392 1211.72 291.198 1210.24 294.747C1208.77 298.297 1206.61 301.521 1203.88 304.236C1201.16 306.951 1197.93 309.103 1194.38 310.57C1190.83 312.037 1187.02 312.79 1183.18 312.785V312.82Z" fill="white"/>
</g>
<path d="M1248.34 411.455C1248.34 410.545 1248.34 409.635 1248.34 408.759L1253.62 405.818C1253.24 403.314 1252.58 400.86 1251.66 398.5H1245.64C1244.88 396.856 1243.96 395.286 1242.91 393.808L1246.03 388.661C1244.43 386.685 1242.63 384.878 1240.67 383.269L1235.49 386.385C1234.02 385.353 1232.46 384.451 1230.83 383.689V377.631C1228.46 376.736 1226.01 376.079 1223.51 375.67L1220.57 380.958C1219.7 380.958 1218.78 380.958 1217.87 380.958C1216.96 380.958 1216.09 380.958 1215.18 380.958L1212.24 375.67C1209.74 376.088 1207.29 376.745 1204.92 377.631V383.689C1203.29 384.443 1201.73 385.345 1200.26 386.385L1195.08 383.269C1193.1 384.868 1191.29 386.676 1189.69 388.661L1192.8 393.808C1191.78 395.295 1190.88 396.864 1190.11 398.5H1184.09C1183.17 400.865 1182.5 403.317 1182.09 405.818L1187.38 408.759C1187.38 409.635 1187.38 410.545 1187.38 411.455C1187.38 412.366 1187.38 413.276 1187.38 414.151L1182.09 417.093C1182.5 419.595 1183.17 422.047 1184.09 424.411H1190.11C1190.88 426.047 1191.78 427.616 1192.8 429.103L1189.69 434.285C1191.3 436.25 1193.1 438.045 1195.08 439.642L1200.26 436.526C1201.72 437.578 1203.28 438.481 1204.92 439.222V445.279C1207.28 446.182 1209.74 446.839 1212.24 447.24L1215.18 441.953C1216.09 441.953 1216.96 441.953 1217.87 441.953C1218.78 441.953 1219.7 441.953 1220.57 441.953L1223.51 447.24C1226.01 446.848 1228.47 446.19 1230.83 445.279V439.222C1232.46 438.473 1234.02 437.571 1235.49 436.526L1240.67 439.642C1242.63 438.036 1244.42 436.241 1246.03 434.285L1242.91 429.103C1243.96 427.625 1244.88 426.054 1245.64 424.411H1251.66C1252.59 422.052 1253.24 419.597 1253.62 417.093L1248.34 414.151C1248.27 413.171 1248.34 412.366 1248.34 411.455ZM1217.8 432.184C1213.7 432.184 1209.7 430.968 1206.29 428.69C1202.88 426.413 1200.22 423.175 1198.65 419.388C1197.08 415.6 1196.67 411.432 1197.47 407.411C1198.27 403.39 1200.25 399.697 1203.15 396.798C1206.05 393.899 1209.74 391.925 1213.76 391.125C1217.78 390.325 1221.95 390.736 1225.74 392.305C1229.52 393.873 1232.76 396.53 1235.04 399.939C1237.32 403.348 1238.53 407.356 1238.53 411.455C1238.53 416.953 1236.35 422.225 1232.46 426.113C1228.57 430 1223.3 432.184 1217.8 432.184V432.184Z" fill="#407BFF"/>
<path opacity="0.7" d="M1248.34 411.455C1248.34 410.545 1248.34 409.635 1248.34 408.759L1253.62 405.818C1253.24 403.314 1252.58 400.86 1251.66 398.5H1245.64C1244.88 396.856 1243.96 395.286 1242.91 393.808L1246.03 388.661C1244.43 386.685 1242.63 384.878 1240.67 383.269L1235.49 386.385C1234.02 385.353 1232.46 384.451 1230.83 383.689V377.631C1228.46 376.736 1226.01 376.079 1223.51 375.67L1220.57 380.958C1219.7 380.958 1218.78 380.958 1217.87 380.958C1216.96 380.958 1216.09 380.958 1215.18 380.958L1212.24 375.67C1209.74 376.088 1207.29 376.745 1204.92 377.631V383.689C1203.29 384.443 1201.73 385.345 1200.26 386.385L1195.08 383.269C1193.1 384.868 1191.29 386.676 1189.69 388.661L1192.8 393.808C1191.78 395.295 1190.88 396.864 1190.11 398.5H1184.09C1183.17 400.865 1182.5 403.317 1182.09 405.818L1187.38 408.759C1187.38 409.635 1187.38 410.545 1187.38 411.455C1187.38 412.366 1187.38 413.276 1187.38 414.151L1182.09 417.093C1182.5 419.595 1183.17 422.047 1184.09 424.411H1190.11C1190.88 426.047 1191.78 427.616 1192.8 429.103L1189.69 434.285C1191.3 436.25 1193.1 438.045 1195.08 439.642L1200.26 436.526C1201.72 437.578 1203.28 438.481 1204.92 439.222V445.279C1207.28 446.182 1209.74 446.839 1212.24 447.24L1215.18 441.953C1216.09 441.953 1216.96 441.953 1217.87 441.953C1218.78 441.953 1219.7 441.953 1220.57 441.953L1223.51 447.24C1226.01 446.848 1228.47 446.19 1230.83 445.279V439.222C1232.46 438.473 1234.02 437.571 1235.49 436.526L1240.67 439.642C1242.63 438.036 1244.42 436.241 1246.03 434.285L1242.91 429.103C1243.96 427.625 1244.88 426.054 1245.64 424.411H1251.66C1252.59 422.052 1253.24 419.597 1253.62 417.093L1248.34 414.151C1248.27 413.171 1248.34 412.366 1248.34 411.455ZM1217.8 432.184C1213.7 432.184 1209.7 430.968 1206.29 428.69C1202.88 426.413 1200.22 423.175 1198.65 419.388C1197.08 415.6 1196.67 411.432 1197.47 407.411C1198.27 403.39 1200.25 399.697 1203.15 396.798C1206.05 393.899 1209.74 391.925 1213.76 391.125C1217.78 390.325 1221.95 390.736 1225.74 392.305C1229.52 393.873 1232.76 396.53 1235.04 399.939C1237.32 403.348 1238.53 407.356 1238.53 411.455C1238.53 416.953 1236.35 422.225 1232.46 426.113C1228.57 430 1223.3 432.184 1217.8 432.184V432.184Z" fill="white"/>
<path d="M1168.54 515.554C1168.54 514.188 1168.54 512.857 1168.36 511.527L1176.28 507.15C1175.68 503.393 1174.7 499.708 1173.34 496.155L1164.3 496.331C1163.16 493.879 1161.8 491.535 1160.24 489.328L1164.9 481.589C1162.51 478.644 1159.82 475.956 1156.88 473.571L1149.14 478.193C1146.92 476.656 1144.58 475.309 1142.14 474.166V465.133C1138.6 463.768 1134.93 462.782 1131.18 462.191L1126.8 470.105C1125.47 470.105 1124.14 470.105 1122.78 470.105C1121.41 470.105 1120.08 470.105 1118.75 470.105L1114.48 462.191C1110.73 462.791 1107.06 463.777 1103.52 465.133V474.166C1101.07 475.307 1098.73 476.654 1096.51 478.193L1088.95 473.571C1085.99 475.956 1083.3 478.643 1080.9 481.589L1085.55 489.328C1084 491.536 1082.66 493.88 1081.53 496.331L1072.49 496.155C1071.12 499.703 1070.13 503.389 1069.55 507.15L1077.47 511.527C1077.19 514.204 1077.19 516.903 1077.47 519.58L1069.55 523.992C1070.14 527.74 1071.12 531.415 1072.49 534.952L1081.53 534.776C1082.65 537.231 1084 539.576 1085.55 541.779L1080.9 549.518C1083.3 552.464 1085.99 555.151 1088.95 557.536L1096.69 552.914C1098.9 554.466 1101.24 555.814 1103.69 556.941V565.974C1107.23 567.346 1110.9 568.333 1114.65 568.916L1119.06 561.002C1121.74 561.282 1124.44 561.282 1127.12 561.002L1131.49 568.916C1135.24 568.341 1138.92 567.355 1142.45 565.974V556.941C1144.9 555.812 1147.25 554.464 1149.46 552.914L1157.19 557.536C1160.14 555.151 1162.83 552.463 1165.21 549.518L1160.56 541.779C1162.12 539.577 1163.48 537.232 1164.62 534.776L1173.65 534.952C1175.01 531.41 1175.99 527.737 1176.59 523.992L1168.68 519.58C1168.47 518.215 1168.54 516.919 1168.54 515.554ZM1123.02 533.551C1119.46 533.551 1115.98 532.495 1113.02 530.518C1110.06 528.54 1107.75 525.729 1106.39 522.441C1105.03 519.152 1104.67 515.534 1105.37 512.042C1106.06 508.551 1107.78 505.344 1110.29 502.827C1112.81 500.31 1116.02 498.596 1119.51 497.902C1123 497.207 1126.62 497.564 1129.91 498.926C1133.2 500.288 1136.01 502.595 1137.98 505.555C1139.96 508.514 1141.02 511.994 1141.02 515.554C1141.02 517.926 1140.55 520.275 1139.64 522.465C1138.73 524.656 1137.39 526.644 1135.71 528.317C1134.03 529.99 1132.03 531.313 1129.83 532.211C1127.64 533.11 1125.29 533.565 1122.92 533.551H1123.02Z" fill="#407BFF"/>
<path opacity="0.7" d="M1168.54 515.554C1168.54 514.188 1168.54 512.857 1168.36 511.527L1176.28 507.15C1175.68 503.393 1174.7 499.708 1173.34 496.155L1164.3 496.331C1163.16 493.879 1161.8 491.535 1160.24 489.328L1164.9 481.589C1162.51 478.644 1159.82 475.956 1156.88 473.571L1149.14 478.193C1146.92 476.656 1144.58 475.309 1142.14 474.166V465.133C1138.6 463.768 1134.93 462.782 1131.18 462.191L1126.8 470.105C1125.47 470.105 1124.14 470.105 1122.78 470.105C1121.41 470.105 1120.08 470.105 1118.75 470.105L1114.48 462.191C1110.73 462.791 1107.06 463.777 1103.52 465.133V474.166C1101.07 475.307 1098.73 476.654 1096.51 478.193L1088.95 473.571C1085.99 475.956 1083.3 478.643 1080.9 481.589L1085.55 489.328C1084 491.536 1082.66 493.88 1081.53 496.331L1072.49 496.155C1071.12 499.703 1070.13 503.389 1069.55 507.15L1077.47 511.527C1077.19 514.204 1077.19 516.903 1077.47 519.58L1069.55 523.992C1070.14 527.74 1071.12 531.415 1072.49 534.952L1081.53 534.776C1082.65 537.231 1084 539.576 1085.55 541.779L1080.9 549.518C1083.3 552.464 1085.99 555.151 1088.95 557.536L1096.69 552.914C1098.9 554.466 1101.24 555.814 1103.69 556.941V565.974C1107.23 567.346 1110.9 568.333 1114.65 568.916L1119.06 561.002C1121.74 561.282 1124.44 561.282 1127.12 561.002L1131.49 568.916C1135.24 568.341 1138.92 567.355 1142.45 565.974V556.941C1144.9 555.812 1147.25 554.464 1149.46 552.914L1157.19 557.536C1160.14 555.151 1162.83 552.463 1165.21 549.518L1160.56 541.779C1162.12 539.577 1163.48 537.232 1164.62 534.776L1173.65 534.952C1175.01 531.41 1175.99 527.737 1176.59 523.992L1168.68 519.58C1168.47 518.215 1168.54 516.919 1168.54 515.554ZM1123.02 533.551C1119.46 533.551 1115.98 532.495 1113.02 530.518C1110.06 528.54 1107.75 525.729 1106.39 522.441C1105.03 519.152 1104.67 515.534 1105.37 512.042C1106.06 508.551 1107.78 505.344 1110.29 502.827C1112.81 500.31 1116.02 498.596 1119.51 497.902C1123 497.207 1126.62 497.564 1129.91 498.926C1133.2 500.288 1136.01 502.595 1137.98 505.555C1139.96 508.514 1141.02 511.994 1141.02 515.554C1141.02 517.926 1140.55 520.275 1139.64 522.465C1138.73 524.656 1137.39 526.644 1135.71 528.317C1134.03 529.99 1132.03 531.313 1129.83 532.211C1127.64 533.11 1125.29 533.565 1122.92 533.551H1123.02Z" fill="white"/>
<path d="M1039.93 312.539V330.887L1022.42 340.096C1021.74 340.461 1021.17 341.004 1020.78 341.667C1020.38 342.329 1020.17 343.087 1020.17 343.86C1020.17 344.632 1020.38 345.39 1020.78 346.053C1021.17 346.716 1021.74 347.259 1022.42 347.624L1039.93 356.833V375.18C1039.93 377.14 1040.71 379.019 1042.09 380.404C1043.48 381.79 1045.36 382.568 1047.32 382.568H1109.96C1111.92 382.568 1113.81 381.791 1115.2 380.407C1116.59 379.022 1117.37 377.143 1117.38 375.18V312.539C1117.38 310.571 1116.6 308.683 1115.21 307.29C1113.82 305.898 1111.93 305.116 1109.96 305.116H1047.21C1045.27 305.144 1043.41 305.939 1042.05 307.329C1040.68 308.719 1039.92 310.592 1039.93 312.539V312.539Z" fill="#407BFF"/>
<g opacity="0.9">
<path opacity="0.9" d="M1061.36 331.657H1096.97C1098.13 331.657 1099.24 331.196 1100.06 330.375C1100.89 329.554 1101.35 328.441 1101.35 327.28C1101.35 326.119 1100.89 325.006 1100.06 324.185C1099.24 323.364 1098.13 322.903 1096.97 322.903H1061.36C1060.2 322.903 1059.09 323.364 1058.26 324.185C1057.44 325.006 1056.98 326.119 1056.98 327.28C1056.98 328.441 1057.44 329.554 1058.26 330.375C1059.09 331.196 1060.2 331.657 1061.36 331.657V331.657Z" fill="white"/>
<path opacity="0.9" d="M1096.97 339.64H1061.36C1060.2 339.64 1059.09 340.101 1058.26 340.922C1057.44 341.743 1056.98 342.856 1056.98 344.017C1056.98 345.178 1057.44 346.291 1058.26 347.112C1059.09 347.933 1060.2 348.394 1061.36 348.394H1096.97C1098.13 348.394 1099.24 347.933 1100.06 347.112C1100.89 346.291 1101.35 345.178 1101.35 344.017C1101.35 342.856 1100.89 341.743 1100.06 340.922C1099.24 340.101 1098.13 339.64 1096.97 339.64Z" fill="white"/>
<path opacity="0.9" d="M1096.97 356.062H1061.36C1060.2 356.062 1059.09 356.523 1058.26 357.344C1057.44 358.165 1056.98 359.278 1056.98 360.439C1056.98 361.6 1057.44 362.713 1058.26 363.534C1059.09 364.355 1060.2 364.816 1061.36 364.816H1096.97C1098.13 364.816 1099.24 364.355 1100.06 363.534C1100.89 362.713 1101.35 361.6 1101.35 360.439C1101.35 359.278 1100.89 358.165 1100.06 357.344C1099.24 356.523 1098.13 356.062 1096.97 356.062Z" fill="white"/>
</g>
<path d="M685.934 283.617H700.885L708.589 298.218C709.096 299.17 709.853 299.966 710.778 300.521C711.703 301.076 712.762 301.37 713.841 301.37C714.92 301.37 715.978 301.076 716.903 300.521C717.828 299.966 718.585 299.17 719.093 298.218L726.796 283.617H741.747C743.166 283.617 744.572 283.337 745.882 282.793C747.193 282.249 748.384 281.451 749.385 280.446C750.387 279.441 751.181 278.248 751.721 276.936C752.261 275.623 752.536 274.217 752.532 272.798V217.09C752.532 214.229 751.396 211.486 749.373 209.464C747.351 207.441 744.607 206.305 741.747 206.305H685.934C684.517 206.301 683.112 206.576 681.802 207.117C680.491 207.657 679.3 208.451 678.298 209.454C677.296 210.456 676.502 211.647 675.961 212.957C675.421 214.268 675.145 215.672 675.15 217.09V273.113C675.223 275.924 676.391 278.596 678.406 280.558C680.42 282.521 683.122 283.618 685.934 283.617Z" fill="#407BFF"/>
<path opacity="0.9" d="M713.876 223.007L696.649 233.091V262.574H709.464V242.79H718.323V262.574H731.138V233.091L713.876 223.007Z" fill="white"/>
<path d="M853.654 1084.71H840.348L831.77 1068.4C831.344 1067.61 830.712 1066.95 829.941 1066.49C829.171 1066.03 828.29 1065.78 827.393 1065.78C826.495 1065.78 825.615 1066.03 824.844 1066.49C824.073 1066.95 823.442 1067.61 823.016 1068.4L814.437 1084.71H800.782C797.522 1084.71 794.396 1086.01 792.091 1088.31C789.786 1090.62 788.492 1093.74 788.492 1097V1149.88C788.492 1153.14 789.786 1156.26 792.091 1158.57C794.396 1160.87 797.522 1162.17 800.782 1162.17H853.654C856.913 1162.17 860.039 1160.87 862.344 1158.57C864.649 1156.26 865.944 1153.14 865.944 1149.88V1097C865.944 1093.74 864.649 1090.62 862.344 1088.31C860.039 1086.01 856.913 1084.71 853.654 1084.71Z" fill="#407BFF"/>
<path opacity="0.9" d="M834.711 1104.92C832.143 1102.35 828.897 1100.56 825.352 1099.77C821.807 1098.98 818.11 1099.22 814.694 1100.45C811.277 1101.69 808.284 1103.87 806.062 1106.74C803.841 1109.61 802.485 1113.06 802.151 1116.68C801.818 1120.3 802.522 1123.93 804.181 1127.16C805.84 1130.4 808.385 1133.09 811.518 1134.92C814.652 1136.76 818.244 1137.67 821.873 1137.54C825.503 1137.41 829.021 1136.25 832.015 1134.19C832.161 1135.06 832.563 1135.86 833.17 1136.5L845.075 1148.37C845.878 1149.17 846.968 1149.63 848.104 1149.63C849.24 1149.63 850.329 1149.17 851.133 1148.37C851.936 1147.57 852.387 1146.48 852.387 1145.34C852.387 1144.21 851.936 1143.12 851.133 1142.31L839.263 1130.44C838.624 1129.81 837.804 1129.4 836.917 1129.25C839.434 1125.57 840.591 1121.13 840.188 1116.69C839.786 1112.25 837.849 1108.09 834.711 1104.92V1104.92ZM830.649 1127.92C828.773 1129.8 826.383 1131.07 823.782 1131.59C821.182 1132.1 818.486 1131.84 816.037 1130.82C813.587 1129.81 811.494 1128.09 810.021 1125.88C808.548 1123.68 807.762 1121.08 807.762 1118.43C807.762 1115.78 808.548 1113.19 810.021 1110.98C811.494 1108.78 813.587 1107.06 816.037 1106.05C818.486 1105.03 821.182 1104.76 823.782 1105.28C826.383 1105.8 828.773 1107.07 830.649 1108.94C831.896 1110.19 832.886 1111.67 833.561 1113.3C834.236 1114.93 834.583 1116.67 834.583 1118.43C834.583 1120.2 834.236 1121.94 833.561 1123.57C832.886 1125.2 831.896 1126.68 830.649 1127.92Z" fill="white"/>
<path d="M1419.1 732.609C1419.1 732.609 1390.57 803.338 1362.62 810.971C1334.68 818.604 1292.6 812.407 1292.6 812.407L1279.57 815.908L1266.79 814.017H1266.33L1251.94 813.667C1251.42 813.711 1250.9 813.604 1250.44 813.362C1249.98 813.119 1249.6 812.749 1249.34 812.296C1249.09 811.844 1248.96 811.327 1248.99 810.807C1249.02 810.286 1249.19 809.785 1249.49 809.36L1254.64 802.358C1255.07 801.783 1255.67 801.355 1256.36 801.132L1270.08 796.72C1270.62 796.599 1271.18 796.599 1271.73 796.72L1292.74 800.047C1292.74 800.047 1351.03 790.488 1356.99 785.095C1362.94 779.703 1380.48 723.155 1380.48 723.155L1419.1 732.609Z" fill="#EEC1BB"/>
<path opacity="0.1" d="M1294.03 799.591L1292.67 799.801L1271.66 796.475C1271.11 796.354 1270.55 796.354 1270.01 796.475L1256.29 800.887C1255.6 801.109 1255 801.537 1254.57 802.112L1249.42 809.115C1249.12 809.539 1248.95 810.041 1248.92 810.561C1248.89 811.081 1249.02 811.598 1249.27 812.051C1249.53 812.504 1249.91 812.873 1250.37 813.116C1250.83 813.359 1251.35 813.465 1251.87 813.422L1266.26 813.772H1266.72L1275.3 815.033C1282.62 811.346 1289.02 806.07 1294.03 799.591Z" fill="black"/>
<path d="M1436.33 662.544C1415.6 655.752 1386.43 671.333 1375.26 736.6L1418.3 749.31C1418.3 749.31 1465.95 672.278 1436.33 662.544Z" fill="#407BFF"/>
<path d="M1315.74 577.249C1315.74 579.42 1316.9 581.136 1318.3 581.136C1319.7 581.136 1320.92 579.28 1320.82 577.179C1320.71 575.079 1319.66 573.328 1318.26 573.363C1316.86 573.398 1315.74 575.114 1315.74 577.249Z" fill="#263238"/>
<path d="M1324.21 579.385L1314.02 596.227C1314.02 596.227 1317.53 600.219 1325.19 597.278L1324.21 579.385Z" fill="#D4827D"/>
<path d="M1326.14 563.733C1326.02 563.875 1325.86 563.981 1325.68 564.043C1325.5 564.104 1325.31 564.118 1325.12 564.084C1323.75 563.847 1322.33 563.943 1321 564.363C1319.66 564.784 1318.45 565.516 1317.46 566.5C1317.24 566.699 1316.96 566.81 1316.67 566.81C1316.38 566.81 1316.09 566.699 1315.88 566.5C1315.68 566.28 1315.57 565.992 1315.57 565.694C1315.57 565.396 1315.68 565.109 1315.88 564.889C1317.12 563.623 1318.64 562.678 1320.33 562.135C1322.01 561.592 1323.8 561.468 1325.54 561.773C1325.69 561.79 1325.83 561.836 1325.96 561.909C1326.09 561.982 1326.21 562.08 1326.3 562.198C1326.39 562.315 1326.46 562.449 1326.5 562.593C1326.53 562.736 1326.54 562.886 1326.52 563.033V563.033C1326.47 563.3 1326.34 563.545 1326.14 563.733V563.733Z" fill="#263238"/>
<path d="M1398.13 561.983C1399.7 590.45 1401 602.495 1388.43 618.672C1368.37 636.004 1334.19 638.77 1324.11 611.354C1315.04 586.843 1313.99 544.371 1340.32 529.7C1344.79 527.211 1349.7 525.627 1354.78 525.039C1359.86 524.45 1365 524.869 1369.92 526.27C1374.84 527.672 1379.43 530.029 1383.43 533.207C1387.44 536.385 1390.78 540.321 1393.26 544.791C1396.18 550.075 1397.84 555.956 1398.13 561.983V561.983Z" fill="#EEC1BB"/>
<path d="M1358.46 624.274L1365.67 666.466L1400.83 658.343L1388.54 615.275L1358.46 624.274Z" fill="#EEC1BB"/>
<path d="M1333.14 564.084C1334.93 545.596 1328.56 566.955 1320.01 542.55C1311.47 518.145 1351.84 498.327 1358.28 502.878C1364.73 507.43 1361.05 514.398 1382.41 518.355C1388.23 519.28 1393.52 522.297 1397.29 526.84C1401.05 531.384 1403.03 537.143 1402.86 543.04C1402.86 543.04 1415.15 548.712 1410.77 575.113C1407.56 592.029 1400.36 607.935 1389.76 621.508C1389.76 621.508 1381.67 613.174 1368.75 620.842C1363.71 617.551 1359.44 613.202 1356.25 608.097C1350.51 599.483 1348.72 591.29 1340.85 590.59C1324.39 589.084 1332.55 570.176 1333.14 564.084Z" fill="#263238"/>
<path d="M1400.58 546.226C1400.58 546.226 1418.09 535.512 1410.31 524.272C1402.54 513.033 1406.29 536.668 1400.58 546.226Z" fill="#263238"/>
<path d="M1338.15 574.833C1334.27 579.175 1332.26 584.879 1332.58 590.695C1333.07 598.398 1340.64 599.764 1346.59 595.562C1352.54 591.36 1358.18 583.167 1354.75 576.409C1353.98 574.935 1352.87 573.675 1351.49 572.746C1350.12 571.816 1348.53 571.247 1346.88 571.09C1345.23 570.933 1343.56 571.194 1342.04 571.848C1340.51 572.502 1339.17 573.529 1338.15 574.833V574.833Z" fill="#FFC3BD"/>
<path opacity="0.1" d="M1359.12 628.265L1361.99 645.002C1361.74 640.858 1362.31 636.704 1363.67 632.78C1365.03 628.856 1367.15 625.24 1369.91 622.138C1367.76 622.275 1365.68 622.898 1363.81 623.96C1361.94 625.021 1360.34 626.494 1359.12 628.265V628.265Z" fill="black"/>
<path d="M1111.96 737.09H1101.91V796.37H1111.96V737.09Z" fill="#407BFF"/>
<path opacity="0.7" d="M1111.96 737.09H1101.91V796.37H1111.96V737.09Z" fill="white"/>
<path d="M1042.91 619.372H1017.87C1013.37 619.372 1009.05 621.161 1005.86 624.346C1002.68 627.53 1000.89 631.85 1000.89 636.354V752.357C1000.89 754.587 1001.33 756.795 1002.18 758.855C1003.04 760.916 1004.29 762.788 1005.86 764.365C1007.44 765.942 1009.31 767.193 1011.37 768.046C1013.43 768.9 1015.64 769.339 1017.87 769.339H1042.91V619.372Z" fill="#407BFF"/>
<path d="M1196.03 619.372H1026.63C1017.25 619.372 1009.64 626.975 1009.64 636.354V752.322C1009.64 761.701 1017.25 769.304 1026.63 769.304H1196.03C1205.4 769.304 1213.01 761.701 1213.01 752.322V636.354C1213.01 626.975 1205.4 619.372 1196.03 619.372Z" fill="#407BFF"/>
<path opacity="0.5" d="M1196.03 619.372H1026.63C1017.25 619.372 1009.64 626.975 1009.64 636.354V752.322C1009.64 761.701 1017.25 769.304 1026.63 769.304H1196.03C1205.4 769.304 1213.01 761.701 1213.01 752.322V636.354C1213.01 626.975 1205.4 619.372 1196.03 619.372Z" fill="white"/>
<path d="M1196.03 626.375H1026.63C1021.11 626.375 1016.65 630.842 1016.65 636.354V752.322C1016.65 757.833 1021.11 762.301 1026.63 762.301H1196.03C1201.54 762.301 1206 757.833 1206 752.322V636.354C1206 630.842 1201.54 626.375 1196.03 626.375Z" fill="#263238"/>
<path d="M1070.36 821.23C1070.65 811.727 1074.63 802.711 1081.46 796.092C1088.29 789.473 1097.42 785.772 1106.93 785.772C1116.44 785.772 1125.57 789.473 1132.4 796.092C1139.23 802.711 1143.21 811.727 1143.5 821.23H1070.36Z" fill="#407BFF"/>
<path d="M1156.67 808.765H1083.52V820.635H1229.81V815.768L1156.67 808.765Z" fill="#407BFF"/>
<path opacity="0.8" d="M1156.67 808.765H1083.52V820.635H1229.81V815.768L1156.67 808.765Z" fill="white"/>
<path d="M1156.67 820.635H1083.52V808.765L1156.67 815.768V820.635Z" fill="#407BFF"/>
<path opacity="0.6" d="M1156.67 820.635H1083.52V808.765L1156.67 815.768V820.635Z" fill="white"/>
<path d="M1317.95 1229.29H1167.07C1164.06 1229.29 1161.08 1228.71 1158.29 1227.56C1155.51 1226.41 1152.98 1224.72 1150.85 1222.59C1148.72 1220.47 1147.03 1217.94 1145.88 1215.16C1144.73 1212.38 1144.13 1209.4 1144.13 1206.39V859.466C1144.13 856.456 1144.73 853.476 1145.88 850.695C1147.03 847.914 1148.72 845.388 1150.85 843.262C1152.98 841.135 1155.51 839.449 1158.29 838.3C1161.08 837.151 1164.06 836.562 1167.07 836.567H1317.95C1319.57 836.567 1321.13 837.212 1322.28 838.362C1323.43 839.511 1324.07 841.069 1324.07 842.694C1324.07 844.32 1323.43 845.878 1322.28 847.027C1321.13 848.176 1319.57 848.822 1317.95 848.822H1167.07C1165.67 848.799 1164.29 849.053 1162.99 849.571C1161.7 850.088 1160.52 850.858 1159.53 851.836C1158.53 852.814 1157.74 853.98 1157.21 855.266C1156.67 856.552 1156.39 857.932 1156.39 859.326V1206.25C1156.39 1207.64 1156.67 1209.02 1157.21 1210.31C1157.74 1211.6 1158.53 1212.76 1159.53 1213.74C1160.52 1214.72 1161.7 1215.49 1162.99 1216.01C1164.29 1216.52 1165.67 1216.78 1167.07 1216.75H1317.95C1319.57 1216.75 1321.13 1217.4 1322.28 1218.55C1323.43 1219.7 1324.07 1221.26 1324.07 1222.88C1324.11 1223.71 1323.98 1224.54 1323.69 1225.31C1323.4 1226.09 1322.95 1226.8 1322.38 1227.4C1321.81 1228 1321.12 1228.47 1320.36 1228.8C1319.6 1229.12 1318.77 1229.29 1317.95 1229.29V1229.29Z" fill="#263238"/>
<g opacity="0.5">
<path opacity="0.5" d="M1317.95 1229.29H1167.07C1164.06 1229.29 1161.08 1228.71 1158.29 1227.56C1155.51 1226.41 1152.98 1224.72 1150.85 1222.59C1148.72 1220.47 1147.03 1217.94 1145.88 1215.16C1144.73 1212.38 1144.13 1209.4 1144.13 1206.39V859.466C1144.13 856.456 1144.73 853.476 1145.88 850.695C1147.03 847.914 1148.72 845.388 1150.85 843.262C1152.98 841.135 1155.51 839.449 1158.29 838.3C1161.08 837.151 1164.06 836.562 1167.07 836.567H1317.95C1319.57 836.567 1321.13 837.212 1322.28 838.362C1323.43 839.511 1324.07 841.069 1324.07 842.694C1324.07 844.32 1323.43 845.878 1322.28 847.027C1321.13 848.176 1319.57 848.822 1317.95 848.822H1167.07C1165.67 848.799 1164.29 849.053 1162.99 849.571C1161.7 850.088 1160.52 850.858 1159.53 851.836C1158.53 852.814 1157.74 853.98 1157.21 855.266C1156.67 856.552 1156.39 857.932 1156.39 859.326V1206.25C1156.39 1207.64 1156.67 1209.02 1157.21 1210.31C1157.74 1211.6 1158.53 1212.76 1159.53 1213.74C1160.52 1214.72 1161.7 1215.49 1162.99 1216.01C1164.29 1216.52 1165.67 1216.78 1167.07 1216.75H1317.95C1319.57 1216.75 1321.13 1217.4 1322.28 1218.55C1323.43 1219.7 1324.07 1221.26 1324.07 1222.88C1324.11 1223.71 1323.98 1224.54 1323.69 1225.31C1323.4 1226.09 1322.95 1226.8 1322.38 1227.4C1321.81 1228 1321.12 1228.47 1320.36 1228.8C1319.6 1229.12 1318.77 1229.29 1317.95 1229.29V1229.29Z" fill="white"/>
</g>
<path d="M1166.47 820.635H952.219V838.598H1166.47V820.635Z" fill="#407BFF"/>
<path opacity="0.2" d="M1166.47 820.635H952.219V838.598H1166.47V820.635Z" fill="white"/>
<path d="M1339.41 820.635H1156.67V838.598H1339.41V820.635Z" fill="#407BFF"/>
<path opacity="0.5" d="M1339.41 820.635H1156.67V838.598H1339.41V820.635Z" fill="white"/>
<path d="M1275.33 1102.01L1285.45 1204.32H1261.22L1236.96 1104.67L1275.33 1102.01Z" fill="#EEC1BB"/>
<path d="M1258.95 1197.5L1289.86 1198.02C1290.43 1198.03 1290.97 1198.24 1291.4 1198.6C1291.84 1198.96 1292.13 1199.46 1292.25 1200.02L1297.43 1225.26C1297.65 1226.33 1297.43 1227.45 1296.84 1228.37C1296.24 1229.28 1295.31 1229.93 1294.24 1230.16H1293.37C1282.2 1229.78 1272.36 1229.01 1258.35 1228.76C1242 1228.48 1246.1 1230.51 1226.84 1230.48C1215.25 1230.48 1213.36 1217.21 1218.26 1216.65C1240.84 1214.2 1243.3 1207.44 1252.12 1199.53C1254.07 1198.04 1256.5 1197.31 1258.95 1197.5V1197.5Z" fill="#263238"/>
<path opacity="0.1" d="M1282.83 1177.61L1275.33 1102.01L1236.96 1104.67L1254.71 1177.61H1282.83Z" fill="black"/>
<path d="M1441.23 866.119L1341.86 869.62C1341.86 869.62 1208 916.435 1204.5 952.394C1200.65 989.44 1245.61 1159.65 1245.61 1159.65H1285.56C1285.56 1159.65 1274.53 1034.75 1270.33 996.513C1266.12 958.277 1409.65 970.917 1434.58 938.319C1457.37 908.416 1441.23 866.119 1441.23 866.119Z" fill="#263238"/>
<path opacity="0.2" d="M1441.23 866.119L1341.86 869.62C1341.86 869.62 1208 916.435 1204.5 952.394C1200.65 989.44 1245.61 1159.65 1245.61 1159.65H1285.56C1285.56 1159.65 1274.53 1034.75 1270.33 996.513C1266.12 958.277 1409.65 970.917 1434.58 938.319C1457.37 908.416 1441.23 866.119 1441.23 866.119Z" fill="black"/>
<path d="M1292.21 1154.04L1293.09 1168.15H1243.72L1238.88 1154.04H1292.21Z" fill="#407BFF"/>
<path d="M1182.86 1106.88L1185.52 1204.32H1161.71L1147.6 1106.88H1182.86Z" fill="#EEC1BB"/>
<path d="M1158.42 1197.5L1189.34 1198.02C1189.9 1198.03 1190.45 1198.24 1190.88 1198.6C1191.31 1198.96 1191.61 1199.46 1191.72 1200.02L1196.9 1225.26C1197.12 1226.33 1196.91 1227.45 1196.31 1228.37C1195.72 1229.28 1194.78 1229.93 1193.71 1230.16H1192.84C1181.67 1229.78 1171.83 1229.01 1157.82 1228.76C1141.44 1228.48 1145.57 1230.52 1126.31 1230.48C1114.72 1230.48 1112.83 1217.21 1117.73 1216.65C1140.32 1214.2 1142.77 1207.44 1151.59 1199.53C1153.54 1198.03 1155.97 1197.31 1158.42 1197.5V1197.5Z" fill="#263238"/>
<path opacity="0.1" d="M1184.79 1177.54L1182.86 1106.88H1147.6L1157.86 1177.61C1165.53 1177.64 1176.07 1177.57 1184.79 1177.54Z" fill="black"/>
<path d="M1398.02 874.347C1398.02 874.347 1406.29 949.908 1329.43 953.445C1252.57 956.981 1192.56 965.77 1190.81 993.116C1189.06 1020.46 1190.81 1159.79 1190.81 1159.79H1149.04C1149.04 1159.79 1132.79 1071.69 1126.45 1017.07C1120.29 964.019 1108.94 925.538 1163.46 907.576C1221.34 888.458 1324.21 870.811 1324.21 870.811L1398.3 866.119L1398.02 874.347Z" fill="#263238"/>
<path d="M1196.97 1154.04L1194.34 1168.15H1148.48L1143.64 1154.04H1196.97Z" fill="#407BFF"/>
<path d="M1414.59 657.572C1414.59 657.572 1414.59 640.555 1380.17 642.516C1343.61 644.617 1350.51 660.934 1350.51 660.934L1414.59 657.572Z" fill="#407BFF"/>
<path opacity="0.3" d="M1414.59 657.572C1414.59 657.572 1414.59 640.555 1380.17 642.516C1343.61 644.617 1350.51 660.934 1350.51 660.934L1414.59 657.572Z" fill="black"/>
<path d="M1446.66 733.904C1444.35 767.553 1445.15 868.78 1445.15 868.78C1445.15 868.78 1371.62 873.612 1313.92 871.721L1307.23 677.006C1307.26 673.563 1308.32 670.208 1310.28 667.378C1312.24 664.549 1315.01 662.376 1318.23 661.144C1334.54 654.807 1372.85 647.629 1432.76 655.507C1453.42 658.273 1449.39 694.128 1446.66 733.904Z" fill="#407BFF"/>
<path d="M1319.03 732.609C1319.03 732.609 1290.46 803.338 1262.55 810.971C1234.65 818.604 1192.52 812.407 1192.52 812.407L1179.5 815.908L1166.75 814.017H1166.3L1151.87 813.667C1151.35 813.711 1150.83 813.604 1150.37 813.362C1149.91 813.119 1149.53 812.749 1149.27 812.296C1149.01 811.844 1148.89 811.327 1148.92 810.807C1148.94 810.286 1149.12 809.785 1149.42 809.36L1154.6 802.358C1155.04 801.783 1155.63 801.355 1156.32 801.132L1170.01 796.72C1170.56 796.599 1171.14 796.599 1171.69 796.72L1192.7 800.047C1192.7 800.047 1251 790.488 1256.92 785.095C1262.83 779.703 1280.45 723.155 1280.45 723.155L1319.03 732.609Z" fill="#EEC1BB"/>
<path opacity="0.1" d="M1318.3 699.695C1318.3 699.695 1313.85 704.982 1308.46 712.615L1310.38 768.988C1331.85 759.5 1340.36 704.247 1340.36 704.247L1326.35 694.373L1318.3 699.695Z" fill="black"/>
<path d="M1336.26 662.544C1315.53 655.752 1286.33 671.333 1275.16 736.6L1318.23 749.17C1318.23 749.17 1365.88 672.278 1336.26 662.544Z" fill="#407BFF"/>
<path d="M1363.67 990.105H1331.29V1085.03H1363.67V990.105Z" fill="#263238"/>
<path opacity="0.6" d="M1363.67 990.105H1331.29V1085.03H1363.67V990.105Z" fill="white"/>
<path d="M1368.68 1171.03V1050.44H1326.24V1171.03L1229.64 1184.44V1197.85L1347.46 1187.8L1465.29 1197.85V1184.44L1368.68 1171.03Z" fill="#263238"/>
<path d="M1228.24 1230.73C1235.3 1230.73 1241.02 1225 1241.02 1217.94C1241.02 1210.89 1235.3 1205.16 1228.24 1205.16C1221.18 1205.16 1215.46 1210.89 1215.46 1217.94C1215.46 1225 1221.18 1230.73 1228.24 1230.73Z" fill="#407BFF"/>
<path d="M1465.29 1230.73C1472.35 1230.73 1478.07 1225 1478.07 1217.94C1478.07 1210.89 1472.35 1205.16 1465.29 1205.16C1458.23 1205.16 1452.51 1210.89 1452.51 1217.94C1452.51 1225 1458.23 1230.73 1465.29 1230.73Z" fill="#407BFF"/>
<path d="M1347.46 1230.73C1354.52 1230.73 1360.24 1225 1360.24 1217.94C1360.24 1210.89 1354.52 1205.16 1347.46 1205.16C1340.4 1205.16 1334.68 1210.89 1334.68 1217.94C1334.68 1225 1340.4 1230.73 1347.46 1230.73Z" fill="#407BFF"/>
<path opacity="0.3" d="M1363.67 990.105H1331.29V1013.57H1363.67V990.105Z" fill="black"/>
<path d="M1475.51 774.941H1369.98C1361.68 774.949 1353.69 778.049 1347.55 783.637C1341.42 789.225 1337.59 796.899 1336.82 805.159L1327.93 900.503C1326.94 911.011 1322.2 920.813 1314.58 928.116C1306.97 935.42 1296.97 939.737 1286.43 940.28L1184.58 945.392C1178.61 945.697 1173 948.28 1168.89 952.606C1164.78 956.933 1162.48 962.673 1162.48 968.642V970.777C1162.48 975.894 1164.51 980.802 1168.13 984.42C1171.75 988.038 1176.66 990.071 1181.77 990.071H1491.97L1508.67 811.497C1509.12 806.871 1508.6 802.202 1507.13 797.791C1505.67 793.379 1503.3 789.322 1500.18 785.879C1497.06 782.437 1493.25 779.686 1489 777.802C1484.75 775.919 1480.16 774.944 1475.51 774.941V774.941Z" fill="#407BFF"/>
<path opacity="0.3" d="M1475.51 774.941H1369.98C1361.68 774.949 1353.69 778.049 1347.55 783.637C1341.42 789.225 1337.59 796.899 1336.82 805.159L1327.93 900.503C1326.94 911.011 1322.2 920.813 1314.58 928.116C1306.97 935.42 1296.97 939.737 1286.43 940.28L1184.58 945.392C1178.61 945.697 1173 948.28 1168.89 952.606C1164.78 956.933 1162.48 962.673 1162.48 968.642V970.777C1162.48 975.894 1164.51 980.802 1168.13 984.42C1171.75 988.038 1176.66 990.071 1181.77 990.071H1491.97L1508.67 811.497C1509.12 806.871 1508.6 802.202 1507.13 797.791C1505.67 793.379 1503.3 789.322 1500.18 785.879C1497.06 782.437 1493.25 779.686 1489 777.802C1484.75 775.919 1480.16 774.944 1475.51 774.941V774.941Z" fill="white"/>
<path d="M1233.28 882.366H1247.81V958.382C1247.81 960.239 1247.07 962.021 1245.76 963.334C1244.45 964.647 1242.67 965.385 1240.81 965.385H1240.28C1238.43 965.385 1236.65 964.647 1235.33 963.334C1234.02 962.021 1233.28 960.239 1233.28 958.382V882.366Z" fill="#263238"/>
<path opacity="0.2" d="M1233.28 882.366H1247.81V958.382C1247.81 960.239 1247.07 962.021 1245.76 963.334C1244.45 964.647 1242.67 965.385 1240.81 965.385H1240.28C1238.43 965.385 1236.65 964.647 1235.33 963.334C1234.02 962.021 1233.28 960.239 1233.28 958.382V882.366Z" fill="white"/>
<path d="M1303.34 860.552H1271.03V887.338H1303.41C1305.23 887.431 1307.05 887.153 1308.75 886.522C1310.46 885.891 1312.02 884.919 1313.34 883.667C1314.66 882.414 1315.71 880.906 1316.42 879.235C1317.14 877.563 1317.51 875.764 1317.51 873.945C1317.51 872.126 1317.14 870.326 1316.42 868.655C1315.71 866.984 1314.66 865.476 1313.34 864.223C1312.02 862.97 1310.46 861.999 1308.75 861.368C1307.05 860.736 1305.23 860.459 1303.41 860.552H1303.34Z" fill="#407BFF"/>
<path opacity="0.5" d="M1303.34 860.552H1271.03V887.338H1303.41C1305.23 887.431 1307.05 887.153 1308.75 886.522C1310.46 885.891 1312.02 884.919 1313.34 883.667C1314.66 882.414 1315.71 880.906 1316.42 879.235C1317.14 877.563 1317.51 875.764 1317.51 873.945C1317.51 872.126 1317.14 870.326 1316.42 868.655C1315.71 866.984 1314.66 865.476 1313.34 864.223C1312.02 862.97 1310.46 861.999 1308.75 861.368C1307.05 860.736 1305.23 860.459 1303.41 860.552H1303.34Z" fill="white"/>
<path d="M1290.42 860.552H1177.22C1170.09 860.552 1164.3 866.336 1164.3 873.472V874.453C1164.3 881.588 1170.09 887.373 1177.22 887.373H1290.42C1297.56 887.373 1303.34 881.588 1303.34 874.453V873.472C1303.34 866.336 1297.56 860.552 1290.42 860.552Z" fill="#407BFF"/>
<path opacity="0.3" d="M1290.42 860.552H1177.22C1170.09 860.552 1164.3 866.336 1164.3 873.472V874.453C1164.3 881.588 1170.09 887.373 1177.22 887.373H1290.42C1297.56 887.373 1303.34 881.588 1303.34 874.453V873.472C1303.34 866.336 1297.56 860.552 1290.42 860.552Z" fill="white"/>
<path d="M1499.25 990.105H1344.1L1361.4 805.334C1362.17 797.074 1366 789.4 1372.13 783.812C1378.27 778.224 1386.26 775.123 1394.56 775.116H1500.09C1504.73 775.121 1509.31 776.092 1513.55 777.967C1517.78 779.842 1521.59 782.581 1524.71 786.007C1527.83 789.434 1530.2 793.474 1531.67 797.868C1533.14 802.263 1533.68 806.917 1533.25 811.531L1518.16 973.088C1517.67 977.759 1515.46 982.083 1511.97 985.225C1508.48 988.367 1503.95 990.105 1499.25 990.105Z" fill="#407BFF"/>
<path opacity="0.5" d="M1499.25 990.105H1344.1L1361.4 805.334C1362.17 797.074 1366 789.4 1372.13 783.812C1378.27 778.224 1386.26 775.123 1394.56 775.116H1500.09C1504.73 775.121 1509.31 776.092 1513.55 777.967C1517.78 779.842 1521.59 782.581 1524.71 786.007C1527.83 789.434 1530.2 793.474 1531.67 797.868C1533.14 802.263 1533.68 806.917 1533.25 811.531L1518.16 973.088C1517.67 977.759 1515.46 982.083 1511.97 985.225C1508.48 988.367 1503.95 990.105 1499.25 990.105Z" fill="white"/>
<path d="M1136.82 1229.29H985.938C982.928 1229.29 979.947 1228.71 977.164 1227.56C974.382 1226.41 971.854 1224.72 969.723 1222.59C967.593 1220.47 965.903 1217.94 964.75 1215.16C963.597 1212.38 963.004 1209.4 963.004 1206.39V859.466C963.004 856.456 963.597 853.476 964.75 850.695C965.903 847.914 967.593 845.388 969.723 843.262C971.854 841.135 974.382 839.449 977.164 838.3C979.947 837.151 982.928 836.562 985.938 836.567H1136.82C1138.44 836.567 1140 837.212 1141.15 838.362C1142.3 839.511 1142.94 841.069 1142.94 842.694V842.694C1142.94 844.32 1142.3 845.878 1141.15 847.027C1140 848.176 1138.44 848.822 1136.82 848.822H985.938C984.544 848.799 983.16 849.053 981.865 849.571C980.57 850.088 979.391 850.858 978.397 851.836C977.403 852.814 976.614 853.98 976.075 855.266C975.536 856.552 975.259 857.932 975.259 859.326V1206.25C975.259 1207.64 975.536 1209.02 976.075 1210.31C976.614 1211.6 977.403 1212.76 978.397 1213.74C979.391 1214.72 980.57 1215.49 981.865 1216.01C983.16 1216.52 984.544 1216.78 985.938 1216.75H1136.82C1138.44 1216.75 1140 1217.4 1141.15 1218.55C1142.3 1219.7 1142.94 1221.26 1142.94 1222.88V1222.88C1142.98 1223.71 1142.85 1224.54 1142.56 1225.31C1142.27 1226.09 1141.82 1226.8 1141.25 1227.4C1140.68 1228 1139.99 1228.47 1139.23 1228.8C1138.47 1229.12 1137.64 1229.29 1136.82 1229.29V1229.29Z" fill="#263238"/>
<g opacity="0.5">
<path opacity="0.5" d="M1136.82 1229.29H985.938C982.928 1229.29 979.947 1228.71 977.164 1227.56C974.382 1226.41 971.854 1224.72 969.723 1222.59C967.593 1220.47 965.903 1217.94 964.75 1215.16C963.597 1212.38 963.004 1209.4 963.004 1206.39V859.466C963.004 856.456 963.597 853.476 964.75 850.695C965.903 847.914 967.593 845.388 969.723 843.262C971.854 841.135 974.382 839.449 977.164 838.3C979.947 837.151 982.928 836.562 985.938 836.567H1136.82C1138.44 836.567 1140 837.212 1141.15 838.362C1142.3 839.511 1142.94 841.069 1142.94 842.694V842.694C1142.94 844.32 1142.3 845.878 1141.15 847.027C1140 848.176 1138.44 848.822 1136.82 848.822H985.938C984.544 848.799 983.16 849.053 981.865 849.571C980.57 850.088 979.391 850.858 978.397 851.836C977.403 852.814 976.614 853.98 976.075 855.266C975.536 856.552 975.259 857.932 975.259 859.326V1206.25C975.259 1207.64 975.536 1209.02 976.075 1210.31C976.614 1211.6 977.403 1212.76 978.397 1213.74C979.391 1214.72 980.57 1215.49 981.865 1216.01C983.16 1216.52 984.544 1216.78 985.938 1216.75H1136.82C1138.44 1216.75 1140 1217.4 1141.15 1218.55C1142.3 1219.7 1142.94 1221.26 1142.94 1222.88V1222.88C1142.98 1223.71 1142.85 1224.54 1142.56 1225.31C1142.27 1226.09 1141.82 1226.8 1141.25 1227.4C1140.68 1228 1139.99 1228.47 1139.23 1228.8C1138.47 1229.12 1137.64 1229.29 1136.82 1229.29V1229.29Z" fill="white"/>
</g>
<path d="M1037.09 654.036L1026.59 647.033C1026.32 646.862 1026.1 646.627 1025.95 646.348C1025.8 646.07 1025.72 645.757 1025.72 645.44C1025.72 645.122 1025.8 644.81 1025.95 644.532C1026.1 644.253 1026.32 644.018 1026.59 643.847L1037.09 636.844C1037.48 636.59 1037.95 636.5 1038.4 636.592C1038.86 636.683 1039.25 636.95 1039.51 637.334V637.334C1039.75 637.717 1039.84 638.179 1039.75 638.623C1039.65 639.068 1039.39 639.459 1039.02 639.715L1030.3 645.492L1039.02 651.27C1039.39 651.526 1039.65 651.917 1039.75 652.361C1039.84 652.805 1039.75 653.268 1039.51 653.651C1039.23 654.01 1038.83 654.251 1038.38 654.322C1037.93 654.394 1037.47 654.291 1037.09 654.036Z" fill="white"/>
<path d="M1060.34 653.546C1060.13 653.162 1060.08 652.713 1060.19 652.29C1060.3 651.867 1060.57 651.502 1060.94 651.27L1069.66 645.492L1060.94 639.61C1060.56 639.354 1060.3 638.96 1060.22 638.514C1060.13 638.067 1060.23 637.605 1060.48 637.229V637.229C1060.61 637.04 1060.77 636.877 1060.95 636.751C1061.14 636.624 1061.35 636.535 1061.57 636.489C1061.79 636.444 1062.02 636.442 1062.24 636.485C1062.47 636.528 1062.68 636.614 1062.87 636.739L1073.37 643.742C1073.64 643.913 1073.86 644.148 1074.01 644.427C1074.16 644.705 1074.24 645.017 1074.24 645.335C1074.24 645.652 1074.16 645.964 1074.01 646.243C1073.86 646.521 1073.64 646.757 1073.37 646.928L1062.87 653.931C1062.68 654.078 1062.46 654.185 1062.23 654.246C1062 654.306 1061.76 654.319 1061.52 654.283C1061.29 654.247 1061.06 654.163 1060.86 654.036C1060.65 653.909 1060.48 653.742 1060.34 653.546Z" fill="white"/>
<path d="M1045.95 658.273C1045.74 658.205 1045.53 658.095 1045.36 657.949C1045.19 657.803 1045.04 657.624 1044.94 657.422C1044.83 657.22 1044.77 656.999 1044.75 656.772C1044.74 656.546 1044.76 656.318 1044.83 656.102L1052.08 633.202C1052.14 632.987 1052.25 632.786 1052.39 632.612C1052.54 632.438 1052.71 632.295 1052.91 632.19C1053.11 632.086 1053.33 632.022 1053.55 632.004C1053.78 631.985 1054 632.012 1054.22 632.082V632.082C1054.43 632.146 1054.63 632.252 1054.81 632.395C1054.98 632.538 1055.12 632.714 1055.23 632.913C1055.33 633.112 1055.4 633.33 1055.42 633.554C1055.43 633.778 1055.41 634.004 1055.34 634.218L1048.12 657.152C1048.06 657.369 1047.95 657.571 1047.8 657.745C1047.65 657.919 1047.47 658.062 1047.27 658.166C1047.07 658.271 1046.85 658.334 1046.62 658.352C1046.4 658.37 1046.17 658.343 1045.95 658.273V658.273Z" fill="white"/>
<path d="M1105.41 675.78H1027.43C1027.19 675.78 1026.96 675.733 1026.74 675.641C1026.52 675.549 1026.32 675.414 1026.16 675.245C1025.99 675.075 1025.86 674.874 1025.77 674.654C1025.68 674.433 1025.64 674.197 1025.64 673.959C1025.64 673.722 1025.68 673.486 1025.77 673.265C1025.86 673.045 1025.99 672.844 1026.16 672.674C1026.32 672.504 1026.52 672.37 1026.74 672.278C1026.96 672.186 1027.19 672.139 1027.43 672.139H1105.41C1105.89 672.139 1106.35 672.33 1106.7 672.672C1107.04 673.013 1107.23 673.476 1107.23 673.959V673.959C1107.23 674.198 1107.18 674.435 1107.09 674.656C1107 674.877 1106.86 675.078 1106.7 675.247C1106.53 675.416 1106.33 675.55 1106.1 675.642C1105.88 675.733 1105.65 675.78 1105.41 675.78V675.78Z" fill="white"/>
<path d="M1194.97 675.78H1116.96C1116.72 675.78 1116.49 675.733 1116.27 675.642C1116.04 675.55 1115.84 675.416 1115.68 675.247C1115.51 675.078 1115.37 674.877 1115.28 674.656C1115.19 674.435 1115.14 674.199 1115.14 673.959V673.959C1115.18 673.501 1115.38 673.073 1115.72 672.762C1116.06 672.45 1116.5 672.277 1116.96 672.279H1194.91C1195.39 672.279 1195.85 672.471 1196.19 672.812C1196.53 673.154 1196.73 673.617 1196.73 674.1V674.1C1196.69 674.546 1196.49 674.964 1196.17 675.274C1195.85 675.584 1195.42 675.764 1194.97 675.78V675.78Z" fill="white"/>
<path d="M1072 691.817H1027.43C1027.19 691.817 1026.96 691.77 1026.74 691.678C1026.52 691.586 1026.32 691.451 1026.16 691.282C1025.99 691.112 1025.86 690.911 1025.77 690.69C1025.68 690.47 1025.64 690.234 1025.64 689.996C1025.64 689.523 1025.83 689.068 1026.17 688.733C1026.5 688.399 1026.96 688.21 1027.43 688.21H1072C1072.48 688.21 1072.94 688.397 1073.28 688.731C1073.62 689.065 1073.82 689.519 1073.82 689.996V689.996C1073.82 690.479 1073.63 690.942 1073.29 691.284C1072.95 691.625 1072.49 691.817 1072 691.817Z" fill="white"/>
<path d="M1156.6 691.817H1083.59C1083.36 691.817 1083.12 691.77 1082.9 691.678C1082.68 691.586 1082.48 691.451 1082.32 691.282C1082.15 691.112 1082.02 690.911 1081.93 690.69C1081.85 690.47 1081.8 690.234 1081.81 689.996C1081.81 689.523 1082 689.068 1082.33 688.733C1082.67 688.399 1083.12 688.21 1083.59 688.21H1156.6C1157.07 688.21 1157.53 688.399 1157.86 688.733C1158.2 689.068 1158.38 689.523 1158.38 689.996V689.996C1158.39 690.234 1158.35 690.47 1158.26 690.69C1158.17 690.911 1158.04 691.112 1157.87 691.282C1157.71 691.451 1157.51 691.586 1157.29 691.678C1157.07 691.77 1156.84 691.817 1156.6 691.817Z" fill="white"/>
<path d="M1146.2 707.889H1027.43C1026.95 707.879 1026.5 707.683 1026.17 707.343C1025.83 707.003 1025.64 706.545 1025.64 706.068V706.068C1025.64 705.83 1025.68 705.594 1025.77 705.374C1025.86 705.153 1025.99 704.952 1026.16 704.782C1026.32 704.613 1026.52 704.478 1026.74 704.386C1026.96 704.294 1027.19 704.247 1027.43 704.247H1146.2C1146.68 704.247 1147.15 704.439 1147.49 704.78C1147.83 705.122 1148.02 705.585 1148.02 706.068V706.068C1148.02 706.551 1147.83 707.014 1147.49 707.355C1147.15 707.697 1146.68 707.889 1146.2 707.889V707.889Z" fill="white"/>
<path d="M1182.61 707.889H1157.82C1157.34 707.889 1156.88 707.697 1156.54 707.355C1156.2 707.014 1156 706.551 1156 706.068V706.068C1156 705.585 1156.2 705.122 1156.54 704.78C1156.88 704.439 1157.34 704.247 1157.82 704.247H1182.61C1183.1 704.247 1183.56 704.439 1183.9 704.78C1184.24 705.122 1184.44 705.585 1184.44 706.068V706.068C1184.44 706.551 1184.24 707.014 1183.9 707.355C1183.56 707.697 1183.1 707.889 1182.61 707.889V707.889Z" fill="white"/>
<path d="M1082.89 723.925H1027.43C1027.19 723.925 1026.96 723.878 1026.74 723.786C1026.52 723.694 1026.32 723.559 1026.16 723.39C1025.99 723.22 1025.86 723.019 1025.77 722.799C1025.68 722.578 1025.64 722.342 1025.64 722.105C1025.64 721.867 1025.68 721.631 1025.77 721.41C1025.86 721.19 1025.99 720.989 1026.16 720.819C1026.32 720.649 1026.52 720.515 1026.74 720.423C1026.96 720.331 1027.19 720.284 1027.43 720.284H1082.89C1083.38 720.284 1083.84 720.476 1084.18 720.817C1084.52 721.158 1084.71 721.622 1084.71 722.105V722.105C1084.71 722.587 1084.52 723.05 1084.18 723.392C1083.84 723.733 1083.38 723.925 1082.89 723.925V723.925Z" fill="white"/>
<path d="M1163.53 723.925H1094.52C1094.04 723.925 1093.57 723.733 1093.23 723.392C1092.89 723.05 1092.7 722.587 1092.7 722.105V722.105C1092.7 721.622 1092.89 721.158 1093.23 720.817C1093.57 720.476 1094.04 720.284 1094.52 720.284H1163.53C1164.01 720.284 1164.48 720.476 1164.82 720.817C1165.16 721.158 1165.35 721.622 1165.35 722.105V722.105C1165.35 722.587 1165.16 723.05 1164.82 723.392C1164.48 723.733 1164.01 723.925 1163.53 723.925V723.925Z" fill="white"/>
<path d="M1105.41 739.962H1027.43C1027.19 739.962 1026.96 739.915 1026.74 739.823C1026.52 739.731 1026.32 739.596 1026.16 739.426C1025.99 739.257 1025.86 739.056 1025.77 738.835C1025.68 738.615 1025.64 738.379 1025.64 738.141C1025.64 737.667 1025.83 737.213 1026.17 736.878C1026.5 736.543 1026.96 736.355 1027.43 736.355H1105.41C1105.65 736.351 1105.88 736.393 1106.1 736.481C1106.32 736.569 1106.52 736.7 1106.69 736.866C1106.86 737.032 1107 737.231 1107.09 737.45C1107.18 737.668 1107.23 737.904 1107.23 738.141C1107.23 738.624 1107.04 739.087 1106.7 739.429C1106.35 739.77 1105.89 739.962 1105.41 739.962V739.962Z" fill="white"/>
<path d="M1172.04 739.962H1116.96C1116.48 739.962 1116.02 739.77 1115.68 739.429C1115.33 739.087 1115.14 738.624 1115.14 738.141V738.141C1115.14 737.904 1115.19 737.668 1115.28 737.45C1115.37 737.231 1115.51 737.032 1115.68 736.866C1115.85 736.7 1116.05 736.569 1116.27 736.481C1116.49 736.393 1116.73 736.351 1116.96 736.355H1171.97C1172.44 736.355 1172.9 736.543 1173.23 736.878C1173.57 737.213 1173.76 737.667 1173.76 738.141V738.141C1173.77 738.609 1173.59 739.062 1173.27 739.402C1172.95 739.743 1172.51 739.944 1172.04 739.962Z" fill="white"/>
<path d="M495.35 426.547C496.786 443.039 493.214 472.906 480.784 482.57C501.058 489.888 522.556 502.493 536.282 519.125C549.903 499.307 534.426 487.997 534.426 487.997C516.919 481.765 518.775 468.494 523.292 456.274L495.35 426.547Z" fill="#B97964"/>
<path d="M561.633 412.331C561.423 414.397 562.403 416.183 563.769 416.323C565.134 416.463 566.36 414.852 566.57 412.821C566.78 410.79 565.799 408.97 564.434 408.829C563.068 408.689 561.878 410.265 561.633 412.331Z" fill="#263238"/>
<path d="M563.909 408.865L568.986 407.884C568.986 407.884 566.079 411.631 563.909 408.865Z" fill="#263238"/>
<path d="M562.333 414.537C563.763 419.462 565.847 424.172 568.53 428.542C567.395 429.199 566.132 429.602 564.826 429.723C563.52 429.843 562.204 429.68 560.967 429.243L562.333 414.537Z" fill="#A24E3F"/>
<path d="M567.515 401.441C567.839 401.39 568.136 401.229 568.355 400.986C568.572 400.753 568.692 400.446 568.692 400.128C568.692 399.81 568.572 399.504 568.355 399.27C566.916 397.956 565.182 397.006 563.299 396.5C561.417 395.994 559.44 395.948 557.536 396.364C557.268 396.549 557.079 396.829 557.008 397.147C556.936 397.465 556.987 397.798 557.151 398.08C557.259 398.26 557.413 398.407 557.598 398.506C557.783 398.604 557.992 398.651 558.201 398.64C559.715 398.351 561.276 398.418 562.759 398.838C564.242 399.257 565.607 400.017 566.745 401.056C566.948 401.271 567.221 401.407 567.515 401.441V401.441Z" fill="#263238"/>
<path d="M493.705 399.165C492.899 424.761 492.024 435.65 503.439 449.936C520.631 471.4 551.759 466.708 560.092 441.778C567.585 419.334 567.655 381.098 544.09 368.703C520.526 356.308 494.44 373.5 493.705 399.165Z" fill="#B97964"/>
<path d="M494.825 447.52C469.65 443.214 476.863 427.352 476.863 427.352C452.072 422.345 471.225 410.23 471.225 410.23C450.602 401.336 471.225 393.353 471.225 393.353C451.337 376.861 479.699 371.154 479.699 371.154C472.696 345.418 497.206 355.993 497.206 355.993C510.511 333.863 521.996 354.977 521.996 354.977C545.316 323.464 550.988 350.04 550.988 350.04C574.833 343.773 565.694 368.843 565.694 368.843C585.302 374.095 569.896 384.039 569.896 384.039C577.459 393.598 550.113 395.244 550.113 395.244C550.113 395.244 563.138 416.253 550.113 422.03L516.989 447.415C516.989 447.415 501.688 441.183 494.825 447.52Z" fill="#263238"/>
<path d="M519.58 426.862C519.58 426.862 537.087 384.845 523.397 348.99L534.952 345.033C534.952 345.033 550.043 397.17 519.58 426.862Z" fill="#407BFF"/>
<path d="M537.053 422.24C539.924 428.262 541.044 430.888 545.176 432.744C546.452 433.476 547.915 433.817 549.383 433.723C550.851 433.629 552.259 433.105 553.432 432.217C554.604 431.328 555.489 430.114 555.976 428.726C556.463 427.338 556.531 425.837 556.17 424.411C555.085 418.388 550.463 409.53 544.055 409.354C542.557 409.362 541.088 409.772 539.802 410.541C538.516 411.31 537.46 412.41 536.745 413.727C536.029 415.043 535.68 416.528 535.734 418.025C535.788 419.523 536.244 420.978 537.053 422.24V422.24Z" fill="#B97964"/>
<path d="M518.95 509.706C518.95 509.706 542.655 527.213 552.284 534.216L620.877 501.863C620.78 498.06 621.831 494.316 623.892 491.118C625.953 487.921 628.929 485.418 632.432 483.935L637.334 481.905L647.663 477.283C649.588 476.423 651.706 476.087 653.803 476.308C655.899 476.53 657.9 477.301 659.603 478.543V478.543C661.604 480.001 663.105 482.042 663.901 484.387C664.697 486.731 664.749 489.264 664.05 491.639V491.639C662.61 496.562 659.917 501.028 656.235 504.6C652.552 508.172 648.007 510.727 643.041 512.017L633.027 514.643C633.027 514.643 574.238 559.182 553.229 560.232C532.22 561.282 501.443 540.659 501.443 540.659L518.95 509.706Z" fill="#B97964"/>
<path d="M461.946 480.189C480.049 480.189 500.287 491.464 531.975 512.122C527.424 527.014 518.96 540.412 507.465 550.918C507.465 550.918 489.958 546.226 466.708 524.342C438.697 497.836 450.847 480.224 461.946 480.189Z" fill="#263238"/>
<path d="M805.789 532.641H634.218C632.774 532.664 631.343 532.38 630.017 531.808C628.692 531.236 627.503 530.389 626.53 529.323C625.557 528.257 624.821 526.997 624.372 525.625C623.922 524.253 623.769 522.801 623.923 521.366L636.844 373.675C637.152 370.621 638.57 367.787 640.829 365.709C643.087 363.63 646.03 362.453 649.099 362.4H820.67C822.112 362.377 823.542 362.66 824.866 363.233C826.19 363.805 827.377 364.652 828.347 365.719C829.318 366.786 830.05 368.047 830.496 369.419C830.941 370.791 831.089 372.242 830.929 373.675L818.009 521.366C817.701 524.414 816.289 527.244 814.037 529.321C811.786 531.398 808.851 532.579 805.789 532.641V532.641Z" fill="#407BFF"/>
<path opacity="0.4" d="M805.789 532.641H634.218C632.774 532.664 631.343 532.38 630.017 531.808C628.692 531.236 627.503 530.389 626.53 529.323C625.557 528.257 624.821 526.997 624.372 525.625C623.922 524.253 623.769 522.801 623.923 521.366L636.844 373.675C637.152 370.621 638.57 367.787 640.829 365.709C643.087 363.63 646.03 362.453 649.099 362.4H820.67C822.112 362.377 823.542 362.66 824.866 363.233C826.19 363.805 827.377 364.652 828.347 365.719C829.318 366.786 830.05 368.047 830.496 369.419C830.941 370.791 831.089 372.242 830.929 373.675L818.009 521.366C817.701 524.414 816.289 527.244 814.037 529.321C811.786 531.398 808.851 532.579 805.789 532.641V532.641Z" fill="white"/>
<path opacity="0.7" d="M806.419 525.638C807.58 525.618 808.692 525.171 809.544 524.383C810.397 523.595 810.929 522.521 811.041 521.366L823.961 373.675C824.021 373.132 823.964 372.583 823.796 372.063C823.627 371.544 823.349 371.066 822.982 370.662C822.614 370.258 822.165 369.937 821.664 369.72C821.162 369.503 820.621 369.395 820.075 369.403H648.504C647.339 369.423 646.223 369.868 645.364 370.655C644.506 371.442 643.966 372.517 643.847 373.675L630.961 521.366C630.902 521.909 630.958 522.458 631.127 522.978C631.296 523.497 631.573 523.975 631.941 524.379C632.309 524.783 632.758 525.104 633.259 525.321C633.76 525.538 634.302 525.646 634.848 525.638H806.419Z" fill="white"/>
<path d="M687.195 438.802L631.171 519.895V521.366C631.112 521.909 631.168 522.458 631.337 522.978C631.506 523.497 631.784 523.975 632.151 524.379C632.519 524.783 632.968 525.104 633.469 525.321C633.97 525.538 634.512 525.646 635.058 525.638H732.258L687.195 438.802Z" fill="#407BFF"/>
<path opacity="0.3" d="M687.195 438.802L631.171 519.895V521.366C631.112 521.909 631.168 522.458 631.337 522.978C631.506 523.497 631.784 523.975 632.151 524.379C632.519 524.783 632.968 525.104 633.469 525.321C633.97 525.538 634.512 525.646 635.058 525.638H732.258L687.195 438.802Z" fill="white"/>
<path d="M811.531 515.729L764.577 426.547L695.038 525.638H806.419C807.58 525.617 808.692 525.171 809.544 524.383C810.397 523.595 810.929 522.521 811.041 521.366L811.531 515.729Z" fill="#407BFF"/>
<path d="M746.439 410.79C746.011 415.058 744.031 419.02 740.875 421.924C737.718 424.829 733.606 426.474 729.317 426.547C727.299 426.583 725.295 426.19 723.441 425.392C721.586 424.594 719.923 423.411 718.561 421.92C717.2 420.429 716.171 418.666 715.545 416.747C714.918 414.828 714.707 412.797 714.926 410.79C715.346 406.516 717.323 402.545 720.48 399.634C723.637 396.722 727.754 395.072 732.048 394.999C734.07 394.961 736.077 395.355 737.934 396.155C739.791 396.955 741.456 398.142 742.819 399.637C744.181 401.131 745.208 402.899 745.832 404.823C746.457 406.746 746.664 408.78 746.439 410.79V410.79Z" fill="#407BFF"/>
<path opacity="0.4" d="M746.439 410.79C746.011 415.058 744.031 419.02 740.875 421.924C737.718 424.829 733.606 426.474 729.317 426.547C727.299 426.583 725.295 426.19 723.441 425.392C721.586 424.594 719.923 423.411 718.561 421.92C717.2 420.429 716.171 418.666 715.545 416.747C714.918 414.828 714.707 412.797 714.926 410.79C715.346 406.516 717.323 402.545 720.48 399.634C723.637 396.722 727.754 395.072 732.048 394.999C734.07 394.961 736.077 395.355 737.934 396.155C739.791 396.955 741.456 398.142 742.819 399.637C744.181 401.131 745.208 402.899 745.832 404.823C746.457 406.746 746.664 408.78 746.439 410.79V410.79Z" fill="white"/>
<path d="M318.282 1128.76L300.845 1180.44L327.561 1191.37L348.464 1143.68L318.282 1128.76Z" fill="#B97964"/>
<path d="M337.155 1190.07C337.018 1189.99 336.906 1189.87 336.832 1189.73C336.758 1189.59 336.724 1189.43 336.734 1189.27C336.754 1189.11 336.822 1188.97 336.929 1188.86C337.036 1188.74 337.177 1188.67 337.33 1188.64C337.89 1188.64 350.495 1185.7 355.187 1188.64C356.074 1189.18 356.715 1190.05 356.973 1191.05C357.169 1191.61 357.187 1192.22 357.024 1192.79C356.861 1193.36 356.525 1193.87 356.063 1194.24C354.277 1195.5 350.11 1194.97 346.293 1193.78C343.147 1192.81 340.089 1191.57 337.155 1190.07V1190.07ZM339.816 1189.83C345.313 1192.28 353.086 1194.62 355.117 1193.08C355.397 1192.87 355.747 1192.52 355.467 1191.44C355.413 1191.12 355.283 1190.82 355.088 1190.57C354.892 1190.31 354.638 1190.1 354.347 1189.97C353.934 1189.71 353.486 1189.51 353.016 1189.37C348.627 1188.69 344.147 1188.84 339.816 1189.83V1189.83Z" fill="#407BFF"/>
<path d="M336.77 1189.9C336.702 1189.78 336.666 1189.65 336.666 1189.51C336.666 1189.38 336.702 1189.24 336.77 1189.13C336.77 1188.78 340.271 1180.72 345.208 1178.62C345.912 1178.33 346.668 1178.18 347.431 1178.18C348.195 1178.18 348.95 1178.33 349.655 1178.62C351.581 1179.43 351.896 1180.65 351.721 1181.49C351.301 1185.17 341.847 1189.55 337.715 1190.04C337.666 1190.06 337.612 1190.08 337.557 1190.08C337.503 1190.08 337.449 1190.06 337.4 1190.04C337.291 1190.07 337.177 1190.07 337.067 1190.05C336.956 1190.02 336.854 1189.97 336.77 1189.9V1189.9ZM348.639 1179.99C347.735 1179.66 346.742 1179.66 345.838 1179.99C342.721 1181.92 340.276 1184.77 338.835 1188.15C343.352 1187.06 349.795 1183.35 350.25 1181.14C350.25 1180.93 350.25 1180.37 349.06 1179.88H348.639V1179.99Z" fill="#407BFF"/>
<path d="M335.334 1184.79L301.79 1174.28C301.176 1174.09 300.516 1174.12 299.918 1174.35C299.32 1174.59 298.819 1175.02 298.499 1175.58L284.003 1201C283.689 1201.53 283.485 1202.12 283.402 1202.74C283.318 1203.35 283.358 1203.98 283.517 1204.58C283.677 1205.18 283.953 1205.74 284.331 1206.23C284.709 1206.72 285.18 1207.13 285.718 1207.44C286.004 1207.62 286.31 1207.76 286.629 1207.86C298.779 1211.36 309.738 1214.02 324.795 1218.71C342.582 1224.18 337.4 1224.91 358.198 1231.67C370.734 1235.73 377.456 1222.11 372.204 1219.77C348.709 1209.26 348.464 1201 341.742 1189.34C340.221 1187.1 337.947 1185.49 335.334 1184.79V1184.79Z" fill="#263238"/>
<path opacity="0.2" d="M309.913 1153.55L337.925 1167.7L348.464 1143.68L318.282 1128.76L309.913 1153.55Z" fill="#263238"/>
<path d="M436.701 650.745C436.701 650.745 399.06 679.492 407.114 769.549C407.884 777.882 410.615 786.601 410.615 796.125C410.615 802.462 408.864 806.909 406.799 821.16C403.787 841.889 398.255 919.201 392.408 929.25C386.56 939.299 384.179 937.513 367.897 965.245C350.39 995.077 327.631 1047.39 310.018 1136.05C321.778 1144.35 335.211 1149.97 349.375 1152.54C349.375 1152.54 445.56 1000.85 466.008 944.376C484.321 893.85 506.135 732.609 506.135 732.609L507.885 662.579L436.701 650.745Z" fill="#407BFF"/>
<path opacity="0.1" d="M477.878 769.549H450.637C450.637 769.549 441.673 855.264 471.295 926.764C474.377 915.279 477.493 901.519 480.539 886.637L492.339 811.146C490.658 798.401 489.363 788.667 489.153 788.036C488.557 786.041 477.878 769.549 477.878 769.549Z" fill="black"/>
<path d="M473.396 1149.56L473.571 1204.5L504.559 1202.43L509.321 1149.56H473.396Z" fill="#B97964"/>
<path d="M508.13 1201.49C507.976 1201.47 507.832 1201.4 507.718 1201.29C507.605 1201.19 507.529 1201.05 507.5 1200.89C507.464 1200.74 507.479 1200.58 507.542 1200.43C507.605 1200.29 507.713 1200.17 507.85 1200.09C508.341 1199.81 519.3 1193.08 524.727 1194.27C525.739 1194.5 526.627 1195.1 527.213 1195.96C527.575 1196.43 527.786 1197 527.817 1197.59C527.848 1198.19 527.699 1198.77 527.388 1199.28C524.695 1201.3 521.363 1202.28 518.005 1202.05C514.703 1202.16 511.398 1201.97 508.13 1201.49ZM510.582 1200.4C516.569 1200.93 524.587 1200.58 526.093 1198.44C526.303 1198.16 526.478 1197.71 525.883 1196.76C525.72 1196.49 525.497 1196.25 525.23 1196.08C524.963 1195.9 524.659 1195.79 524.342 1195.75C523.866 1195.67 523.382 1195.67 522.907 1195.75C518.534 1196.48 514.347 1198.06 510.582 1200.4V1200.4Z" fill="#407BFF"/>
<path d="M507.71 1201.49C507.593 1201.41 507.496 1201.31 507.429 1201.19C507.362 1201.06 507.326 1200.93 507.325 1200.79C507.325 1200.4 507.92 1191.68 511.877 1188.18C512.441 1187.66 513.104 1187.27 513.827 1187.01C514.549 1186.76 515.315 1186.66 516.079 1186.71C518.18 1186.71 518.88 1187.9 518.985 1188.78C519.79 1192.28 512.332 1199.6 508.481 1201.45C508.378 1201.49 508.268 1201.49 508.166 1201.45C508.023 1201.52 507.861 1201.53 507.71 1201.49V1201.49ZM515.624 1188.18C514.66 1188.2 513.738 1188.58 513.033 1189.23C510.723 1192.09 509.353 1195.58 509.111 1199.25C512.997 1196.76 517.865 1191.12 517.584 1188.95C517.584 1188.74 517.409 1188.18 516.044 1188.11H515.624V1188.18Z" fill="#407BFF"/>
<path d="M504.699 1197.11L469.685 1198.37C469.045 1198.4 468.435 1198.64 467.951 1199.06C467.468 1199.48 467.141 1200.05 467.023 1200.68L461.701 1229.46C461.465 1230.69 461.723 1231.95 462.419 1232.98C463.115 1234.01 464.192 1234.72 465.413 1234.96C465.75 1235 466.091 1235 466.428 1234.96C479.068 1234.26 490.273 1233.18 506.03 1232.65C524.622 1231.99 520.035 1234.37 541.849 1233.91C555.05 1233.6 556.906 1218.54 551.303 1218.01C525.638 1215.7 522.697 1208.07 512.507 1199.28C510.264 1197.62 507.481 1196.84 504.699 1197.11V1197.11Z" fill="#263238"/>
<path opacity="0.2" d="M473.501 1177.99L506.835 1177.29L509.321 1149.56H473.396L473.501 1177.99Z" fill="#263238"/>
<path d="M457.675 640.766C457.675 640.766 420.104 690.521 447.941 787.827L479.454 929.95C479.454 929.95 449.551 994.587 465.448 1165.11C480.856 1167.27 496.513 1166.92 511.807 1164.06C511.807 1164.06 546.822 983.978 552.109 923.158C557.956 856.14 554.455 654.141 554.455 654.141L457.675 640.766Z" fill="#407BFF"/>
<path d="M480.364 479.489C480.364 479.489 474.552 454.629 511.877 465.483C549.203 476.338 546.051 497.591 546.051 497.591L480.364 479.489Z" fill="#263238"/>
<path opacity="0.4" d="M480.364 479.489C480.364 479.489 474.552 454.629 511.877 465.483C549.203 476.338 546.051 497.591 546.051 497.591L480.364 479.489Z" fill="black"/>
<path d="M572.942 541.675C572.942 550.393 569.441 562.998 565.939 577.109C564.329 583.797 562.858 590.765 561.878 597.838C556.591 636.354 554.875 676.936 554.875 676.936C534.27 681.43 512.96 681.632 492.273 677.53C471.586 673.428 451.966 665.108 434.635 653.091C434.635 653.091 449.306 640.661 446.295 554.56C444.929 515.764 430.924 469.65 495.035 476.898C549.168 483.025 567.375 499.832 571.752 526.128C571.752 526.443 571.752 526.793 571.752 527.144L572.067 529.595C572.596 533.6 572.889 537.634 572.942 541.675Z" fill="#263238"/>
<path opacity="0.4" d="M572.942 541.674C572.942 550.393 569.441 562.998 565.939 577.109C551.303 559.602 536.632 526.513 536.632 526.513L548.712 508.726L570.001 518.635C570.737 521.094 571.321 523.597 571.752 526.128C571.752 526.443 571.752 526.793 571.752 527.143L572.067 529.594C572.596 533.6 572.889 537.634 572.942 541.674Z" fill="black"/>
<path d="M595.247 526.478C595.247 526.478 616.255 547.207 624.554 555.54L697.174 533.761C697.65 530.007 699.238 526.48 701.734 523.635C704.23 520.79 707.519 518.756 711.18 517.795L716.292 516.464L727.216 513.453C729.251 512.902 731.395 512.893 733.434 513.428C735.474 513.962 737.338 515.021 738.841 516.499V516.499C740.602 518.234 741.782 520.471 742.221 522.903C742.66 525.335 742.336 527.844 741.292 530.085V530.085C739.13 534.738 735.802 538.754 731.63 541.742C727.458 544.73 722.584 546.588 717.482 547.137L707.188 548.222C707.188 548.222 642.376 583.622 621.507 581.661C600.639 579.7 573.222 554.595 573.222 554.595L595.247 526.478Z" fill="#B97964"/>
<path d="M543.075 488.767C561.002 491.394 579.315 505.644 607.747 530.785C601.011 544.847 590.624 556.843 577.669 565.519C577.669 565.519 561.107 558.271 541.359 533.166C517.479 502.773 532.22 487.157 543.075 488.767Z" fill="#263238"/>
</svg>
